<svg width="1024" height="389" viewBox="0 0 1024 389" fill="none" xmlns="http://www.w3.org/2000/svg">
<g filter="url(#filter0_f)">
<circle cx="135.5" cy="59.5" r="76.5" fill="#6297FF"/>
</g>
<g filter="url(#filter1_f)">
<circle cx="197.5" cy="107.5" r="43.5" fill="#FFD7D1"/>
</g>
<g filter="url(#filter2_f)">
<path d="M939.726 176.268C997.581 118.918 1006.96 42.3878 1036.7 72.3936C1066.45 102.399 1043.66 173.215 985.804 230.564C927.95 287.913 941.703 279.722 911.959 249.716C882.215 219.71 881.872 233.617 939.726 176.268Z" fill="#FFD7D1"/>
</g>
<g filter="url(#filter3_f)">
<ellipse cx="842.622" cy="227.838" rx="65.5" ry="79" transform="rotate(50.3619 842.622 227.838)" fill="#FFFA7B"/>
</g>
<g filter="url(#filter4_f)">
<ellipse cx="917.243" cy="193.022" rx="44.8337" ry="54.0742" transform="rotate(50.3619 917.243 193.022)" fill="#6297FF"/>
</g>
<mask id="mask0" mask-type="alpha" maskUnits="userSpaceOnUse" x="78" y="84" width="146" height="146">
<circle cx="151" cy="157" r="73" fill="#C4C4C4"/>
</mask>
<g mask="url(#mask0)">
<circle cx="216" cy="113" r="2" fill="#6297FF" fill-opacity="0.3"/>
<circle cx="216" cy="185" r="2" fill="#6297FF" fill-opacity="0.3"/>
<circle cx="216" cy="149" r="2" fill="#6297FF" fill-opacity="0.3"/>
<circle cx="216" cy="221" r="2" fill="#6297FF" fill-opacity="0.3"/>
<circle cx="216" cy="131" r="2" fill="#6297FF" fill-opacity="0.3"/>
<circle cx="216" cy="203" r="2" fill="#6297FF" fill-opacity="0.3"/>
<circle cx="216" cy="167" r="2" fill="#6297FF" fill-opacity="0.3"/>
<circle cx="216" cy="95" r="2" fill="#6297FF" fill-opacity="0.3"/>
<circle cx="144" cy="113" r="2" fill="#6297FF" fill-opacity="0.3"/>
<circle cx="144" cy="185" r="2" fill="#6297FF" fill-opacity="0.3"/>
<circle cx="144" cy="149" r="2" fill="#6297FF" fill-opacity="0.3"/>
<circle cx="144" cy="221" r="2" fill="#6297FF" fill-opacity="0.3"/>
<circle cx="144" cy="131" r="2" fill="#6297FF" fill-opacity="0.3"/>
<circle cx="144" cy="203" r="2" fill="#6297FF" fill-opacity="0.3"/>
<circle cx="144" cy="167" r="2" fill="#6297FF" fill-opacity="0.3"/>
<circle cx="144" cy="95" r="2" fill="#6297FF" fill-opacity="0.3"/>
<circle cx="108" cy="113" r="2" fill="#6297FF" fill-opacity="0.3"/>
<circle cx="108" cy="185" r="2" fill="#6297FF" fill-opacity="0.3"/>
<circle cx="108" cy="149" r="2" fill="#6297FF" fill-opacity="0.3"/>
<circle cx="108" cy="221" r="2" fill="#6297FF" fill-opacity="0.3"/>
<circle cx="108" cy="131" r="2" fill="#6297FF" fill-opacity="0.3"/>
<circle cx="108" cy="203" r="2" fill="#6297FF" fill-opacity="0.3"/>
<circle cx="108" cy="167" r="2" fill="#6297FF" fill-opacity="0.3"/>
<circle cx="108" cy="95" r="2" fill="#6297FF" fill-opacity="0.3"/>
<circle cx="180" cy="113" r="2" fill="#6297FF" fill-opacity="0.3"/>
<circle cx="180" cy="185" r="2" fill="#6297FF" fill-opacity="0.3"/>
<circle cx="180" cy="149" r="2" fill="#6297FF" fill-opacity="0.3"/>
<circle cx="180" cy="221" r="2" fill="#6297FF" fill-opacity="0.3"/>
<circle cx="180" cy="131" r="2" fill="#6297FF" fill-opacity="0.3"/>
<circle cx="180" cy="203" r="2" fill="#6297FF" fill-opacity="0.3"/>
<circle cx="180" cy="167" r="2" fill="#6297FF" fill-opacity="0.3"/>
<circle cx="180" cy="95" r="2" fill="#6297FF" fill-opacity="0.3"/>
<circle cx="90.0001" cy="113" r="2" fill="#6297FF" fill-opacity="0.3"/>
<circle cx="90.0001" cy="185" r="2" fill="#6297FF" fill-opacity="0.3"/>
<circle cx="90.0001" cy="149" r="2" fill="#6297FF" fill-opacity="0.3"/>
<circle cx="90.0001" cy="221" r="2" fill="#6297FF" fill-opacity="0.3"/>
<circle cx="90.0001" cy="131" r="2" fill="#6297FF" fill-opacity="0.3"/>
<circle cx="90.0001" cy="203" r="2" fill="#6297FF" fill-opacity="0.3"/>
<circle cx="90.0001" cy="167" r="2" fill="#6297FF" fill-opacity="0.3"/>
<circle cx="90.0001" cy="95" r="2" fill="#6297FF" fill-opacity="0.3"/>
<circle cx="162" cy="113" r="2" fill="#6297FF" fill-opacity="0.3"/>
<circle cx="162" cy="185" r="2" fill="#6297FF" fill-opacity="0.3"/>
<circle cx="162" cy="149" r="2" fill="#6297FF" fill-opacity="0.3"/>
<circle cx="162" cy="221" r="2" fill="#6297FF" fill-opacity="0.3"/>
<circle cx="162" cy="131" r="2" fill="#6297FF" fill-opacity="0.3"/>
<circle cx="162" cy="203" r="2" fill="#6297FF" fill-opacity="0.3"/>
<circle cx="162" cy="167" r="2" fill="#6297FF" fill-opacity="0.3"/>
<circle cx="162" cy="95" r="2" fill="#6297FF" fill-opacity="0.3"/>
<circle cx="126" cy="113" r="2" fill="#6297FF" fill-opacity="0.3"/>
<circle cx="126" cy="185" r="2" fill="#6297FF" fill-opacity="0.3"/>
<circle cx="126" cy="149" r="2" fill="#6297FF" fill-opacity="0.3"/>
<circle cx="126" cy="221" r="2" fill="#6297FF" fill-opacity="0.3"/>
<circle cx="126" cy="131" r="2" fill="#6297FF" fill-opacity="0.3"/>
<circle cx="126" cy="203" r="2" fill="#6297FF" fill-opacity="0.3"/>
<circle cx="126" cy="167" r="2" fill="#6297FF" fill-opacity="0.3"/>
<circle cx="126" cy="95" r="2" fill="#6297FF" fill-opacity="0.3"/>
<circle cx="198" cy="113" r="2" fill="#6297FF" fill-opacity="0.3"/>
<circle cx="198" cy="185" r="2" fill="#6297FF" fill-opacity="0.3"/>
<circle cx="198" cy="149" r="2" fill="#6297FF" fill-opacity="0.3"/>
<circle cx="198" cy="221" r="2" fill="#6297FF" fill-opacity="0.3"/>
<circle cx="198" cy="131" r="2" fill="#6297FF" fill-opacity="0.3"/>
<circle cx="198" cy="203" r="2" fill="#6297FF" fill-opacity="0.3"/>
<circle cx="198" cy="167" r="2" fill="#6297FF" fill-opacity="0.3"/>
<circle cx="198" cy="95" r="2" fill="#6297FF" fill-opacity="0.3"/>
</g>
<circle cx="864" cy="27" r="2" transform="rotate(90 864 27)" fill="#FFFA7B"/>
<circle cx="720" cy="27" r="2" transform="rotate(90 720 27)" fill="#FFFA7B"/>
<circle cx="792" cy="27" r="2" transform="rotate(90 792 27)" fill="#FFFA7B"/>
<circle cx="648" cy="27" r="2" transform="rotate(90 648 27)" fill="#FFFA7B"/>
<circle cx="828" cy="27" r="2" transform="rotate(90 828 27)" fill="#FFFA7B"/>
<circle cx="684" cy="27" r="2" transform="rotate(90 684 27)" fill="#FFFA7B"/>
<circle cx="756" cy="27" r="2" transform="rotate(90 756 27)" fill="#FFFA7B"/>
<circle cx="612" cy="27" r="2" transform="rotate(90 612 27)" fill="#FFFA7B"/>
<circle cx="846" cy="27" r="2" transform="rotate(90 846 27)" fill="#FFFA7B"/>
<circle cx="702" cy="27" r="2" transform="rotate(90 702 27)" fill="#FFFA7B"/>
<circle cx="774" cy="27" r="2" transform="rotate(90 774 27)" fill="#FFFA7B"/>
<circle cx="630" cy="27" r="2" transform="rotate(90 630 27)" fill="#FFFA7B"/>
<circle cx="810" cy="27" r="2" transform="rotate(90 810 27)" fill="#FFFA7B"/>
<circle cx="666" cy="27" r="2" transform="rotate(90 666 27)" fill="#FFFA7B"/>
<circle cx="738" cy="27" r="2" transform="rotate(90 738 27)" fill="#FFFA7B"/>
<circle cx="594" cy="27" r="2" transform="rotate(90 594 27)" fill="#FFFA7B"/>
<circle cx="864" cy="63" r="2" transform="rotate(90 864 63)" fill="#FFFA7B"/>
<circle cx="720" cy="63" r="2" transform="rotate(90 720 63)" fill="#FFFA7B"/>
<circle cx="792" cy="63" r="2" transform="rotate(90 792 63)" fill="#FFFA7B"/>
<circle cx="648" cy="63" r="2" transform="rotate(90 648 63)" fill="#FFFA7B"/>
<circle cx="828" cy="63" r="2" transform="rotate(90 828 63)" fill="#FFFA7B"/>
<circle cx="684" cy="63" r="2" transform="rotate(90 684 63)" fill="#FFFA7B"/>
<circle cx="756" cy="63" r="2" transform="rotate(90 756 63)" fill="#FFFA7B"/>
<circle cx="612" cy="63" r="2" transform="rotate(90 612 63)" fill="#FFFA7B"/>
<circle cx="846" cy="63" r="2" transform="rotate(90 846 63)" fill="#FFFA7B"/>
<circle cx="702" cy="63" r="2" transform="rotate(90 702 63)" fill="#FFFA7B"/>
<circle cx="774" cy="63" r="2" transform="rotate(90 774 63)" fill="#FFFA7B"/>
<circle cx="630" cy="63" r="2" transform="rotate(90 630 63)" fill="#FFFA7B"/>
<circle cx="810" cy="63" r="2" transform="rotate(90 810 63)" fill="#FFFA7B"/>
<circle cx="666" cy="63" r="2" transform="rotate(90 666 63)" fill="#FFFA7B"/>
<circle cx="738" cy="63" r="2" transform="rotate(90 738 63)" fill="#FFFA7B"/>
<circle cx="594" cy="63" r="2" transform="rotate(90 594 63)" fill="#FFFA7B"/>
<circle cx="864" cy="45" r="2" transform="rotate(90 864 45)" fill="#FFFA7B"/>
<circle cx="720" cy="45" r="2" transform="rotate(90 720 45)" fill="#FFFA7B"/>
<circle cx="792" cy="45" r="2" transform="rotate(90 792 45)" fill="#FFFA7B"/>
<circle cx="648" cy="45" r="2" transform="rotate(90 648 45)" fill="#FFFA7B"/>
<circle cx="828" cy="45" r="2" transform="rotate(90 828 45)" fill="#FFFA7B"/>
<circle cx="684" cy="45" r="2" transform="rotate(90 684 45)" fill="#FFFA7B"/>
<circle cx="756" cy="45" r="2" transform="rotate(90 756 45)" fill="#FFFA7B"/>
<circle cx="612" cy="45" r="2" transform="rotate(90 612 45)" fill="#FFFA7B"/>
<circle cx="846" cy="45" r="2" transform="rotate(90 846 45)" fill="#FFFA7B"/>
<circle cx="702" cy="45" r="2" transform="rotate(90 702 45)" fill="#FFFA7B"/>
<circle cx="774" cy="45" r="2" transform="rotate(90 774 45)" fill="#FFFA7B"/>
<circle cx="630" cy="45" r="2" transform="rotate(90 630 45)" fill="#FFFA7B"/>
<circle cx="810" cy="45" r="2" transform="rotate(90 810 45)" fill="#FFFA7B"/>
<circle cx="666" cy="45" r="2" transform="rotate(90 666 45)" fill="#FFFA7B"/>
<circle cx="738" cy="45" r="2" transform="rotate(90 738 45)" fill="#FFFA7B"/>
<circle cx="594" cy="45" r="2" transform="rotate(90 594 45)" fill="#FFFA7B"/>
<circle cx="864" cy="9" r="2" transform="rotate(90 864 9)" fill="#FFFA7B"/>
<circle cx="720" cy="9" r="2" transform="rotate(90 720 9)" fill="#FFFA7B"/>
<circle cx="792" cy="9" r="2" transform="rotate(90 792 9)" fill="#FFFA7B"/>
<circle cx="648" cy="9" r="2" transform="rotate(90 648 9)" fill="#FFFA7B"/>
<circle cx="828" cy="9" r="2" transform="rotate(90 828 9)" fill="#FFFA7B"/>
<circle cx="684" cy="9" r="2" transform="rotate(90 684 9)" fill="#FFFA7B"/>
<circle cx="756" cy="9" r="2" transform="rotate(90 756 9)" fill="#FFFA7B"/>
<circle cx="612" cy="9" r="2" transform="rotate(90 612 9)" fill="#FFFA7B"/>
<circle cx="846" cy="9" r="2" transform="rotate(90 846 9)" fill="#FFFA7B"/>
<circle cx="702" cy="9" r="2" transform="rotate(90 702 9)" fill="#FFFA7B"/>
<circle cx="774" cy="9" r="2" transform="rotate(90 774 9)" fill="#FFFA7B"/>
<circle cx="630" cy="9" r="2" transform="rotate(90 630 9)" fill="#FFFA7B"/>
<circle cx="810" cy="9" r="2" transform="rotate(90 810 9)" fill="#FFFA7B"/>
<circle cx="666" cy="9" r="2" transform="rotate(90 666 9)" fill="#FFFA7B"/>
<circle cx="738" cy="9" r="2" transform="rotate(90 738 9)" fill="#FFFA7B"/>
<circle cx="594" cy="9" r="2" transform="rotate(90 594 9)" fill="#FFFA7B"/>
<circle cx="864" cy="81" r="2" transform="rotate(90 864 81)" fill="#FFFA7B"/>
<circle cx="720" cy="81" r="2" transform="rotate(90 720 81)" fill="#FFFA7B"/>
<circle cx="792" cy="81" r="2" transform="rotate(90 792 81)" fill="#FFFA7B"/>
<circle cx="648" cy="81" r="2" transform="rotate(90 648 81)" fill="#FFFA7B"/>
<circle cx="828" cy="81" r="2" transform="rotate(90 828 81)" fill="#FFFA7B"/>
<circle cx="684" cy="81" r="2" transform="rotate(90 684 81)" fill="#FFFA7B"/>
<circle cx="756" cy="81" r="2" transform="rotate(90 756 81)" fill="#FFFA7B"/>
<circle cx="612" cy="81" r="2" transform="rotate(90 612 81)" fill="#FFFA7B"/>
<circle cx="846" cy="81" r="2" transform="rotate(90 846 81)" fill="#FFFA7B"/>
<circle cx="702" cy="81" r="2" transform="rotate(90 702 81)" fill="#FFFA7B"/>
<circle cx="774" cy="81" r="2" transform="rotate(90 774 81)" fill="#FFFA7B"/>
<circle cx="630" cy="81" r="2" transform="rotate(90 630 81)" fill="#FFFA7B"/>
<circle cx="810" cy="81" r="2" transform="rotate(90 810 81)" fill="#FFFA7B"/>
<circle cx="666" cy="81" r="2" transform="rotate(90 666 81)" fill="#FFFA7B"/>
<circle cx="738" cy="81" r="2" transform="rotate(90 738 81)" fill="#FFFA7B"/>
<circle cx="594" cy="81" r="2" transform="rotate(90 594 81)" fill="#FFFA7B"/>
<defs>
<filter id="filter0_f" x="-1" y="-77" width="273" height="273" filterUnits="userSpaceOnUse" color-interpolation-filters="sRGB">
<feFlood flood-opacity="0" result="BackgroundImageFix"/>
<feBlend mode="normal" in="SourceGraphic" in2="BackgroundImageFix" result="shape"/>
<feGaussianBlur stdDeviation="30" result="effect1_foregroundBlur"/>
</filter>
<filter id="filter1_f" x="94" y="4" width="207" height="207" filterUnits="userSpaceOnUse" color-interpolation-filters="sRGB">
<feFlood flood-opacity="0" result="BackgroundImageFix"/>
<feBlend mode="normal" in="SourceGraphic" in2="BackgroundImageFix" result="shape"/>
<feGaussianBlur stdDeviation="30" result="effect1_foregroundBlur"/>
</filter>
<filter id="filter2_f" x="812" y="0.00012207" width="338.624" height="337.876" filterUnits="userSpaceOnUse" color-interpolation-filters="sRGB">
<feFlood flood-opacity="0" result="BackgroundImageFix"/>
<feBlend mode="normal" in="SourceGraphic" in2="BackgroundImageFix" result="shape"/>
<feGaussianBlur stdDeviation="30" result="effect1_foregroundBlur"/>
</filter>
<filter id="filter3_f" x="680" y="67" width="325.244" height="321.676" filterUnits="userSpaceOnUse" color-interpolation-filters="sRGB">
<feFlood flood-opacity="0" result="BackgroundImageFix"/>
<feBlend mode="normal" in="SourceGraphic" in2="BackgroundImageFix" result="shape"/>
<feGaussianBlur stdDeviation="30" result="effect1_foregroundBlur"/>
</filter>
<filter id="filter4_f" x="787" y="64" width="260.486" height="258.044" filterUnits="userSpaceOnUse" color-interpolation-filters="sRGB">
<feFlood flood-opacity="0" result="BackgroundImageFix"/>
<feBlend mode="normal" in="SourceGraphic" in2="BackgroundImageFix" result="shape"/>
<feGaussianBlur stdDeviation="30" result="effect1_foregroundBlur"/>
</filter>
</defs>
</svg>
