<svg width="554" height="900" viewBox="0 0 554 900" fill="none" xmlns="http://www.w3.org/2000/svg">
<path d="M499.703 759.882L510.359 749.342L521.034 759.891L510.368 770.44L543.152 802.773L553.827 792.215L477.585 716.999L466.919 727.549L499.703 759.882Z" fill="#F8FAFE"/>
<path d="M484.542 778.922L344 919.086L354.675 929.645L494.923 789.762L494.923 829.581L510.01 829.581L510.01 778.922L510.083 778.922L510.083 774.768L510 774.85L499.335 764.291L499.629 764L494.923 764L443.767 764L443.767 778.922L484.542 778.922Z" fill="#E5E9F0"/>
<path d="M197.883 145.702L187.343 156.358L197.892 167.033L208.441 156.367L240.774 189.151L230.216 199.826L155 123.584L165.549 112.918L197.883 145.702Z" fill="#F8FAFE"/>
<path d="M216.922 130.541L357.087 -10.001L367.645 0.673965L227.762 140.922L267.581 140.922L267.581 156.008L216.922 156.008L216.922 156.082L212.768 156.082L212.85 155.999L202.292 145.333L202 145.628L202 140.922L202 89.7662L216.922 89.7662L216.922 130.541Z" fill="#E5E9F0"/>
<path d="M452.215 475.541L10.5581 917.575L-1.99717e-05 906.9L441.374 465.161L401.556 465.161L401.556 450.074L452.215 450.074L452.215 450L456.369 450L456.287 450.083L466.845 460.749L467.136 460.454L467.136 465.161L467.136 516.316L452.215 516.316L452.215 475.541Z" fill="#F8FAFE"/>
<path d="M498.883 304.784L488.343 315.44L498.892 326.115L509.441 315.449L541.774 348.233L531.216 358.908L456 282.666L466.549 272L498.883 304.784Z" fill="#E5E9F0"/>
</svg>
