<svg width="14" height="14" viewBox="0 0 14 14" fill="none" xmlns="http://www.w3.org/2000/svg">
<path d="M4.25 3.25C4.25 1.73214 5.48214 0.5 7 0.5C8.51786 0.5 9.75 1.73214 9.75 3.25C9.75 4.76786 8.51786 6 7 6C5.48214 6 4.25 4.76786 4.25 3.25Z" stroke="#4D4D4D" stroke-linejoin="bevel"/>
<path d="M13.5 13.0002V13.5002L14 13.0002H13.5ZM0.5 13.0002H0L0.5 13.5002V13.0002ZM1 13.0002C1 10.3662 3.59706 8.0835 7 8.0835V7.0835C3.22324 7.0835 0 9.65099 0 13.0002H1ZM7 8.0835C10.4029 8.0835 13 10.3662 13 13.0002H14C14 9.65099 10.7768 7.0835 7 7.0835V8.0835ZM13.5 12.5002H0.5V13.5002H13.5V12.5002Z" fill="#4D4D4D"/>
</svg>
