<svg width="17" height="17" viewBox="0 0 17 17" fill="none" xmlns="http://www.w3.org/2000/svg">
<path fill-rule="evenodd" clip-rule="evenodd" d="M8.83301 16.8333C4.41473 16.8333 0.833008 13.2515 0.833008 8.83325C0.833008 4.41497 4.41473 0.833252 8.83301 0.833252C13.2513 0.833252 16.833 4.41497 16.833 8.83325C16.833 13.2515 13.2513 16.8333 8.83301 16.8333ZM8.83318 15.3787C12.4481 15.3787 15.3786 12.4482 15.3786 8.83325C15.3786 5.21829 12.4481 2.28779 8.83318 2.28779C5.21822 2.28779 2.28772 5.21829 2.28772 8.83325C2.28772 12.4482 5.21822 15.3787 8.83318 15.3787ZM10.2876 6.65161V8.10616H11.7421V6.65161H10.2876ZM12.4039 11.3414L11.2141 10.5046C10.672 11.2754 9.79218 11.7426 8.83255 11.7426C7.87291 11.7426 6.99306 11.2754 6.45098 10.5046L5.26123 11.3414C6.07288 12.4954 7.39433 13.1971 8.83255 13.1971C10.2708 13.1971 11.5922 12.4954 12.4039 11.3414ZM5.92383 8.10616V6.65161H7.37837V8.10616H5.92383Z" fill="#65656C"/>
</svg>
