<svg width="20" height="20" viewBox="0 0 20 20" fill="none" xmlns="http://www.w3.org/2000/svg">
<path d="M13.4099 5.1059L12.8228 4.63918L12.8228 4.63918L13.4099 5.1059ZM16.1633 4.85309L15.671 5.41891L16.1633 4.85309ZM8.53181 11.242L7.98966 11.7603C8.13938 11.9169 8.34953 12.0011 8.56599 11.9912C8.78245 11.9814 8.98406 11.8783 9.1189 11.7087L8.53181 11.242ZM6.33674 8.94566L5.79459 9.46389H5.79459L6.33674 8.94566ZM3.5728 8.94566L4.11495 9.46389H4.11495L3.5728 8.94566ZM3.5728 11.8371L3.03064 12.3554H3.03064L3.5728 11.8371ZM7.26541 15.7001L6.72326 16.2184L7.26541 15.7001ZM9.51451 16.0873L9.2054 15.404C9.19332 15.4095 9.18138 15.4152 9.1696 15.4213L9.51451 16.0873ZM10.2324 15.5244L9.64528 15.0577H9.64528L10.2324 15.5244ZM16.4276 7.73141L17.0147 8.19813V8.19813L16.4276 7.73141ZM13.9969 5.57262C14.4184 5.04243 15.16 4.97434 15.671 5.41891L16.6556 4.28726C15.4999 3.2818 13.776 3.44009 12.8228 4.63918L13.9969 5.57262ZM9.1189 11.7087L13.997 5.57262L12.8228 4.63918L7.94472 10.7753L9.1189 11.7087ZM5.79459 9.46389L7.98966 11.7603L9.07396 10.7238L6.87889 8.42742L5.79459 9.46389ZM4.11495 9.46389C4.58281 8.97445 5.32673 8.97445 5.79459 9.46389L6.87889 8.42742C5.82026 7.31994 4.08927 7.31994 3.03065 8.42742L4.11495 9.46389ZM4.11495 11.3189C3.62884 10.8104 3.62884 9.97244 4.11495 9.46389L3.03065 8.42742C1.99027 9.51579 1.99027 11.267 3.03064 12.3554L4.11495 11.3189ZM7.80756 15.1819L4.11495 11.3189L3.03064 12.3554L6.72326 16.2184L7.80756 15.1819ZM9.1696 15.4213C8.7312 15.6484 8.18333 15.575 7.80756 15.1819L6.72326 16.2184C7.56447 17.0984 8.83639 17.2831 9.85942 16.7533L9.1696 15.4213ZM9.64528 15.0577C9.51905 15.2165 9.36735 15.3307 9.2054 15.404L9.82362 16.7707C10.2019 16.5996 10.5444 16.3371 10.8195 15.9911L9.64528 15.0577ZM15.8405 7.26469L9.64528 15.0577L10.8195 15.9911L17.0147 8.19813L15.8405 7.26469ZM15.671 5.41891C16.2016 5.88053 16.2781 6.71417 15.8405 7.26469L17.0147 8.19813C17.9518 7.01937 17.7917 5.27567 16.6556 4.28726L15.671 5.41891Z" fill="black"/>
</svg>
