<svg width="20" height="20" viewBox="0 0 20 20" fill="none" xmlns="http://www.w3.org/2000/svg">
<rect x="2" y="10.5" width="1.5" height="7.5" rx="0.75" transform="rotate(-90 2 10.5)" fill="#19191A"/>
<path fill-rule="evenodd" clip-rule="evenodd" d="M15.574 3.95083C15.2591 3.69398 14.7998 3.67949 14.4671 3.93077C14.4409 3.95053 14.4135 3.96855 14.3849 3.98472C14.2592 4.05603 14.1466 4.14876 14.0524 4.25808C14.0247 4.29019 13.9944 4.31989 13.9617 4.34688L12.0265 5.94472C11.6439 6.2606 11.5898 6.82682 11.9057 7.20941C12.1329 7.48455 12.4904 7.59096 12.8178 7.50898C13.0419 7.45287 13.2793 7.50315 13.4615 7.64527C13.6436 7.7874 13.75 8.00551 13.75 8.23651L13.75 14.5733C13.75 15.2637 14.3096 15.8233 15 15.8233C15.6904 15.8233 16.25 15.2637 16.25 14.5733L16.25 5.07333C16.25 4.62401 16.0134 4.2293 15.6545 4.00803C15.6264 3.99075 15.5996 3.97164 15.574 3.95083ZM16.4828 2.75706C15.6546 2.11015 14.4781 2.07109 13.6031 2.70417C13.3633 2.84582 13.1471 3.02265 12.9615 3.22751L11.0714 4.78803C10.05 5.63136 9.90567 7.14302 10.749 8.16443C11.1432 8.64188 11.6831 8.92721 12.25 9.01025L12.25 14.5733C12.25 16.0921 13.4812 17.3233 15 17.3233C16.5188 17.3233 17.75 16.0921 17.75 14.5733L17.75 5.07333C17.75 4.09959 17.2434 3.24477 16.4828 2.75706Z" fill="#19191A"/>
</svg>
