<svg width="20" height="20" viewBox="0 0 20 20" fill="none" xmlns="http://www.w3.org/2000/svg">
<path fill-rule="evenodd" clip-rule="evenodd" d="M4.16699 4.16665L15.9521 15.9518L16.5414 15.3625L12.2567 11.0778C12.4128 10.7515 12.5003 10.386 12.5003 10C12.5003 8.61931 11.381 7.50002 10.0003 7.50002C9.61435 7.50002 9.24884 7.58747 8.92249 7.74364L4.75625 3.57739L4.16699 4.16665Z" fill="black" fill-opacity="0.5"/>
<path fill-rule="evenodd" clip-rule="evenodd" d="M14.6682 13.4832C15.025 13.2265 15.3444 12.9558 15.6269 12.6868C16.2251 12.117 16.6656 11.5486 16.9576 11.1212C17.1041 10.9069 17.2144 10.7263 17.2896 10.5964C17.3272 10.5313 17.3561 10.4788 17.3765 10.4409C17.3867 10.4219 17.3947 10.4065 17.4006 10.3951L17.4079 10.3809L17.4104 10.376L17.4113 10.3742L17.4121 10.3727L17.3813 9.57125L17.3796 9.56843L17.377 9.56409L17.3689 9.55092C17.3623 9.54018 17.3532 9.52557 17.3416 9.50733C17.3186 9.47087 17.2856 9.41988 17.243 9.35644C17.1579 9.22964 17.0338 9.05256 16.8723 8.84193C16.5503 8.4219 16.0745 7.8619 15.4565 7.30005C14.2302 6.18529 12.3718 5 10.0001 5C8.79156 5 7.73928 5.25988 6.83897 5.65399L7.47764 6.29267C8.21436 6.01088 9.05395 5.83333 10.0001 5.83333C14.1667 5.83333 16.6667 10 16.6667 10C16.6667 10 15.8363 11.6609 14.0705 12.8855L14.6682 13.4832ZM5.58707 7.36607L4.99368 6.77268C4.77005 6.95045 4.5633 7.13223 4.37326 7.31322C3.77499 7.883 3.33452 8.45144 3.04249 8.8788C2.89606 9.09309 2.78575 9.27366 2.71055 9.40364C2.67292 9.46868 2.64399 9.52121 2.62363 9.55915C2.61345 9.57812 2.6054 9.59346 2.59948 9.6049L2.59217 9.61912L2.58971 9.62399L2.58877 9.62585L2.58838 9.62663V10.3734L2.58877 10.3742L2.58971 10.376L2.59217 10.3809L2.59948 10.3951C2.6054 10.4065 2.61345 10.4219 2.62363 10.4409C2.64399 10.4788 2.67292 10.5313 2.71055 10.5964C2.78575 10.7263 2.89606 10.9069 3.04249 11.1212C3.33452 11.5486 3.77499 12.117 4.37326 12.6868C5.5712 13.8277 7.43331 15 10.0001 15C11.0239 15 11.9356 14.8135 12.7378 14.5168L12.0805 13.8595C11.4548 14.0515 10.762 14.1667 10.0001 14.1667C5.41672 14.1667 3.33339 10 3.33339 10C3.33339 10 4.05623 8.55432 5.58707 7.36607ZM2.58838 9.62663C2.58838 9.62663 2.58803 9.62732 3.33339 10L2.58838 9.62663ZM3.33339 10C2.58803 10.3727 2.58838 10.3734 2.58838 10.3734L3.33339 10Z" fill="black" fill-opacity="0.5"/>
</svg>
