<svg width="16" height="16" viewBox="0 0 16 16" fill="none" xmlns="http://www.w3.org/2000/svg">
<rect y="8.5" width="1.5" height="7.5" rx="0.75" transform="rotate(-90 0 8.5)" fill="#19191A"/>
<rect x="3" y="4" width="1.5" height="7.5" rx="0.75" fill="#19191A"/>
<path fill-rule="evenodd" clip-rule="evenodd" d="M13.574 1.95083C13.2591 1.69398 12.7998 1.67949 12.4671 1.93077C12.4409 1.95053 12.4135 1.96855 12.3849 1.98472C12.2592 2.05603 12.1466 2.14876 12.0524 2.25808C12.0247 2.29019 11.9944 2.31989 11.9617 2.34688L10.0265 3.94472C9.64388 4.2606 9.5898 4.82682 9.90568 5.20941C10.1329 5.48455 10.4904 5.59096 10.8178 5.50898C11.0419 5.45287 11.2793 5.50315 11.4615 5.64527C11.6436 5.7874 11.75 6.00551 11.75 6.23651L11.75 12.5733C11.75 13.2637 12.3096 13.8233 13 13.8233C13.6904 13.8233 14.25 13.2637 14.25 12.5733L14.25 3.07333C14.25 2.62401 14.0134 2.2293 13.6545 2.00803C13.6264 1.99075 13.5996 1.97164 13.574 1.95083ZM14.4828 0.757065C13.6546 0.110149 12.4781 0.0710889 11.6031 0.704173C11.3633 0.845816 11.1471 1.02265 10.9615 1.22751L9.07144 2.78803C8.05003 3.63136 7.90567 5.14302 8.74899 6.16443C9.1432 6.64188 9.68306 6.92721 10.25 7.01025L10.25 12.5733C10.25 14.0921 11.4812 15.3233 13 15.3233C14.5188 15.3233 15.75 14.0921 15.75 12.5733L15.75 3.07333C15.75 2.09959 15.2434 1.24477 14.4828 0.757065Z" fill="#19191A"/>
</svg>
