<svg width="30" height="30" viewBox="0 0 30 30" fill="none" xmlns="http://www.w3.org/2000/svg">
<path fill-rule="evenodd" clip-rule="evenodd" d="M7 1H5V3V13H0V25H5V28V30H7H26H28V28V13H26V28L7 28V25H23V13H7V3L20 3V9H22H28.5V7L23 1H22H20.5H20H7ZM22 3H22.3333L26 7L22 7V3Z" fill="#EE6400"/>
<path d="M9.02 18.64C9.24 17.87 9.46 17.03 9.65 16.22H9.7C9.91 17.02 10.11 17.87 10.34 18.64L10.56 19.45H8.8L9.02 18.64ZM6.46 22.5H7.96L8.48 20.6H10.88L11.4 22.5H12.95L10.57 15.09H8.83L6.46 22.5ZM13.8163 22.5H15.2963V15.09H13.8163V22.5Z" fill="white"/>
</svg>