<svg width="30" height="30" viewBox="0 0 30 30" fill="none" xmlns="http://www.w3.org/2000/svg">
    <path fill-rule="evenodd" clip-rule="evenodd" d="M7 1H5V3V13H0V25H5V28V30H7H26H28V28V13H26V28L7 28V25H23V13H7V3L20 3V9H22H28.5V7L23 1H22H20.5H20H7ZM22 3H22.3333L26 7L22 7V3Z" fill="#4B4B4B"/>
    <path d="M3.728 22H4.912V19.6H7.016V18.608H4.912V17.064H7.376V16.08H3.728V22ZM8.40769 22H9.59169V16.08H8.40769V22ZM11.0483 22H14.6323V21.008H12.2323V16.08H11.0483V22ZM15.6655 22H19.3855V21.008H16.8495V19.424H18.9295V18.432H16.8495V17.064H19.2975V16.08H15.6655V22Z" fill="white"/>
</svg>
