<svg width="30" height="30" viewBox="0 0 30 30" fill="none" xmlns="http://www.w3.org/2000/svg">
    <path fill-rule="evenodd" clip-rule="evenodd" d="M5 3V13H0V25H5V28V30H7H26H28V28V13H26V28L7 28V25H23V13H7V3L20 3V9H22H28.5V7L23 1H22H20.5H20H7H5V3ZM26 7L22.3333 3H22V7L26 7Z" fill="#0B5EC0"/>
    <path d="M1.91 22.5H4.02C6.2 22.5 7.6 21.26 7.6 18.77C7.6 16.27 6.2 15.09 3.94 15.09H1.91V22.5ZM3.39 21.31V16.28H3.85C5.23 16.28 6.09 16.96 6.09 18.77C6.09 20.57 5.23 21.31 3.85 21.31H3.39ZM11.4887 22.64C13.4487 22.64 14.7987 21.17 14.7987 18.77C14.7987 16.37 13.4487 14.96 11.4887 14.96C9.52867 14.96 8.17867 16.36 8.17867 18.77C8.17867 21.17 9.52867 22.64 11.4887 22.64ZM11.4887 21.36C10.3887 21.36 9.68867 20.35 9.68867 18.77C9.68867 17.18 10.3887 16.23 11.4887 16.23C12.5887 16.23 13.2887 17.18 13.2887 18.77C13.2887 20.35 12.5887 21.36 11.4887 21.36ZM18.764 22.64C19.724 22.64 20.514 22.26 21.124 21.55L20.344 20.63C19.944 21.06 19.454 21.36 18.814 21.36C17.644 21.36 16.884 20.39 16.884 18.78C16.884 17.19 17.724 16.23 18.844 16.23C19.404 16.23 19.834 16.49 20.214 16.85L20.984 15.91C20.504 15.41 19.754 14.96 18.814 14.96C16.944 14.96 15.374 16.39 15.374 18.83C15.374 21.3 16.894 22.64 18.764 22.64Z" fill="white"/>
</svg>