<svg width="30" height="30" viewBox="0 0 30 30" fill="none" xmlns="http://www.w3.org/2000/svg">
<path fill-rule="evenodd" clip-rule="evenodd" d="M7 1H5V3V13H0V25H5V28V30H7H26H28V28V13H26V28L7 28V25H23V13H7V3L20 3V9H22H28.5V7L23 1H22H20.5H20H7ZM22 3H22.3333L26 7L22 7V3Z" fill="#06A8A8"/>
<path d="M1.228 22H2.412V19.44H4.652V22H5.828V16.072H4.652V18.408H2.412V16.072H1.228V22ZM8.05869 22H9.24269V17.064H10.9227V16.072H6.39469V17.064H8.05869V22ZM11.4827 22H12.5467V19.528C12.5467 18.968 12.4507 18.144 12.3947 17.584H12.4267L12.8987 18.976L13.8187 21.464H14.4987L15.4107 18.976L15.8907 17.584H15.9307C15.8667 18.144 15.7787 18.968 15.7787 19.528V22H16.8587V16.072H15.5467L14.5627 18.848C14.4347 19.216 14.3307 19.608 14.2027 19.984H14.1627C14.0427 19.608 13.9307 19.216 13.8027 18.848L12.7947 16.072H11.4827V22ZM17.9108 22H21.5028V21.008H19.0948V16.072H17.9108V22Z" fill="white"/>
</svg>
