<svg width="30" height="30" viewBox="0 0 30 30" fill="none" xmlns="http://www.w3.org/2000/svg">
<path fill-rule="evenodd" clip-rule="evenodd" d="M7 1H5V3V13H0V25H5V28V30H7H26H28V28V13H26V28L7 28V25H23V13H7V3L20 3V9H22H28.5V7L23 1H22H20.5H20H7ZM22 3H22.3333L26 7L22 7V3Z" fill="#E52020"/>
<path d="M4.02 22.64C5.61 22.64 6.31 21.5 6.31 20.11V15.09H4.83V19.99C4.83 21.01 4.49 21.36 3.84 21.36C3.42 21.36 3.03 21.13 2.74 20.59L1.73 21.34C2.22 22.2 2.94 22.64 4.02 22.64ZM8.09359 22.5H9.57359V19.87H10.5636C12.1536 19.87 13.4236 19.11 13.4236 17.42C13.4236 15.67 12.1636 15.09 10.5236 15.09H8.09359V22.5ZM9.57359 18.7V16.27H10.4136C11.4336 16.27 11.9736 16.56 11.9736 17.42C11.9736 18.27 11.4836 18.7 10.4636 18.7H9.57359ZM17.9435 22.64C18.9735 22.64 19.8435 22.24 20.3435 21.75V18.41H17.7135V19.62H19.0235V21.08C18.8135 21.26 18.4535 21.36 18.1035 21.36C16.6435 21.36 15.9035 20.39 15.9035 18.78C15.9035 17.19 16.7635 16.23 17.9935 16.23C18.6635 16.23 19.0835 16.5 19.4535 16.85L20.2335 15.91C19.7535 15.42 19.0135 14.96 17.9435 14.96C15.9735 14.96 14.3935 16.39 14.3935 18.83C14.3935 21.3 15.9335 22.64 17.9435 22.64Z" fill="white"/>
</svg>
