<svg width="30" height="30" viewBox="0 0 30 30" fill="none" xmlns="http://www.w3.org/2000/svg">
    <path fill-rule="evenodd" clip-rule="evenodd" d="M7 1H5V3V13H0V25H5V28V30H7H26H28V28V13H26V28L7 28V25H23V13H7V3L19.5 3V9H21.5H28V7L22.5 1H21.5H21H20H19.5H7ZM25.5 7L21.5 2.63636V7L25.5 7Z" fill="#E52020"/>
    <path d="M2.91 22.5H4.39V19.87H5.38C6.97 19.87 8.24 19.11 8.24 17.42C8.24 15.67 6.98 15.1 5.34 15.1H2.91V22.5ZM4.39 18.7V16.27H5.23C6.25 16.27 6.79 16.56 6.79 17.42C6.79 18.27 6.3 18.7 5.28 18.7H4.39ZM9.07992 22.5H11.1899C13.3699 22.5 14.7699 21.26 14.7699 18.77C14.7699 16.27 13.3699 15.1 11.1099 15.1H9.07992V22.5ZM10.5599 21.31V16.28H11.0199C12.3999 16.28 13.2599 16.96 13.2599 18.77C13.2599 20.57 12.3999 21.31 11.0199 21.31H10.5599ZM15.7186 22.5H17.1986V19.5H19.8286V18.26H17.1986V16.33H20.2786V15.1H15.7186V22.5Z" fill="white"/>
</svg>
