<svg width="30" height="30" viewBox="0 0 30 30" fill="none" xmlns="http://www.w3.org/2000/svg">
<path fill-rule="evenodd" clip-rule="evenodd" d="M7 1H5V3V13H0V25H5V28V30H7H26H28V28V13H26V28L7 28V25H23V13H7V3L20 3V9H22H28.5V7L23 1H22H20.5H20H7ZM22 3H22.3333L26 7L22 7V3Z" fill="#E52020"/>
<path d="M2.16 22.5H3.64V19.87H4.63C6.22 19.87 7.49 19.11 7.49 17.42C7.49 15.67 6.23 15.09 4.59 15.09H2.16V22.5ZM3.64 18.7V16.27H4.48C5.5 16.27 6.04 16.56 6.04 17.42C6.04 18.27 5.55 18.7 4.53 18.7H3.64ZM8.32992 22.5H9.72992V19.53C9.72992 18.68 9.61992 17.75 9.54992 16.95H9.59992L10.3499 18.54L12.4899 22.5H13.9899V15.09H12.5899V18.05C12.5899 18.89 12.7099 19.87 12.7799 20.64H12.7299L11.9899 19.04L9.83992 15.09H8.32992V22.5ZM18.5002 22.64C19.5302 22.64 20.4002 22.24 20.9002 21.75V18.41H18.2702V19.62H19.5802V21.08C19.3702 21.26 19.0102 21.36 18.6602 21.36C17.2002 21.36 16.4602 20.39 16.4602 18.78C16.4602 17.19 17.3202 16.23 18.5502 16.23C19.2202 16.23 19.6402 16.5 20.0102 16.85L20.7902 15.91C20.3102 15.42 19.5702 14.96 18.5002 14.96C16.5302 14.96 14.9502 16.39 14.9502 18.83C14.9502 21.3 16.4902 22.64 18.5002 22.64Z" fill="white"/>
</svg>