<svg width="30" height="30" viewBox="0 0 30 30" fill="none" xmlns="http://www.w3.org/2000/svg">
<path fill-rule="evenodd" clip-rule="evenodd" d="M7 1H5V3V13H0V25H5V28V30H7H26H28V28V13H26V28L7 28V25H23V13H7V3L20 3V9H22H28.5V7L23 1H22H20.5H20H7ZM22 3H22.3333L26 7L22 7V3Z" fill="#E52020"/>
<path d="M2.91 22.5H4.39V19.87H5.38C6.97 19.87 8.24 19.11 8.24 17.42C8.24 15.67 6.98 15.09 5.34 15.09H2.91V22.5ZM4.39 18.7V16.27H5.23C6.25 16.27 6.79 16.56 6.79 17.42C6.79 18.27 6.3 18.7 5.28 18.7H4.39ZM9.57992 22.5H11.0599V19.87H12.0499C13.6399 19.87 14.9099 19.11 14.9099 17.42C14.9099 15.67 13.6499 15.09 12.0099 15.09H9.57992V22.5ZM11.0599 18.7V16.27H11.8999C12.9199 16.27 13.4599 16.56 13.4599 17.42C13.4599 18.27 12.9699 18.7 11.9499 18.7H11.0599ZM17.5343 22.5H19.0143V16.33H21.1143V15.09H15.4543V16.33H17.5343V22.5Z" fill="white"/>
</svg>
