<svg width="30" height="30" viewBox="0 0 30 30" fill="none" xmlns="http://www.w3.org/2000/svg">
<path fill-rule="evenodd" clip-rule="evenodd" d="M7 1H5V3V13H0V25H5V28V30H7H26H28V28V13H26V28L7 28V25H23V13H7V3L20 3V9H22H28.5V7L23 1H22H20.5H20H7ZM22 3H22.3333L26 7L22 7V3Z" fill="#0B5EC0"/>
<path d="M2.41 22.5H3.89V19.87H4.88C6.47 19.87 7.74 19.11 7.74 17.42C7.74 15.67 6.48 15.09 4.84 15.09H2.41V22.5ZM3.89 18.7V16.27H4.73C5.75 16.27 6.29 16.56 6.29 17.42C6.29 18.27 5.8 18.7 4.78 18.7H3.89ZM11.1727 22.64C12.8827 22.64 13.8927 21.61 13.8927 20.4C13.8927 19.33 13.3027 18.76 12.4027 18.39L11.4327 17.98C10.8027 17.73 10.2827 17.54 10.2827 17.01C10.2827 16.52 10.6927 16.23 11.3427 16.23C11.9527 16.23 12.4427 16.45 12.9127 16.84L13.6627 15.91C13.0627 15.3 12.2027 14.96 11.3427 14.96C9.84273 14.96 8.78273 15.89 8.78273 17.1C8.78273 18.18 9.53273 18.78 10.2827 19.09L11.2727 19.51C11.9327 19.79 12.3827 19.96 12.3827 20.51C12.3827 21.03 11.9727 21.36 11.2027 21.36C10.5527 21.36 9.85273 21.03 9.32273 20.54L8.47273 21.56C9.19273 22.25 10.1827 22.64 11.1727 22.64ZM15.203 22.5H17.313C19.493 22.5 20.893 21.26 20.893 18.77C20.893 16.27 19.493 15.09 17.233 15.09H15.203V22.5ZM16.683 21.31V16.28H17.143C18.523 16.28 19.383 16.96 19.383 18.77C19.383 20.57 18.523 21.31 17.143 21.31H16.683Z" fill="white"/>
</svg>