<svg width="30" height="30" viewBox="0 0 30 30" fill="none" xmlns="http://www.w3.org/2000/svg">
    <path fill-rule="evenodd" clip-rule="evenodd" d="M7 1H5V3V13H0V25H5V28V30H7H26H28V28V13H26V28L7 28V25H23V13H7V3L20 3V9H22H28.5V7L23 1H22H20.5H20H7ZM22 3H22.3333L26 7L22 7V3Z" fill="#EE6400"/>
    <path d="M4.62 22.64C6.33 22.64 7.34 21.61 7.34 20.4C7.34 19.33 6.75 18.76 5.85 18.39L4.88 17.98C4.25 17.73 3.73 17.54 3.73 17.01C3.73 16.52 4.14 16.23 4.79 16.23C5.4 16.23 5.89 16.45 6.36 16.84L7.11 15.91C6.51 15.3 5.65 14.96 4.79 14.96C3.29 14.96 2.23 15.89 2.23 17.1C2.23 18.18 2.98 18.78 3.73 19.09L4.72 19.51C5.38 19.79 5.83 19.96 5.83 20.51C5.83 21.03 5.42 21.36 4.65 21.36C4 21.36 3.3 21.03 2.77 20.54L1.92 21.56C2.64 22.25 3.63 22.64 4.62 22.64ZM9.95023 22.5H11.7202L13.9802 15.09H12.4802L11.5202 18.7C11.2902 19.52 11.1302 20.26 10.8902 21.09H10.8402C10.6102 20.26 10.4502 19.52 10.2202 18.7L9.24023 15.09H7.69023L9.95023 22.5ZM17.8947 22.64C18.9247 22.64 19.7947 22.24 20.2947 21.75V18.41H17.6647V19.62H18.9747V21.08C18.7647 21.26 18.4047 21.36 18.0547 21.36C16.5947 21.36 15.8547 20.39 15.8547 18.78C15.8547 17.19 16.7147 16.23 17.9447 16.23C18.6147 16.23 19.0347 16.5 19.4047 16.85L20.1847 15.91C19.7047 15.42 18.9647 14.96 17.8947 14.96C15.9247 14.96 14.3447 16.39 14.3447 18.83C14.3447 21.3 15.8847 22.64 17.8947 22.64Z" fill="white"/>
</svg>