<svg width="30" height="30" viewBox="0 0 30 30" fill="none" xmlns="http://www.w3.org/2000/svg">
<path fill-rule="evenodd" clip-rule="evenodd" d="M7 1H5V3V13H0V25H5V28V30H7H26H28V28V13H26V28L7 28V25H23V13H7V3L20 3V9H22H28.5V7L23 1H22H20.5H20H7ZM22 3H22.3333L26 7L22 7V3Z" fill="#E52020"/>
<path d="M3.88 22.5H5.36V16.33H7.46V15.09H1.8V16.33H3.88V22.5ZM8.16 22.5H9.64V15.09H8.16V22.5ZM10.9608 22.5H12.4408V19.5H15.0708V18.26H12.4408V16.33H15.5208V15.09H10.9608V22.5ZM16.3104 22.5H17.7904V19.5H20.4204V18.26H17.7904V16.33H20.8704V15.09H16.3104V22.5Z" fill="white"/>
</svg>