<svg width="30" height="30" viewBox="0 0 30 30" fill="none" xmlns="http://www.w3.org/2000/svg">
<path fill-rule="evenodd" clip-rule="evenodd" d="M7 1H5V3V13H0V25H5V28V30H7H26H28V28V13H26V28L7 28V25H23V13H7V3L20 3V9H22H28.5V7L23 1H22H20.5H20H7ZM22 3H22.3333L26 7L22 7V3Z" fill="#4B4B4B"/>
<path d="M4.38 22.5H5.86V16.33H7.96V15.09H2.3V16.33H4.38V22.5ZM8.15563 22.5H9.72563L10.5156 20.86C10.6956 20.48 10.8756 20.09 11.0556 19.64H11.0956C11.3156 20.09 11.4856 20.48 11.6756 20.86L12.5056 22.5H14.1456L12.0656 18.75L14.0156 15.09H12.4556L11.7556 16.62C11.5956 16.97 11.4456 17.33 11.2656 17.79H11.2156C10.9956 17.33 10.8456 16.97 10.6656 16.62L9.92563 15.09H8.28563L10.2356 18.68L8.15563 22.5ZM16.4308 22.5H17.9108V16.33H20.0108V15.09H14.3508V16.33H16.4308V22.5Z" fill="white"/>
</svg>
