<svg width="30" height="30" viewBox="0 0 30 30" fill="none" xmlns="http://www.w3.org/2000/svg">
<path fill-rule="evenodd" clip-rule="evenodd" d="M7 1H5V3V13H0V25H5V28V30H7H26H28V28V13H26V28L7 28V25H23V13H7V3L20 3V9H22H28.5V7L23 1H22H20.5H20H7ZM22 3H22.3333L26 7L22 7V3Z" fill="#2D814A"/>
<path d="M2.14 22.5H3.71L4.5 20.86C4.68 20.48 4.86 20.09 5.04 19.64H5.08C5.3 20.09 5.47 20.48 5.66 20.86L6.49 22.5H8.13L6.05 18.75L8 15.09H6.44L5.74 16.62C5.58 16.97 5.43 17.33 5.25 17.79H5.2C4.98 17.33 4.83 16.97 4.65 16.62L3.91 15.09H2.27L4.22 18.68L2.14 22.5ZM9.17953 22.5H13.6695V21.26H10.6595V15.09H9.17953V22.5ZM16.868 22.64C18.578 22.64 19.588 21.61 19.588 20.4C19.588 19.33 18.998 18.76 18.098 18.39L17.128 17.98C16.498 17.73 15.978 17.54 15.978 17.01C15.978 16.52 16.388 16.23 17.038 16.23C17.648 16.23 18.138 16.45 18.608 16.84L19.358 15.91C18.758 15.3 17.898 14.96 17.038 14.96C15.538 14.96 14.478 15.89 14.478 17.1C14.478 18.18 15.228 18.78 15.978 19.09L16.968 19.51C17.628 19.79 18.078 19.96 18.078 20.51C18.078 21.03 17.668 21.36 16.898 21.36C16.248 21.36 15.548 21.03 15.018 20.54L14.168 21.56C14.888 22.25 15.878 22.64 16.868 22.64Z" fill="white"/>
</svg>
