<svg width="24" height="24" viewBox="0 0 24 24" fill="current" xmlns="http://www.w3.org/2000/svg">
<path fill-rule="evenodd" clip-rule="evenodd" d="M4.70711 4.7072C4.31658 5.09772 4.31658 5.73088 4.70711 6.12141L10.5859 12.0002L4.92898 17.657C4.53846 18.0476 4.53846 18.6807 4.92898 19.0713C5.31951 19.4618 5.95267 19.4618 6.3432 19.0713L12.0001 13.4144L17.435 18.8493C17.8256 19.2399 18.4587 19.2399 18.8492 18.8493C19.2398 18.4588 19.2398 17.8257 18.8492 17.4351L13.4143 12.0002L19.0711 6.34334C19.4616 5.95281 19.4616 5.31965 19.0711 4.92913C18.6806 4.5386 18.0474 4.5386 17.6569 4.92913L12.0001 10.586L6.12131 4.7072C5.73079 4.31668 5.09763 4.31668 4.70711 4.7072Z" fill="current"/>
</svg>
