<svg width="13" height="13" viewBox="0 0 13 13" fill="none" xmlns="http://www.w3.org/2000/svg">
<path d="M3.27815 9.85345L2.91979 10.2021H2.91979L3.27815 9.85345ZM2.71504 1.28759L3.03259 1.6738H3.03259L2.71504 1.28759ZM4.17499 6.2755L3.82895 6.6364L4.55077 7.32849L4.89681 6.96758L4.17499 6.2755ZM10.3698 1.25941L10.7159 0.898502L9.99405 0.206419L9.64801 0.567329L10.3698 1.25941ZM6.90983 1.37765L7.3741 1.56325L7.74531 0.634698L7.28103 0.449095L6.90983 1.37765ZM9.35744 3.05646C10.4401 4.16923 11.1305 5.44394 11.3871 6.5867C11.6458 7.73911 11.4522 8.67512 10.9025 9.24011L11.6192 9.93747C12.4916 9.04082 12.6632 7.70564 12.3628 6.36762C12.0602 5.01994 11.2669 3.58497 10.0742 2.3591L9.35744 3.05646ZM10.9025 9.24011C10.3572 9.80055 9.45925 9.99684 8.34863 9.73343C7.24438 9.47153 6.00707 8.76528 4.92404 7.65219L4.20732 8.34955C5.39975 9.57508 6.79893 10.3936 8.11786 10.7064C9.4304 11.0177 10.7423 10.8387 11.6192 9.93747L10.9025 9.24011ZM3.63651 9.50476C2.34909 8.18161 1.62959 6.6736 1.516 5.28237C1.40357 3.90543 1.87965 2.62177 3.03259 1.6738L2.39749 0.901375C0.975379 2.07065 0.381952 3.68136 0.519315 5.36375C0.655513 7.03186 1.50509 8.74816 2.91979 10.2021L3.63651 9.50476ZM8.50091 12.0053C6.80301 11.756 4.98377 10.8894 3.63651 9.50476L2.91979 10.2021C4.42591 11.7501 6.44846 12.7147 8.35565 12.9947L8.50091 12.0053ZM4.89681 6.96758L10.3698 1.25941L9.64801 0.567329L4.17499 6.2755L4.89681 6.96758ZM3.03259 1.6738C3.95613 0.914457 5.38891 0.769627 6.90983 1.37765L7.28103 0.449095C5.53125 -0.250417 3.6838 -0.156251 2.39749 0.901375L3.03259 1.6738Z" fill="white"/>
</svg>
