<svg width="24" height="24" viewBox="0 0 24 24" fill="none" xmlns="http://www.w3.org/2000/svg">
<path d="M7.44568 6.22144L7.75803 6.61188L7.44568 6.22144ZM15.0562 8.14697C16.2948 9.38558 17.0849 10.8046 17.3787 12.078C17.6745 13.3595 17.4568 14.4132 16.8138 15.0562L17.5209 15.7633C18.4957 14.7885 18.6935 13.3283 18.3531 11.8532C18.0109 10.37 17.1132 8.7898 15.7633 7.43986L15.0562 8.14697ZM16.8138 15.0562C16.1708 15.6993 15.1171 15.9169 13.8356 15.6212C12.5622 15.3273 11.1431 14.5372 9.90452 13.2986L9.19741 14.0057C10.5474 15.3557 12.1276 16.2533 13.6107 16.5956C15.0858 16.936 16.5461 16.7382 17.5209 15.7633L16.8138 15.0562ZM8.43983 15.3492C6.96711 13.8765 6.14313 12.1971 6.013 10.6464C5.88422 9.11179 6.42925 7.67491 7.75803 6.61188L7.13333 5.83101C5.53275 7.11148 4.86112 8.8783 5.0165 10.73C5.17053 12.5655 6.13153 14.4551 7.73272 16.0563L8.43983 15.3492ZM14.0158 18.1371C12.0667 17.8587 9.98245 16.8918 8.43983 15.3492L7.73272 16.0563C9.4361 17.7597 11.7222 18.8197 13.8743 19.1271L14.0158 18.1371ZM7.75803 6.61188C9.0732 5.55973 11.2755 5.56072 13.4015 6.84337L13.9181 5.98713C11.5775 4.57508 8.88996 4.4257 7.13333 5.83101L7.75803 6.61188Z" fill="#4D4D4D"/>
<line x1="0.5" y1="-0.5" x2="9.37038" y2="-0.5" transform="matrix(0.701895 -0.71228 0.701895 0.71228 9.51709 12.8376)" stroke="#4D4D4D" stroke-linecap="square" stroke-linejoin="bevel"/>
</svg>
