<svg width="20" height="20" viewBox="0 0 20 20" fill="none" xmlns="http://www.w3.org/2000/svg">
<g opacity="0.35">
<path d="M2.59828 3.45375C4.51003 1.542 7.65839 1.59993 9.63024 3.57178L17.6732 11.6147C19.1515 13.093 19.1959 15.4547 17.761 16.8895C16.3262 18.3244 13.9645 18.28 12.4862 16.8017L5.33695 9.65238C4.35221 8.66764 4.3213 7.09269 5.27926 6.13473C6.23722 5.17677 7.81217 5.20768 8.79691 6.19242L13.7906 11.1861L12.9211 12.0556L7.92743 7.0619C7.43151 6.56598 6.64635 6.55638 6.17363 7.0291C5.70091 7.50181 5.71051 8.28698 6.20643 8.7829L13.3557 15.9322C14.3452 16.9217 15.9171 16.9448 16.8667 15.9952C17.8163 15.0455 17.7932 13.4737 16.8037 12.4842L8.76076 4.44125C7.27773 2.95822 4.91915 2.92161 3.49265 4.34811C2.06614 5.77462 2.10275 8.13319 3.58579 9.61623L9.47315 15.5036L8.60367 16.3731L2.71631 10.4857C0.744457 8.51386 0.686528 5.3655 2.59828 3.45375Z" fill="black"/>
</g>
</svg>
