<svg width="20" height="20" viewBox="0 0 20 20" fill="#03BD5D" xmlns="http://www.w3.org/2000/svg">
<path d="M2.59828 3.45363C4.51003 1.54187 7.65839 1.5998 9.63024 3.57165L17.6732 11.6146C19.1515 13.0929 19.1959 15.4545 17.761 16.8894C16.3262 18.3243 13.9645 18.2798 12.4862 16.8015L5.33695 9.65226C4.35221 8.66752 4.3213 7.09257 5.27926 6.13461C6.23722 5.17664 7.81217 5.20756 8.79691 6.1923L13.7906 11.186L12.9211 12.0555L7.92743 7.06178C7.43151 6.56586 6.64635 6.55625 6.17363 7.02897C5.70091 7.50169 5.71051 8.28686 6.20643 8.78278L13.3557 15.9321C14.3452 16.9215 15.9171 16.9447 16.8667 15.995C17.8163 15.0454 17.7932 13.4736 16.8037 12.4841L8.76076 4.44113C7.27773 2.9581 4.91915 2.92148 3.49265 4.34799C2.06614 5.7745 2.10275 8.13307 3.58579 9.61611L9.47315 15.5035L8.60367 16.3729L2.71631 10.4856C0.744457 8.51374 0.686528 5.36538 2.59828 3.45363Z" fill="#03BD5D"/>
</svg>
