<svg width="44" height="44" viewBox="0 0 44 44" fill="none" xmlns="http://www.w3.org/2000/svg">
<path d="M0 4C0 1.79086 1.79086 0 4 0H40C42.2091 0 44 1.79086 44 4V40C44 42.2091 42.2091 44 40 44H4C1.79086 44 0 42.2091 0 40V4Z" fill="#03BD5D" fill-opacity="0.8"/>
<path d="M10.877 7.02051L8.52344 13.5H7.56152L10.2715 6.39062H10.8916L10.877 7.02051ZM12.8496 13.5L10.4912 7.02051L10.4766 6.39062H11.0967L13.8164 13.5H12.8496ZM12.7275 10.8682V11.6396H8.7334V10.8682H12.7275ZM16.7559 8.2168V8.91016H13.8994V8.2168H16.7559ZM14.8662 6.93262H15.7695V12.1914C15.7695 12.3704 15.7972 12.5055 15.8525 12.5967C15.9079 12.6878 15.9795 12.748 16.0674 12.7773C16.1553 12.8066 16.2497 12.8213 16.3506 12.8213C16.4255 12.8213 16.5036 12.8148 16.585 12.8018C16.6696 12.7855 16.7331 12.7725 16.7754 12.7627L16.7803 13.5C16.7087 13.5228 16.6143 13.5439 16.4971 13.5635C16.3831 13.5863 16.2448 13.5977 16.082 13.5977C15.8607 13.5977 15.6572 13.5537 15.4717 13.4658C15.2861 13.3779 15.138 13.2314 15.0273 13.0264C14.9199 12.818 14.8662 12.5381 14.8662 12.1865V6.93262ZM20.0273 8.2168V8.91016H17.1709V8.2168H20.0273ZM18.1377 6.93262H19.041V12.1914C19.041 12.3704 19.0687 12.5055 19.124 12.5967C19.1794 12.6878 19.251 12.748 19.3389 12.7773C19.4268 12.8066 19.5212 12.8213 19.6221 12.8213C19.6969 12.8213 19.7751 12.8148 19.8564 12.8018C19.9411 12.7855 20.0046 12.7725 20.0469 12.7627L20.0518 13.5C19.9801 13.5228 19.8857 13.5439 19.7686 13.5635C19.6546 13.5863 19.5163 13.5977 19.3535 13.5977C19.1322 13.5977 18.9287 13.5537 18.7432 13.4658C18.5576 13.3779 18.4095 13.2314 18.2988 13.0264C18.1914 12.818 18.1377 12.5381 18.1377 12.1865V6.93262ZM24.2021 12.5967V9.87695C24.2021 9.66862 24.1598 9.48796 24.0752 9.33496C23.9938 9.17871 23.8701 9.05827 23.7041 8.97363C23.5381 8.889 23.333 8.84668 23.0889 8.84668C22.861 8.84668 22.6608 8.88574 22.4883 8.96387C22.319 9.04199 22.1855 9.14453 22.0879 9.27148C21.9935 9.39844 21.9463 9.53516 21.9463 9.68164H21.043C21.043 9.49284 21.0918 9.30566 21.1895 9.12012C21.2871 8.93457 21.4271 8.76693 21.6094 8.61719C21.7949 8.46419 22.0163 8.34375 22.2734 8.25586C22.5339 8.16471 22.8236 8.11914 23.1426 8.11914C23.5267 8.11914 23.8652 8.18424 24.1582 8.31445C24.4544 8.44466 24.6855 8.6416 24.8516 8.90527C25.0208 9.16569 25.1055 9.49284 25.1055 9.88672V12.3477C25.1055 12.5234 25.1201 12.7106 25.1494 12.9092C25.182 13.1077 25.2292 13.2786 25.291 13.4219V13.5H24.3486C24.3031 13.3958 24.2673 13.2575 24.2412 13.085C24.2152 12.9092 24.2021 12.7464 24.2021 12.5967ZM24.3584 10.2969L24.3682 10.9316H23.4551C23.1979 10.9316 22.9684 10.9528 22.7666 10.9951C22.5648 11.0342 22.3955 11.0944 22.2588 11.1758C22.1221 11.2572 22.0179 11.3597 21.9463 11.4834C21.8747 11.6038 21.8389 11.7454 21.8389 11.9082C21.8389 12.0742 21.8763 12.2256 21.9512 12.3623C22.026 12.499 22.1383 12.6081 22.2881 12.6895C22.4411 12.7676 22.6283 12.8066 22.8496 12.8066C23.1263 12.8066 23.3704 12.748 23.582 12.6309C23.7936 12.5137 23.9613 12.3704 24.085 12.2012C24.2119 12.0319 24.2803 11.8675 24.29 11.708L24.6758 12.1426C24.653 12.2793 24.5911 12.4307 24.4902 12.5967C24.3893 12.7627 24.2542 12.9222 24.085 13.0752C23.9189 13.2249 23.7204 13.3503 23.4893 13.4512C23.2614 13.5488 23.0042 13.5977 22.7178 13.5977C22.3597 13.5977 22.0456 13.5277 21.7754 13.3877C21.5085 13.2477 21.3001 13.0605 21.1504 12.8262C21.0039 12.5885 20.9307 12.3232 20.9307 12.0303C20.9307 11.7471 20.986 11.498 21.0967 11.2832C21.2074 11.0651 21.3669 10.8844 21.5752 10.7412C21.7835 10.5947 22.0342 10.484 22.3271 10.4092C22.6201 10.3343 22.9473 10.2969 23.3086 10.2969H24.3584ZM28.6406 12.8555C28.8555 12.8555 29.054 12.8115 29.2363 12.7236C29.4186 12.6357 29.5684 12.5153 29.6855 12.3623C29.8027 12.2061 29.8695 12.0286 29.8857 11.8301H30.7451C30.7288 12.1426 30.623 12.4339 30.4277 12.7041C30.2357 12.971 29.9834 13.1875 29.6709 13.3535C29.3584 13.5163 29.015 13.5977 28.6406 13.5977C28.2435 13.5977 27.8968 13.5277 27.6006 13.3877C27.3076 13.2477 27.0635 13.0557 26.8682 12.8115C26.6761 12.5674 26.5312 12.2874 26.4336 11.9717C26.3392 11.6527 26.292 11.3158 26.292 10.9609V10.7559C26.292 10.401 26.3392 10.0658 26.4336 9.75C26.5312 9.43099 26.6761 9.14941 26.8682 8.90527C27.0635 8.66113 27.3076 8.46908 27.6006 8.3291C27.8968 8.18913 28.2435 8.11914 28.6406 8.11914C29.054 8.11914 29.4154 8.20378 29.7246 8.37305C30.0339 8.53906 30.2764 8.76693 30.4521 9.05664C30.6312 9.3431 30.7288 9.66862 30.7451 10.0332H29.8857C29.8695 9.8151 29.8076 9.61816 29.7002 9.44238C29.596 9.2666 29.4528 9.12663 29.2705 9.02246C29.0915 8.91504 28.8815 8.86133 28.6406 8.86133C28.3639 8.86133 28.1312 8.91667 27.9424 9.02734C27.7568 9.13477 27.6087 9.28125 27.498 9.4668C27.3906 9.64909 27.3125 9.85254 27.2637 10.0771C27.2181 10.2985 27.1953 10.5247 27.1953 10.7559V10.9609C27.1953 11.1921 27.2181 11.4199 27.2637 11.6445C27.3092 11.8691 27.3857 12.0726 27.4932 12.2549C27.6038 12.4372 27.752 12.5837 27.9375 12.6943C28.1263 12.8018 28.3607 12.8555 28.6406 12.8555ZM32.6641 6V13.5H31.7607V6H32.6641ZM32.4492 10.6582L32.0732 10.6436C32.0765 10.2822 32.1302 9.94857 32.2344 9.64258C32.3385 9.33333 32.485 9.06478 32.6738 8.83691C32.8626 8.60905 33.0872 8.43327 33.3477 8.30957C33.6113 8.18262 33.9027 8.11914 34.2217 8.11914C34.4821 8.11914 34.7165 8.15495 34.9248 8.22656C35.1331 8.29492 35.3105 8.4056 35.457 8.55859C35.6068 8.71159 35.7207 8.91016 35.7988 9.1543C35.877 9.39518 35.916 9.68978 35.916 10.0381V13.5H35.0078V10.0283C35.0078 9.75163 34.9671 9.53027 34.8857 9.36426C34.8044 9.19499 34.6855 9.07292 34.5293 8.99805C34.373 8.91992 34.181 8.88086 33.9531 8.88086C33.7285 8.88086 33.5234 8.92806 33.3379 9.02246C33.1556 9.11686 32.9977 9.24707 32.8643 9.41309C32.734 9.5791 32.6315 9.76953 32.5566 9.98438C32.485 10.196 32.4492 10.4206 32.4492 10.6582Z" fill="white"/>
<path d="M25.8572 29.7857L21.1429 25.0714C20.4328 24.3614 19.2815 24.3614 18.5714 25.0714C17.8613 25.7815 17.8613 26.9328 18.5714 27.6429L25.4286 34.5C26.6121 35.6835 28.5308 35.6835 29.7143 34.5C30.8978 33.3166 30.8978 31.3978 29.7143 30.2143L22 22.5C20.3431 20.8431 17.6569 20.8431 16 22.5C14.3431 24.1569 14.3431 26.8432 16 28.5L21.5714 34.0715" stroke="white"/>
<path d="M4 2H40V-2H4V2ZM42 4V40H46V4H42ZM40 42H4V46H40V42ZM2 40V4H-2V40H2ZM4 42C2.89543 42 2 41.1046 2 40H-2C-2 43.3137 0.68629 46 4 46V42ZM42 40C42 41.1046 41.1046 42 40 42V46C43.3137 46 46 43.3137 46 40H42ZM40 2C41.1046 2 42 2.89543 42 4H46C46 0.686293 43.3137 -2 40 -2V2ZM4 -2C0.686293 -2 -2 0.68629 -2 4H2C2 2.89543 2.89543 2 4 2V-2Z" fill="#03BD5D"/>
</svg>
