<svg width="12" height="13" viewBox="0 0 12 13" fill="none" xmlns="http://www.w3.org/2000/svg">
<path fill-rule="evenodd" clip-rule="evenodd" d="M3.99992 1.5H3.33325V2.16667H1.99992L1.33325 2.83333V10.1667L1.99992 10.8333H9.99992L10.6666 10.1667V2.83333L9.99992 2.16667H8.66658V1.5H7.99992V2.16667H5.99992H3.99992V1.5ZM7.99992 2.83333H3.99992V3.5H3.33325V2.83333H1.99992V10.1667H9.99992V2.83333H8.66658V3.5H7.99992V2.83333ZM5.49992 4.83333H4.83325V5.5H5.49992V4.83333ZM3.83325 8.16667H3.16659V8.83333H3.83325V8.16667ZM4.83325 6.5H5.49992V7.16667H4.83325V6.5ZM3.83325 6.5H3.16659V7.16667H3.83325V6.5ZM6.49992 4.83333H7.16658V5.5H6.49992V4.83333ZM5.49992 8.16667H4.83325V8.83333H5.49992V8.16667ZM6.49992 6.5H7.16658V7.16667H6.49992V6.5ZM8.83325 4.83333H8.16659V5.5H8.83325V4.83333ZM6.49992 8.16667H7.16658V8.83333H6.49992V8.16667ZM8.83325 6.5H8.16659V7.16667H8.83325V6.5Z" fill="black" fill-opacity="0.5"/>
</svg>
