<svg width="18" height="18" viewBox="0 0 18 18" fill="none" xmlns="http://www.w3.org/2000/svg">
<path d="M7.8869 11.125L7.54167 11.4867H8.23214L7.8869 11.125ZM14.875 9C14.875 12.2447 12.2447 14.875 9 14.875V15.875C12.797 15.875 15.875 12.797 15.875 9H14.875ZM9 14.875C5.75533 14.875 3.125 12.2447 3.125 9H2.125C2.125 12.797 5.20304 15.875 9 15.875V14.875ZM3.125 9C3.125 5.75533 5.75533 3.125 9 3.125V2.125C5.20304 2.125 2.125 5.20304 2.125 9H3.125ZM9 3.125C12.2447 3.125 14.875 5.75533 14.875 9H15.875C15.875 5.20304 12.797 2.125 9 2.125V3.125ZM5.31548 9.36168L7.54167 11.4867L8.23214 10.7633L6.00595 8.63832L5.31548 9.36168ZM8.23214 11.4867L12.6845 7.23668L11.994 6.51332L7.54167 10.7633L8.23214 11.4867Z" fill="black" fill-opacity="0.7"/>
</svg>
