<svg width="18" height="19" viewBox="0 0 18 19" fill="none" xmlns="http://www.w3.org/2000/svg">
<path fill-rule="evenodd" clip-rule="evenodd" d="M2.89029 8.0348C3.03003 9.70014 3.9144 11.5002 5.49112 13.0769C7.14355 14.7293 9.37569 15.7648 11.4635 16.0631L11.322 17.053C9.03119 16.7258 6.5972 15.5972 4.78401 13.784C3.07882 12.0788 2.05743 10.0685 1.89379 8.11842C1.72879 6.15216 2.44159 4.27696 4.14128 2.9172C6.00183 1.42875 8.85485 1.58322 11.3465 3.08643L10.83 3.94268C8.55276 2.56886 6.18507 2.56279 4.76598 3.69807C3.33809 4.84039 2.7519 6.38565 2.89029 8.0348ZM11.2683 13.3764C12.6431 13.6936 13.7818 13.4619 14.4795 12.7641C15.1773 12.0664 15.409 10.9277 15.0917 9.55291C14.7764 8.18625 13.9292 6.66572 12.603 5.33952L13.3101 4.63242C14.7476 6.06993 15.7023 7.75161 16.0661 9.32805C16.4281 10.8964 16.2162 12.4417 15.1866 13.4713C14.1571 14.5008 12.6118 14.7127 11.0434 14.3508C9.46699 13.987 7.78532 13.0322 6.3478 11.5947L7.05491 10.8876C8.3811 12.2138 9.90164 13.061 11.2683 13.3764Z" fill="#00A95B"/>
<path fill-rule="evenodd" clip-rule="evenodd" d="M12.1527 3.41759L6.76909 8.80122L6.35355 9.92387L7.4762 9.50833L12.8598 4.12469L12.1527 3.41759ZM13.5199 2.05048L12.6606 2.90981L13.3677 3.61691L14.227 2.75758L13.5199 2.05048Z" fill="#00A95B"/>
</svg>
