<svg width="24" height="24" viewBox="0 0 24 24" fill="none" xmlns="http://www.w3.org/2000/svg">
<path d="M7.4457 6.22121L7.75805 6.61165L7.4457 6.22121ZM15.0562 8.14674C16.2948 9.38535 17.0849 10.8044 17.3788 12.0778C17.6745 13.3593 17.4568 14.413 16.8138 15.056L17.5209 15.7631C18.4957 14.7883 18.6936 13.328 18.3531 11.853C18.0109 10.3698 17.1132 8.78957 15.7633 7.43963L15.0562 8.14674ZM16.8138 15.056C16.1708 15.699 15.1171 15.9167 13.8356 15.621C12.5622 15.3271 11.1431 14.537 9.90453 13.2984L9.19742 14.0055C10.5474 15.3554 12.1276 16.2531 13.6108 16.5953C15.0858 16.9358 16.5461 16.7379 17.5209 15.7631L16.8138 15.056ZM8.43984 15.3489C6.96712 13.8762 6.14314 12.1969 6.01301 10.6461C5.88424 9.11156 6.42926 7.67468 7.75805 6.61165L7.13335 5.83078C5.53277 7.11125 4.86113 8.87807 5.01651 10.7298C5.17054 12.5653 6.13154 14.4549 7.73274 16.0561L8.43984 15.3489ZM14.0158 18.1369C12.0667 17.8585 9.98246 16.8916 8.43984 15.3489L7.73274 16.0561C9.43611 17.7594 11.7222 18.8194 13.8743 19.1269L14.0158 18.1369ZM7.75805 6.61165C9.07322 5.5595 11.2755 5.56049 13.4016 6.84314L13.9181 5.9869C11.5776 4.57485 8.88998 4.42547 7.13335 5.83078L7.75805 6.61165Z" fill="#FFFFFF"/>
<line x1="0.5" y1="-0.5" x2="9.37038" y2="-0.5" transform="matrix(0.701895 -0.71228 0.701895 0.71228 9.51709 12.8379)" stroke="#FFFFFF" stroke-linecap="square" stroke-linejoin="bevel"/>
</svg>
