<svg width="14" height="14" viewBox="0 0 14 14" fill="none" xmlns="http://www.w3.org/2000/svg">
<path fill-rule="evenodd" clip-rule="evenodd" d="M10.4428 0.936742L10.7531 1.04904L11.6693 1.96529L11.7816 2.27556L11.7357 2.77961L11.6233 3.01943L4.21337 10.4282L4.06296 10.5216L1.98637 11.2239L1.4934 10.7309L2.19562 8.65429L2.28903 8.50388L9.69918 1.09484L9.93876 0.982666L10.4428 0.936742ZM10.0861 3.45579L10.9739 2.56877L10.9905 2.38643L10.3319 1.72784L10.1494 1.74447L9.26171 2.63139L10.0861 3.45579ZM8.71161 3.18124L2.90328 8.98957L2.48207 10.2352L3.72768 9.81397L9.53601 4.00564L8.71161 3.18124Z" fill="black" fill-opacity="0.7"/>
<path fill-rule="evenodd" clip-rule="evenodd" d="M12.4445 13.0668H1.55557V12.2891H12.4445V13.0668Z" fill="black" fill-opacity="0.7"/>
</svg>
