<svg width="14" height="11" viewBox="0 0 14 11" fill="none" xmlns="http://www.w3.org/2000/svg">
<path fill-rule="evenodd" clip-rule="evenodd" d="M13.5352 5.28125L8.23213 0.28125L7.52962 0.584412V3.09937C4.82911 3.66104 3.21115 4.64937 2.17979 5.89963C1.12734 7.17545 0.728531 8.67974 0.355865 10.0854L0.346567 10.1205L1.05249 10.5131C2.53136 8.94444 3.69941 8.28191 4.74237 7.99509C5.60781 7.7571 6.40262 7.76825 7.30204 7.78087C7.37714 7.78192 7.45296 7.78298 7.52962 7.78391V10.5844L8.23213 10.8876L13.5352 5.88757V5.28125ZM12.6419 5.58441L8.36295 9.61889V7.37013L7.94629 6.95346C7.75019 6.95346 7.55311 6.95045 7.35473 6.94741C6.44677 6.93353 5.5118 6.91923 4.52141 7.19159C3.60133 7.44461 2.64526 7.93713 1.57232 8.85834C1.85764 7.97895 2.2209 7.15936 2.82263 6.42991C3.7374 5.32098 5.24727 4.37452 8.0235 3.85101L8.36295 3.44156V1.54994L12.6419 5.58441Z" fill="black" fill-opacity="0.7"/>
</svg>
