<svg width="18" height="18" viewBox="0 0 18 18" fill="none" xmlns="http://www.w3.org/2000/svg">
<path d="M2 0C0.895431 0 0 0.89543 0 2V16C0 17.1046 0.89543 18 2 18H16C17.1046 18 18 17.1046 18 16V2C18 0.895431 17.1046 0 16 0H2Z" fill="#518BDC"/>
<mask id="mask0_4277_302519" style="mask-type:alpha" maskUnits="userSpaceOnUse" x="1" y="1" width="16" height="16">
<rect x="1.5" y="1.5" width="15" height="15" rx="2" fill="#C4C4C4"/>
</mask>
<g mask="url(#mask0_4277_302519)">
<path fill-rule="evenodd" clip-rule="evenodd" d="M0.75 16.875V13.7497L7.2074 8.25L7.73541 8.25558L11.2849 11.4235L12.7292 10.1933L13.2569 10.1987L17.25 13.755L17.25 16.875H0.75Z" fill="white"/>
<path fill-rule="evenodd" clip-rule="evenodd" d="M12 4.5C12 3.67157 12.6716 3 13.5 3C14.3284 3 15 3.67157 15 4.5C15 5.32843 14.3284 6 13.5 6C12.6716 6 12 5.32843 12 4.5Z" fill="white"/>
</g>
</svg>
