<svg width="16" height="16" viewBox="0 0 16 16" fill="none" xmlns="http://www.w3.org/2000/svg">
<path fill-rule="evenodd" clip-rule="evenodd" d="M4.00863 7.09752C4.09538 8.13137 4.6447 9.25091 5.62651 10.2327C6.65493 11.2611 8.04444 11.9057 9.3438 12.0914L9.24952 12.7513C7.81478 12.5464 6.29069 11.8397 5.15511 10.7041C4.08765 9.63666 3.44698 8.37694 3.3443 7.15327C3.24071 5.9188 3.68847 4.74093 4.75552 3.88728C5.9266 2.9504 7.71833 3.04999 9.2787 3.99136L9.26025 4.02194L8.80331 4.48564C7.42711 3.70771 6.02178 3.72802 5.17198 4.40786C4.28613 5.11655 3.92278 6.07446 4.00863 7.09752ZM9.22369 10.4141C10.078 10.6112 10.7805 10.4661 11.2092 10.0374C11.6378 9.60874 11.7829 8.9063 11.5858 8.05197C11.3899 7.20304 10.8631 6.25699 10.0374 5.43125L10.5088 4.95984C11.4088 5.8598 12.0072 6.91327 12.2354 7.90206C12.4623 8.88546 12.3304 9.85896 11.6806 10.5088C11.0307 11.1587 10.0572 11.2906 9.07379 11.0637C8.085 10.8355 7.03153 10.237 6.13157 9.33708L6.60297 8.86568C7.42872 9.69142 8.37476 10.2182 9.22369 10.4141ZM10.4954 3.39659L5.87679 8.08358L6.34472 8.55843L10.9634 3.87145L10.4954 3.39659Z" fill="#00A95B"/>
</svg>
