<svg width="18" height="18" viewBox="0 0 18 18" fill="none" xmlns="http://www.w3.org/2000/svg">
<path d="M2 0C0.895431 0 0 0.89543 0 2V16C0 17.1046 0.89543 18 2 18H16C17.1046 18 18 17.1046 18 16V2C18 0.895431 17.1046 0 16 0H2Z" fill="#ED5E80"/>
<path d="M12.6086 6.45723L6.8186 7.54818V12.7862C6.8186 13.1585 6.82926 13.2656 6.74324 13.4798C6.61972 13.7873 6.38321 14.0677 6.06771 14.2614C5.47153 14.6275 4.57399 14.6326 4.19845 13.9409C4.02298 13.6177 4.04365 13.2547 4.16644 12.949C4.28995 12.6415 4.52646 12.361 4.84197 12.1673C5.15598 11.9745 5.56225 11.9419 5.92506 12C5.94025 12.0025 6.05829 12.0305 6.0686 12.0431V5.39511L6.35118 5.03168L12.8912 3.75L13.3586 4.11343V11.7511C13.3586 12.1233 13.3693 12.2306 13.2832 12.4448C13.1597 12.7523 12.9232 13.0327 12.6077 13.2264C12.0115 13.5925 11.114 13.5976 10.7385 12.9059C10.563 12.5827 10.5837 12.2197 10.7064 11.914C10.83 11.6065 11.0665 11.326 11.382 11.1323C11.696 10.9395 12.1023 10.9069 12.4651 10.965C12.4803 10.9675 12.5983 10.9954 12.6086 11.0081V6.45723Z" fill="white"/>
</svg>
