<svg width="18" height="18" viewBox="0 0 18 18" fill="none" xmlns="http://www.w3.org/2000/svg">
<path d="M2 0C0.895431 0 0 0.89543 0 2V16C0 17.1046 0.89543 18 2 18H16C17.1046 18 18 17.1046 18 16V2C18 0.895431 17.1046 0 16 0H2Z" fill="#9B9B9B"/>
<path d="M5.95596 10.982V11.9198H3.01623V10.982H5.95596ZM3.38796 6.08417V11.9198H2.25V6.08417H3.38796ZM5.57284 8.46092V9.37475H3.01623V8.46092H5.57284ZM5.95216 6.08417V7.02605H3.01623V6.08417H5.95216Z" fill="white"/>
<path d="M9.165 6.08417V11.9198H8.03084V6.08417H9.165ZM10.8644 6.08417V7.02605H6.35804V6.08417H10.8644Z" fill="white"/>
<path d="M14.6082 9.98397H15.7424C15.7197 10.3768 15.6172 10.7255 15.4352 11.0301C15.2556 11.3347 15.004 11.5725 14.6803 11.7435C14.3592 11.9145 13.9723 12 13.5196 12C13.1656 12 12.8482 11.9359 12.5675 11.8076C12.2868 11.6767 12.0466 11.4896 11.8468 11.2465C11.6496 11.0033 11.4991 10.7094 11.3954 10.3647C11.2917 10.02 11.2399 9.63393 11.2399 9.20641V8.8016C11.2399 8.37408 11.293 7.98798 11.3992 7.64329C11.5079 7.29593 11.6622 7.00067 11.862 6.75752C12.0643 6.51436 12.3058 6.32732 12.5865 6.19639C12.8672 6.06546 13.1807 6 13.5272 6C13.9874 6 14.3756 6.08818 14.6917 6.26453C15.0103 6.44088 15.2569 6.68403 15.4314 6.99399C15.6084 7.30394 15.7146 7.65665 15.75 8.0521H14.612C14.5994 7.81697 14.5551 7.6179 14.4793 7.45491C14.4034 7.28925 14.2884 7.165 14.1341 7.08216C13.9824 6.99666 13.7801 6.95391 13.5272 6.95391C13.3375 6.95391 13.1719 6.99132 13.0303 7.06613C12.8887 7.14095 12.7698 7.25451 12.6737 7.40681C12.5776 7.55912 12.5055 7.7515 12.4575 7.98397C12.412 8.21376 12.3892 8.48363 12.3892 8.79359V9.20641C12.3892 9.50835 12.4107 9.77422 12.4537 10.004C12.4967 10.2311 12.5624 10.4235 12.651 10.5812C12.742 10.7361 12.8583 10.8537 12.9999 10.9339C13.1441 11.0114 13.3173 11.0501 13.5196 11.0501C13.7573 11.0501 13.9533 11.01 14.1075 10.9299C14.2618 10.8497 14.3794 10.7308 14.4603 10.5731C14.5438 10.4155 14.5931 10.2191 14.6082 9.98397Z" fill="white"/>
</svg>
