<svg width="18" height="18" viewBox="0 0 18 18" fill="none" xmlns="http://www.w3.org/2000/svg">
<path d="M2 0C0.895431 0 0 0.89543 0 2V16C0 17.1046 0.89543 18 2 18H16C17.1046 18 18 17.1046 18 16V2C18 0.895431 17.1046 0 16 0H2Z" fill="#29B8CE"/>
<path d="M12.75 14L13.25 13.5V6L13.0775 5.62216L11.3467 4.12216L11.0192 4H5.25L4.75 4.5V13.5L5.25 14H12.75Z" fill="white" stroke="white" stroke-linejoin="bevel"/>
<path fill-rule="evenodd" clip-rule="evenodd" d="M12 7.5H6V6.75H12V7.5Z" fill="#29B8CE"/>
<path fill-rule="evenodd" clip-rule="evenodd" d="M12 9.75H6V9H12V9.75Z" fill="#29B8CE"/>
<path fill-rule="evenodd" clip-rule="evenodd" d="M12 12H6V11.25H12V12Z" fill="#29B8CE"/>
</svg>
