<svg width="16" height="16" viewBox="0 0 16 16" fill="none" xmlns="http://www.w3.org/2000/svg">
<path d="M11.8095 2.66663H6V13.3333H14V4.99996M11.8095 2.66663L14 4.99996M11.8095 2.66663V4.99996H14" stroke="#0B5EC0" stroke-linejoin="bevel"/>
<path d="M1.3335 6H12.0002V11.3333H1.3335V6Z" fill="#0B5EC0"/>
<path d="M2.84131 10.6667H2.0236L2.02881 10.1042H2.84131C3.06179 10.1042 3.24669 10.0556 3.396 9.95833C3.5453 9.85938 3.65815 9.71788 3.73454 9.53385C3.81093 9.34809 3.84912 9.12587 3.84912 8.86719V8.67188C3.84912 8.47222 3.82742 8.29601 3.78402 8.14323C3.74061 7.99045 3.67638 7.86198 3.59131 7.75781C3.50798 7.65365 3.40468 7.57465 3.28141 7.52083C3.15815 7.46701 3.01666 7.4401 2.85693 7.4401H2.00798V6.875H2.85693C3.11041 6.875 3.34131 6.91753 3.54964 7.0026C3.75971 7.08767 3.94113 7.21007 4.09391 7.36979C4.24843 7.52778 4.36648 7.71701 4.44808 7.9375C4.53141 8.15799 4.57308 8.40451 4.57308 8.67708V8.86719C4.57308 9.13802 4.53141 9.38455 4.44808 9.60677C4.36648 9.82726 4.24843 10.0165 4.09391 10.1745C3.94113 10.3325 3.75884 10.454 3.54704 10.5391C3.33523 10.6241 3.09999 10.6667 2.84131 10.6667ZM2.42464 6.875V10.6667H1.7085V6.875H2.42464Z" fill="white"/>
<path d="M8.25277 8.67448V8.86979C8.25277 9.15625 8.21457 9.41406 8.13818 9.64323C8.06179 9.87066 7.95329 10.0642 7.81266 10.224C7.67204 10.3837 7.5045 10.5061 7.31006 10.5911C7.11561 10.6762 6.89947 10.7188 6.66162 10.7188C6.42725 10.7188 6.21197 10.6762 6.01579 10.5911C5.82134 10.5061 5.65294 10.3837 5.51058 10.224C5.36822 10.0642 5.25798 9.87066 5.17985 9.64323C5.10173 9.41406 5.06266 9.15625 5.06266 8.86979V8.67448C5.06266 8.38628 5.10173 8.12847 5.17985 7.90104C5.25798 7.67361 5.36735 7.48003 5.50798 7.32031C5.6486 7.15885 5.81613 7.03559 6.01058 6.95052C6.20676 6.86545 6.42204 6.82292 6.65641 6.82292C6.89426 6.82292 7.11041 6.86545 7.30485 6.95052C7.49929 7.03559 7.66683 7.15885 7.80745 7.32031C7.94982 7.48003 8.05919 7.67361 8.13558 7.90104C8.2137 8.12847 8.25277 8.38628 8.25277 8.67448ZM7.52881 8.86979V8.66927C7.52881 8.46267 7.50971 8.28125 7.47152 8.125C7.43332 7.96701 7.3769 7.8342 7.30225 7.72656C7.22759 7.61892 7.13558 7.53819 7.0262 7.48438C6.91683 7.42882 6.79357 7.40104 6.65641 7.40104C6.51752 7.40104 6.39426 7.42882 6.28662 7.48438C6.18072 7.53819 6.09044 7.61892 6.01579 7.72656C5.94113 7.8342 5.88384 7.96701 5.84391 8.125C5.80572 8.28125 5.78662 8.46267 5.78662 8.66927V8.86979C5.78662 9.07465 5.80572 9.25608 5.84391 9.41406C5.88384 9.57205 5.94113 9.70573 6.01579 9.8151C6.09218 9.92274 6.18419 10.0043 6.29183 10.0599C6.39947 10.1155 6.52273 10.1432 6.66162 10.1432C6.80051 10.1432 6.92377 10.1155 7.03141 10.0599C7.13905 10.0043 7.22933 9.92274 7.30225 9.8151C7.3769 9.70573 7.43332 9.57205 7.47152 9.41406C7.50971 9.25608 7.52881 9.07465 7.52881 8.86979Z" fill="white"/>
<path d="M11.0783 9.41927H11.7944C11.7753 9.67274 11.705 9.89757 11.5835 10.0938C11.462 10.2882 11.2927 10.441 11.0757 10.5521C10.8587 10.6632 10.5956 10.7188 10.2866 10.7188C10.0488 10.7188 9.83436 10.6771 9.64339 10.5938C9.45416 10.5087 9.29183 10.388 9.15641 10.2318C9.02273 10.0738 8.9203 9.88455 8.84912 9.66406C8.77794 9.44184 8.74235 9.19271 8.74235 8.91667V8.6276C8.74235 8.35156 8.77881 8.10243 8.85173 7.88021C8.92464 7.65799 9.02881 7.46875 9.16423 7.3125C9.30138 7.15451 9.46544 7.03299 9.65641 6.94792C9.84912 6.86285 10.0644 6.82031 10.3022 6.82031C10.6113 6.82031 10.8726 6.8776 11.0861 6.99219C11.2996 7.10503 11.4654 7.26042 11.5835 7.45833C11.7016 7.65625 11.7727 7.88368 11.797 8.14062H11.0809C11.067 7.9809 11.0323 7.84549 10.9767 7.73438C10.9229 7.62326 10.8413 7.53906 10.7319 7.48177C10.6243 7.42274 10.4811 7.39323 10.3022 7.39323C10.1634 7.39323 10.041 7.41927 9.93506 7.47135C9.83089 7.52344 9.74409 7.60156 9.67464 7.70573C9.6052 7.80816 9.55311 7.93663 9.51839 8.09115C9.48367 8.24392 9.46631 8.42101 9.46631 8.6224V8.91667C9.46631 9.10938 9.48193 9.28212 9.51318 9.4349C9.54443 9.58767 9.59304 9.71701 9.65902 9.82292C9.72499 9.92882 9.81006 10.0095 9.91423 10.0651C10.0184 10.1207 10.1425 10.1484 10.2866 10.1484C10.462 10.1484 10.6043 10.1207 10.7137 10.0651C10.8248 10.0095 10.909 9.92795 10.9663 9.82031C11.0253 9.71267 11.0627 9.57899 11.0783 9.41927Z" fill="white"/>
</svg>
