<svg width="18" height="18" viewBox="0 0 18 18" fill="none" xmlns="http://www.w3.org/2000/svg">
<rect width="18" height="18" rx="2" fill="#1E1E1E"/>
<g clip-path="url(#clip0_4277_302448)">
<path d="M9 9C9 8.46957 9.19754 7.96086 9.54917 7.58579C9.90081 7.21071 10.3777 7 10.875 7C11.3723 7 11.8492 7.21071 12.2008 7.58579C12.5525 7.96086 12.75 8.46957 12.75 9C12.75 9.53043 12.5525 10.0391 12.2008 10.4142C11.8492 10.7893 11.3723 11 10.875 11C10.3777 11 9.90081 10.7893 9.54917 10.4142C9.19754 10.0391 9 9.53043 9 9Z" fill="#1ABCFE"/>
<path d="M5.25 13C5.25 12.4696 5.44754 11.9609 5.79917 11.5858C6.15081 11.2107 6.62772 11 7.125 11H9V13C9 13.5304 8.80246 14.0391 8.45083 14.4142C8.09919 14.7893 7.62228 15 7.125 15C6.62772 15 6.15081 14.7893 5.79917 14.4142C5.44754 14.0391 5.25 13.5304 5.25 13V13Z" fill="#0ACF83"/>
<path d="M9 3V7H10.875C11.3723 7 11.8492 6.78929 12.2008 6.41421C12.5525 6.03914 12.75 5.53043 12.75 5C12.75 4.46957 12.5525 3.96086 12.2008 3.58579C11.8492 3.21071 11.3723 3 10.875 3H9Z" fill="#FF7262"/>
<path d="M5.25 5C5.25 5.53043 5.44754 6.03914 5.79917 6.41421C6.15081 6.78929 6.62772 7 7.125 7H9V3H7.125C6.62772 3 6.15081 3.21071 5.79917 3.58579C5.44754 3.96086 5.25 4.46957 5.25 5V5Z" fill="#F24E1E"/>
<path d="M5.25 9C5.25 9.53043 5.44754 10.0391 5.79917 10.4142C6.15081 10.7893 6.62772 11 7.125 11H9V7H7.125C6.62772 7 6.15081 7.21071 5.79917 7.58579C5.44754 7.96086 5.25 8.46957 5.25 9V9Z" fill="#A259FF"/>
</g>
<defs>
<clipPath id="clip0_4277_302448">
<rect width="7.5" height="12" fill="white" transform="translate(5.25 3)"/>
</clipPath>
</defs>
</svg>
