<svg width="18" height="18" viewBox="0 0 18 18" fill="none" xmlns="http://www.w3.org/2000/svg">
<rect width="18" height="18" rx="2" fill="#00005B"/>
<path d="M4 12.8361V5.09836C4 5.03279 4.0347 5 4.0694 5C4.2082 5 4.3817 5 4.5552 5C4.7287 5 4.93691 5 5.17981 5C5.38801 5 5.63091 5 5.87381 5C6.11671 5 6.42901 5.06557 6.67192 5.06557C7.22712 5.06557 7.78232 5.13115 8.30283 5.29508C8.71923 5.42623 9.06623 5.62295 9.37853 5.91803C9.62143 6.14754 9.82964 6.44262 9.96844 6.77049C10.0725 7.09836 10.1419 7.42623 10.1419 7.7541C10.1766 8.31148 10.0031 8.86885 9.65613 9.36065C9.34383 9.78688 8.89273 10.1148 8.37223 10.2787C7.78232 10.4754 7.19242 10.5738 6.56782 10.5738C6.39431 10.5738 6.25551 10.5738 6.18611 10.5738C6.11671 10.5738 5.80441 10.5082 5.63091 10.5082V12.9016C5.63091 12.9672 5.59621 13 5.52681 13H4.0694C4.0347 12.9344 4 12.9016 4 12.8361ZM5.66561 6.44262V8.96721C5.76971 8.96721 6.08201 9.03279 6.18611 9.03279H6.60252C6.91482 9.03279 7.22712 9 7.50472 8.90164C7.74762 8.83607 7.99052 8.70492 8.16403 8.5082C8.33753 8.27869 8.44163 8.01639 8.40693 7.72131C8.40693 7.4918 8.33753 7.26229 8.23343 7.06557C8.09462 6.86885 7.88642 6.70492 7.67822 6.63934C7.36592 6.54098 7.05362 6.47541 6.74132 6.47541C6.53312 6.47541 6.35961 6.47541 6.18611 6.47541C6.01261 6.5082 5.70031 6.44262 5.66561 6.44262Z" fill="#9999FF"/>
<path d="M11.2524 6.96721H12.6404C12.7098 6.96721 12.7792 7.03279 12.8139 7.09836C12.8486 7.16394 12.8833 7.19672 12.8833 7.2623C12.918 7.32787 12.918 7.42623 12.918 7.4918C12.918 7.59017 12.918 7.65574 12.918 7.7541C13.1609 7.4918 13.4385 7.2623 13.7855 7.09836C14.1325 6.90164 14.5142 6.80328 14.8959 6.83607C14.9653 6.83607 15 6.86885 15 6.90164V8.40984C15 8.47541 14.9653 8.5082 14.8612 8.5082C14.5836 8.47541 14.3407 8.5082 14.0978 8.57377C13.8549 8.60656 13.6467 8.67213 13.4385 8.77049C13.265 8.83607 13.0568 8.93443 12.918 9.06558V12.9016C12.918 12.9672 12.8833 13 12.8139 13H11.3565C11.2871 13 11.2524 12.9672 11.2177 12.9016V8.70492C11.2177 8.54099 11.2177 8.34426 11.2177 8.14754C11.2177 7.95082 11.2177 7.7541 11.183 7.55738C11.183 7.39344 11.1483 7.22951 11.1483 7.06558C11.1483 7.03279 11.1483 7.03279 11.183 7C11.183 6.96721 11.2177 6.96721 11.2524 6.96721Z" fill="#9999FF"/>
</svg>
