<svg width="18" height="18" viewBox="0 0 18 18" fill="none" xmlns="http://www.w3.org/2000/svg">
<rect width="18" height="18" rx="2" fill="#470137"/>
<path d="M9.5255 5.60154L7.38344 8.97435L9.67536 12.6257C9.68997 12.6515 9.6941 12.6817 9.68691 12.7102C9.67901 12.7366 9.65226 12.7536 9.60621 12.7609H7.97086C7.92387 12.7656 7.87648 12.7575 7.83385 12.7377C7.79121 12.7178 7.75496 12.6869 7.72905 12.6483C7.57524 12.3554 7.42174 12.0858 7.26823 11.7966C7.11473 11.5075 6.9516 11.2127 6.77884 10.9122C6.6062 10.6119 6.43537 10.3077 6.26635 9.99964H6.2548C6.10115 10.3001 5.94187 10.6006 5.77696 10.9009C5.61161 11.2014 5.44843 11.5 5.28742 11.7966C5.12617 12.0934 4.96111 12.3667 4.79211 12.6596C4.77962 12.6909 4.75732 12.7176 4.72838 12.7358C4.69944 12.754 4.66536 12.7628 4.631 12.7609H3.0531C3.04663 12.7616 3.04008 12.7609 3.03388 12.759C3.02769 12.757 3.02198 12.7538 3.01712 12.7496C3.01226 12.7453 3.00835 12.7401 3.00565 12.7343C3.00295 12.7285 3.00151 12.7223 3.00143 12.7159C2.99695 12.6884 3.00307 12.6603 3.01861 12.637L5.24138 9.08705L3.0762 5.59024C3.05309 5.56036 3.04945 5.5359 3.06465 5.51702C3.07316 5.50741 3.08384 5.49986 3.09583 5.49498C3.10783 5.49009 3.12083 5.48799 3.1338 5.48884H4.75775C4.79315 5.48695 4.82855 5.49274 4.8614 5.50579C4.88887 5.52109 4.91246 5.54225 4.9304 5.56772C5.0687 5.8682 5.22221 6.08284 5.39107 6.3831C5.55993 6.68365 5.73076 6.98034 5.90356 7.27317C6.07637 7.56606 6.2357 7.86275 6.38155 8.16324H6.3931C6.54661 7.85532 6.70203 7.55488 6.85938 7.26193C7.01683 6.96896 7.17809 6.67415 7.34314 6.37751C7.5082 6.0809 7.66733 5.8719 7.82114 5.57901C7.82989 5.55117 7.84574 5.52597 7.8672 5.50578C7.89562 5.49164 7.92758 5.48575 7.9593 5.48883H9.46805C9.48259 5.48534 9.49792 5.4868 9.5115 5.49296C9.52509 5.49912 9.53613 5.50961 9.54282 5.52272C9.5495 5.53583 9.55142 5.55077 9.54828 5.56509C9.54513 5.57942 9.5371 5.59227 9.5255 5.60154Z" fill="#FF61F6"/>
<path d="M12.7141 12.9996C12.184 13.0075 11.6588 12.8997 11.1767 12.6841C10.7274 12.4807 10.3519 12.1488 10.0997 11.7321C9.82265 11.2457 9.68724 10.6943 9.70817 10.1379C9.70382 9.62083 9.83886 9.11178 10.0997 8.66203C10.3684 8.20394 10.7635 7.82912 11.2399 7.58046C11.7973 7.29646 12.4198 7.15683 13.048 7.17487C13.0865 7.17487 13.1364 7.17675 13.1977 7.18052C13.2591 7.18439 13.3899 7.19004 13.4744 7.1974V5.20414C13.4678 5.15682 13.4805 5.10884 13.5098 5.07063C13.5391 5.03241 13.5826 5.00703 13.6309 5H14.7455C14.8007 5.00016 14.8536 5.02167 14.8926 5.05983C14.9316 5.09799 14.9536 5.14971 14.9537 5.20368V11.6251C14.9537 11.7528 14.9595 11.8918 14.9709 12.042C14.9825 12.1923 14.9921 12.3274 14.9998 12.4475C15.0012 12.4709 14.9954 12.4941 14.9831 12.5142C14.9708 12.5343 14.9525 12.5504 14.9308 12.5602C14.5743 12.7125 14.2016 12.8259 13.8197 12.8982C13.455 12.964 13.085 12.998 12.7141 12.9996ZM13.4476 11.6025V8.5268C13.3749 8.51054 13.301 8.49926 13.2266 8.49305C13.1482 8.4853 13.0693 8.48153 12.9904 8.48175C12.711 8.47903 12.4348 8.54079 12.1843 8.66201C11.916 8.78718 11.6923 8.98841 11.5423 9.23955C11.3924 9.4907 11.3231 9.78015 11.3435 10.0703C11.338 10.3159 11.379 10.5604 11.4645 10.7913C11.5341 10.9775 11.6441 11.1466 11.787 11.2871C11.9238 11.4163 12.0893 11.5127 12.2706 11.5687C12.4622 11.6294 12.6624 11.6598 12.8637 11.6589C12.9713 11.6589 13.0711 11.6551 13.1632 11.6476C13.2593 11.6412 13.3545 11.6261 13.4476 11.6025Z" fill="#FF61F6"/>
</svg>
