<svg width="18" height="18" viewBox="0 0 18 18" fill="none" xmlns="http://www.w3.org/2000/svg">
<rect width="18" height="18" rx="2" fill="#330000"/>
<path d="M8.52496 10.9011H5.4488L4.82035 12.8836C4.81183 12.9178 4.79121 12.9481 4.76205 12.9692C4.73289 12.9903 4.69702 13.001 4.6606 12.9993H3.10248C3.01373 12.9993 2.98262 12.9522 3.00916 12.8579L5.66484 5.45738C5.69156 5.38031 5.71815 5.2925 5.74463 5.19395C5.78122 5.05014 5.79916 4.9025 5.79806 4.75442C5.79625 4.74221 5.79741 4.72976 5.80145 4.71805C5.80549 4.70635 5.8123 4.69571 5.82134 4.68699C5.83037 4.67826 5.84139 4.67168 5.85351 4.66777C5.86564 4.66386 5.87854 4.66273 5.8912 4.66446H8.00853C8.07056 4.66446 8.10624 4.68599 8.11503 4.72873L11.146 12.8707C11.1725 12.9565 11.1459 12.9994 11.066 12.9993H9.33477C9.30503 13.0025 9.27511 12.9951 9.2506 12.9785C9.22609 12.962 9.20866 12.9374 9.20156 12.9093L8.52496 10.9011ZM5.9111 9.53367H8.16504C8.11179 9.3624 7.92861 8.96654 7.85761 8.75228C7.78644 8.53828 7.68902 8.36784 7.60905 8.12365C7.52909 7.87955 7.44919 7.63542 7.36935 7.39127C7.28939 7.14708 7.21616 6.91149 7.14967 6.68449C7.08307 6.4576 7.02314 6.24987 6.96989 6.06131H6.95653C6.88164 6.40838 6.78826 6.75149 6.67675 7.08927C6.55233 7.4748 6.42585 7.86885 6.29733 8.27145C6.16852 8.67417 6.03518 9.19114 5.9111 9.53367Z" fill="#FF9A00"/>
<path d="M12.9472 6.00596C12.8114 6.01121 12.6759 5.98875 12.5497 5.94004C12.4235 5.89132 12.3093 5.81746 12.2147 5.72327C12.1203 5.62499 12.0471 5.50969 11.999 5.38398C11.951 5.25828 11.9292 5.12466 11.9349 4.99081C11.9301 4.85828 11.9543 4.72626 12.006 4.60338C12.0576 4.4805 12.1356 4.36951 12.2347 4.27767C12.3329 4.18678 12.4487 4.11556 12.5756 4.06814C12.7024 4.02073 12.8377 3.99806 12.9737 4.00144C13.1122 3.9941 13.2507 4.01489 13.3803 4.06247C13.5099 4.11006 13.6277 4.18337 13.7261 4.27767C13.818 4.37335 13.8894 4.4856 13.9363 4.60798C13.9832 4.73035 14.0045 4.86045 13.9992 4.99081C14.0047 5.12519 13.9822 5.25928 13.933 5.38511C13.8838 5.51094 13.8089 5.62594 13.7127 5.72327C13.6123 5.81885 13.4924 5.89331 13.3606 5.94197C13.2289 5.99062 13.0881 6.01241 12.9472 6.00596ZM12.0849 12.8715V6.99658C12.0849 6.91942 12.1203 6.88093 12.1916 6.88093H13.7047C13.7757 6.88093 13.8112 6.91948 13.8112 6.99658V12.8715C13.8112 12.9573 13.7757 13.0001 13.7047 13H12.2048C12.1248 13 12.0849 12.9572 12.0849 12.8715Z" fill="#FF9A00"/>
</svg>
