<svg width="14" height="14" viewBox="0 0 14 14" fill="none" xmlns="http://www.w3.org/2000/svg">
<path fill-rule="evenodd" clip-rule="evenodd" d="M2.72222 2.06814V7.93482C3.62389 7.65988 5.17837 7.51639 7.11913 8.14092C9.10046 8.7785 10.5887 8.7702 11.2778 8.67112V2.76593C10.4076 2.8701 8.84889 2.82519 6.88087 2.19189C4.8495 1.5382 3.35291 1.81734 2.72222 2.06814ZM2.72222 8.75755C3.35291 8.50676 4.8495 8.22762 6.88087 8.88131C9.30958 9.66285 11.115 9.5483 11.7721 9.36331L12.0556 8.98898V2.29956L11.5613 1.92522C11.087 2.05874 9.44193 2.19897 7.11913 1.4515C4.65756 0.659382 2.8174 1.10279 2.14251 1.48284L1.94444 1.8217V13.0662H2.72222V8.75755Z" fill="black" fill-opacity="0.4"/>
</svg>
