<svg width="18" height="18" viewBox="0 0 18 18" fill="none" xmlns="http://www.w3.org/2000/svg">
<rect width="18" height="18" rx="2" fill="#00005B"/>
<path d="M7.27861 10.899H4.33817L3.74 12.7489C3.73182 12.7812 3.71208 12.8098 3.68418 12.8298C3.65628 12.8497 3.62197 12.8598 3.58714 12.8582H2.09785C2.01303 12.8582 1.98335 12.8137 2.00883 12.7246L4.55469 5.82665C4.58006 5.7538 4.60548 5.67081 4.63095 5.57766C4.66429 5.41561 4.68134 5.2509 4.68185 5.08576C4.68014 5.07421 4.68128 5.06244 4.68516 5.05138C4.68904 5.04031 4.69556 5.03026 4.70421 5.02202C4.71286 5.01377 4.7234 5.00756 4.735 5.00387C4.7466 5.00018 4.75894 4.99911 4.77105 5.00075H6.79484C6.85397 5.00075 6.88806 5.0211 6.89663 5.06149L9.78601 12.7367C9.81138 12.8178 9.7859 12.8583 9.70958 12.8582H8.055C8.02657 12.8613 7.99795 12.8543 7.97451 12.8386C7.95107 12.823 7.93441 12.7997 7.92768 12.7732L7.27861 10.899ZM4.79642 9.60649H6.80761C6.75655 9.44461 6.69708 9.11235 6.62922 8.90984C6.56136 8.70757 6.48924 8.49098 6.41287 8.26008C6.3366 8.02936 6.26023 7.79861 6.18375 7.56784C6.10749 7.33704 6.0375 7.11436 5.97378 6.8998C5.91028 6.68534 5.85306 6.489 5.80211 6.31078H5.78932C5.71766 6.6388 5.6284 6.9631 5.52191 7.2824C5.40298 7.64679 5.28203 8.01925 5.15907 8.39977C5.03612 8.78042 4.91517 9.28273 4.79642 9.60649Z" fill="#9999FF"/>
<path d="M14.4534 10.2363H11.9458C11.9823 10.4825 12.0703 10.719 12.2047 10.932C12.347 11.1345 12.5483 11.2928 12.7837 11.3875C13.1085 11.5265 13.4605 11.5977 13.8164 11.5965C14.0547 11.602 14.293 11.5842 14.5275 11.5432C14.7834 11.4996 15.0332 11.4283 15.2722 11.3307C15.3145 11.2984 15.3357 11.3186 15.3358 11.3913V12.5452C15.3379 12.5766 15.3313 12.6081 15.3167 12.6363C15.3021 12.6584 15.2826 12.6771 15.2594 12.691C14.9958 12.8099 14.7179 12.8976 14.4319 12.9521C14.0906 12.9981 13.7452 13.011 13.4011 12.9907C12.882 13.006 12.3654 12.9148 11.8864 12.7234C11.5015 12.5616 11.1615 12.3163 10.8935 12.0069C10.6433 11.7153 10.4572 11.3787 10.3462 11.017C10.2364 10.6601 10.1807 10.2899 10.1808 9.91791C10.1796 9.51167 10.2462 9.10785 10.3781 8.7216C10.505 8.3448 10.7059 7.99446 10.9699 7.68926C11.2303 7.38758 11.5559 7.14316 11.9245 6.97273C12.3391 6.79023 12.792 6.70088 13.2484 6.71156C13.6929 6.70577 14.1338 6.7888 14.5426 6.95532C14.8694 7.09651 15.1554 7.31112 15.3763 7.5808C15.5848 7.83755 15.7442 8.12739 15.8471 8.437C15.9474 8.73537 15.999 9.0467 16 9.36004C16 9.53819 15.9936 9.70012 15.9809 9.84585C15.9702 9.93263 15.9539 10.0187 15.9319 10.1035C15.9286 10.1303 15.9152 10.155 15.894 10.1729C15.8729 10.1909 15.8456 10.2008 15.8174 10.2007C15.7666 10.2007 15.6794 10.2068 15.5567 10.2189C15.4334 10.2311 15.2148 10.2262 15.0326 10.2303C14.8498 10.2344 14.6568 10.2364 14.4534 10.2363ZM11.9387 9.27141H13.606C13.8098 9.27141 13.9604 9.2694 14.0579 9.2654C14.1199 9.26541 14.1818 9.25929 14.2425 9.24712V9.17428C14.2498 9.02895 14.2408 8.8833 14.2158 8.73979C14.1471 8.5326 14.009 8.35265 13.8227 8.22759C13.6364 8.10253 13.4123 8.03928 13.1847 8.04755C12.9705 8.03523 12.7571 8.08263 12.5707 8.18399C12.3842 8.28534 12.2327 8.43627 12.1345 8.61838C12.039 8.82674 11.9731 9.04637 11.9387 9.27141Z" fill="#9999FF"/>
</svg>
