<svg width="18" height="18" viewBox="0 0 18 18" fill="none" xmlns="http://www.w3.org/2000/svg">
<path d="M0 2C0 0.89543 0.895431 0 2 0H16C17.1046 0 18 0.895431 18 2V16C18 17.1046 17.1046 18 16 18H2C0.89543 18 0 17.1046 0 16V2Z" fill="#C43E1C"/>
<path d="M9.5248 3.75988C10.5779 3.69034 11.622 3.98958 12.4713 4.60434C12.8196 4.90919 13.0927 5.28775 13.2698 5.71139C13.4469 6.13503 13.5235 6.59263 13.4937 7.04958C13.5054 7.64289 13.3286 8.22507 12.9879 8.71541C12.641 9.25736 12.1418 9.6894 11.5504 9.95954C10.8743 10.2675 10.1353 10.4196 9.39005 10.4043H7.3473V14.25H5.25V3.75988H9.5248ZM7.34623 8.6724H9.15048C9.72254 8.71367 10.2902 8.54798 10.7462 8.20664C10.9274 8.09232 11.0733 7.93168 11.1683 7.74202C11.2633 7.55236 11.3037 7.34088 11.2852 7.13036C11.2852 5.97015 10.5961 5.39005 9.21786 5.39005H7.34623V8.6724Z" fill="white"/>
</svg>
