<svg width="18" height="18" viewBox="0 0 18 18" fill="none" xmlns="http://www.w3.org/2000/svg">
<rect width="18" height="18" rx="2" fill="#C80A0A"/>
<path d="M14.742 10.5266C13.8457 9.56805 11.3981 9.95858 10.812 10.0296C9.95019 9.17751 9.36414 8.14793 9.15729 7.7929C9.46756 6.83432 9.6744 5.87574 9.70887 4.84615C9.70887 3.95858 9.36414 3 8.39887 3C8.05413 3 7.74387 3.21302 7.5715 3.49704C7.15782 4.2426 7.33018 5.73373 7.98519 7.26035C7.60598 8.36095 7.26124 9.42604 6.29597 11.3077C5.29624 11.7337 3.19334 12.7278 3.02097 13.7929C2.95202 14.1124 3.05544 14.432 3.29676 14.6805C3.53807 14.8935 3.84834 15 4.1586 15C5.43413 15 6.67518 13.1893 7.53703 11.6627C8.26098 11.4142 9.39861 11.0592 10.5362 10.8462C11.8807 12.0533 13.0528 12.2308 13.6734 12.2308C14.5007 12.2308 14.811 11.8757 14.9144 11.5562C15.0868 11.2012 14.9834 10.8107 14.742 10.5266ZM13.8802 11.1302C13.8457 11.3787 13.5355 11.6272 12.9839 11.4852C12.3289 11.3077 11.7428 10.9882 11.2257 10.5621C11.6739 10.4911 12.6736 10.3846 13.3976 10.5266C13.6734 10.5976 13.9491 10.7751 13.8802 11.1302ZM8.12308 3.81657C8.19203 3.71006 8.29545 3.63905 8.39887 3.63905C8.70913 3.63905 8.77808 4.02959 8.77808 4.34911C8.74361 5.09467 8.60571 5.84024 8.3644 6.5503C7.84729 5.13018 7.95071 4.13609 8.12308 3.81657ZM8.05413 10.7041C8.32992 10.1361 8.70913 9.14201 8.84703 8.71598C9.15729 9.24852 9.6744 9.88757 9.95019 10.1716C9.95019 10.2071 8.8815 10.4201 8.05413 10.7041ZM6.02018 12.1243C5.22729 13.4734 4.39992 14.3254 3.95176 14.3254C3.88281 14.3254 3.81386 14.2899 3.74492 14.2544C3.6415 14.1834 3.60702 14.0769 3.6415 13.9349C3.74492 13.4379 4.64123 12.7633 6.02018 12.1243Z" fill="white"/>
</svg>
