<svg width="24" height="24" viewBox="0 0 24 24" fill="none" xmlns="http://www.w3.org/2000/svg">
<path fill-rule="evenodd" clip-rule="evenodd" d="M19.843 11.1362L13.4794 5.13623L12.6364 5.50003V8.51797C9.39577 9.19198 7.45421 10.378 6.21658 11.8783C4.95364 13.4093 4.47507 15.2144 4.02787 16.9012L4.01671 16.9433L4.86382 17.4144C6.63846 15.5321 8.04012 14.737 9.29168 14.3928C10.3302 14.1073 11.284 14.1206 12.3633 14.1358C12.4534 14.137 12.5444 14.1383 12.6364 14.1394V17.5L13.4794 17.8638L19.843 11.8638V11.1362ZM18.7712 11.5L13.6364 16.3414V13.6429L13.1364 13.1429C12.9011 13.1429 12.6646 13.1393 12.4265 13.1356C11.337 13.119 10.215 13.1018 9.02652 13.4286C7.92243 13.7323 6.77514 14.3233 5.48762 15.4287C5.83 14.3735 6.26591 13.39 6.98799 12.5146C8.08571 11.1839 9.89756 10.0482 13.229 9.41994L13.6364 8.9286V6.65865L18.7712 11.5Z" fill="black"/>
</svg>
