<svg width="18" height="18" viewBox="0 0 18 18" fill="none" xmlns="http://www.w3.org/2000/svg">
<path d="M2 0C0.895431 0 0 0.89543 0 2V16C0 17.1046 0.89543 18 2 18H16C17.1046 18 18 17.1046 18 16V2C18 0.895431 17.1046 0 16 0H2Z" fill="#ED915E"/>
<rect x="9" width="1.5" height="1.5" fill="white"/>
<rect x="7.5" y="1.5" width="1.5" height="1.5" fill="white"/>
<rect x="9" y="3" width="1.5" height="1.5" fill="white"/>
<rect x="7.5" y="4.5" width="1.5" height="1.5" fill="white"/>
<rect x="9" y="6" width="1.5" height="1.5" fill="white"/>
<path d="M9.9 9H8.1V10.5L7.5 12L9 13.5L10.5 12L9.9 10.5V9Z" fill="white" stroke="white" stroke-linejoin="bevel"/>
</svg>
