<svg width="16" height="16" viewBox="0 0 16 16" fill="none" xmlns="http://www.w3.org/2000/svg">
<path d="M11.8095 2.66663H6V13.3333H14V4.99996M11.8095 2.66663L14 4.99996M11.8095 2.66663V4.99996H14" stroke="#E52020" stroke-linejoin="bevel"/>
<path d="M1.3335 6H12.0002V11.3333H1.3335V6Z" fill="#E52020"/>
<path d="M3.57308 9.28385H2.83089V8.72135H3.57308C3.7328 8.72135 3.86214 8.69531 3.9611 8.64323C4.06179 8.58941 4.13558 8.51649 4.18245 8.42448C4.22933 8.33073 4.25277 8.22396 4.25277 8.10417C4.25277 7.98785 4.22933 7.87934 4.18245 7.77865C4.13558 7.67795 4.06179 7.59635 3.9611 7.53385C3.86214 7.47135 3.7328 7.4401 3.57308 7.4401H2.83089V10.6667H2.11475V6.875H3.57308C3.86822 6.875 4.11995 6.92795 4.32829 7.03385C4.53836 7.13802 4.69808 7.28299 4.80745 7.46875C4.91857 7.65278 4.97412 7.86285 4.97412 8.09896C4.97412 8.34375 4.91857 8.55469 4.80745 8.73177C4.69808 8.90885 4.53836 9.04514 4.32829 9.14063C4.11995 9.23611 3.86822 9.28385 3.57308 9.28385Z" fill="white"/>
<path d="M6.66943 10.6667H6.25277V10.1042H6.66943C6.88992 10.1042 7.07482 10.0556 7.22412 9.95833C7.37343 9.85938 7.48627 9.71788 7.56266 9.53385C7.63905 9.34809 7.67725 9.12587 7.67725 8.86719V8.67188C7.67725 8.47222 7.65554 8.29601 7.61214 8.14323C7.56874 7.99045 7.5045 7.86198 7.41943 7.75781C7.3361 7.65365 7.2328 7.57465 7.10954 7.52083C6.98627 7.46701 6.84478 7.4401 6.68506 7.4401H6.25277V6.875H6.68506C6.93853 6.875 7.16943 6.91753 7.37777 7.0026C7.58784 7.08767 7.76926 7.21007 7.92204 7.36979C8.07655 7.52778 8.19461 7.71701 8.2762 7.9375C8.35954 8.15799 8.4012 8.40451 8.4012 8.67708V8.86719C8.4012 9.13802 8.35954 9.38455 8.2762 9.60677C8.19461 9.82726 8.07655 10.0165 7.92204 10.1745C7.76926 10.3325 7.58697 10.454 7.37516 10.5391C7.16336 10.6241 6.92811 10.6667 6.66943 10.6667ZM6.25277 6.875V10.6667H5.53662V6.875H6.25277Z" fill="white"/>
<path d="M9.72673 6.875V10.6667H9.01058V6.875H9.72673ZM11.2554 8.51302V9.07813H9.72673V8.51302H11.2554ZM11.4559 6.875V7.4401H9.72673V6.875H11.4559Z" fill="white"/>
</svg>