<svg width="18" height="18" viewBox="0 0 18 18" fill="none" xmlns="http://www.w3.org/2000/svg">
<rect width="18" height="18" rx="2" fill="#001E36"/>
<path d="M4 12.7827V5.1214C4 5.06555 4.02483 5.03748 4.07432 5.03748C4.20613 5.03748 4.36287 5.03547 4.54456 5.03146C4.72602 5.02751 4.92202 5.02353 5.13256 5.01952C5.34293 5.01556 5.56572 5.01155 5.80092 5.00749C6.03612 5.00354 6.2692 5.00153 6.50015 5.00148C7.03784 4.98812 7.57385 5.06521 8.08433 5.22932C8.47149 5.3562 8.82457 5.56509 9.11791 5.84079C9.36652 6.07977 9.55866 6.36814 9.68109 6.68601C9.79674 6.99542 9.85535 7.32211 9.85422 7.65117C9.8776 8.21229 9.7173 8.76621 9.39623 9.23379C9.08901 9.65106 8.65706 9.967 8.15865 10.139C7.60315 10.3328 7.01621 10.4282 6.42584 10.4208C6.24421 10.4208 6.11637 10.4188 6.04233 10.4148C5.96801 10.4108 5.85662 10.4088 5.70816 10.4087V12.7707C5.71031 12.7854 5.70891 12.8003 5.70407 12.8143C5.69923 12.8284 5.69109 12.8411 5.68028 12.8516C5.66948 12.8621 5.65631 12.87 5.64181 12.8746C5.62732 12.8793 5.61189 12.8807 5.59676 12.8786H4.08673C4.02891 12.8786 4 12.8466 4 12.7827ZM5.70815 6.47619V8.95799C5.8153 8.96606 5.91428 8.97007 6.00509 8.97002H6.41342C6.71301 8.9743 7.01148 8.93387 7.29837 8.85016C7.54365 8.77961 7.76283 8.64225 7.92982 8.45445C8.10258 8.23496 8.1882 7.96266 8.17106 7.68714C8.17761 7.45523 8.11531 7.22638 7.99156 7.02775C7.86149 6.83569 7.67353 6.68708 7.45323 6.60213C7.16552 6.49376 6.8582 6.44277 6.54966 6.45222C6.3517 6.45222 6.17639 6.45422 6.02372 6.45823C5.87084 6.46234 5.76565 6.46833 5.70815 6.47619Z" fill="#31A8FF"/>
<path d="M14.6722 8.47842C14.385 8.36403 14.0861 8.27964 13.7805 8.22668C13.4983 8.16394 13.2099 8.13176 12.9204 8.13072C12.7638 8.12663 12.6074 8.14481 12.4562 8.18468C12.3599 8.20542 12.2744 8.25854 12.2148 8.33459C12.1745 8.3954 12.1531 8.46613 12.153 8.53838C12.1553 8.6085 12.1813 8.67594 12.2272 8.73023C12.2995 8.81216 12.3879 8.8794 12.4872 8.92809C12.6637 9.02014 12.8455 9.10218 13.0318 9.17381C13.4471 9.30855 13.844 9.49174 14.2137 9.71936C14.4655 9.87334 14.6739 10.0855 14.8201 10.3368C14.9431 10.5748 15.0047 10.8381 14.9996 11.1041C15.0071 11.4555 14.9034 11.8006 14.7025 12.0933C14.4876 12.3904 14.1891 12.6214 13.8424 12.7587C13.4002 12.9306 12.9262 13.0122 12.45 12.9985C12.0989 13.002 11.7484 12.9698 11.4042 12.9026C11.1171 12.8537 10.8368 12.7732 10.5685 12.6628C10.5415 12.6492 10.519 12.6285 10.5036 12.603C10.4883 12.5775 10.4808 12.5483 10.482 12.5189V11.2241C10.4805 11.2114 10.4826 11.1985 10.4881 11.1869C10.4935 11.1753 10.5021 11.1653 10.513 11.1581C10.5236 11.1523 10.5358 11.1497 10.5479 11.1508C10.5601 11.1519 10.5716 11.1565 10.5809 11.1641C10.8946 11.3336 11.2325 11.4568 11.5837 11.5297C11.8793 11.6015 12.1825 11.6398 12.4872 11.6437C12.7055 11.6568 12.9238 11.6198 13.1246 11.5358C13.1861 11.5085 13.2381 11.4645 13.2743 11.4092C13.3106 11.3539 13.3295 11.2896 13.3287 11.2241C13.3235 11.1637 13.304 11.1053 13.2719 11.0533C13.2397 11.0014 13.1957 10.9572 13.1432 10.9243C12.909 10.7757 12.6549 10.6587 12.3881 10.5766C11.9995 10.4456 11.631 10.2641 11.2928 10.0371C11.0508 9.87418 10.8516 9.65862 10.7111 9.40769C10.5893 9.17147 10.5276 8.91038 10.5315 8.64632C10.5308 8.32909 10.6208 8.01788 10.7915 7.74714C10.9861 7.44894 11.2655 7.21159 11.5961 7.06367C11.9799 6.86041 12.4112 6.75613 12.8486 6.76086C13.1964 6.74326 13.5451 6.74817 13.8922 6.77555C14.1747 6.83124 14.4491 6.91994 14.7094 7.0397C14.7262 7.04436 14.7417 7.05275 14.7546 7.0642C14.7674 7.07566 14.7774 7.08986 14.7836 7.10568C14.792 7.13494 14.7961 7.16518 14.796 7.19555V8.4065C14.7969 8.42058 14.7939 8.43464 14.7874 8.44726C14.7809 8.45988 14.7711 8.47062 14.7589 8.47842C14.7459 8.48637 14.7309 8.49058 14.7155 8.49058C14.7002 8.49058 14.6852 8.48637 14.6722 8.47842Z" fill="#31A8FF"/>
</svg>
