<svg width="18" height="18" viewBox="0 0 18 18" fill="none" xmlns="http://www.w3.org/2000/svg">
<path d="M0 2C0 0.89543 0.895431 0 2 0H16C17.1046 0 18 0.895431 18 2V16C18 17.1046 17.1046 18 16 18H2C0.89543 18 0 17.1046 0 16V2Z" fill="#1F68F1"/>
<path d="M4.49402 5.21832C4.51074 4.95501 4.72917 4.75 4.99301 4.75H13.0069C13.2707 4.75 13.4891 4.95501 13.5059 5.21832L13.7618 9.25H4.23804L4.49402 5.21832Z" fill="white"/>
<path d="M14 9.55078C14 9.82692 13.7761 10.0508 13.5 10.0508L4.5 10.0508C4.22386 10.0508 4 9.82692 4 9.55078L14 9.55078Z" fill="white"/>
<path d="M11.3809 15C11.3809 15.1381 11.2689 15.25 11.1309 15.25L6.86895 15.25C6.73088 15.25 6.61895 15.1381 6.61895 15C6.61895 14.8619 6.73088 14.75 6.86895 14.75L11.1309 14.75C11.2689 14.75 11.3809 14.8619 11.3809 15Z" fill="white"/>
<path d="Mnan nanL11.3809 15C11.3809 15.1381 11.2743 15.25 11.1428 15.25L6.85705 15.25C6.72555 15.25 6.61895 15.1381 6.61895 15Lnan nanL6.61895 15C6.61895 14.8619 6.72555 14.75 6.85705 14.75L11.1428 14.75C11.2743 14.75 11.3809 14.8619 11.3809 15Lnan nanZ" fill="white"/>
<path fill-rule="evenodd" clip-rule="evenodd" d="M9.00013 15.25C8.75294 15.25 8.56679 15.025 8.61304 14.7822L8.62085 14.7412C8.7026 14.7161 8.76203 14.64 8.76203 14.55V13.9078V12.95L8.76203 12.75L8.76203 10.25H9.23822L9.23822 12.75V12.9496L9.23822 12.95V14.55C9.23822 14.64 9.29766 14.7161 9.37941 14.7412L9.38722 14.7822C9.43347 15.025 9.24732 15.25 9.00013 15.25Z" fill="white"/>
<path d="M9 3.45C9 3.20147 9.19188 3 9.42857 3H10.4762C10.7129 3 10.7619 3.25 10.9048 3.35V3.65C10.7619 3.75 10.7129 4 10.4762 4H9.42857C9.19188 4 9 3.79853 9 3.55V3.45Z" fill="white"/>
<path fill-rule="evenodd" clip-rule="evenodd" d="M12.0952 3.65H10.1905V3.35H12.0952C12.4371 3.35 12.7143 3.64101 12.7143 4V5.25H12.4286V4C12.4286 3.8067 12.2793 3.65 12.0952 3.65Z" fill="white"/>
</svg>
