<svg width="16" height="16" viewBox="0 0 16 16" fill="none" xmlns="http://www.w3.org/2000/svg">
<path d="M11.8095 2.66663H6V13.3333H14V4.99996M11.8095 2.66663L14 4.99996M11.8095 2.66663V4.99996H14" stroke="#E52020" stroke-linejoin="bevel"/>
<path d="M1.3335 6H12.0002V11.3333H1.3335V6Z" fill="#E52020"/>
<path d="M3.56022 9.51562V6.875H4.27637V9.51562C4.27637 9.76736 4.22168 9.98351 4.1123 10.1641C4.00293 10.3429 3.85362 10.48 3.66439 10.5755C3.47515 10.671 3.26161 10.7188 3.02376 10.7188C2.77897 10.7188 2.56196 10.678 2.37272 10.5964C2.18349 10.513 2.03505 10.3863 1.92741 10.2161C1.82151 10.046 1.76855 9.82986 1.76855 9.56771H2.4873C2.4873 9.71007 2.50901 9.82465 2.55241 9.91146C2.59581 9.99826 2.65744 10.0608 2.7373 10.099C2.8189 10.1372 2.91439 10.1562 3.02376 10.1562C3.12967 10.1562 3.22255 10.1319 3.30241 10.0833C3.38401 10.033 3.44737 9.96007 3.49251 9.86458C3.53765 9.7691 3.56022 9.65278 3.56022 9.51562Z" fill="white"/>
<path d="M6.44564 9.28385H5.46908V8.72135H6.44564C6.60536 8.72135 6.7347 8.69531 6.83366 8.64323C6.93435 8.58941 7.00814 8.51649 7.05501 8.42448C7.10189 8.33073 7.12533 8.22396 7.12533 8.10417C7.12533 7.98785 7.10189 7.87934 7.05501 7.77865C7.00814 7.67795 6.93435 7.59635 6.83366 7.53385C6.7347 7.47135 6.60536 7.4401 6.44564 7.4401H5.70345V10.6667H4.9873V6.875H6.44564C6.74078 6.875 6.99251 6.92795 7.20085 7.03385C7.41092 7.13802 7.57064 7.28299 7.68001 7.46875C7.79112 7.65278 7.84668 7.86285 7.84668 8.09896C7.84668 8.34375 7.79112 8.55469 7.68001 8.73177C7.57064 8.90885 7.41092 9.04514 7.20085 9.14062C6.99251 9.23611 6.74078 9.28385 6.44564 9.28385Z" fill="white"/>
<path d="M11.3675 8.70573V10.1823C11.312 10.2535 11.2243 10.3307 11.1045 10.4141C10.9864 10.4974 10.8319 10.5694 10.641 10.6302C10.45 10.6892 10.2156 10.7188 9.93783 10.7188C9.69651 10.7188 9.47602 10.6788 9.27637 10.599C9.07671 10.5174 8.90484 10.3984 8.76074 10.2422C8.61664 10.0859 8.50553 9.89497 8.42741 9.66927C8.34928 9.44358 8.31022 9.18576 8.31022 8.89583V8.64583C8.31022 8.3559 8.34668 8.09809 8.4196 7.8724C8.49425 7.6467 8.60015 7.45573 8.7373 7.29948C8.87619 7.14323 9.04199 7.02431 9.2347 6.94271C9.42914 6.86111 9.64616 6.82031 9.88574 6.82031C10.2069 6.82031 10.4708 6.87326 10.6774 6.97917C10.8857 7.08507 11.0455 7.2309 11.1566 7.41667C11.2677 7.60069 11.3371 7.8125 11.3649 8.05208H10.667C10.6479 7.92014 10.6097 7.80469 10.5524 7.70573C10.4951 7.60503 10.4135 7.52691 10.3076 7.47135C10.2035 7.41406 10.068 7.38542 9.90137 7.38542C9.76074 7.38542 9.63661 7.41319 9.52897 7.46875C9.42133 7.52431 9.33105 7.60503 9.25814 7.71094C9.18522 7.81684 9.12967 7.94792 9.09147 8.10417C9.05501 8.26042 9.03678 8.43924 9.03678 8.64062V8.89583C9.03678 9.09896 9.05762 9.27951 9.09928 9.4375C9.14095 9.59375 9.20085 9.72569 9.27897 9.83333C9.35883 9.93924 9.45692 10.02 9.57324 10.0755C9.6913 10.1293 9.82498 10.1562 9.97428 10.1562C10.1097 10.1562 10.2217 10.145 10.3102 10.1224C10.4005 10.0981 10.4725 10.0694 10.5264 10.0365C10.5802 10.0035 10.6219 9.97135 10.6514 9.9401V9.22917H9.89876V8.70573H11.3675Z" fill="white"/>
</svg>
