<svg width="14" height="14" viewBox="0 0 14 14" fill="none" xmlns="http://www.w3.org/2000/svg">
<path fill-rule="evenodd" clip-rule="evenodd" d="M12.4444 7.00005C12.4444 10.0547 10.0546 12.4445 7 12.4445C3.94539 12.4445 1.55556 10.0547 1.55556 7.00005C1.55556 3.94544 3.94539 1.55561 7 1.55561C10.0546 1.55561 12.4444 3.94544 12.4444 7.00005ZM13.2222 7.00005C13.2222 10.4365 10.4364 13.2223 7 13.2223C3.56356 13.2223 0.777779 10.4365 0.777779 7.00005C0.777779 3.56362 3.56356 0.777832 7 0.777832C10.4364 0.777832 13.2222 3.56362 13.2222 7.00005ZM6.52957 8.68315H7.50179C7.50179 8.42528 7.5349 8.18484 7.60111 7.96182C7.66732 7.7388 7.79625 7.53844 7.98791 7.36072C8.21092 7.15164 8.42175 6.9321 8.62037 6.70212C8.819 6.47213 8.98104 6.22646 9.10648 5.96511C9.23542 5.70027 9.29988 5.41105 9.29988 5.09743C9.29988 4.68972 9.21799 4.33777 9.05421 4.04157C8.89043 3.74189 8.65173 3.5119 8.33811 3.35161C8.02798 3.19131 7.65163 3.11117 7.20908 3.11117C6.80834 3.11117 6.44594 3.18609 6.12186 3.33593C5.79779 3.48577 5.53993 3.70182 5.34827 3.98407C5.1601 4.26633 5.06253 4.60435 5.05556 4.99811H6.02255C6.02604 4.75419 6.08353 4.5573 6.19504 4.40746C6.30655 4.25414 6.45291 4.14088 6.63411 4.06771C6.81531 3.99453 7.00697 3.95794 7.20908 3.95794C7.45301 3.95794 7.65686 4.00498 7.82064 4.09907C7.98791 4.19315 8.11335 4.32731 8.19698 4.50155C8.2841 4.67578 8.32766 4.88312 8.32766 5.12356C8.32766 5.36052 8.28584 5.56437 8.20221 5.73512C8.11858 5.90238 8.00881 6.05919 7.87291 6.20555C7.74049 6.34842 7.59414 6.50175 7.43384 6.66553C7.21431 6.89203 7.03833 7.09414 6.90592 7.27186C6.7735 7.44958 6.67767 7.64646 6.61843 7.86251C6.56268 8.07507 6.53306 8.34862 6.52957 8.68315ZM6.63411 9.94286C6.53654 10.0509 6.48776 10.1833 6.48776 10.3401C6.48776 10.4899 6.53654 10.6189 6.63411 10.7269C6.73168 10.8349 6.87281 10.8889 7.0575 10.8889C7.24567 10.8889 7.38854 10.8349 7.48611 10.7269C7.58368 10.6189 7.63247 10.4899 7.63247 10.3401C7.63247 10.1833 7.58368 10.0509 7.48611 9.94286C7.38854 9.83483 7.24567 9.78082 7.0575 9.78082C6.87281 9.78082 6.73168 9.83483 6.63411 9.94286Z" fill="black" fill-opacity="0.4"/>
</svg>
