<svg width="14" height="14" viewBox="0 0 14 14" fill="none" xmlns="http://www.w3.org/2000/svg">
<path fill-rule="evenodd" clip-rule="evenodd" d="M9.28668 10.7663L8.73325 10.2128C8.20644 10.3745 7.62307 10.4715 6.98152 10.4715C3.1225 10.4715 1.3684 6.96326 1.3684 6.96326C1.3684 6.96326 1.97702 5.74601 3.26597 4.74554L2.76635 4.24593C2.57805 4.39561 2.40395 4.54868 2.24393 4.70108C1.74021 5.18081 1.36935 5.65942 1.12347 6.01925C1.00017 6.19967 0.907302 6.35171 0.843987 6.46114C0.812303 6.5159 0.787942 6.56013 0.7708 6.59208C0.762227 6.60805 0.755452 6.62097 0.750463 6.6306L0.744314 6.64258L0.742239 6.64667L0.741451 6.64824L0.741119 6.6489V7.27763L0.741451 7.27829L0.742239 7.27985L0.744314 7.28395L0.750463 7.29592C0.755452 7.30556 0.762227 7.31847 0.7708 7.33445C0.787942 7.36639 0.812303 7.41062 0.843987 7.46538C0.907302 7.57481 1.00017 7.72685 1.12347 7.90728C1.36935 8.2671 1.74021 8.74571 2.24393 9.22545C3.25256 10.186 4.8204 11.1731 6.98152 11.1731C7.84359 11.1731 8.61126 11.016 9.28668 10.7663ZM1.3684 6.96326C0.740829 7.27704 0.741119 7.27763 0.741119 7.27763L1.3684 6.96326ZM0.741119 6.6489C0.741119 6.6489 0.740829 6.64948 1.3684 6.96326L0.741119 6.6489ZM4.31349 3.30691C5.07296 2.97348 5.9611 2.75342 6.98152 2.75342C8.97844 2.75342 10.5432 3.7514 11.5756 4.68999C12.096 5.16304 12.4966 5.63455 12.7678 5.9882C12.9037 6.16554 13.0082 6.31465 13.0799 6.4214C13.1157 6.47482 13.1435 6.51775 13.1629 6.54845C13.1726 6.5638 13.1803 6.57611 13.1859 6.58515L13.1926 6.59624L13.1949 6.59989L13.1963 6.60227L13.2222 7.27704L13.2216 7.27829L13.2208 7.27985L13.2187 7.28395L13.2126 7.29592C13.2076 7.30556 13.2008 7.31847 13.1922 7.33445C13.1751 7.36639 13.1507 7.41062 13.1191 7.46538C13.0557 7.57481 12.9629 7.72685 12.8396 7.90728C12.5937 8.2671 12.2228 8.74571 11.7191 9.22545C11.4799 9.4533 11.2092 9.68264 10.9065 9.89994L10.4032 9.39657C11.8937 8.36517 12.5946 6.96326 12.5946 6.96326C12.5946 6.96326 10.4897 3.45506 6.98152 3.45506C6.18203 3.45506 5.47289 3.60563 4.85098 3.84439L4.31349 3.30691Z" fill="black" fill-opacity="0.7"/>
<path fill-rule="evenodd" clip-rule="evenodd" d="M11.9928 11.9745L2.07006 2.0518L2.56619 1.55566L12.4889 11.4784L11.9928 11.9745Z" fill="black" fill-opacity="0.7"/>
<path fill-rule="evenodd" clip-rule="evenodd" d="M8.8822 7.86925C9.01323 7.59486 9.08658 7.28766 9.08658 6.96332C9.08658 5.8008 8.14418 4.8584 6.98166 4.8584C6.65732 4.8584 6.35012 4.93175 6.07574 5.06278L8.8822 7.86925ZM4.94605 6.42559C4.90083 6.59724 4.87674 6.77747 4.87674 6.96332C4.87674 8.12584 5.81915 9.06824 6.98166 9.06824C7.16752 9.06824 7.34774 9.04415 7.5194 8.99893L4.94605 6.42559Z" fill="black" fill-opacity="0.7"/>
</svg>
