<svg width="12" height="12" viewBox="0 0 12 12" fill="none" xmlns="http://www.w3.org/2000/svg">
<circle cx="6" cy="6" r="5.5" fill="#F16354" stroke="#F16354"/>
<svg width="6" height="6" viewBox="0 0 6 6" x="3" y="3" fill="none" xmlns="http://www.w3.org/2000/svg">
<path d="M0.646447 4.64645C0.451185 4.84171 0.451184 5.15829 0.646447 5.35355C0.841709 5.54882 1.15829 5.54882 1.35355 5.35355L0.646447 4.64645ZM5.35355 1.35355C5.54882 1.15829 5.54882 0.841709 5.35355 0.646447C5.15829 0.451184 4.84171 0.451185 4.64645 0.646447L5.35355 1.35355ZM1.35355 0.646447C1.15829 0.451185 0.841709 0.451184 0.646447 0.646447C0.451185 0.841709 0.451184 1.15829 0.646447 1.35355L1.35355 0.646447ZM4.64645 5.35355C4.84171 5.54882 5.15829 5.54882 5.35355 5.35355C5.54882 5.15829 5.54882 4.84171 5.35355 4.64645L4.64645 5.35355ZM1.35355 5.35355L3.35355 3.35355L2.64645 2.64645L0.646447 4.64645L1.35355 5.35355ZM3.35355 3.35355L5.35355 1.35355L4.64645 0.646447L2.64645 2.64645L3.35355 3.35355ZM0.646447 1.35355L2.64645 3.35355L3.35355 2.64645L1.35355 0.646447L0.646447 1.35355ZM2.64645 3.35355L4.64645 5.35355L5.35355 4.64645L3.35355 2.64645L2.64645 3.35355Z" fill="white"/>
</svg>
</svg>
