<svg width="14" height="14" viewBox="0 0 14 14" fill="none" xmlns="http://www.w3.org/2000/svg">
<path fill-rule="evenodd" clip-rule="evenodd" d="M7 1.08887C5.28178 1.08887 3.88889 2.48176 3.88889 4.19998V4.97776H2.52777L2.13889 5.36664V12.5611L2.52777 12.95H11.4722L11.8611 12.5611V5.36664L11.4722 4.97776H10.1111V4.19998C10.1111 2.48176 8.71822 1.08887 7 1.08887ZM9.33333 4.97776V4.19998C9.33333 2.91131 8.28866 1.86665 7 1.86665C5.71133 1.86665 4.66666 2.91131 4.66666 4.19998V4.97776H9.33333ZM2.91666 5.75553V12.1722H11.0833V5.75553H2.91666ZM6.41666 9.83887V7.69998H7.58333V9.83887H6.41666Z" fill="#00A95B"/>
</svg>
