<svg width="18" height="19" viewBox="0 0 18 19" fill="none" xmlns="http://www.w3.org/2000/svg">
<path fill-rule="evenodd" clip-rule="evenodd" d="M11.5 6C11.5 7.38071 10.3807 8.5 9 8.5C7.61929 8.5 6.5 7.38071 6.5 6C6.5 4.61929 7.61929 3.5 9 3.5C10.3807 3.5 11.5 4.61929 11.5 6ZM12.5 6C12.5 7.933 10.933 9.5 9 9.5C7.067 9.5 5.5 7.933 5.5 6C5.5 4.067 7.067 2.5 9 2.5C10.933 2.5 12.5 4.067 12.5 6ZM9 11.4351C12.1855 11.4351 14.6649 13.3056 14.9687 15.5649H3.03133C3.33512 13.3056 5.81446 11.4351 9 11.4351ZM9 10.5C5.22324 10.5 2 12.9008 2 16.0325L2.5 16.5H15.5L16 16.0325C16 12.9008 12.7768 10.5 9 10.5Z" fill="black" fill-opacity="0.7"/>
</svg>
