<svg width="20" height="20" viewBox="0 0 20 20" fill="none" xmlns="http://www.w3.org/2000/svg">
<path fill-rule="evenodd" clip-rule="evenodd" d="M10.0001 1.55554C5.33541 1.55554 1.55566 5.34317 1.55566 10.0133C1.55566 14.6834 5.33541 18.471 10.0001 18.471L10.1112 18.3599V17.378L10.0001 17.2669C6.00238 17.2669 2.75984 14.0203 2.75984 10.0133C2.75984 6.0063 6.00238 2.75972 10.0001 2.75972C13.9978 2.75972 17.2404 6.0063 17.2404 10.0133C17.2404 11.4427 16.7946 12.6737 16.1142 13.4433C15.4535 14.1906 14.5746 14.5131 13.5534 14.2062C12.9018 14.0104 12.5452 13.4594 12.4034 12.6401C12.2615 11.82 12.3696 10.866 12.5425 10.1686L13.66 6.25059L13.5836 6.11327L12.6394 5.84393L12.502 5.9203L12.2406 6.83695C11.99 6.46253 11.6322 6.11766 11.1331 5.83991C10.3148 5.38449 9.45251 5.41901 8.68288 5.74024C7.92966 6.05461 7.25681 6.64282 6.7237 7.32941C6.18774 8.01968 5.76591 8.84368 5.53394 9.67634C5.30361 10.5031 5.24778 11.3864 5.50763 12.1673C5.95663 13.5166 6.92457 14.1591 7.9626 14.2928C8.94964 14.4199 9.9683 14.0868 10.6418 13.5808C10.864 13.4139 11.0637 13.2066 11.2421 12.9797C11.4453 13.983 11.9915 14.9942 13.2068 15.3594C14.7299 15.8171 16.0821 15.2977 17.0164 14.2408C17.9312 13.206 18.4446 11.6701 18.4446 10.0133C18.4446 5.34317 14.6648 1.55554 10.0001 1.55554ZM9.14669 6.85151C9.63721 6.64678 10.1054 6.64604 10.5476 6.89213C11.2613 7.28933 11.4941 7.85956 11.5465 8.42085C11.5989 8.9822 11.4666 9.51014 11.3895 9.8159L11.3765 9.86749C11.2919 10.2064 11.1089 10.7708 10.8436 11.3241C10.5708 11.8932 10.2484 12.3702 9.91854 12.6181C9.47177 12.9537 8.76325 13.1818 8.11642 13.0985C7.81479 13.0596 7.52373 12.9538 7.27165 12.7497C7.01975 12.5458 6.80049 12.2387 6.65021 11.7871C6.48993 11.3054 6.50415 10.6808 6.69394 9.99952C6.88209 9.32417 7.2305 8.64017 7.67483 8.06792C8.122 7.49201 8.63951 7.06319 9.14669 6.85151Z" fill="black"/>
</svg>
