<svg width="12" height="13" viewBox="0 0 12 13" fill="none" xmlns="http://www.w3.org/2000/svg">
<path fill-rule="evenodd" clip-rule="evenodd" d="M7.66658 4.16732C7.66658 5.08779 6.92039 5.83398 5.99992 5.83398C5.07944 5.83398 4.33325 5.08779 4.33325 4.16732C4.33325 3.24684 5.07944 2.50065 5.99992 2.50065C6.92039 2.50065 7.66658 3.24684 7.66658 4.16732ZM8.33325 4.16732C8.33325 5.45598 7.28858 6.50065 5.99992 6.50065C4.71125 6.50065 3.66658 5.45598 3.66658 4.16732C3.66658 2.87865 4.71125 1.83398 5.99992 1.83398C7.28858 1.83398 8.33325 2.87865 8.33325 4.16732ZM5.99992 7.79069C8.12361 7.79069 9.77651 9.0377 9.97903 10.5439H2.02081C2.22333 9.0377 3.87622 7.79069 5.99992 7.79069ZM5.99992 7.16732C3.48208 7.16732 1.33325 8.76783 1.33325 10.8556L1.66659 11.1673H10.3333L10.6666 10.8556C10.6666 8.76783 8.51776 7.16732 5.99992 7.16732Z" fill="black" fill-opacity="0.5"/>
</svg>
