<svg width="40" height="40" viewBox="0 0 40 40" fill="none" xmlns="http://www.w3.org/2000/svg">
<circle cx="20" cy="20" r="20" fill="#CCCCCC"/>
<path d="M15.8496 15.9688V24.5H14.0918L10.6641 18.7812V24.5H8.90625V15.9688H10.6641L14.0977 21.6934V15.9688H15.8496ZM19.998 24.5H18.1406L18.1523 23.1289H19.998C20.459 23.1289 20.8477 23.0254 21.1641 22.8184C21.4805 22.6074 21.7188 22.3008 21.8789 21.8984C22.043 21.4961 22.125 21.0098 22.125 20.4395V20.0234C22.125 19.5859 22.0781 19.2012 21.9844 18.8691C21.8945 18.5371 21.7598 18.2578 21.5801 18.0312C21.4004 17.8047 21.1797 17.6348 20.918 17.5215C20.6562 17.4043 20.3555 17.3457 20.0156 17.3457H18.1055V15.9688H20.0156C20.5859 15.9688 21.1074 16.0664 21.5801 16.2617C22.0566 16.4531 22.4688 16.7285 22.8164 17.0879C23.1641 17.4473 23.4316 17.877 23.6191 18.377C23.8105 18.873 23.9062 19.4258 23.9062 20.0352V20.4395C23.9062 21.0449 23.8105 21.5977 23.6191 22.0977C23.4316 22.5977 23.1641 23.0273 22.8164 23.3867C22.4727 23.7422 22.0605 24.0176 21.5801 24.2129C21.1035 24.4043 20.5762 24.5 19.998 24.5ZM19.1367 15.9688V24.5H17.3789V15.9688H19.1367ZM28.5234 17.4277L26.2031 24.5H24.334L27.5039 15.9688H28.6934L28.5234 17.4277ZM30.4512 24.5L28.125 17.4277L27.9375 15.9688H29.1387L32.3262 24.5H30.4512ZM30.3457 21.3242V22.7012H25.8398V21.3242H30.3457Z" fill="white"/>
</svg>
