<svg width="24" height="24" viewBox="0 0 24 24" fill="none" xmlns="http://www.w3.org/2000/svg">
<path fill-rule="evenodd" clip-rule="evenodd" d="M13.3287 4.40957C12.9518 4.15182 12.4964 4 12 4C11.0186 4 10.1971 4.59352 9.82667 5.42583C7.8944 6.32239 6.58449 8.37601 6.58449 10.6875V13.9932L5.21039 15.7614L6 17.375H9.78909C9.85277 18.5509 10.8093 19.5 12 19.5C13.1907 19.5 14.1472 18.5509 14.2109 17.375H18L18.7896 15.7614L17.4155 13.9932V10.6875C17.4155 10.4495 17.4016 10.2142 17.3746 9.98269C17.2513 9.99414 17.1263 10 17 10C16.783 10 16.57 9.98271 16.3623 9.94944C16.3973 10.1899 16.4155 10.4364 16.4155 10.6875V13.836V14.336L16.5267 14.4792L16.7869 14.8139L17.2229 15.375L18 16.375H16.7336H7.26645H6L6.7771 15.375L7.2131 14.8139L7.47326 14.4792L7.58449 14.336V13.836V10.6875C7.58449 9.00618 8.40009 7.52934 9.62977 6.68795C9.77217 6.59051 9.92013 6.5016 10.073 6.42188C10.254 6.32751 10.4418 6.24603 10.6356 6.17853C10.748 5.50918 11.3161 5 12 5C12.4111 5 12.7804 5.184 13.034 5.47619C13.0829 5.1019 13.1836 4.74389 13.3287 4.40957ZM12 18.5C11.3789 18.5 10.8529 18.0145 10.7917 17.375H13.2083C13.1471 18.0145 12.6211 18.5 12 18.5Z" fill="#4D4D4D"/>
<circle cx="17" cy="6" r="3" fill="#03BD5D"/>
</svg>
