<svg width="24" height="24" viewBox="0 0 24 24" fill="none" xmlns="http://www.w3.org/2000/svg">
<path fill-rule="evenodd" clip-rule="evenodd" d="M7.58449 14.836V11.1875C7.58449 9.50618 8.40009 8.02934 9.62977 7.18795C9.77217 7.09051 9.92013 7.0016 10.073 6.92188C10.254 6.82751 10.4418 6.74603 10.6356 6.67853C10.748 6.00918 11.3161 5.5 12 5.5C12.6839 5.5 13.252 6.00918 13.3644 6.67853C13.5582 6.74603 13.746 6.82751 13.927 6.92188C14.0799 7.0016 14.2278 7.09052 14.3702 7.18795C15.5999 8.02934 16.4155 9.50618 16.4155 11.1875V14.836L18 16.875H6L7.58449 14.836ZM17.4155 14.4932V11.1875C17.4155 8.87601 16.1056 6.82239 14.1733 5.92583C13.8029 5.09352 12.9814 4.5 12 4.5C11.0186 4.5 10.1971 5.09352 9.82667 5.92583C7.8944 6.82239 6.58449 8.87601 6.58449 11.1875V14.4932L5.21039 16.2614L6 17.875H9.78909C9.85277 19.0509 10.8093 20 12 20C13.1907 20 14.1472 19.0509 14.2109 17.875H18L18.7896 16.2614L17.4155 14.4932ZM13.2083 17.875H10.7917C10.8529 18.5145 11.3789 19 12 19C12.6211 19 13.1471 18.5145 13.2083 17.875Z" fill="#4D4D4D"/>
</svg>
