<svg width="15" height="12" viewBox="0 0 14 11" fill="current" xmlns="http://www.w3.org/2000/svg">
<path fill-rule="evenodd" clip-rule="evenodd" d="M0.463867 5.28015L5.7669 0.280151L6.4694 0.583314V3.09827C9.16991 3.65994 10.7879 4.64827 11.8192 5.89853C12.8717 7.17435 13.2705 8.67864 13.6432 10.0843L13.6525 10.1194L12.9465 10.512C11.4677 8.94334 10.2996 8.28081 9.25665 7.99399C8.39122 7.756 7.5964 7.76715 6.69698 7.77977C6.62188 7.78082 6.54606 7.78188 6.4694 7.78281V10.5833L5.7669 10.8865L0.463867 5.88648V5.28015ZM1.35708 5.58331L5.63607 9.61779V7.36903L6.05274 6.95236C6.24883 6.95236 6.44591 6.94935 6.64429 6.94631C7.55225 6.93243 8.48723 6.91813 9.47761 7.19049C10.3977 7.44351 11.3538 7.93603 12.4267 8.85725C12.1414 7.97785 11.7781 7.15826 11.1764 6.42881C10.2616 5.31988 8.75175 4.37342 5.97553 3.84991L5.63607 3.44046V1.54884L1.35708 5.58331Z" fill="current"/>
</svg>
