<svg width="18" height="18" viewBox="0 0 18 18" fill="none" xmlns="http://www.w3.org/2000/svg">
    <path fill-rule="evenodd" clip-rule="evenodd" d="M1.08997 8.2002L7.4536 2.2002L8.29661 2.56399V5.58194C11.5372 6.25594 13.4788 7.44194 14.7164 8.94225C15.9793 10.4732 16.4579 12.2784 16.9051 13.9652L16.9163 14.0073L16.0692 14.4784C14.2945 12.596 12.8929 11.801 11.6413 11.4568C10.6028 11.1712 9.64901 11.1846 8.5697 11.1997C8.47959 11.201 8.3886 11.2023 8.29661 11.2034V14.564L7.4536 14.9278L1.08997 8.92778V8.2002ZM2.16182 8.56399L7.29661 13.4054V10.7068L7.79661 10.2068C8.03192 10.2068 8.26842 10.2032 8.50647 10.1996C9.59602 10.1829 10.718 10.1658 11.9065 10.4926C13.0106 10.7962 14.1578 11.3873 15.4454 12.4927C15.103 11.4374 14.6671 10.4539 13.945 9.57859C12.8473 8.24788 11.0354 7.11212 7.70396 6.4839L7.29661 5.99256V3.72262L2.16182 8.56399Z" fill="black" fill-opacity="0.5"/>
</svg>
