<svg width="24" height="24" viewBox="0 0 24 24" fill="none" xmlns="http://www.w3.org/2000/svg">
<path d="M12 20C12.2519 20.4319 12.252 20.4319 12.2521 20.4318L12.2524 20.4316L12.2533 20.4311L12.2569 20.429L12.2704 20.421L12.322 20.3906C12.3669 20.3641 12.4323 20.3252 12.5154 20.2752C12.6816 20.1753 12.9185 20.0312 13.2025 19.8537C13.7699 19.499 14.5286 19.0092 15.289 18.4705C16.0463 17.9341 16.8196 17.3394 17.4085 16.7751C17.7022 16.4935 17.9634 16.207 18.1546 15.9283C18.3372 15.6619 18.5 15.34 18.5 15V13.4146V6.73171L18.2072 6.27665L12.2072 3.54494H11.7928L5.79282 6.27665L5.5 6.73171V13.4146V15C5.5 15.34 5.66281 15.6619 5.84545 15.9283C6.03658 16.207 6.29777 16.4935 6.59155 16.7751C7.18039 17.3394 7.95366 17.9341 8.71099 18.4705C9.47143 19.0092 10.2301 19.499 10.7975 19.8537C11.0815 20.0312 11.3184 20.1753 11.4846 20.2752C11.5677 20.3252 11.6331 20.3641 11.678 20.3906L11.7296 20.421L11.7431 20.429L11.7467 20.4311L11.7476 20.4316L11.7479 20.4318C11.748 20.4319 11.7481 20.4319 12 20ZM12 20L12.2519 20.4319H11.7481L12 20Z" stroke="#03BD5D" stroke-linejoin="bevel"/>
<path d="M9 11.6L11.25 14L15 10" stroke="#03BD5D" stroke-linecap="square"/>
</svg>
