<svg width="18" height="18" viewBox="0 0 18 18" fill="none" xmlns="http://www.w3.org/2000/svg">
<path fill-rule="evenodd" clip-rule="evenodd" d="M12.7002 8C12.7002 10.7614 10.4616 13 7.7002 13C4.93877 13 2.7002 10.7614 2.7002 8C2.7002 5.23858 4.93877 3 7.7002 3C10.4616 3 12.7002 5.23858 12.7002 8ZM11.9429 12.2426C10.8571 13.3284 9.35706 14 7.7002 14C4.38649 14 1.7002 11.3137 1.7002 8C1.7002 4.68629 4.38649 2 7.7002 2C11.0139 2 13.7002 4.68629 13.7002 8C13.7002 9.29582 13.2894 10.4957 12.591 11.4765L16.4073 15.2929L15.7002 16L11.9429 12.2426Z" fill="black" fill-opacity="1"/>
</svg>
