<svg width="14" height="14" viewBox="0 0 14 14" fill="none" xmlns="http://www.w3.org/2000/svg">
<path fill-rule="evenodd" clip-rule="evenodd" d="M13.2222 7.29008L12.5965 7.00022L13.1964 6.66675L13.2222 7.29008ZM1.40322 7.00022C0.777497 7.29008 0.777786 7.29061 0.777786 7.29061L0.778903 7.29267L0.780972 7.29645L0.787102 7.30752C0.792077 7.31642 0.798832 7.32835 0.80738 7.3431C0.824471 7.37261 0.848761 7.41347 0.880352 7.46406C0.943481 7.56515 1.03608 7.70559 1.15901 7.87226C1.40417 8.20466 1.77394 8.64677 2.27619 9.08994C3.28185 9.9773 4.84508 10.8891 6.99986 10.8891C9.15464 10.8891 10.7179 9.9773 11.7235 9.08994C12.2258 8.64677 12.5956 8.20466 12.8407 7.87226C12.9636 7.70559 13.0562 7.56515 13.1194 7.46406C13.151 7.41347 13.1752 7.37261 13.1923 7.3431C13.2009 7.32835 13.2076 7.31642 13.2126 7.30752L13.2187 7.29645L13.2208 7.29267L13.2216 7.29122L13.2222 7.29008C13.2222 7.29008 13.2222 7.29008 12.5965 7.00022C13.1964 6.66675 13.1964 6.66675 13.1964 6.66675L13.195 6.66455L13.1927 6.66117L13.186 6.65093C13.1804 6.64258 13.1728 6.63121 13.1631 6.61703C13.1437 6.58867 13.1161 6.54901 13.0803 6.49967C13.0088 6.40105 12.9047 6.26332 12.7691 6.0995C12.4988 5.7728 12.0993 5.33725 11.5805 4.90026C10.5511 4.03322 8.99091 3.11133 6.99986 3.11133C4.84508 3.11133 3.28185 4.02314 2.27619 4.9105C1.77394 5.35366 1.40417 5.79578 1.15901 6.12817C1.03608 6.29484 0.943481 6.43529 0.880352 6.53638C0.848761 6.58697 0.824471 6.62782 0.80738 6.65733C0.798832 6.67209 0.792077 6.68402 0.787102 6.69292L0.780972 6.70398L0.778903 6.70776L0.778117 6.70921C0.778117 6.70921 0.777497 6.71036 1.40322 7.00022ZM1.40322 7.00022L0.777786 7.29061L0.778117 6.70921L1.40322 7.00022ZM1.40322 7.00022C1.40322 7.00022 3.15217 3.75948 6.99986 3.75948C10.4978 3.75948 12.5965 7.00022 12.5965 7.00022C12.5965 7.00022 10.8475 10.241 6.99986 10.241C3.15217 10.241 1.40322 7.00022 1.40322 7.00022Z" fill="black" fill-opacity="0.5"/>
<circle cx="7.00001" cy="7.00033" r="2.33333" fill="black" fill-opacity="0.5"/>
</svg>
