<svg width="16" height="16" viewBox="0 0 16 16" fill="none" xmlns="http://www.w3.org/2000/svg">
<path fill-rule="evenodd" clip-rule="evenodd" d="M11.289 7.11068C11.289 9.56528 9.29916 11.5551 6.84456 11.5551C4.38996 11.5551 2.40012 9.56528 2.40012 7.11068C2.40012 4.65608 4.38996 2.66623 6.84456 2.66623C9.29916 2.66623 11.289 4.65608 11.289 7.11068ZM10.6158 10.8819C9.65067 11.8471 8.31733 12.444 6.84456 12.444C3.89905 12.444 1.51123 10.0562 1.51123 7.11068C1.51123 4.16516 3.89905 1.77734 6.84456 1.77734C9.79008 1.77734 12.1779 4.16516 12.1779 7.11068C12.1779 8.26252 11.8128 9.32908 11.1919 10.2009L14.5843 13.5933L13.9557 14.2218L10.6158 10.8819Z" fill="black" fill-opacity="0.7"/>
</svg>
