<svg width="13" height="14" viewBox="0 0 13 14" fill="none" xmlns="http://www.w3.org/2000/svg">
<path d="M11.5 10.9688C11.5 11.6418 10.9543 12.1875 10.2812 12.1875V13.1875C11.5066 13.1875 12.5 12.1941 12.5 10.9688H11.5ZM10.2812 12.1875C9.60815 12.1875 9.0625 11.6418 9.0625 10.9688H8.0625C8.0625 12.1941 9.05587 13.1875 10.2812 13.1875V12.1875ZM9.0625 10.9688C9.0625 10.2957 9.60815 9.75 10.2812 9.75V8.75C9.05587 8.75 8.0625 9.74337 8.0625 10.9688H9.0625ZM10.2812 9.75C10.9543 9.75 11.5 10.2957 11.5 10.9688H12.5C12.5 9.74337 11.5066 8.75 10.2812 8.75V9.75ZM11.5 2.71875C11.5 3.39185 10.9543 3.9375 10.2812 3.9375V4.9375C11.5066 4.9375 12.5 3.94413 12.5 2.71875H11.5ZM10.2812 3.9375C9.60815 3.9375 9.0625 3.39185 9.0625 2.71875H8.0625C8.0625 3.94413 9.05587 4.9375 10.2812 4.9375V3.9375ZM9.0625 2.71875C9.0625 2.04565 9.60815 1.5 10.2812 1.5V0.5C9.05587 0.5 8.0625 1.49337 8.0625 2.71875H9.0625ZM10.2812 1.5C10.9543 1.5 11.5 2.04565 11.5 2.71875H12.5C12.5 1.49337 11.5066 0.5 10.2812 0.5V1.5ZM3.9375 6.84375C3.9375 7.51685 3.39185 8.0625 2.71875 8.0625V9.0625C3.94413 9.0625 4.9375 8.06913 4.9375 6.84375H3.9375ZM2.71875 8.0625C2.04565 8.0625 1.5 7.51685 1.5 6.84375H0.5C0.5 8.06913 1.49337 9.0625 2.71875 9.0625V8.0625ZM1.5 6.84375C1.5 6.17065 2.04565 5.625 2.71875 5.625V4.625C1.49337 4.625 0.5 5.61837 0.5 6.84375H1.5ZM2.71875 5.625C3.39185 5.625 3.9375 6.17065 3.9375 6.84375H4.9375C4.9375 5.61837 3.94413 4.625 2.71875 4.625V5.625ZM4.4332 6.41534L8.81601 3.83722L8.30899 2.97528L3.92618 5.55341L4.4332 6.41534ZM8.81601 9.85028L4.4332 7.27216L3.92618 8.13409L8.30899 10.7122L8.81601 9.85028Z" fill="#4D4D4D"/>
</svg>
