<svg width="18" height="18" viewBox="0 0 18 18" fill="none" xmlns="http://www.w3.org/2000/svg">
<path d="M5.69191 11.101L3.74448 12.326L2.7474 14.9237L5.48938 13.9791L6.78248 12.1341" stroke="black" stroke-opacity="0.7" stroke-linejoin="bevel"/>
<path d="M13.9492 3.31124L13.6845 2.89455L13.6845 2.89455L13.9492 3.31124ZM5.64227 11.0538L5.13044 11.0167L5.27929 11.3977L5.64227 11.0538ZM15.0047 4.3112L14.5648 4.06048L14.5648 4.06048L15.0047 4.3112ZM6.83195 12.1809L6.46897 12.5247L6.87111 12.6657L6.83195 12.1809ZM15.3337 3.01682C15.327 3.01047 15.3203 3.00426 15.3134 2.99818L14.6095 3.70616C14.609 3.70572 14.6084 3.70519 14.6078 3.70456L15.3337 3.01682ZM15.3134 2.99818C14.9599 2.68271 14.2765 2.55708 13.6845 2.89455L14.2138 3.72793C14.309 3.67368 14.4027 3.66102 14.4814 3.66883C14.571 3.67773 14.6132 3.70947 14.6095 3.70616L15.3134 2.99818ZM13.6845 2.89455C13.505 2.99685 13.0966 3.28721 12.6184 3.63692C12.126 3.99693 11.5248 4.44587 10.9383 4.88811C10.3515 5.3305 9.77812 5.76724 9.34091 6.10324C9.12241 6.27116 8.93724 6.41445 8.80115 6.52094C8.6795 6.61613 8.56787 6.70426 8.52547 6.74444L9.25142 7.43218C9.24941 7.43409 9.30776 7.38601 9.45497 7.27082C9.58775 7.16691 9.77031 7.02564 9.98769 6.85858C10.4222 6.52462 10.9932 6.08978 11.5776 5.64911C12.1623 5.20829 12.759 4.7627 13.2457 4.40687C13.7464 4.04074 14.098 3.79394 14.2138 3.72793L13.6845 2.89455ZM8.52547 6.74444C8.54017 6.73051 8.5448 6.7283 8.50774 6.75663C8.48013 6.77774 8.44335 6.80534 8.39459 6.84206C8.29892 6.91411 8.16778 7.01327 8.01377 7.13445C7.70631 7.37636 7.30486 7.70822 6.90115 8.09697C6.49891 8.4843 6.08468 8.93737 5.75849 9.4229C5.43517 9.90416 5.17623 10.4498 5.13044 11.0167L6.1541 11.0909C6.18195 10.7462 6.34776 10.3572 6.6246 9.94513C6.89858 9.53733 7.25993 9.13833 7.63299 8.77909C8.00457 8.42128 8.37814 8.11207 8.66971 7.88266C8.81521 7.76818 8.93958 7.67412 9.03347 7.60341C9.07949 7.56875 9.121 7.53759 9.15244 7.51356C9.17443 7.49675 9.21888 7.46301 9.25142 7.43218L8.52547 6.74444ZM14.5895 3.68726C14.5888 3.68663 14.5883 3.68608 14.5878 3.68561L15.3351 3.01872C15.3287 3.01227 15.3221 3.00586 15.3155 2.99952L14.5895 3.68726ZM14.5878 3.68561C14.5843 3.6821 14.6178 3.72208 14.6272 3.807C14.6355 3.88154 14.6221 3.97031 14.5648 4.06048L15.4445 4.56193C15.8007 4.00109 15.6681 3.35363 15.3351 3.01872L14.5878 3.68561ZM14.5648 4.06048C14.4952 4.17017 14.2346 4.5033 13.8482 4.97768C13.4726 5.4387 13.0022 6.00405 12.5369 6.55793C12.0718 7.1116 11.6128 7.65248 11.2602 8.06416C11.0839 8.2701 10.9348 8.44305 10.8251 8.56883C10.7035 8.70829 10.6528 8.76358 10.6548 8.76167L11.3807 9.44942C11.4231 9.40924 11.5162 9.30349 11.6166 9.18824C11.7291 9.05932 11.8803 8.8839 12.0576 8.67689C12.4122 8.2627 12.8732 7.71946 13.3402 7.16361C13.807 6.60796 14.2809 6.03839 14.6609 5.57194C15.03 5.11885 15.3365 4.73196 15.4445 4.56193L14.5648 4.06048ZM10.6548 8.76167C10.6222 8.7925 10.5866 8.83461 10.5689 8.85544C10.5435 8.88523 10.5106 8.92455 10.474 8.96815C10.3994 9.0571 10.3001 9.17492 10.1793 9.31277C9.93711 9.58899 9.61073 9.94289 9.23304 10.2949C8.85384 10.6483 8.43267 10.9907 8.00221 11.2502C7.56724 11.5125 7.15668 11.6696 6.79278 11.696L6.87111 12.6657C7.46948 12.6224 8.04546 12.3771 8.55345 12.0708C9.06596 11.7617 9.5442 11.3693 9.95305 10.9882C10.3634 10.6058 10.7137 10.2255 10.9691 9.93418C11.097 9.78828 11.2016 9.66404 11.2777 9.5734C11.3164 9.52721 11.3456 9.49237 11.3679 9.46621C11.3978 9.4311 11.3954 9.43548 11.3807 9.44942L10.6548 8.76167ZM5.27929 11.3977L6.46897 12.5247L7.19492 11.837L6.00525 10.7099L5.27929 11.3977Z" fill="black" fill-opacity="0.7"/>
</svg>
