<svg width="18" height="18" viewBox="0 0 18 18" fill="none" xmlns="http://www.w3.org/2000/svg">
<path d="M6.61364 5.4L7.11364 5.41144V5.4H6.61364ZM11.3864 5.4H10.8862L10.8865 5.41144L11.3864 5.4ZM6.93289 6.6L6.51613 6.87625L6.51614 6.87626L6.93289 6.6ZM7.75909 10.68V11.18L8.23822 10.8229L7.75909 10.68ZM11.0667 6.6L11.4835 6.87626L11.4835 6.87625L11.0667 6.6ZM10.125 10.68L9.64586 10.8229L10.125 11.18V10.68ZM14.25 15V15.5L14.75 15H14.25ZM3.75 15H3.25L3.75 15.5V15ZM3.75 12L3.39645 11.6464L3.25 11.7929V12H3.75ZM5.07 10.68V10.18H4.86289L4.71645 10.3264L5.07 10.68ZM14.25 12H14.75V11.7929L14.6036 11.6464L14.25 12ZM12.93 10.68L13.2836 10.3264L13.1371 10.18H12.93V10.68ZM7.11364 5.4C7.11364 4.34797 7.96087 3.5 9 3.5V2.5C7.40322 2.5 6.11364 3.80106 6.11364 5.4H7.11364ZM9 3.5C10.0391 3.5 10.8864 4.34797 10.8864 5.4H11.8864C11.8864 3.80106 10.5968 2.5 9 2.5V3.5ZM6.51614 6.87626C6.9868 7.58629 7.78267 8.85176 7.27995 10.5371L8.23822 10.8229C8.88096 8.66824 7.83352 7.05371 7.34964 6.32374L6.51614 6.87626ZM6.11377 5.38856C6.10773 5.65256 6.1504 6.32451 6.51613 6.87625L7.34964 6.32375C7.14949 6.0218 7.10934 5.59357 7.1135 5.41144L6.11377 5.38856ZM10.65 6.32374C10.1869 7.02232 8.99834 8.65217 9.64586 10.8229L10.6041 10.5371C10.1062 8.86783 10.992 7.61768 11.4835 6.87626L10.65 6.32374ZM10.8865 5.41144C10.8907 5.59319 10.8502 6.02161 10.65 6.32375L11.4835 6.87625C11.8491 6.3247 11.8923 5.65293 11.8862 5.38856L10.8865 5.41144ZM14.25 14.5H3.75V15.5H14.25V14.5ZM3.75 13.82H14.25V12.82H3.75V13.82ZM4.10355 12.3536L5.42355 11.0336L4.71645 10.3264L3.39645 11.6464L4.10355 12.3536ZM14.6036 11.6464L13.2836 10.3264L12.5764 11.0336L13.8964 12.3536L14.6036 11.6464ZM10.125 11.18H12.2453V10.18H10.125V11.18ZM13.75 12.84V15H14.75V12.84H13.75ZM12.2453 11.18H12.93V10.18H12.2453V11.18ZM13.75 12V12.84H14.75V12H13.75ZM5.75454 11.18H7.75909V10.18H5.75454V11.18ZM4.25 15V12.84H3.25V15H4.25ZM4.25 12.84V12H3.25V12.84H4.25ZM5.07 11.18H5.75454V10.18H5.07V11.18Z" fill="black" fill-opacity="0.7"/>
</svg>
