<svg width="44" height="44" viewBox="0 0 44 44" fill="none" xmlns="http://www.w3.org/2000/svg">
<path d="M0 4C0 1.79086 1.79086 0 4 0H40C42.2091 0 44 1.79086 44 4V40C44 42.2091 42.2091 44 40 44H4C1.79086 44 0 42.2091 0 40V4Z" fill="#03BD5D" fill-opacity="0.8"/>
<path d="M16.8584 11.7031C16.8584 11.5371 16.8324 11.3906 16.7803 11.2637C16.7314 11.1335 16.6436 11.0163 16.5166 10.9121C16.3929 10.8079 16.2204 10.7087 15.999 10.6143C15.7809 10.5199 15.5042 10.4238 15.1689 10.3262C14.8174 10.222 14.5 10.1064 14.2168 9.97949C13.9336 9.84928 13.6911 9.70117 13.4893 9.53516C13.2874 9.36914 13.1328 9.17871 13.0254 8.96387C12.918 8.74902 12.8643 8.50326 12.8643 8.22656C12.8643 7.94987 12.9212 7.69434 13.0352 7.45996C13.1491 7.22559 13.3118 7.02214 13.5234 6.84961C13.7383 6.67383 13.9938 6.53711 14.29 6.43945C14.5863 6.3418 14.9167 6.29297 15.2812 6.29297C15.8151 6.29297 16.2676 6.39551 16.6387 6.60059C17.013 6.80241 17.2979 7.06771 17.4932 7.39648C17.6885 7.72201 17.7861 8.07031 17.7861 8.44141H16.8486C16.8486 8.17448 16.7917 7.93848 16.6777 7.7334C16.5638 7.52507 16.3913 7.3623 16.1602 7.24512C15.929 7.12467 15.6361 7.06445 15.2812 7.06445C14.946 7.06445 14.6693 7.11491 14.4512 7.21582C14.2331 7.31673 14.0703 7.45345 13.9629 7.62598C13.8587 7.7985 13.8066 7.99544 13.8066 8.2168C13.8066 8.36654 13.8376 8.50326 13.8994 8.62695C13.9645 8.7474 14.0638 8.8597 14.1973 8.96387C14.334 9.06803 14.5065 9.16406 14.7148 9.25195C14.9264 9.33984 15.1787 9.42448 15.4717 9.50586C15.8753 9.61979 16.2236 9.74674 16.5166 9.88672C16.8096 10.0267 17.0505 10.1846 17.2393 10.3604C17.4313 10.5329 17.5729 10.7298 17.6641 10.9512C17.7585 11.1693 17.8057 11.4167 17.8057 11.6934C17.8057 11.9831 17.7471 12.2451 17.6299 12.4795C17.5127 12.7139 17.3451 12.9141 17.127 13.0801C16.9089 13.2461 16.6468 13.3747 16.3408 13.4658C16.0381 13.5537 15.6995 13.5977 15.3252 13.5977C14.9964 13.5977 14.6725 13.5521 14.3535 13.4609C14.0378 13.3698 13.7497 13.2331 13.4893 13.0508C13.2321 12.8685 13.0254 12.6439 12.8691 12.377C12.7161 12.1068 12.6396 11.7943 12.6396 11.4395H13.5771C13.5771 11.6836 13.6243 11.8936 13.7188 12.0693C13.8132 12.2419 13.9417 12.3851 14.1045 12.499C14.2705 12.613 14.4577 12.6976 14.666 12.7529C14.8776 12.805 15.0973 12.8311 15.3252 12.8311C15.654 12.8311 15.9323 12.7855 16.1602 12.6943C16.388 12.6032 16.5605 12.473 16.6777 12.3037C16.7982 12.1344 16.8584 11.9342 16.8584 11.7031ZM19.8516 8.2168V13.5H18.9434V8.2168H19.8516ZM18.875 6.81543C18.875 6.66895 18.9189 6.54525 19.0068 6.44434C19.098 6.34342 19.2314 6.29297 19.4072 6.29297C19.5798 6.29297 19.7116 6.34342 19.8027 6.44434C19.8971 6.54525 19.9443 6.66895 19.9443 6.81543C19.9443 6.9554 19.8971 7.07585 19.8027 7.17676C19.7116 7.27441 19.5798 7.32324 19.4072 7.32324C19.2314 7.32324 19.098 7.27441 19.0068 7.17676C18.9189 7.07585 18.875 6.9554 18.875 6.81543ZM24.7246 8.2168H25.5449V13.3877C25.5449 13.8532 25.4505 14.2503 25.2617 14.5791C25.0729 14.9079 24.8092 15.1569 24.4707 15.3262C24.1354 15.4987 23.748 15.585 23.3086 15.585C23.1263 15.585 22.9115 15.5557 22.6641 15.4971C22.4199 15.4417 22.179 15.3457 21.9414 15.209C21.707 15.0755 21.5101 14.8949 21.3506 14.667L21.8242 14.1299C22.0456 14.3968 22.2767 14.5824 22.5176 14.6865C22.7617 14.7907 23.0026 14.8428 23.2402 14.8428C23.5267 14.8428 23.7741 14.7891 23.9824 14.6816C24.1908 14.5742 24.3519 14.4147 24.4658 14.2031C24.583 13.9948 24.6416 13.7376 24.6416 13.4316V9.37891L24.7246 8.2168ZM21.0869 10.917V10.8145C21.0869 10.4108 21.1341 10.0446 21.2285 9.71582C21.3262 9.38379 21.4645 9.09896 21.6436 8.86133C21.8258 8.6237 22.0456 8.44141 22.3027 8.31445C22.5599 8.18424 22.8496 8.11914 23.1719 8.11914C23.5039 8.11914 23.7936 8.17773 24.041 8.29492C24.2917 8.40885 24.5033 8.5765 24.6758 8.79785C24.8516 9.01595 24.9899 9.27962 25.0908 9.58887C25.1917 9.89811 25.2617 10.248 25.3008 10.6387V11.0879C25.265 11.4753 25.195 11.8236 25.0908 12.1328C24.9899 12.4421 24.8516 12.7057 24.6758 12.9238C24.5033 13.1419 24.2917 13.3096 24.041 13.4268C23.7904 13.5407 23.4974 13.5977 23.1621 13.5977C22.8464 13.5977 22.5599 13.5309 22.3027 13.3975C22.0488 13.264 21.8307 13.0768 21.6484 12.8359C21.4661 12.5951 21.3262 12.3118 21.2285 11.9863C21.1341 11.6576 21.0869 11.3011 21.0869 10.917ZM21.9902 10.8145V10.917C21.9902 11.1807 22.0163 11.4281 22.0684 11.6592C22.1237 11.8903 22.2067 12.0938 22.3174 12.2695C22.4313 12.4453 22.5762 12.5837 22.752 12.6846C22.9277 12.7822 23.1377 12.8311 23.3818 12.8311C23.6813 12.8311 23.9287 12.7676 24.124 12.6406C24.3193 12.5137 24.474 12.346 24.5879 12.1377C24.7051 11.9294 24.7962 11.7031 24.8613 11.459V10.2822C24.8255 10.1032 24.7702 9.93066 24.6953 9.76465C24.6237 9.59538 24.5293 9.44564 24.4121 9.31543C24.2982 9.18197 24.1566 9.07617 23.9873 8.99805C23.818 8.91992 23.6195 8.88086 23.3916 8.88086C23.1442 8.88086 22.931 8.93294 22.752 9.03711C22.5762 9.13802 22.4313 9.27799 22.3174 9.45703C22.2067 9.63281 22.1237 9.83789 22.0684 10.0723C22.0163 10.3034 21.9902 10.5508 21.9902 10.8145ZM27.8203 9.34473V13.5H26.917V8.2168H27.7715L27.8203 9.34473ZM27.6055 10.6582L27.2295 10.6436C27.2327 10.2822 27.2865 9.94857 27.3906 9.64258C27.4948 9.33333 27.6413 9.06478 27.8301 8.83691C28.0189 8.60905 28.2435 8.43327 28.5039 8.30957C28.7676 8.18262 29.0589 8.11914 29.3779 8.11914C29.6383 8.11914 29.8727 8.15495 30.0811 8.22656C30.2894 8.29492 30.4668 8.4056 30.6133 8.55859C30.763 8.71159 30.877 8.91016 30.9551 9.1543C31.0332 9.39518 31.0723 9.68978 31.0723 10.0381V13.5H30.1641V10.0283C30.1641 9.75163 30.1234 9.53027 30.042 9.36426C29.9606 9.19499 29.8418 9.07292 29.6855 8.99805C29.5293 8.91992 29.3372 8.88086 29.1094 8.88086C28.8848 8.88086 28.6797 8.92806 28.4941 9.02246C28.3118 9.11686 28.154 9.24707 28.0205 9.41309C27.8903 9.5791 27.7878 9.76953 27.7129 9.98438C27.6413 10.196 27.6055 10.4206 27.6055 10.6582Z" fill="white"/>
<path d="M17.5891 31.301L14.9925 32.9343L13.663 36.3979L17.319 35.1384L19.0431 32.6785" stroke="white" stroke-linejoin="bevel"/>
<path d="M28.599 20.915L28.3344 20.4983L28.3344 20.4983L28.599 20.915ZM17.5232 31.2384L17.0114 31.2013L17.1602 31.5823L17.5232 31.2384ZM30.0064 22.2483L29.5666 21.9975L29.5666 21.9975L30.0064 22.2483ZM19.1094 32.7411L18.7464 33.085L19.1486 33.226L19.1094 32.7411ZM30.3241 20.637C30.3164 20.6298 30.3086 20.6226 30.3008 20.6156L29.5968 21.3236C29.5974 21.3241 29.5978 21.3245 29.5982 21.3248L30.3241 20.637ZM30.3008 20.6156C29.8857 20.2452 29.0586 20.0855 28.3344 20.4983L28.8637 21.3317C29.025 21.2397 29.1877 21.2168 29.3265 21.2306C29.4763 21.2454 29.5698 21.2994 29.5968 21.3236L30.3008 20.6156ZM28.3344 20.4983C28.1057 20.6287 27.5706 21.0085 26.9292 21.4775C26.2737 21.9569 25.4728 22.5549 24.6911 23.1443C23.9092 23.7339 23.145 24.3159 22.5625 24.7635C22.2714 24.9873 22.0249 25.178 21.844 25.3196C21.6775 25.4498 21.5376 25.5607 21.4884 25.6072L22.2144 26.295C22.2095 26.2996 22.226 26.2849 22.2859 26.2369C22.3376 26.1953 22.4089 26.139 22.4978 26.0694C22.6754 25.9305 22.9193 25.7418 23.2093 25.5189C23.7891 25.0733 24.5508 24.4932 25.3304 23.9053C26.1103 23.3173 26.9067 22.7226 27.5565 22.2475C28.2204 21.7621 28.6987 21.4257 28.8637 21.3317L28.3344 20.4983ZM21.4884 25.6072C21.5002 25.5961 21.4982 25.5991 21.4513 25.635C21.4138 25.6636 21.364 25.701 21.2994 25.7496C21.1722 25.8455 20.9984 25.9768 20.7945 26.1373C20.3872 26.4578 19.8566 26.8965 19.3237 27.4097C18.7922 27.9214 18.2487 28.5165 17.8225 29.1509C17.3992 29.7811 17.0694 30.4825 17.0114 31.2013L18.035 31.2755C18.0751 30.7788 18.3117 30.2341 18.6886 29.6731C19.0626 29.1164 19.5532 28.5754 20.0555 28.0918C20.5563 27.6095 21.059 27.1935 21.4504 26.8855C21.6459 26.7318 21.8128 26.6055 21.9383 26.511C22.0001 26.4644 22.0547 26.4235 22.096 26.3919C22.1278 26.3676 22.1789 26.3286 22.2144 26.295L21.4884 25.6072ZM29.5738 21.3017C29.5742 21.302 29.5746 21.3025 29.5751 21.303L30.3224 20.6361C30.315 20.6287 30.3075 20.6213 30.2998 20.614L29.5738 21.3017ZM29.5751 21.303C29.6006 21.3286 29.6576 21.4172 29.6733 21.5591C29.6878 21.6906 29.6636 21.8447 29.5666 21.9975L30.4462 22.499C30.882 21.8129 30.7134 21.0293 30.3224 20.6361L29.5751 21.303ZM29.5666 21.9975C29.4673 22.1539 29.1123 22.607 28.5998 23.2359C28.0983 23.8515 27.4706 24.6061 26.8499 25.3448C26.2294 26.0834 25.6171 26.805 25.1467 27.3543C24.9114 27.6291 24.7123 27.8601 24.5656 28.0283C24.4921 28.1126 24.4327 28.1801 24.3888 28.2291C24.3381 28.2859 24.3227 28.3015 24.3275 28.2969L25.0535 28.9846C25.1026 28.938 25.2196 28.8055 25.3571 28.6478C25.5065 28.4764 25.7078 28.2429 25.944 27.9671C26.4165 27.4152 27.0309 26.6913 27.6532 25.9505C28.2754 25.21 28.9066 24.4512 29.4126 23.8302C29.9077 23.2225 30.3086 22.7156 30.4462 22.499L29.5666 21.9975ZM24.3275 28.2969C24.292 28.3305 24.2509 28.3789 24.2252 28.409C24.1919 28.4482 24.1486 28.4998 24.0995 28.5584C23.9997 28.6773 23.8664 28.8355 23.7041 29.0206C23.3791 29.3914 22.9399 29.8677 22.4309 30.3421C21.9203 30.818 21.3493 31.2827 20.7616 31.6371C20.1695 31.9941 19.5945 32.2182 19.0703 32.2563L19.1486 33.226C19.9073 33.171 20.6477 32.8587 21.3129 32.4576C21.9826 32.0538 22.6107 31.5389 23.1509 31.0354C23.6926 30.5306 24.1557 30.0279 24.4939 29.642C24.6633 29.4488 24.802 29.2842 24.9031 29.1637C24.9544 29.1025 24.9939 29.0553 25.0241 29.0198C25.062 28.9754 25.0652 28.9735 25.0535 28.9846L24.3275 28.2969ZM17.1602 31.5823L18.7464 33.085L19.4724 32.3973L17.8862 30.8945L17.1602 31.5823Z" fill="white"/>
<path d="M4 2H40V-2H4V2ZM42 4V40H46V4H42ZM40 42H4V46H40V42ZM2 40V4H-2V40H2ZM4 42C2.89543 42 2 41.1046 2 40H-2C-2 43.3137 0.68629 46 4 46V42ZM42 40C42 41.1046 41.1046 42 40 42V46C43.3137 46 46 43.3137 46 40H42ZM40 2C41.1046 2 42 2.89543 42 4H46C46 0.686293 43.3137 -2 40 -2V2ZM4 -2C0.686293 -2 -2 0.68629 -2 4H2C2 2.89543 2.89543 2 4 2V-2Z" fill="#03BD5D"/>
</svg>
