<svg width="20" height="21" viewBox="0 0 20 21" fill="none" xmlns="http://www.w3.org/2000/svg">
<path fill-rule="evenodd" clip-rule="evenodd" d="M3.38206 4.34341L2.77783 5.25373V13.5239C2.77783 14.0164 3.01706 14.4417 3.22466 14.7352C3.4498 15.0535 3.74694 15.3668 4.06297 15.6604C4.69769 16.2501 5.51951 16.8615 6.30845 17.4033C7.1038 17.9495 7.89545 18.445 8.48597 18.8028C8.78189 18.9821 9.02884 19.1277 9.20245 19.2289C9.28929 19.2795 9.35787 19.3191 9.40515 19.3462L9.45975 19.3774L9.47438 19.3857L9.47995 19.3889L10.5205 19.3886L10.5257 19.3857L10.5404 19.3774L10.595 19.3462C10.6422 19.3191 10.7108 19.2795 10.7977 19.2289C10.9713 19.1277 11.2182 18.9821 11.5141 18.8028C12.1047 18.445 12.8963 17.9495 13.6917 17.4033C14.4806 16.8615 15.3024 16.2501 15.9371 15.6604C16.2532 15.3668 16.5503 15.0535 16.7754 14.7352C16.983 14.4417 17.2223 14.0164 17.2223 13.5239V5.25373L16.618 4.34341L10.4276 1.61108H9.57254L3.38206 4.34341ZM10.5205 19.3886C10.5204 19.3887 10.5199 19.389 10.0001 18.525L10.5205 19.3886ZM10.0001 18.525C9.48019 19.389 9.48008 19.3889 9.47995 19.3889L10.0001 18.525ZM10.0001 18.525C10.0001 18.525 3.80958 15.0242 3.80958 13.5239V5.25373L10.0001 2.5214L16.1905 5.25373V13.5239C16.1905 15.0242 10.0001 18.525 10.0001 18.525ZM9.22619 13.2549L13.8244 8.49996L13.0717 7.81587L9.22619 11.7924L6.92829 9.41623L6.17559 10.1003L9.22619 13.2549Z" fill="#03BD5D"/>
</svg>
