<svg width="18" height="18" viewBox="0 0 18 18" fill="none" xmlns="http://www.w3.org/2000/svg">
<path d="M4.5 3.75V3.25L4 3.75H4.5ZM13.5 3.75H14L13.5 3.25V3.75ZM9.1875 14.25L9.18228 14.75L9.1875 14.25ZM5 6.30439V3.75H4V6.30439H5ZM4.5 4.25H13.5V3.25H4.5V4.25ZM13 3.75V6.30439H14V3.75H13ZM8.6875 3.75V14.25H9.6875V3.75H8.6875ZM7.125 14.25C7.12824 14.75 7.12825 14.75 7.12825 14.75C7.12826 14.75 7.12827 14.75 7.12829 14.75C7.12833 14.75 7.12838 14.75 7.12846 14.75C7.1286 14.75 7.12883 14.75 7.12913 14.75C7.12973 14.75 7.13063 14.75 7.13183 14.75C7.13423 14.75 7.13782 14.7499 7.14255 14.7499C7.152 14.7498 7.16598 14.7498 7.18408 14.7497C7.22027 14.7494 7.27289 14.7492 7.33852 14.7488C7.4698 14.7482 7.65307 14.7474 7.86097 14.7469C8.27741 14.7459 8.79034 14.7459 9.18228 14.75L9.19272 13.75C8.79395 13.7459 8.27563 13.7459 7.8585 13.7469C7.64961 13.7474 7.46551 13.7482 7.33362 13.7488C7.26767 13.7492 7.21476 13.7495 7.17831 13.7497C7.16008 13.7498 7.14597 13.7499 7.1364 13.7499C7.13162 13.7499 7.12797 13.75 7.12551 13.75C7.12428 13.75 7.12335 13.75 7.12272 13.75C7.12241 13.75 7.12217 13.75 7.12201 13.75C7.12193 13.75 7.12187 13.75 7.12182 13.75C7.1218 13.75 7.12179 13.75 7.12178 13.75C7.12176 13.75 7.12176 13.75 7.125 14.25ZM9.18228 14.75C9.7323 14.7557 10.2504 14.7557 10.6308 14.7543C10.8211 14.7536 10.9771 14.7525 11.0857 14.7516C11.14 14.7511 11.1824 14.7507 11.2113 14.7504C11.2258 14.7503 11.2368 14.7502 11.2443 14.7501C11.2481 14.7501 11.2509 14.75 11.2529 14.75C11.2538 14.75 11.2546 14.75 11.2551 14.75C11.2553 14.75 11.2555 14.75 11.2557 14.75C11.2557 14.75 11.2558 14.75 11.2558 14.75C11.2558 14.75 11.2559 14.75 11.2559 14.75C11.2559 14.75 11.2559 14.75 11.25 14.25C11.2441 13.75 11.2441 13.75 11.2441 13.75C11.2441 13.75 11.2441 13.75 11.2441 13.75C11.2441 13.75 11.244 13.75 11.244 13.75C11.2439 13.75 11.2437 13.75 11.2435 13.75C11.2431 13.75 11.2424 13.7501 11.2415 13.7501C11.2397 13.7501 11.237 13.7501 11.2334 13.7502C11.2261 13.7502 11.2153 13.7503 11.2012 13.7505C11.1728 13.7508 11.1311 13.7512 11.0774 13.7516C10.9702 13.7525 10.8157 13.7536 10.6271 13.7543C10.2497 13.7557 9.73659 13.7557 9.19272 13.75L9.18228 14.75Z" fill="black" fill-opacity="0.7"/>
</svg>
