<svg width="14" height="14" viewBox="0 0 14 14" fill="none" xmlns="http://www.w3.org/2000/svg">
<path fill-rule="evenodd" clip-rule="evenodd" d="M9.42856 6.49995C9.42856 8.3935 7.89354 9.92852 5.99999 9.92852C4.10645 9.92852 2.57142 8.3935 2.57142 6.49995C2.57142 4.6064 4.10645 3.07138 5.99999 3.07138C7.89354 3.07138 9.42856 4.6064 9.42856 6.49995ZM10.2857 6.49995C10.2857 8.86688 8.36693 10.7857 5.99999 10.7857C3.63306 10.7857 1.71428 8.86688 1.71428 6.49995C1.71428 4.13301 3.63306 2.21423 5.99999 2.21423C8.36693 2.21423 10.2857 4.13301 10.2857 6.49995ZM6.42856 6.2729V4.11899H5.57142V6.81357L7.72016 7.83911L8.08935 7.06555L6.42856 6.2729Z" fill="#4D4D4D" />
</svg>
