<svg width="12" height="12" viewBox="0 0 12 12" fill="none" xmlns="http://www.w3.org/2000/svg">
    <path fill-rule="evenodd" clip-rule="evenodd" d="M6.26072 1.33L5.71429 1.6099L1 6.32419V7.7384L4.53571 11.2741H5.94993L10.6642 6.55983L10.9441 6.0134L11.2741 3.98625L10.9942 3.11847L9.15564 1.2799L8.28786 1L6.26072 1.33ZM8.44853 1.98701L6.42139 2.31701L2.41421 6.32419L1.70711 7.03129L2.41421 7.7384L4.53571 9.8599L5.24282 10.567L5.94993 9.8599L9.95711 5.85272L10.2871 3.82558L8.44853 1.98701ZM7.79646 4.47777C8.01343 4.69474 8.36521 4.69474 8.58218 4.47777C8.79914 4.26081 8.79914 3.90903 8.58218 3.69206C8.36521 3.47509 8.01343 3.47509 7.79646 3.69206C7.57949 3.90903 7.57949 4.26081 7.79646 4.47777Z" fill="black"/>
</svg>
