<svg width="14" height="14" viewBox="0 0 14 14" fill="none" xmlns="http://www.w3.org/2000/svg">
<path fill-rule="evenodd" clip-rule="evenodd" d="M13 7C13 10.3137 10.3137 13 7 13C3.68629 13 1 10.3137 1 7C1 3.68629 3.68629 1 7 1C10.3137 1 13 3.68629 13 7ZM13.75 7C13.75 10.7279 10.7279 13.75 7 13.75C3.27208 13.75 0.25 10.7279 0.25 7C0.25 3.27208 3.27208 0.25 7 0.25C10.7279 0.25 13.75 3.27208 13.75 7ZM6.54637 8.62298H7.48387C7.48387 8.37433 7.51579 8.14247 7.57964 7.92742C7.64348 7.71237 7.76781 7.51915 7.95262 7.34778C8.16768 7.14617 8.37097 6.93448 8.5625 6.7127C8.75403 6.49093 8.91028 6.25403 9.03125 6.00202C9.15558 5.74664 9.21774 5.46774 9.21774 5.16532C9.21774 4.77218 9.13878 4.4328 8.98085 4.14718C8.82292 3.8582 8.59274 3.63642 8.29032 3.48185C7.99126 3.32729 7.62836 3.25 7.20161 3.25C6.81519 3.25 6.46573 3.32224 6.15323 3.46673C5.84073 3.61122 5.59207 3.81956 5.40726 4.09173C5.22581 4.36391 5.13172 4.68985 5.125 5.06956H6.05746C6.06082 4.83434 6.11626 4.64449 6.22379 4.5C6.33132 4.35215 6.47245 4.24294 6.64718 4.17238C6.82191 4.10181 7.00672 4.06653 7.20161 4.06653C7.43683 4.06653 7.6334 4.1119 7.79133 4.20262C7.95262 4.29335 8.07359 4.42272 8.15423 4.59073C8.23824 4.75874 8.28024 4.95867 8.28024 5.19052C8.28024 5.41902 8.23992 5.61559 8.15928 5.78024C8.07863 5.94153 7.97278 6.09274 7.84173 6.23387C7.71405 6.37164 7.57292 6.51949 7.41835 6.67742C7.20665 6.89583 7.03696 7.09073 6.90927 7.2621C6.78159 7.43347 6.68918 7.62332 6.63206 7.83165C6.57829 8.03663 6.54973 8.3004 6.54637 8.62298ZM6.64718 9.8377C6.55309 9.94187 6.50605 10.0696 6.50605 10.2208C6.50605 10.3653 6.55309 10.4896 6.64718 10.5938C6.74126 10.6979 6.87735 10.75 7.05544 10.75C7.2369 10.75 7.37466 10.6979 7.46875 10.5938C7.56284 10.4896 7.60988 10.3653 7.60988 10.2208C7.60988 10.0696 7.56284 9.94187 7.46875 9.8377C7.37466 9.73353 7.2369 9.68145 7.05544 9.68145C6.87735 9.68145 6.74126 9.73353 6.64718 9.8377Z" fill="black" fill-opacity="0.5"/>
</svg>
