<svg width="18" height="19" viewBox="0 0 18 19" fill="none" xmlns="http://www.w3.org/2000/svg">
<path fill-rule="evenodd" clip-rule="evenodd" d="M16 9.5C16 13.4274 12.9274 16.5 9 16.5C7.09016 16.5 5.38244 15.7734 4.1319 14.5752L14.0752 4.6319C15.2734 5.88244 16 7.59016 16 9.5ZM3.46143 13.8315L13.3315 3.96143C12.1479 3.0419 10.6493 2.5 9 2.5C5.07264 2.5 2 5.57264 2 9.5C2 11.1493 2.5419 12.6479 3.46143 13.8315ZM17 9.5C17 13.9183 13.4183 17.5 9 17.5C4.58172 17.5 1 13.9183 1 9.5C1 5.08172 4.58172 1.5 9 1.5C13.4183 1.5 17 5.08172 17 9.5Z" fill="black" fill-opacity="0.5"/>
</svg>
