<svg width="16" height="16" viewBox="0 0 16 16" fill="none" xmlns="http://www.w3.org/2000/svg">
<path d="M4 4.36182L3.75466 3.92615L3.5 4.36182H4ZM8 4.36182L7.84684 4.83778L8 4.36182ZM12 4.77142H12.5L11.8645 4.29013L12 4.77142ZM12 10.5052L12.1355 10.9865L12.5 10.5052H12ZM8 10.0956L7.84684 10.5716L8 10.0956ZM3.5 4.36182V14H4.5V4.36182H3.5ZM4.24534 4.79749C4.58975 4.60354 5.92081 4.218 7.84684 4.83778L8.15316 3.88586C6.00647 3.19506 4.37994 3.57403 3.75466 3.92615L4.24534 4.79749ZM7.84684 4.83778C9.95128 5.51498 11.5331 5.4223 12.1355 5.25271L11.8645 4.29013C11.4972 4.39354 10.1214 4.51924 8.15316 3.88586L7.84684 4.83778ZM11.5 4.77142V10.5052H12.5V4.77142H11.5ZM4.24534 10.5313C4.58975 10.3373 5.92081 9.95178 7.84684 10.5716L8.15316 9.61964C6.00647 8.92885 4.37994 9.30781 3.75466 9.65994L4.24534 10.5313ZM7.84684 10.5716C9.95128 11.2488 11.5331 11.1561 12.1355 10.9865L11.8645 10.0239C11.4972 10.1273 10.1214 10.253 8.15316 9.61964L7.84684 10.5716Z" fill="#999999"/>
</svg>
