<svg width="57" height="16" viewBox="0 0 57 16" fill="none" xmlns="http://www.w3.org/2000/svg">
<path d="M10.2031 3.46875V12H9.07227V3.46875H10.2031ZM13.1797 7.01367V12H12.0957V5.66016H13.1211L13.1797 7.01367ZM12.9219 8.58984L12.4707 8.57227C12.4746 8.13867 12.5391 7.73828 12.6641 7.37109C12.7891 7 12.9648 6.67773 13.1914 6.4043C13.418 6.13086 13.6875 5.91992 14 5.77148C14.3164 5.61914 14.666 5.54297 15.0488 5.54297C15.3613 5.54297 15.6426 5.58594 15.8926 5.67188C16.1426 5.75391 16.3555 5.88672 16.5312 6.07031C16.7109 6.25391 16.8477 6.49219 16.9414 6.78516C17.0352 7.07422 17.082 7.42773 17.082 7.8457V12H15.9922V7.83398C15.9922 7.50195 15.9434 7.23633 15.8457 7.03711C15.748 6.83398 15.6055 6.6875 15.418 6.59766C15.2305 6.50391 15 6.45703 14.7266 6.45703C14.457 6.45703 14.2109 6.51367 13.9883 6.62695C13.7695 6.74023 13.5801 6.89648 13.4199 7.0957C13.2637 7.29492 13.1406 7.52344 13.0508 7.78125C12.9648 8.03516 12.9219 8.30469 12.9219 8.58984ZM21.3828 5.66016V6.49219H17.9551V5.66016H21.3828ZM19.1152 4.11914H20.1992V10.4297C20.1992 10.6445 20.2324 10.8066 20.2988 10.916C20.3652 11.0254 20.4512 11.0977 20.5566 11.1328C20.6621 11.168 20.7754 11.1855 20.8965 11.1855C20.9863 11.1855 21.0801 11.1777 21.1777 11.1621C21.2793 11.1426 21.3555 11.127 21.4062 11.1152L21.4121 12C21.3262 12.0273 21.2129 12.0527 21.0723 12.0762C20.9355 12.1035 20.7695 12.1172 20.5742 12.1172C20.3086 12.1172 20.0645 12.0645 19.8418 11.959C19.6191 11.8535 19.4414 11.6777 19.3086 11.4316C19.1797 11.1816 19.1152 10.8457 19.1152 10.4238V4.11914ZM25.2852 12.1172C24.8438 12.1172 24.4434 12.043 24.084 11.8945C23.7285 11.7422 23.4219 11.5293 23.1641 11.2559C22.9102 10.9824 22.7148 10.6582 22.5781 10.2832C22.4414 9.9082 22.373 9.49805 22.373 9.05273V8.80664C22.373 8.29102 22.4492 7.83203 22.6016 7.42969C22.7539 7.02344 22.9609 6.67969 23.2227 6.39844C23.4844 6.11719 23.7812 5.9043 24.1133 5.75977C24.4453 5.61523 24.7891 5.54297 25.1445 5.54297C25.5977 5.54297 25.9883 5.62109 26.3164 5.77734C26.6484 5.93359 26.9199 6.15234 27.1309 6.43359C27.3418 6.71094 27.498 7.03906 27.5996 7.41797C27.7012 7.79297 27.752 8.20312 27.752 8.64844V9.13477H23.0176V8.25H26.668V8.16797C26.6523 7.88672 26.5938 7.61328 26.4922 7.34766C26.3945 7.08203 26.2383 6.86328 26.0234 6.69141C25.8086 6.51953 25.5156 6.43359 25.1445 6.43359C24.8984 6.43359 24.6719 6.48633 24.4648 6.5918C24.2578 6.69336 24.0801 6.8457 23.9316 7.04883C23.7832 7.25195 23.668 7.5 23.5859 7.79297C23.5039 8.08594 23.4629 8.42383 23.4629 8.80664V9.05273C23.4629 9.35352 23.5039 9.63672 23.5859 9.90234C23.6719 10.1641 23.7949 10.3945 23.9551 10.5938C24.1191 10.793 24.3164 10.9492 24.5469 11.0625C24.7812 11.1758 25.0469 11.2324 25.3438 11.2324C25.7266 11.2324 26.0508 11.1543 26.3164 10.998C26.582 10.8418 26.8145 10.6328 27.0137 10.3711L27.6699 10.8926C27.5332 11.0996 27.3594 11.2969 27.1484 11.4844C26.9375 11.6719 26.6777 11.8242 26.3691 11.9414C26.0645 12.0586 25.7031 12.1172 25.2852 12.1172ZM30.1016 6.65625V12H29.0176V5.66016H30.0723L30.1016 6.65625ZM32.082 5.625L32.0762 6.63281C31.9863 6.61328 31.9004 6.60156 31.8184 6.59766C31.7402 6.58984 31.6504 6.58594 31.5488 6.58594C31.2988 6.58594 31.0781 6.625 30.8867 6.70312C30.6953 6.78125 30.5332 6.89062 30.4004 7.03125C30.2676 7.17188 30.1621 7.33984 30.084 7.53516C30.0098 7.72656 29.9609 7.9375 29.9375 8.16797L29.6328 8.34375C29.6328 7.96094 29.6699 7.60156 29.7441 7.26562C29.8223 6.92969 29.9414 6.63281 30.1016 6.375C30.2617 6.11328 30.4648 5.91016 30.7109 5.76562C30.9609 5.61719 31.2578 5.54297 31.6016 5.54297C31.6797 5.54297 31.7695 5.55273 31.8711 5.57227C31.9727 5.58789 32.043 5.60547 32.082 5.625ZM34.168 7.01367V12H33.084V5.66016H34.1094L34.168 7.01367ZM33.9102 8.58984L33.459 8.57227C33.4629 8.13867 33.5273 7.73828 33.6523 7.37109C33.7773 7 33.9531 6.67773 34.1797 6.4043C34.4062 6.13086 34.6758 5.91992 34.9883 5.77148C35.3047 5.61914 35.6543 5.54297 36.0371 5.54297C36.3496 5.54297 36.6309 5.58594 36.8809 5.67188C37.1309 5.75391 37.3438 5.88672 37.5195 6.07031C37.6992 6.25391 37.8359 6.49219 37.9297 6.78516C38.0234 7.07422 38.0703 7.42773 38.0703 7.8457V12H36.9805V7.83398C36.9805 7.50195 36.9316 7.23633 36.834 7.03711C36.7363 6.83398 36.5938 6.6875 36.4062 6.59766C36.2188 6.50391 35.9883 6.45703 35.7148 6.45703C35.4453 6.45703 35.1992 6.51367 34.9766 6.62695C34.7578 6.74023 34.5684 6.89648 34.4082 7.0957C34.252 7.29492 34.1289 7.52344 34.0391 7.78125C33.9531 8.03516 33.9102 8.30469 33.9102 8.58984ZM43.4551 10.916V7.65234C43.4551 7.40234 43.4043 7.18555 43.3027 7.00195C43.2051 6.81445 43.0566 6.66992 42.8574 6.56836C42.6582 6.4668 42.4121 6.41602 42.1191 6.41602C41.8457 6.41602 41.6055 6.46289 41.3984 6.55664C41.1953 6.65039 41.0352 6.77344 40.918 6.92578C40.8047 7.07812 40.748 7.24219 40.748 7.41797H39.6641C39.6641 7.19141 39.7227 6.9668 39.8398 6.74414C39.957 6.52148 40.125 6.32031 40.3438 6.14062C40.5664 5.95703 40.832 5.8125 41.1406 5.70703C41.4531 5.59766 41.8008 5.54297 42.1836 5.54297C42.6445 5.54297 43.0508 5.62109 43.4023 5.77734C43.7578 5.93359 44.0352 6.16992 44.2344 6.48633C44.4375 6.79883 44.5391 7.19141 44.5391 7.66406V10.6172C44.5391 10.8281 44.5566 11.0527 44.5918 11.291C44.6309 11.5293 44.6875 11.7344 44.7617 11.9062V12H43.6309C43.5762 11.875 43.5332 11.709 43.502 11.502C43.4707 11.291 43.4551 11.0957 43.4551 10.916ZM43.6426 8.15625L43.6543 8.91797H42.5586C42.25 8.91797 41.9746 8.94336 41.7324 8.99414C41.4902 9.04102 41.2871 9.11328 41.123 9.21094C40.959 9.30859 40.834 9.43164 40.748 9.58008C40.6621 9.72461 40.6191 9.89453 40.6191 10.0898C40.6191 10.2891 40.6641 10.4707 40.7539 10.6348C40.8438 10.7988 40.9785 10.9297 41.1582 11.0273C41.3418 11.1211 41.5664 11.168 41.832 11.168C42.1641 11.168 42.457 11.0977 42.7109 10.957C42.9648 10.8164 43.166 10.6445 43.3145 10.4414C43.4668 10.2383 43.5488 10.041 43.5605 9.84961L44.0234 10.3711C43.9961 10.5352 43.9219 10.7168 43.8008 10.916C43.6797 11.1152 43.5176 11.3066 43.3145 11.4902C43.1152 11.6699 42.877 11.8203 42.5996 11.9414C42.3262 12.0586 42.0176 12.1172 41.6738 12.1172C41.2441 12.1172 40.8672 12.0332 40.543 11.8652C40.2227 11.6973 39.9727 11.4727 39.793 11.1914C39.6172 10.9062 39.5293 10.5879 39.5293 10.2363C39.5293 9.89648 39.5957 9.59766 39.7285 9.33984C39.8613 9.07812 40.0527 8.86133 40.3027 8.68945C40.5527 8.51367 40.8535 8.38086 41.2051 8.29102C41.5566 8.20117 41.9492 8.15625 42.3828 8.15625H43.6426ZM47.4219 3V12H46.332V3H47.4219Z" fill="#03BD5D"/>
<path d="M8 1H49V-1H8V1ZM49 15H8V17H49V15ZM8 15C4.13401 15 1 11.866 1 8H-1C-1 12.9706 3.02944 17 8 17V15ZM56 8C56 11.866 52.866 15 49 15V17C53.9706 17 58 12.9706 58 8H56ZM49 1C52.866 1 56 4.13401 56 8H58C58 3.02944 53.9706 -1 49 -1V1ZM8 -1C3.02944 -1 -1 3.02944 -1 8H1C1 4.13401 4.13401 1 8 1V-1Z" fill="#03BD5D"/>
</svg>
