<svg width="16" height="16" viewBox="0 0 16 16" fill="none" xmlns="http://www.w3.org/2000/svg">
<path d="M7.99935 14C8.25841 14.4277 8.25846 14.4276 8.25854 14.4276L8.25877 14.4274L8.25952 14.427L8.26219 14.4254L8.27215 14.4193L8.30977 14.3963C8.34245 14.3762 8.39002 14.3468 8.45034 14.3091C8.57095 14.2338 8.74272 14.1253 8.94864 13.9917C9.35985 13.7248 9.91018 13.3558 10.4623 12.9496C11.0114 12.5458 11.5761 12.0951 12.0083 11.665C12.2239 11.4504 12.4191 11.2286 12.5637 11.0096C12.7007 10.8022 12.8327 10.5376 12.8327 10.25V9.06098V4.04878L12.5464 3.59676L8.21306 1.54798H7.78563L3.4523 3.59676L3.16602 4.04878V9.06098V10.25C3.16602 10.5376 3.29799 10.8022 3.43497 11.0096C3.57955 11.2286 3.77484 11.4504 3.9904 11.665C4.42262 12.0951 4.98733 12.5458 5.53641 12.9496C6.08852 13.3558 6.63885 13.7248 7.05005 13.9917C7.25598 14.1253 7.42775 14.2338 7.54836 14.3091C7.60868 14.3468 7.65624 14.3762 7.68893 14.3963L7.72655 14.4193L7.7365 14.4254L7.73918 14.427L7.73993 14.4274L7.74016 14.4276C7.74023 14.4276 7.74029 14.4277 7.99935 14ZM7.99935 14L8.25841 14.4277H7.74029L7.99935 14Z" stroke="#03BD5D" stroke-linejoin="bevel"/>
<path d="M5.83203 7.7L7.45703 9.5L10.1654 6.5" stroke="#03BD5D" stroke-linecap="square"/>
</svg>
