<svg width="153" height="124" viewBox="0 0 153 124" fill="none" xmlns="http://www.w3.org/2000/svg">
<g clip-path="url(#clip0_3292_34126)">
<path d="M152.998 73.6606C152.999 68.6459 152.016 63.6801 150.106 59.047C148.196 54.4138 145.396 50.204 141.866 46.658C138.335 43.1119 134.144 40.2991 129.532 38.3802C124.919 36.4613 119.976 35.4739 114.983 35.4743C114.566 35.4743 114.147 35.4814 113.726 35.4956C111.788 25.989 106.803 17.382 99.5327 10.9913C92.2627 4.60052 83.1086 0.777987 73.4707 0.108438C72.4312 0.0345729 71.3771 -0.003479 70.3409 -0.003479C64.1936 -0.000442922 58.1145 1.28954 52.4912 3.78417C46.868 6.27881 41.8242 9.92334 37.6815 14.4852C33.5388 19.0471 30.3882 24.4263 28.4307 30.2794C26.4733 36.1326 25.7519 42.3314 26.3126 48.4803C18.4774 49.8527 11.4395 54.1265 6.5889 60.4576C1.7383 66.7887 -0.572275 74.7167 0.113536 82.6757C0.799347 90.6347 4.43168 98.0461 10.2931 103.446C16.1545 108.846 23.8188 111.841 31.7722 111.841H58V103.874H31.7711C25.5281 103.757 19.5798 101.185 15.2043 96.7106C10.8287 92.2362 8.37521 86.2163 8.37083 79.9444C8.36645 73.6725 10.8116 67.6492 15.1808 63.1686C19.5501 58.688 25.4948 56.1077 31.7377 55.9821L35.6932 55.9765L34.8653 52.0918C33.7317 46.7761 33.7951 41.2732 35.0508 35.9852C36.3064 30.6973 38.7227 25.758 42.1229 21.5285C45.5231 17.299 49.8213 13.8862 54.7032 11.5395C59.5852 9.19275 64.9276 7.97153 70.3398 7.96504C71.1933 7.96504 72.0612 7.99526 72.917 8.0557C81.4881 8.65942 89.5686 12.2954 95.7229 18.3178C101.877 24.3401 105.707 32.3588 106.532 40.9493L106.855 44.3606L110.223 43.8234C111.798 43.5721 113.389 43.4452 114.983 43.444C122.757 43.4574 130.224 46.4929 135.819 51.9143C141.413 57.3357 144.702 64.7219 144.994 72.5248C145.287 80.3277 142.561 87.9414 137.387 93.7699C132.214 99.5985 110.751 102.845 103 103.446V111.429C112.673 110.85 136.006 106.926 142.652 99.8421C149.297 92.7578 152.998 83.3918 152.998 73.6583V73.6606Z" fill="#EBEBEB"/>
<path d="M106 101.052V84.1626C105.998 81.998 105.137 79.9228 103.606 78.3924C102.075 76.8621 99.9995 76.0016 97.8349 76H63.1628C60.9986 76.0025 58.9238 76.8632 57.3935 78.3935C55.8632 79.9237 55.0025 81.9985 55 84.1626V106.837C55.002 109.001 55.8627 111.076 57.3931 112.606C58.9234 114.137 60.9985 114.998 63.1628 115H97.8349C99.9988 114.998 102.073 114.137 103.604 112.607C105.134 111.077 105.994 109.002 105.997 106.838V101.053L106 101.052ZM96.6105 109.499H64.3903L75.3109 98.5798L76.2479 99.2364C77.4943 100.109 78.979 100.577 80.5004 100.577C82.0218 100.577 83.5065 100.109 84.7529 99.2364L85.6899 98.5806L96.6105 109.499ZM60.5001 88.2126L70.7362 95.3795L60.5001 105.614V88.2126ZM97.4332 81.4999C98.3787 81.4999 98.7619 82.7165 97.9886 83.258L81.5989 94.7306C81.2768 94.9559 80.8934 95.0767 80.5004 95.0767C80.1074 95.0767 79.7239 94.9559 79.4019 94.7306L63.0122 83.258C62.2397 82.7173 62.6221 81.4999 63.5668 81.4999H97.4332ZM100.501 105.612L90.2646 95.3795L100.501 88.2157V105.612Z" fill="#03BD5D"/>
</g>
<defs>
<clipPath id="clip0_3292_34126">
<rect width="153" height="124" fill="white"/>
</clipPath>
</defs>
</svg>
