<svg width="108" height="124" viewBox="0 0 108 124" fill="none" xmlns="http://www.w3.org/2000/svg">
<g clip-path="url(#clip0_3292_33429)">
<path d="M13.2936 43.9994H35.8395C36.3759 45.1249 37.1006 46.1501 37.9821 47.0306L42 51.0573L14.2411 51.0573C12.0228 51.0573 11.123 53.919 12.9413 55.1945L51.4215 82.19C52.1773 82.7197 53.0773 83.0038 53.9995 83.0038C54.9218 83.0038 55.8218 82.7197 56.5775 82.19L95.0577 55.1945C96.876 53.919 95.9762 51.0573 93.758 51.0573L66.5 50.5L70.5179 46.4733C71.3992 45.5923 72.1239 44.5668 72.6605 43.4412L94.7054 43.9984C102.036 43.9984 108 49.9757 108 57.322V110.675C108 118.022 102.036 123.998 94.7054 123.998H13.2936C5.96236 123.998 -0.000938416 118.022 -0.000938416 110.675V57.323C-0.000938416 49.9766 5.96236 43.9994 13.2936 43.9994ZM8.90196 60.9779C8.20451 60.4811 7.57877 59.8903 7.0425 59.2221V110.676C7.04548 111.065 7.0849 111.453 7.16024 111.835L37.7252 81.1965L8.90196 60.9779ZM60.6169 87.9735C58.6774 89.3342 56.3671 90.0641 53.9995 90.0641C51.632 90.0641 49.3217 89.3342 47.3821 87.9735L43.5857 85.3093L12.1387 116.824C12.5183 116.898 12.904 116.937 13.2908 116.94H94.7054C95.0922 116.937 95.4779 116.898 95.8575 116.824L64.4152 85.3093L60.6169 87.9735ZM70.2738 81.1965L100.84 111.832C100.914 111.45 100.953 111.062 100.957 110.674V59.2221C100.42 59.8903 99.7946 60.4811 99.0971 60.9779L70.2738 81.1965Z" fill="#EBEBEB"/>
<path d="M69.868 48.1665L59.3867 58.7302C59.3275 58.7906 59.267 58.849 59.2038 58.9054C57.8044 60.2295 55.9634 60.9767 54.0441 60.9995C52.1248 61.0222 50.2669 60.3187 48.837 59.0281C48.7364 58.9445 48.6396 58.8569 48.5501 58.7674L38.0333 48.1672L35.2036 45.315C33.783 43.8572 32.9911 41.893 33.0001 39.8497C33.0091 37.8064 33.8183 35.8494 35.2517 34.4044C36.6851 32.9595 38.6267 32.1436 40.6539 32.1342C42.6811 32.1249 44.63 32.9229 46.0764 34.3546L46.262 34.5416V19.75C46.262 17.6946 47.0721 15.7233 48.514 14.2699C49.956 12.8165 51.9117 12 53.951 12C55.9902 12 57.946 12.8165 59.3879 14.2699C60.8299 15.7233 61.64 17.6946 61.64 19.75V34.5416L61.8256 34.3552C62.5372 33.625 63.3854 33.044 64.321 32.646C65.2566 32.2479 66.2612 32.0407 67.2768 32.0361C68.2924 32.0316 69.2988 32.2298 70.2379 32.6195C71.177 33.0091 72.0302 33.5824 72.7483 34.3063C73.4663 35.0301 74.035 35.8902 74.4215 36.8368C74.808 37.7834 75.0046 38.7978 74.9999 39.8215C74.9953 40.8451 74.7895 41.8576 74.3945 42.8006C73.9994 43.7436 73.423 44.5984 72.6984 45.3156L69.868 48.1665ZM69.1908 41.7783C69.7025 41.2625 69.9899 40.5629 69.9898 39.8335C69.9897 39.1042 69.7022 38.4047 69.1905 37.889C68.6787 37.3733 67.9847 37.0836 67.2611 37.0836C66.5374 37.0837 65.8435 37.3735 65.3318 37.8893L56.6787 46.6111V19.7474C56.6787 19.018 56.3913 18.3185 55.8796 17.8028C55.3679 17.287 54.6739 16.9973 53.9503 16.9973C53.2267 16.9973 52.5327 17.287 52.0211 17.8028C51.5094 18.3185 51.2219 19.018 51.2219 19.7474V46.6111L42.5655 37.8893C42.0539 37.3735 41.3599 37.0837 40.6363 37.0836C39.9126 37.0836 39.2186 37.3733 38.7069 37.889C38.1952 38.4047 37.9076 39.1042 37.9076 39.8335C37.9075 40.5629 38.1949 41.2625 38.7066 41.7783L52.0175 55.1942C52.0274 55.2041 52.0393 55.2068 52.0504 55.2161C52.5563 55.717 53.2366 55.9984 53.9457 56.0001C54.6633 55.997 55.3512 55.7114 55.8627 55.2041C55.8627 55.2041 55.8713 55.2001 55.8739 55.1968L69.1908 41.7783Z" fill="#03BD5D"/>
</g>
<defs>
<clipPath id="clip0_3292_33429">
<rect width="108" height="124" fill="white" transform="matrix(-1 0 0 1 108 0)"/>
</clipPath>
</defs>
</svg>
