<svg width="107" height="124" viewBox="0 0 107 124" fill="none" xmlns="http://www.w3.org/2000/svg">
<g clip-path="url(#clip0_3288_32038)">
<path d="M13.1705 43.9996L46.5 44V51L14.1096 51.059C11.9117 51.059 11.0206 53.9208 12.8194 55.1951L50.9441 82.1909C51.6925 82.7212 52.584 83.0056 53.4977 83.0056C54.4114 83.0056 55.3029 82.7212 56.0513 82.1909L94.1778 55.197C95.9785 53.9227 95.0873 51.0609 92.8876 51.0609L60.5 51V43.9996L93.8285 44.0015C101.091 44.0015 107 49.9786 107 57.3251V110.678C107 118.025 101.091 124.001 93.8285 124.001H13.1705C5.90794 124.001 -0.000930786 118.025 -0.000930786 110.678V57.3233C-0.000930786 49.9768 5.90794 43.9996 13.1705 43.9996ZM8.81905 60.9764C8.12782 60.4795 7.50763 59.8885 6.97598 59.2202V110.676C6.97897 111.065 7.01784 111.453 7.09209 111.835L37.3727 81.1991L8.81905 60.9764ZM60.0562 87.9714C58.135 89.3326 55.8461 90.0628 53.5005 90.0628C51.1548 90.0628 48.8659 89.3326 46.9447 87.9714L43.1784 85.3063L12.0306 116.824C12.4068 116.898 12.789 116.937 13.1724 116.941H93.8285C94.2119 116.937 94.5941 116.898 94.9703 116.824L63.8207 85.3063L60.0562 87.9714ZM69.6263 81.1991L99.9088 111.835C99.9831 111.453 100.022 111.065 100.025 110.676V59.2202C99.4933 59.8885 98.8731 60.4795 98.1819 60.9764L69.6263 81.1991Z" fill="#EBEBEB"/>
<path d="M61.0074 45.6896V50.5661C61.0074 52.5377 60.2165 54.4285 58.8088 55.8227C57.4011 57.2168 55.4918 58 53.501 58C51.5101 58 49.6009 57.2168 48.1931 55.8227C46.7854 54.4285 45.9946 52.5377 45.9946 50.5661V36.3798L45.8142 36.5584C45.1172 37.2487 44.2897 37.7962 43.379 38.1698C42.4682 38.5434 41.4922 38.7357 40.5064 38.7357C39.5206 38.7357 38.5445 38.5434 37.6338 38.1698C36.7231 37.7962 35.8956 37.2487 35.1986 36.5584C34.5015 35.8681 33.9486 35.0486 33.5714 34.1466C33.1942 33.2447 33 32.278 33 31.3018C33 30.3256 33.1942 29.3589 33.5714 28.457C33.9486 27.5551 34.5015 26.7356 35.1986 26.0453L48.1931 13.1775C48.2513 13.1205 48.3102 13.0648 48.3703 13.0109C49.7363 11.7398 51.534 11.0224 53.4083 11.0005C55.2826 10.9786 57.0969 11.6537 58.4929 12.8925C58.5914 12.9742 58.6847 13.0591 58.7768 13.1458L71.8014 26.0446C73.2091 27.4388 74 29.3296 74 31.3012C74 33.2728 73.2091 35.1636 71.8014 36.5577C70.3937 37.9518 68.4844 38.7351 66.4936 38.7351C64.5028 38.7351 62.5935 37.9518 61.1858 36.5577L61.0055 36.3785V45.6883L61.0074 45.6896ZM64.6116 33.1669C65.1125 33.6549 65.7877 33.9271 66.4903 33.9242C67.1929 33.9213 67.866 33.6437 68.3628 33.1516C68.8596 32.6596 69.14 31.9931 69.1429 31.2973C69.1457 30.6015 68.8709 29.9327 68.3782 29.4367L55.3843 16.5683C55.3747 16.5594 55.3632 16.5569 55.3523 16.5474C54.8581 16.0675 54.1943 15.7978 53.5022 15.7956C52.8015 15.7994 52.1301 16.0741 51.6311 16.5613C51.6311 16.5613 51.6228 16.5651 51.6202 16.5683L38.6237 29.438C38.131 29.934 37.8562 30.6028 37.8591 31.2986C37.862 31.9944 38.1423 32.6609 38.6392 33.1529C39.136 33.6449 39.809 33.9226 40.5116 33.9255C41.2142 33.9283 41.8895 33.6561 42.3904 33.1682L50.8375 24.8021V50.5661C50.8375 51.2657 51.1181 51.9366 51.6176 52.4313C52.1171 52.926 52.7946 53.2039 53.501 53.2039C54.2074 53.2039 54.8848 52.926 55.3843 52.4313C55.8838 51.9366 56.1645 51.2657 56.1645 50.5661V24.8008L64.6116 33.1669Z" fill="#03BD5D"/>
</g>
<defs>
<clipPath id="clip0_3288_32038">
<rect width="107" height="124" fill="white" transform="matrix(-1 0 0 1 107 0)"/>
</clipPath>
</defs>
</svg>
