<svg width="30" height="30" viewBox="0 0 30 30" fill="none" xmlns="http://www.w3.org/2000/svg">
<path d="M18.5279 9.71982C19.1183 8.90118 20.7703 9.02244 21.2812 9.46701L21.7812 8.46701C20.4863 7.69317 18.7351 7.87204 17.7819 9.07113L18.5279 9.71982ZM13.6955 15.751L18.5279 9.71982L17.7819 9.07113L12.9614 14.8537L13.6955 15.751ZM11.2024 13.5711L13.6955 15.751L14.3236 14.967L11.9104 12.7585L11.2024 13.5711ZM8.60435 13.3913C9.53191 12.4456 10.7346 13.0817 11.2024 13.5711L11.9104 12.7585C10.8518 11.6511 8.8379 11.6511 7.77928 12.7585L8.60435 13.3913ZM8.60435 16.2827C7.60435 15.2827 8.11824 13.8998 8.60435 13.3913L7.77928 12.7585C6.7389 13.8469 6.74091 15.8786 7.78128 16.967L8.60435 16.2827ZM12.297 20.1457L8.60435 16.2827L7.78128 16.967L11.4739 20.83L12.297 20.1457ZM14.5461 20.5329C13.7284 20.903 12.8444 20.664 12.297 20.1457L11.4739 20.83C12.3151 21.71 13.794 21.9794 14.817 21.4496L14.5461 20.5329ZM15.2639 19.9456C15.1377 20.1044 14.708 20.4596 14.5461 20.5329L14.7812 21.467C15.1595 21.2959 15.7829 20.8674 16.058 20.5214L15.2639 19.9456ZM21.4591 12.177L15.2639 19.9456L16.058 20.5214L22.2812 12.7585L21.4591 12.177ZM21.2812 9.46701C21.8119 9.92863 22.5319 10.9456 21.4591 12.177L22.2812 12.7585C23.2183 11.5798 23.2806 9.363 21.7812 8.46701L21.2812 9.46701Z" fill="#19191A"/>
</svg>
