<svg width="30" height="30" viewBox="0 0 30 30" fill="none" xmlns="http://www.w3.org/2000/svg">
<path fill-rule="evenodd" clip-rule="evenodd" d="M14.4286 5.55883C14.4286 5.2502 14.6845 5 15 5C15.3155 5 15.5714 5.2502 15.5714 5.55883V8.353H22.4286C22.7441 8.353 23 8.6032 23 8.91183C23 9.22047 22.7441 9.47067 22.4286 9.47067H15H7.57143C7.25584 9.47067 7 9.22047 7 8.91183C7 8.6032 7.25584 8.353 7.57143 8.353H14.4286V5.55883ZM20.6791 11.1372C20.7351 10.8335 21.0322 10.6316 21.3429 10.6864C21.6534 10.7412 21.8598 11.0318 21.8038 11.3355L19.5728 23.4347L19.5714 23.4415C19.5712 23.75 19.3155 24 19 24H11.0001C10.6845 24 10.4286 23.7498 10.4286 23.4412C10.4286 23.3898 10.4357 23.3401 10.4489 23.293L8.2443 11.3366C8.18829 11.0329 8.39466 10.7423 8.70525 10.6875C9.01583 10.6327 9.31301 10.8346 9.36902 11.1383L11.5345 22.8823H18.5134L20.6791 11.1372Z" fill="#19191A"/>
</svg>
