<svg width="30" height="30" viewBox="0 0 30 30" fill="none" xmlns="http://www.w3.org/2000/svg">
<rect x="7" y="14.4318" width="7" height="0.8" rx="0.4" fill="#19191A"/>
<path fill-rule="evenodd" clip-rule="evenodd" d="M20.8095 9.18714C20.4946 8.93029 19.7155 8.85317 19.3828 9.10445C19.3566 9.12421 19.3292 9.14223 19.3006 9.1584C19.1749 9.22971 19.0623 9.32244 18.9681 9.43176C18.9404 9.46387 18.9101 9.49357 18.8774 9.52056L16.7398 11.5285C16.3572 11.8444 16.4832 12.4933 16.799 12.8759C17.0263 13.151 17.5632 13.2484 17.8906 13.1664C18.1147 13.1103 18.4585 13.0243 18.6407 13.1664C18.8228 13.3085 18.8757 13.5323 18.8757 13.7633L18.8735 20.1117C18.8735 21.3693 19.4531 21.6318 20 21.6318C20.5469 21.6318 21.1406 21.3458 21.1406 20.2985V10.4851C21.1406 10.0358 21.2489 9.46561 20.89 9.24434C20.8619 9.22706 20.8351 9.20795 20.8095 9.18714ZM21.5039 8.43187C20.6757 7.78495 20.0039 7.93182 18.9681 8.4318C18.7283 8.57344 18.3099 8.86765 18.1243 9.07251L16.6253 10.2725C15.6039 11.1158 15.1582 12.4104 16.0015 13.4318C16.3958 13.9092 17.375 14.2208 18.0008 14.2208V19.9318C18.0008 21.4506 18.5008 22.4318 20.0035 22.4318C21.5223 22.4318 22 21.4506 22 19.9318L22.0008 10.4319C22.0008 9.45812 22.1374 8.9267 21.5039 8.43187Z" fill="#19191A"/>
</svg>
