<svg width="30" height="30" viewBox="0 0 30 30" fill="none" xmlns="http://www.w3.org/2000/svg">
<path d="M15.458 12.7462L15.1641 13.0638C15.5783 13.0638 15.7891 13.0717 15.7891 12.6575L15.458 12.7462ZM15.2344 17.7513H15.7891C15.7891 17.3371 15.6486 17.2513 15.2344 17.2513V17.7513ZM22.3242 14.4459C22.418 14.5428 22.9141 14.8919 22.5391 15.4944L23.0301 16.3583C23.6867 15.6799 23.6867 14.6028 23.0301 13.9243L22.4911 14.4459H22.3242ZM16.8348 9.01495L22.3242 14.4459H22.4911L23.0301 13.9243L17.9217 8.64565L16.8348 9.01495ZM15.7891 9.48763C15.7891 8.89191 16.4911 8.73964 16.8348 9.01495L17.9217 8.64565C16.8278 7.51533 14.9141 7.91468 14.9141 9.48763H15.7891ZM15.7891 12.6575V9.48763H14.9141V12.8919L15.7891 12.6575ZM7.16406 13.0403L15.1641 13.0638L15.458 12.7462L15.6875 12.2122H7.10938L7.16406 13.0403ZM6.91406 13.3919C6.91406 13.2538 6.91406 13.0403 7.16406 13.0403L7.10938 12.2122C6.14288 12.2122 6 12.4254 6 13.3919H6.91406ZM6.91406 16.8919V13.3919H6V16.8919H6.91406ZM7.16406 17.2513C6.91406 17.2279 6.91406 17.1419 6.91406 16.8919H6C6 17.8584 6.14288 18.1419 7.10938 18.1419L7.16406 17.2513ZM15.2344 17.2513H7.16406L7.10938 18.1419H15.3594L15.2344 17.2513ZM15.7891 20.8919V17.7513H15.2344L14.9141 17.6419V20.718L15.7891 20.8919ZM16.8348 21.3919C16.2891 21.637 15.7773 21.2894 15.7891 20.8919L14.9141 20.718C14.9141 22.291 16.8278 22.7674 17.9217 21.637L16.8348 21.3919ZM22.5391 15.4944L16.8348 21.3919L17.9217 21.637L23.0301 16.3583L22.5391 15.4944Z" fill="#19191A"/>
</svg>
