<svg width="30" height="30" viewBox="0 0 30 30" fill="none" xmlns="http://www.w3.org/2000/svg">
<path d="M23.3333 12.1364L23.3312 9.71051C23.3307 9.25701 23.1495 8.82223 22.8273 8.50156C22.505 8.18089 22.0682 8.00051 21.6125 8L6.71875 8.0001C6.26307 8.00061 5.82619 8.18099 5.50398 8.50166C5.18176 8.82233 5.00051 9.25711 5 9.71061V19.2895C5.00051 19.743 5.06928 20.2291 5.39149 20.5498C5.71371 20.8704 6.26307 20.9995 6.71875 21H21.4523C21.8821 20.9994 22.4627 20.8388 22.7795 20.5498C23.0963 20.2607 23.293 19.8641 23.3308 19.438L26.8993 16.1104C26.9312 16.0786 26.9566 16.0409 26.9738 15.9994C26.9911 15.9579 27 15.9134 27 15.8685C27 15.8235 26.9911 15.779 26.9738 15.7375C26.9566 15.696 26.9312 15.6583 26.8993 15.6266L23.3333 12.1364ZM6.88079 8.94462L21.4413 8.93456C21.6819 8.9349 21.9148 9.01883 22.0998 9.17185C22.2849 9.32487 22.4105 9.53739 22.4549 9.77271L14.7939 14.1202C14.6378 14.2088 14.4611 14.2554 14.2813 14.2554C14.1015 14.2554 13.9248 14.2088 13.7686 14.1202L5.8672 9.78277C5.91161 9.54745 6.03717 9.33493 6.22222 9.18191C6.40727 9.02889 6.6402 8.94496 6.88079 8.94462ZM21.3568 20.1191H6.95109C6.67768 20.1188 6.46819 20.0106 6.27486 19.8182C6.08153 19.6258 5.92014 19.3649 5.91984 19.0928L5.8672 10.9545L13.4268 15.0317C13.6871 15.1794 13.9816 15.257 14.2813 15.257C14.5809 15.257 14.8754 15.1794 15.1357 15.0317L22.4549 10.8253V13.909L18.3151 13.9133C18.2239 13.9133 18.1365 13.9493 18.072 14.0135C18.0076 14.0777 17.9714 14.1647 17.9714 14.2554V17.1124C17.9714 17.2031 18.0076 17.2901 18.072 17.3543C18.1365 17.4184 18.2239 17.4545 18.3151 17.4545H22.4549V18.3359V19.0928C22.4546 19.3649 22.3044 19.6258 22.1111 19.8182C21.9178 20.0106 21.6302 20.1188 21.3568 20.1191ZM23.3333 18.3359V16.9116C23.3333 16.8209 23.2971 16.7338 23.2327 16.6697C23.1682 16.6055 23.0808 16.5695 22.9896 16.5695H18.75V14.7917H22.9896C23.0808 14.7917 23.1682 14.7557 23.2327 14.6915C23.2971 14.6274 23.3333 14.5404 23.3333 14.4496V13.3181L25.9783 15.8685L23.3333 18.3359Z" fill="black"/>
</svg>
