<svg width="30" height="30" viewBox="0 0 30 30" fill="none" xmlns="http://www.w3.org/2000/svg">
<path d="M23.2347 14.1557C20.8073 11.8457 17.5415 11.5307 16.3432 11.5V8.43751C16.3432 8.19688 16.1457 8 15.9042 8C15.8033 8 15.7023 8.03499 15.6233 8.10061L8.16123 14.2256C7.97247 14.3788 7.94613 14.6544 8.09979 14.8425C8.11736 14.8644 8.1393 14.8819 8.16123 14.9038L15.6233 21.0288C15.8121 21.1819 16.0886 21.1556 16.2422 20.9675C16.3081 20.8888 16.3432 20.7925 16.3432 20.6875V17.5112C17.5678 17.1787 22.2646 16.3344 25.1748 21.7681C25.2494 21.9125 25.3987 22 25.5611 22C25.7015 22 25.8376 21.9344 25.9254 21.8075C25.9781 21.7332 26 21.6413 26 21.5494C25.9957 18.3863 25.0651 15.9013 23.2347 14.1557ZM18.2702 16.4132C16.8085 16.4132 15.7813 16.7632 15.755 16.7763C15.5794 16.8375 15.4653 17.0038 15.4653 17.1875V19.7601L9.13129 14.5625L15.4653 9.36504V11.9375C15.4653 12.0557 15.5136 12.1694 15.6014 12.2525C15.6892 12.3357 15.8033 12.3794 15.9262 12.3751C15.9657 12.3751 19.9513 12.2307 22.6377 14.7945C23.9589 16.0545 24.7578 17.7607 25.0256 19.887C22.9011 17.0344 20.2059 16.4132 18.2702 16.4132Z" fill="black"/>
<path d="M12.8389 20.2446C12.8294 20.2403 12.8247 20.2316 12.8153 20.2273L5.21433 14.4982L12.8153 8.77349C13.0234 8.62636 13.0612 8.35375 12.9004 8.16771C12.7396 7.98163 12.4416 7.94269 12.2382 8.08983C12.2288 8.09417 12.224 8.10281 12.2146 8.10715L4.17374 14.165C3.97034 14.3165 3.94196 14.5891 4.10753 14.7752C4.12647 14.7968 4.1501 14.8141 4.17374 14.8357L12.2145 20.8936C12.4132 21.0494 12.7112 21.0321 12.8815 20.8547C13.0517 20.673 13.0328 20.4004 12.8389 20.2446Z" fill="black"/>
</svg>
