<svg width="30" height="30" viewBox="0 0 30 30" fill="none" xmlns="http://www.w3.org/2000/svg">
<path d="M21.2347 14.1557C18.8073 11.8457 15.5415 11.5307 14.3432 11.5V8.43751C14.3432 8.19688 14.1457 8 13.9042 8C13.8033 8 13.7023 8.03499 13.6233 8.10061L6.16123 14.2256C5.97247 14.3788 5.94613 14.6544 6.09979 14.8425C6.11736 14.8644 6.1393 14.8819 6.16123 14.9038L13.6233 21.0288C13.8121 21.1819 14.0886 21.1556 14.2422 20.9675C14.3081 20.8888 14.3432 20.7925 14.3432 20.6875V17.5112C15.5678 17.1787 20.2646 16.3344 23.1748 21.7681C23.2494 21.9125 23.3987 22 23.5611 22C23.7015 22 23.8376 21.9344 23.9254 21.8075C23.9781 21.7332 24 21.6413 24 21.5494C23.9957 18.3863 23.0651 15.9013 21.2347 14.1557ZM16.2702 16.4132C14.8085 16.4132 13.7813 16.7632 13.755 16.7763C13.5794 16.8375 13.4653 17.0038 13.4653 17.1875V19.7601L7.13129 14.5625L13.4653 9.36504V11.9375C13.4653 12.0557 13.5136 12.1694 13.6014 12.2525C13.6892 12.3357 13.8033 12.3794 13.9262 12.3751C13.9657 12.3751 17.9513 12.2307 20.6377 14.7945C21.9589 16.0545 22.7578 17.7607 23.0256 19.887C20.9011 17.0344 18.2059 16.4132 16.2702 16.4132Z" fill="black"/>
</svg>
