<svg width="24" height="24" viewBox="0 0 24 24" fill="none" xmlns="http://www.w3.org/2000/svg">
<path fill-rule="evenodd" clip-rule="evenodd" d="M11.4286 2.55883C11.4286 2.2502 11.6845 2 12 2C12.3155 2 12.5714 2.2502 12.5714 2.55883V5.353H19.4286C19.7441 5.353 20 5.6032 20 5.91183C20 6.22047 19.7441 6.47067 19.4286 6.47067H12H4.57143C4.25584 6.47067 4 6.22047 4 5.91183C4 5.6032 4.25584 5.353 4.57143 5.353H11.4286V2.55883ZM17.6791 8.13721C17.7351 7.83347 18.0322 7.63164 18.3429 7.68642C18.6534 7.74119 18.8598 8.03181 18.8038 8.33555L16.5728 20.4347L16.5714 20.4415C16.5712 20.75 16.3155 21 16 21H8.00006C7.68447 21 7.42863 20.7498 7.42863 20.4412C7.42863 20.3898 7.4357 20.3401 7.44894 20.293L5.2443 8.33665C5.18829 8.03291 5.39466 7.74228 5.70525 7.6875C6.01583 7.63274 6.31301 7.83456 6.36902 8.13829L8.53451 19.8823H15.5134L17.6791 8.13721Z" fill="#999999"/>
</svg>
