<svg width="24" height="24" viewBox="0 0 24 24" fill="#FFC700" xmlns="http://www.w3.org/2000/svg">
<path d="M17.3928 12.6454L17.3928 12.6454C16.6469 13.1786 16.3306 14.1283 16.6179 14.9982L17.0926 14.8414L16.6179 14.9982L17.6273 18.0547L17.6273 18.0547C17.9532 19.0413 16.7956 19.9279 15.8896 19.2803L13.2469 17.3914C13.2469 17.3914 13.2469 17.3914 13.2469 17.3914C12.5028 16.8595 11.4971 16.8596 10.7531 17.3914L8.11035 19.2803C7.20437 19.9279 6.0468 19.0413 6.37267 18.0547L5.8979 17.8979L6.37267 18.0547L7.3821 14.9982L7.3821 14.9982C7.66939 14.1283 7.35311 13.1786 6.60713 12.6454L3.96442 10.7564L3.67366 11.1632L3.96442 10.7564C3.10063 10.139 3.52132 8.76808 4.62981 8.76808H7.8964C8.81244 8.76808 9.63146 8.18743 9.91825 7.31906L10.9277 4.26263C10.9277 4.26263 10.9277 4.26263 10.9277 4.26263C11.2635 3.24579 12.7364 3.24579 13.0723 4.26263L14.0817 7.31906C14.3685 8.18743 15.1875 8.76808 16.1036 8.76808H19.3702C20.4787 8.76808 20.8994 10.139 20.0356 10.7564L17.3928 12.6454Z" stroke="#999999"/>
</svg>
