<svg width="24" height="24" viewBox="0 0 24 24" fill="none" xmlns="http://www.w3.org/2000/svg">
<path d="M9.44194 6C9.78888 6 10.125 6.11543 10.398 6.32664L10.4709 6.3866L11.5484 7.32947C11.6275 7.3987 11.7254 7.44203 11.8288 7.45456L11.8914 7.45833H19.1042C19.9393 7.45833 20.6214 8.11348 20.6645 8.93785L20.6667 9.02083L20.667 12.2735C20.353 11.9924 20.0032 11.7503 19.6253 11.5551L19.625 9.02083C19.625 8.75116 19.4201 8.52936 19.1574 8.50269L19.1042 8.5L11.8531 8.49953L10.9669 9.58947C10.69 9.9303 10.2834 10.1377 9.84793 10.1639L9.7542 10.1667L5.04167 10.1663V16.9375C5.04167 17.2072 5.24661 17.429 5.50925 17.4556L5.5625 17.4583L12.5494 17.4585C12.6612 17.8255 12.814 18.1746 13.0025 18.5004L5.5625 18.5C4.72739 18.5 4.0453 17.8448 4.00217 17.0205L4 16.9375V7.5625C4 6.72739 4.65515 6.0453 5.47952 6.00217L5.5625 6H9.44194ZM9.44194 7.04167H5.5625C5.29283 7.04167 5.07103 7.24661 5.04436 7.50925L5.04167 7.5625V9.12458L9.7542 9.125C9.89143 9.125 10.0223 9.07089 10.1191 8.97582L10.1584 8.9326L10.8396 8.09375L9.78491 7.17053C9.70579 7.1013 9.60798 7.05797 9.50456 7.04544L9.44194 7.04167ZM17.3333 11.8333C19.6345 11.8333 21.5 13.6988 21.5 16C21.5 18.3012 19.6345 20.1667 17.3333 20.1667C15.0321 20.1667 13.1667 18.3012 13.1667 16C13.1667 13.6988 15.0321 11.8333 17.3333 11.8333ZM17.333 13.7643L17.2863 13.7957L17.247 13.8304L17.2124 13.8696C17.0959 14.0195 17.0959 14.2305 17.2124 14.3804L17.247 14.4196L18.4104 15.5833H15.25L15.2014 15.5861C15.0101 15.6084 14.8584 15.7601 14.8361 15.9514L14.8333 16L14.8361 16.0486C14.8584 16.2399 15.0101 16.3916 15.2014 16.4139L15.25 16.4167H18.4104L17.247 17.5804L17.2124 17.6196C17.0853 17.7831 17.0968 18.0194 17.247 18.1696C17.3972 18.3198 17.6336 18.3314 17.797 18.2043L17.8363 18.1696L19.7113 16.2946L19.7324 16.2719L19.7623 16.2327L19.7813 16.2018L19.7943 16.1763L19.8126 16.1301L19.8219 16.0973L19.8305 16.0489L19.8333 16L19.8321 15.9683L19.8249 15.9163L19.8127 15.8701L19.8037 15.8453L19.7814 15.7983L19.7623 15.7673L19.7447 15.743L19.7285 15.7237L19.7113 15.7054L17.8363 13.8304L17.797 13.7957C17.6622 13.6909 17.4777 13.6804 17.333 13.7643Z" fill="#999999"/>
</svg>
