<svg width="24" height="24" viewBox="0 0 24 24" fill="none" xmlns="http://www.w3.org/2000/svg">
<path d="M19.2004 7.89162C19.9219 8.36729 20 9.19969 20 10.1471V15.0882C20 17.4761 18.5196 19 16.2 19H9C8.0797 19 7.27108 18.9196 6.809 18.1769L16.2 18.1765C17.8569 18.1765 19.2 16.7938 19.2 15.0882L19.2004 7.89162ZM6.6 5H15.8C17.1864 5 18.3194 6.11708 18.3959 7.52459L18.4 7.67647V14.6765C18.4 16.1037 17.3148 17.27 15.9475 17.3487L15.8 17.3529H6.6C5.21357 17.3529 4.0806 16.2359 4.00412 14.8283L4 14.6765V7.67647C4 6.24927 5.08516 5.08297 6.45246 5.00424L6.6 5ZM17.6 8.54118L11.4794 12.1348C11.3295 12.216 11.1545 12.2276 10.9974 12.1696L10.9206 12.1348L4.8 8.54118V14.8824C4.8 15.6385 5.73297 16.4693 6.45246 16.5294L6.368 16.519L15.9475 16.5294C16.6821 16.5294 17.5416 15.569 17.6 14.8283V8.54118ZM15.8 5.82353H6.6C5.86546 5.82353 4.86145 6.64797 4.80304 7.38862L4.8 7.47059L11.2 11.1765L17.6046 7.52459C17.5855 6.74584 16.5611 5.82353 15.8 5.82353Z" fill="#999999"/>
</svg>
