<svg width="24" height="24" viewBox="0 0 24 24" fill="none" xmlns="http://www.w3.org/2000/svg">
<path d="M10.4529 4.10583C10.9399 2.63139 13.0601 2.63139 13.5471 4.10583L14.5565 7.16226C14.7743 7.82164 15.3988 8.26808 16.1036 8.26808H19.3702C20.946 8.26808 21.6012 10.2519 20.3264 11.1632L17.6836 13.0522C17.1134 13.4597 16.8749 14.182 17.0926 14.8414M15.5988 19.6871L15.1198 19.3447M6.5 8.26808H4.62981C3.054 8.26808 2.3988 10.2519 3.67366 11.1632L6.31638 13.0522C6.88652 13.4597 7.12509 14.182 6.90732 14.8414L5.8979 17.8979C5.41093 19.3723 7.12625 20.5983 8.4011 19.6871L11.0438 17.7982C11.614 17.3906 12.386 17.3906 12.9561 17.7982L15.1198 19.3447M15.1198 19.3447C15.7466 19.8965 17.2 20.7 18 19.5M10.5 4C10.1667 4.83333 9.5 6.6 9.5 7" stroke="#999999"/>
<rect x="3" y="3.70709" width="1" height="24" rx="0.5" transform="rotate(-45 3 3.70709)" fill="#999999"/>
</svg>
