<svg width="24" height="24" viewBox="0 0 24 24" fill="none" xmlns="http://www.w3.org/2000/svg">
<path d="M10.7629 4.05976C10.9109 3.98008 11.0891 3.98008 11.2371 4.05976L16.9482 7.135C17.596 7.48382 18 8.16018 18 8.89594V14.5C18 15.8807 16.8807 17 15.5 17H6.5C5.11929 17 4 15.8807 4 14.5V8.89594C4 8.16018 4.40398 7.48382 5.0518 7.135L10.7629 4.05976ZM11 5.06788L5.5259 8.01547C5.40256 8.08188 5.2969 8.17204 5.21334 8.27854L11 10.9493L16.7867 8.27856C16.7031 8.17205 16.5974 8.08189 16.4741 8.01547L11 5.06788ZM17 9.28147L11.2095 11.954C11.0766 12.0153 10.9234 12.0153 10.7905 11.954L5 9.28145V14.5C5 15.3284 5.67157 16 6.5 16H15.5C16.3284 16 17 15.3284 17 14.5V9.28147Z" fill="#999999"/>
<path d="M8.50018 19C7.68227 19 6.9561 18.6072 6.5 18H15.5002C17.4332 18 19.0002 16.433 19.0002 14.5V8.5C19.6074 8.9561 20.0002 9.68209 20.0002 10.5V14.5C20.0002 16.9853 17.9855 19 15.5002 19H8.50018Z" fill="#999999"/>
</svg>
