<svg width="40" height="40" viewBox="0 0 40 40" fill="none" xmlns="http://www.w3.org/2000/svg">
<circle cx="20" cy="20" r="20" fill="#03BD5D"/>
<rect x="12" y="18.8984" width="1" height="6.5" fill="white"/>
<rect x="30" y="25.3984" width="1" height="20" rx="0.5" transform="rotate(90 30 25.3984)" fill="white"/>
<rect x="27" y="18.8984" width="1" height="6.5" fill="white"/>
<rect x="20.5" y="8.5" width="3" height="1" rx="0.5" transform="rotate(90 20.5 8.5)" fill="white"/>
<path fill-rule="evenodd" clip-rule="evenodd" d="M13 19.9838V18.502H13.0008C13.0003 18.4688 13 18.4356 13 18.4023C13 14.8723 16.0722 11.9023 20 11.9023C23.9278 11.9023 27 14.8723 27 18.4023C27 18.4356 26.9997 18.4688 26.9992 18.502H27V19.9838H27.8218C27.9386 19.474 28 18.9449 28 18.4023C28 14.2602 24.4183 10.9023 20 10.9023C15.5817 10.9023 12 14.2602 12 18.4023C12 19.4703 12.2381 20.486 12.6672 21.4056V19.9838H13ZM16 26.8027C16 26.3097 16.0892 25.8374 16.2524 25.4013H23.7476C23.9108 25.8374 24 26.3097 24 26.8027C24 29.0119 22.2091 30.8027 20 30.8027C17.7909 30.8027 16 29.0119 16 26.8027ZM22.6877 25.4686C21.8477 25.7494 20.9429 25.9023 20 25.9023C19.0571 25.9023 18.1523 25.7494 17.3123 25.4686C17.1124 25.8704 17 26.3235 17 26.8027C17 28.4596 18.3431 29.8027 20 29.8027C21.6569 29.8027 23 28.4596 23 26.8027C23 26.3235 22.8876 25.8704 22.6877 25.4686Z" fill="white"/>
</svg>
