<svg width="40" height="40" viewBox="0 0 40 40" fill="none" xmlns="http://www.w3.org/2000/svg">
<circle cx="20" cy="20" r="20" fill="#D16584"/>
<mask id="path-2-inside-1" fill="white">
<path fill-rule="evenodd" clip-rule="evenodd" d="M12 11C10.8954 11 10 11.8954 10 13V25C10 26.1046 10.8954 27 12 27H16.7424C17.0317 27 17.2573 27.2495 17.4019 27.5L19.134 30.5C19.5189 31.1667 20.4811 31.1667 20.866 30.5L22.5981 27.5C22.7427 27.2495 22.9683 27 23.2576 27H28C29.1046 27 30 26.1046 30 25V13C30 11.8954 29.1046 11 28 11H12Z"/>
</mask>
<path d="M19.134 30.5L18.2679 31H18.268L19.134 30.5ZM20.866 30.5L20 30L20.866 30.5ZM11 13C11 12.4477 11.4477 12 12 12V10C10.3431 10 9 11.3431 9 13H11ZM11 25V13H9V25H11ZM12 26C11.4477 26 11 25.5523 11 25H9C9 26.6569 10.3431 28 12 28V26ZM16.7424 26H12V28H16.7424V26ZM20 30L18.2679 27L16.5359 28L18.2679 31L20 30ZM20 30H20L18.268 31C19.0377 32.3333 20.9622 32.3333 21.7321 31L20 30ZM21.732 27L20 30L21.7321 31L23.4641 28L21.732 27ZM28 26H23.2576V28H28V26ZM29 25C29 25.5523 28.5523 26 28 26V28C29.6569 28 31 26.6569 31 25H29ZM29 13V25H31V13H29ZM28 12C28.5523 12 29 12.4477 29 13H31C31 11.3431 29.6569 10 28 10V12ZM12 12H28V10H12V12ZM23.4641 28C23.4805 27.9717 23.4957 27.9494 23.5081 27.9336C23.5209 27.9173 23.5257 27.9142 23.5198 27.9192C23.5094 27.928 23.4174 28 23.2576 28V26C22.8085 26 22.4591 26.1967 22.2274 26.3929C22.0002 26.5852 21.8396 26.8138 21.7321 27L23.4641 28ZM16.7424 28C16.5826 28 16.4906 27.928 16.4802 27.9192C16.4743 27.9142 16.4791 27.9173 16.4919 27.9336C16.5043 27.9494 16.5195 27.9717 16.5359 28L18.2679 27C18.1604 26.8138 17.9998 26.5852 17.7726 26.3929C17.5409 26.1967 17.1915 26 16.7424 26V28Z" fill="white" mask="url(#path-2-inside-1)"/>
<rect x="15" y="16" width="10" height="1" rx="0.5" fill="white"/>
<rect x="15" y="21" width="10" height="1" rx="0.5" fill="white"/>
</svg>
