<svg width="40" height="40" viewBox="0 0 40 40" fill="none" xmlns="http://www.w3.org/2000/svg">
<circle cx="20" cy="20" r="20" fill="#2D76CE"/>
<path d="M27 13.2H22.82C22.4 12.214 21.3 11.5 20 11.5C18.7 11.5 17.6 12.214 17.18 13.2H13C11.9 13.2 11 13.965 11 14.9V26.8C11 27.735 11.9 28.5 13 28.5H27C28.1 28.5 29 27.735 29 26.8V14.9C29 13.965 28.1 13.2 27 13.2Z" stroke="white"/>
<rect x="16" y="20" width="5.18453" height="1" rx="0.5" transform="rotate(45 16 20)" fill="white"/>
<rect x="18.2617" y="23.6562" width="8" height="1" rx="0.5" transform="rotate(-45 18.2617 23.6562)" fill="white"/>
</svg>
