<?xml version="1.0" standalone="no"?>
<!DOCTYPE svg PUBLIC "-//W3C//DTD SVG 20010904//EN"
 "http://www.w3.org/TR/2001/REC-SVG-20010904/DTD/svg10.dtd">
<svg version="1.0" xmlns="http://www.w3.org/2000/svg"
 width="700.000000pt" height="700.000000pt" viewBox="0 0 700.000000 700.000000"
 preserveAspectRatio="xMidYMid meet">
<metadata>
Created by potrace 1.11, written by Peter Selinger 2001-2013
</metadata>
<g transform="translate(0.000000,700.000000) scale(0.100000,-0.100000)"
fill="#000000" stroke="none">
<path d="M3509 6998 c-1 -2 -3 -657 -4 -1455 -1 -799 -3 -1455 -6 -1457 -6 -6
-6 -6 -1160 1152 l-1007 1009 -281 -281 -282 -282 601 -604 c330 -333 817
-822 1081 -1086 l481 -481 -1443 -1 c-794 0 -1454 -1 -1466 -1 l-23 -1 0 -398
0 -399 1048 1 c576 1 1059 -1 1074 -3 24 -3 -63 -93 -855 -888 -485 -486 -883
-886 -885 -887 -1 -2 124 -130 279 -286 l281 -284 877 882 c483 485 880 882
883 882 3 0 6 -469 6 -1042 0 -574 1 -1053 1 -1065 l1 -23 398 0 397 0 0 1470
-1 1471 -277 277 c-152 152 -277 282 -277 287 0 6 125 135 278 288 l277 277
282 -283 282 -284 -280 -279 c-153 -153 -279 -282 -279 -285 0 -4 487 -495
1082 -1093 l1082 -1087 278 278 c153 153 278 282 278 288 0 5 -53 63 -118 127
-450 448 -2022 2028 -2022 2032 0 3 655 6 1455 6 l1455 0 0 399 0 399 -1012 1
c-557 0 -1041 0 -1076 0 l-62 1 889 892 890 893 -277 277 c-152 153 -281 278
-287 278 -5 0 -405 -396 -887 -881 l-878 -882 0 1067 0 1066 -395 0 c-217 0
-396 -1 -396 -2z"/>
</g>
</svg>
