<svg width="20" height="20" viewBox="0 0 20 20" fill="none" xmlns="http://www.w3.org/2000/svg">
    <path fill-rule="evenodd" clip-rule="evenodd" d="M2.00003 3.75V12.25L10 19.1667L18 12.25V3.75H14.5C12.5 3.75 10 0.75 10 0.75C10 0.75 7.50003 3.75 5.50003 3.75H2.00003ZM3.50006 5.0001V11.6668L10.0001 17.5001L16.5001 11.6668V5.0001L14.0001 5.00018C12.3001 5.00018 10.0001 2.5001 10.0001 2.5001C10.0001 2.5001 7.70006 5.00018 6.00006 5.00018L3.50006 5.0001ZM9.25003 5.8335H10.75V9.25H14.1669V10.75H10.75V14.1668H9.25003V10.75H5.83353V9.25H9.25003V5.8335Z" fill="#252534"/>
</svg>
