<svg width="44" height="44" viewBox="0 0 44 44" fill="none" xmlns="http://www.w3.org/2000/svg">
<path d="M0 4C0 1.79086 1.79086 0 4 0H40C42.2091 0 44 1.79086 44 4V40C44 42.2091 42.2091 44 40 44H4C1.79086 44 0 42.2091 0 40V4Z" fill="#0796FF" fill-opacity="0.8"/>
<path d="M12.0977 11.7031C12.0977 11.5371 12.0716 11.3906 12.0195 11.2637C11.9707 11.1335 11.8828 11.0163 11.7559 10.9121C11.6322 10.8079 11.4596 10.7087 11.2383 10.6143C11.0202 10.5199 10.7435 10.4238 10.4082 10.3262C10.0566 10.222 9.73926 10.1064 9.45605 9.97949C9.17285 9.84928 8.93034 9.70117 8.72852 9.53516C8.52669 9.36914 8.37207 9.17871 8.26465 8.96387C8.15723 8.74902 8.10352 8.50326 8.10352 8.22656C8.10352 7.94987 8.16048 7.69434 8.27441 7.45996C8.38835 7.22559 8.55111 7.02214 8.7627 6.84961C8.97754 6.67383 9.23307 6.53711 9.5293 6.43945C9.82552 6.3418 10.1559 6.29297 10.5205 6.29297C11.0544 6.29297 11.5068 6.39551 11.8779 6.60059C12.2523 6.80241 12.5371 7.06771 12.7324 7.39648C12.9277 7.72201 13.0254 8.07031 13.0254 8.44141H12.0879C12.0879 8.17448 12.0309 7.93848 11.917 7.7334C11.8031 7.52507 11.6305 7.3623 11.3994 7.24512C11.1683 7.12467 10.8753 7.06445 10.5205 7.06445C10.1852 7.06445 9.90853 7.11491 9.69043 7.21582C9.47233 7.31673 9.30957 7.45345 9.20215 7.62598C9.09798 7.7985 9.0459 7.99544 9.0459 8.2168C9.0459 8.36654 9.07682 8.50326 9.13867 8.62695C9.20378 8.7474 9.30306 8.8597 9.43652 8.96387C9.57324 9.06803 9.74577 9.16406 9.9541 9.25195C10.1657 9.33984 10.418 9.42448 10.7109 9.50586C11.1146 9.61979 11.4629 9.74674 11.7559 9.88672C12.0488 10.0267 12.2897 10.1846 12.4785 10.3604C12.6706 10.5329 12.8122 10.7298 12.9033 10.9512C12.9977 11.1693 13.0449 11.4167 13.0449 11.6934C13.0449 11.9831 12.9863 12.2451 12.8691 12.4795C12.752 12.7139 12.5843 12.9141 12.3662 13.0801C12.1481 13.2461 11.8861 13.3747 11.5801 13.4658C11.2773 13.5537 10.9388 13.5977 10.5645 13.5977C10.2357 13.5977 9.91178 13.5521 9.59277 13.4609C9.27702 13.3698 8.98893 13.2331 8.72852 13.0508C8.47135 12.8685 8.26465 12.6439 8.1084 12.377C7.9554 12.1068 7.87891 11.7943 7.87891 11.4395H8.81641C8.81641 11.6836 8.86361 11.8936 8.95801 12.0693C9.05241 12.2419 9.18099 12.3851 9.34375 12.499C9.50977 12.613 9.69694 12.6976 9.90527 12.7529C10.1169 12.805 10.3366 12.8311 10.5645 12.8311C10.8932 12.8311 11.1715 12.7855 11.3994 12.6943C11.6273 12.6032 11.7998 12.473 11.917 12.3037C12.0374 12.1344 12.0977 11.9342 12.0977 11.7031ZM16.3213 8.2168V8.91016H13.4648V8.2168H16.3213ZM14.4316 6.93262H15.335V12.1914C15.335 12.3704 15.3626 12.5055 15.418 12.5967C15.4733 12.6878 15.5449 12.748 15.6328 12.7773C15.7207 12.8066 15.8151 12.8213 15.916 12.8213C15.9909 12.8213 16.069 12.8148 16.1504 12.8018C16.235 12.7855 16.2985 12.7725 16.3408 12.7627L16.3457 13.5C16.2741 13.5228 16.1797 13.5439 16.0625 13.5635C15.9486 13.5863 15.8102 13.5977 15.6475 13.5977C15.4261 13.5977 15.2227 13.5537 15.0371 13.4658C14.8516 13.3779 14.7035 13.2314 14.5928 13.0264C14.4854 12.818 14.4316 12.5381 14.4316 12.1865V6.93262ZM20.4961 12.5967V9.87695C20.4961 9.66862 20.4538 9.48796 20.3691 9.33496C20.2878 9.17871 20.1641 9.05827 19.998 8.97363C19.832 8.889 19.627 8.84668 19.3828 8.84668C19.1549 8.84668 18.9548 8.88574 18.7822 8.96387C18.613 9.04199 18.4795 9.14453 18.3818 9.27148C18.2874 9.39844 18.2402 9.53516 18.2402 9.68164H17.3369C17.3369 9.49284 17.3857 9.30566 17.4834 9.12012C17.5811 8.93457 17.721 8.76693 17.9033 8.61719C18.0889 8.46419 18.3102 8.34375 18.5674 8.25586C18.8278 8.16471 19.1175 8.11914 19.4365 8.11914C19.8206 8.11914 20.1592 8.18424 20.4521 8.31445C20.7484 8.44466 20.9795 8.6416 21.1455 8.90527C21.3148 9.16569 21.3994 9.49284 21.3994 9.88672V12.3477C21.3994 12.5234 21.4141 12.7106 21.4434 12.9092C21.4759 13.1077 21.5231 13.2786 21.585 13.4219V13.5H20.6426C20.597 13.3958 20.5612 13.2575 20.5352 13.085C20.5091 12.9092 20.4961 12.7464 20.4961 12.5967ZM20.6523 10.2969L20.6621 10.9316H19.749C19.4919 10.9316 19.2624 10.9528 19.0605 10.9951C18.8587 11.0342 18.6895 11.0944 18.5527 11.1758C18.416 11.2572 18.3118 11.3597 18.2402 11.4834C18.1686 11.6038 18.1328 11.7454 18.1328 11.9082C18.1328 12.0742 18.1702 12.2256 18.2451 12.3623C18.32 12.499 18.4323 12.6081 18.582 12.6895C18.735 12.7676 18.9222 12.8066 19.1436 12.8066C19.4202 12.8066 19.6644 12.748 19.876 12.6309C20.0876 12.5137 20.2552 12.3704 20.3789 12.2012C20.5059 12.0319 20.5742 11.8675 20.584 11.708L20.9697 12.1426C20.9469 12.2793 20.8851 12.4307 20.7842 12.5967C20.6833 12.7627 20.5482 12.9222 20.3789 13.0752C20.2129 13.2249 20.0143 13.3503 19.7832 13.4512C19.5553 13.5488 19.2982 13.5977 19.0117 13.5977C18.6536 13.5977 18.3395 13.5277 18.0693 13.3877C17.8024 13.2477 17.5941 13.0605 17.4443 12.8262C17.2979 12.5885 17.2246 12.3232 17.2246 12.0303C17.2246 11.7471 17.2799 11.498 17.3906 11.2832C17.5013 11.0651 17.6608 10.8844 17.8691 10.7412C18.0775 10.5947 18.3281 10.484 18.6211 10.4092C18.9141 10.3343 19.2412 10.2969 19.6025 10.2969H20.6523ZM23.7188 9.2666V13.5H22.8105V8.2168H23.6699L23.7188 9.2666ZM23.5332 10.6582L23.1133 10.6436C23.1165 10.2822 23.1637 9.94857 23.2549 9.64258C23.346 9.33333 23.4811 9.06478 23.6602 8.83691C23.8392 8.60905 24.0622 8.43327 24.3291 8.30957C24.596 8.18262 24.9053 8.11914 25.2568 8.11914C25.5042 8.11914 25.7321 8.15495 25.9404 8.22656C26.1488 8.29492 26.3294 8.40397 26.4824 8.55371C26.6354 8.70345 26.7542 8.89551 26.8389 9.12988C26.9235 9.36426 26.9658 9.64746 26.9658 9.97949V13.5H26.0625V10.0234C26.0625 9.74674 26.0153 9.52539 25.9209 9.35938C25.8298 9.19336 25.6995 9.07292 25.5303 8.99805C25.361 8.91992 25.1624 8.88086 24.9346 8.88086C24.6676 8.88086 24.4447 8.92806 24.2656 9.02246C24.0866 9.11686 23.9434 9.24707 23.8359 9.41309C23.7285 9.5791 23.6504 9.76953 23.6016 9.98438C23.556 10.196 23.5332 10.4206 23.5332 10.6582ZM26.9561 10.1602L26.3506 10.3457C26.3538 10.056 26.401 9.77767 26.4922 9.51074C26.5866 9.24382 26.7217 9.00618 26.8975 8.79785C27.0765 8.58952 27.2962 8.42513 27.5566 8.30469C27.8171 8.18099 28.1149 8.11914 28.4502 8.11914C28.7334 8.11914 28.984 8.15658 29.2021 8.23145C29.4235 8.30632 29.609 8.42188 29.7588 8.57812C29.9118 8.73112 30.0273 8.92806 30.1055 9.16895C30.1836 9.40983 30.2227 9.69629 30.2227 10.0283V13.5H29.3145V10.0186C29.3145 9.72233 29.2673 9.49284 29.1729 9.33008C29.0817 9.16406 28.9515 9.0485 28.7822 8.9834C28.6162 8.91504 28.4176 8.88086 28.1865 8.88086C27.988 8.88086 27.8122 8.91504 27.6592 8.9834C27.5062 9.05176 27.3776 9.14616 27.2734 9.2666C27.1693 9.38379 27.0895 9.51888 27.0342 9.67188C26.9821 9.82487 26.9561 9.98763 26.9561 10.1602ZM32.4932 9.23242V15.5312H31.585V8.2168H32.415L32.4932 9.23242ZM36.0527 10.8145V10.917C36.0527 11.3011 36.0072 11.6576 35.916 11.9863C35.8249 12.3118 35.6914 12.5951 35.5156 12.8359C35.3431 13.0768 35.1299 13.264 34.876 13.3975C34.6221 13.5309 34.3307 13.5977 34.002 13.5977C33.6667 13.5977 33.3704 13.5423 33.1133 13.4316C32.8561 13.321 32.638 13.1598 32.459 12.9482C32.2799 12.7367 32.1367 12.4827 32.0293 12.1865C31.9251 11.8903 31.8535 11.5566 31.8145 11.1855V10.6387C31.8535 10.248 31.9268 9.89811 32.0342 9.58887C32.1416 9.27962 32.2832 9.01595 32.459 8.79785C32.638 8.5765 32.8545 8.40885 33.1084 8.29492C33.3623 8.17773 33.6553 8.11914 33.9873 8.11914C34.3193 8.11914 34.6139 8.18424 34.8711 8.31445C35.1283 8.44141 35.3447 8.6237 35.5205 8.86133C35.6963 9.09896 35.8281 9.38379 35.916 9.71582C36.0072 10.0446 36.0527 10.4108 36.0527 10.8145ZM35.1445 10.917V10.8145C35.1445 10.5508 35.1169 10.3034 35.0615 10.0723C35.0062 9.83789 34.9199 9.63281 34.8027 9.45703C34.6888 9.27799 34.5423 9.13802 34.3633 9.03711C34.1842 8.93294 33.971 8.88086 33.7236 8.88086C33.4958 8.88086 33.2972 8.91992 33.1279 8.99805C32.9619 9.07617 32.8203 9.18197 32.7031 9.31543C32.5859 9.44564 32.4899 9.59538 32.415 9.76465C32.3434 9.93066 32.2897 10.1032 32.2539 10.2822V11.5469C32.319 11.7747 32.4102 11.9896 32.5273 12.1914C32.6445 12.39 32.8008 12.5511 32.9961 12.6748C33.1914 12.7952 33.4372 12.8555 33.7334 12.8555C33.9775 12.8555 34.1875 12.805 34.3633 12.7041C34.5423 12.5999 34.6888 12.4583 34.8027 12.2793C34.9199 12.1003 35.0062 11.8952 35.0615 11.6641C35.1169 11.4297 35.1445 11.1807 35.1445 10.917Z" fill="white"/>
<path d="M18.8182 23.7L19.3182 23.7114V23.7H18.8182ZM25.1818 23.7H24.6817L24.6819 23.7114L25.1818 23.7ZM19.2439 25.3L18.8271 25.5763L18.8271 25.5763L19.2439 25.3ZM20.3454 30.74V31.24L20.8246 30.8829L20.3454 30.74ZM24.7556 25.3L25.1724 25.5763L25.1724 25.5763L24.7556 25.3ZM23.5 30.74L23.0209 30.8829L23.5 31.24V30.74ZM29 36.5V37L29.5 36.5H29ZM15 36.5H14.5L15 37V36.5ZM15 32.5L14.6464 32.1464L14.5 32.2929V32.5H15ZM16.76 30.74V30.24H16.5529L16.4064 30.3864L16.76 30.74ZM29 32.5H29.5V32.2929L29.3536 32.1464L29 32.5ZM27.24 30.74L27.5936 30.3864L27.4471 30.24H27.24V30.74ZM19.3182 23.7C19.3182 22.2061 20.5216 21 22 21V20C19.9639 20 18.3182 21.6592 18.3182 23.7H19.3182ZM22 21C23.4784 21 24.6818 22.2061 24.6818 23.7H25.6818C25.6818 21.6592 24.0361 20 22 20V21ZM18.8271 25.5763C19.4569 26.5263 20.5599 28.2718 19.8663 30.5971L20.8246 30.8829C21.6582 28.0882 20.3036 25.9937 19.6606 25.0237L18.8271 25.5763ZM18.3183 23.6886C18.3106 24.0269 18.3671 24.8822 18.8271 25.5763L19.6606 25.0237C19.3661 24.5795 19.3122 23.9679 19.318 23.7114L18.3183 23.6886ZM24.3389 25.0237C23.7167 25.9623 22.1824 28.0722 23.0209 30.8829L23.9791 30.5971C23.2903 28.2878 24.5218 26.5577 25.1724 25.5763L24.3389 25.0237ZM24.6819 23.7114C24.6878 23.9675 24.6335 24.5793 24.3389 25.0237L25.1724 25.5763C25.6323 24.8824 25.6894 24.0273 25.6817 23.6886L24.6819 23.7114ZM29 36H15V37H29V36ZM15 34.76H29V33.76H15V34.76ZM15.3536 32.8536L17.1136 31.0936L16.4064 30.3864L14.6464 32.1464L15.3536 32.8536ZM29.3536 32.1464L27.5936 30.3864L26.8864 31.0936L28.6464 32.8536L29.3536 32.1464ZM23.5 31.24H26.327V30.24H23.5V31.24ZM28.5 33.62V36.5H29.5V33.62H28.5ZM26.327 31.24H27.24V30.24H26.327V31.24ZM28.5 32.5V33.62H29.5V32.5H28.5ZM17.6727 31.24H20.3454V30.24H17.6727V31.24ZM15.5 36.5V33.62H14.5V36.5H15.5ZM15.5 33.62V32.5H14.5V33.62H15.5ZM16.76 31.24H17.6727V30.24H16.76V31.24Z" fill="white"/>
<path d="M4 2H40V-2H4V2ZM42 4V40H46V4H42ZM40 42H4V46H40V42ZM2 40V4H-2V40H2ZM4 42C2.89543 42 2 41.1046 2 40H-2C-2 43.3137 0.68629 46 4 46V42ZM42 40C42 41.1046 41.1046 42 40 42V46C43.3137 46 46 43.3137 46 40H42ZM40 2C41.1046 2 42 2.89543 42 4H46C46 0.686293 43.3137 -2 40 -2V2ZM4 -2C0.686293 -2 -2 0.68629 -2 4H2C2 2.89543 2.89543 2 4 2V-2Z" fill="#0796FF"/>
</svg>
