<svg width="20" height="20" viewBox="0 0 20 20" fill="none" xmlns="http://www.w3.org/2000/svg">
<path fill-rule="evenodd" clip-rule="evenodd" d="M16.5324 7.45601C16.2395 7.16311 15.7646 7.16311 15.4717 7.45601L9.98904 12.9387L4.52002 7.46968C4.22712 7.17678 3.75225 7.17678 3.45936 7.46968C3.16646 7.76257 3.16646 8.23744 3.45936 8.53034L9.4487 14.5197C9.45197 14.5231 9.45528 14.5264 9.45862 14.5298C9.46197 14.5331 9.46533 14.5364 9.46873 14.5397L9.46976 14.5407C9.76266 14.8336 10.2375 14.8336 10.5304 14.5407C10.5675 14.5037 10.5999 14.4637 10.6276 14.4215L16.5324 8.51667C16.8253 8.22377 16.8253 7.7489 16.5324 7.45601Z" fill="#999999"/>
</svg>
