<svg width="24" height="24" viewBox="0 0 24 24" fill="none" xmlns="http://www.w3.org/2000/svg">
<g clip-path="url(#clip0)">
<path fill-rule="evenodd" clip-rule="evenodd" d="M17.9999 14C17.4476 14 16.9999 14.4477 16.9999 15V17H14.9999C14.4476 17 13.9999 17.4477 13.9999 18C13.9999 18.5523 14.4476 19 14.9999 19H16.9999V21C16.9999 21.5523 17.4476 22 17.9999 22C18.5522 22 18.9999 21.5523 18.9999 21V19H20.9999C21.5522 19 21.9999 18.5523 21.9999 18C21.9999 17.4477 21.5522 17 20.9999 17H18.9999V15C18.9999 14.4477 18.5522 14 17.9999 14Z" fill="#999999"/>
<g clip-path="url(#clip1)">
<g clip-path="url(#clip2)">
<path d="M2 19.25C2 16.3505 4.3505 14 7.25 14H12V21H3.75C2.7835 21 2 20.2165 2 19.25V19.25Z" stroke="#999999" stroke-width="2" stroke-linecap="round" stroke-linejoin="round"/>
</g>
<rect x="11" y="13" width="4" height="10" fill="#2C2C2C"/>
<circle cx="11" cy="14" r="1" fill="#999999"/>
<circle cx="11" cy="21" r="1" fill="#999999"/>
</g>
<path d="M7 6.5C7 4.01628 9.01628 2 11.5 2C13.9837 2 16 4.01628 16 6.5C16 8.98372 13.9837 11 11.5 11C9.01628 11 7 8.98372 7 6.5Z" stroke="#999999" stroke-width="2"/>
</g>
<defs>
<clipPath id="clip0">
<rect width="24" height="24" fill="white"/>
</clipPath>
<clipPath id="clip1">
<rect width="12" height="16.97" fill="white" transform="translate(1 13)"/>
</clipPath>
<clipPath id="clip2">
<rect width="12" height="16" fill="white" transform="translate(0 13)"/>
</clipPath>
</defs>
</svg>
