<svg width="16" height="18" viewBox="0 0 16 18" fill="none" xmlns="http://www.w3.org/2000/svg">
<path fill-rule="evenodd" clip-rule="evenodd" d="M13 11C12.6687 11 12.4434 11.2687 12.4434 11.6V13.4727H10.6C10.2687 13.4727 10 13.6687 10 14C10 14.3313 10.2687 14.5215 10.6 14.5215H12.4434V16.4C12.4434 16.7313 12.6687 17 13 17C13.3313 17 13.5566 16.7313 13.5566 16.4V14.5215H15.4C15.7313 14.5215 16 14.3313 16 14C16 13.6687 15.7313 13.4727 15.4 13.4727H13.5566V11.6C13.5566 11.2687 13.3313 11 13 11Z" fill="#3E3F41"/>
<path fill-rule="evenodd" clip-rule="evenodd" d="M8.242 9.72702H5.57547C2.49622 9.72702 0 12.2233 0 15.3025C0 16.5074 0.976783 17.4842 2.1817 17.4842H8.242V16.5145H2.1817C1.5123 16.5145 0.969647 15.9719 0.969647 15.3025C0.969647 12.7587 3.03175 10.6967 5.57547 10.6967H8.242V9.72702Z" fill="#3E3F41"/>
<path d="M8.72791 9.72681H7.75826C7.4905 9.72681 7.27344 9.94387 7.27344 10.2116C7.27344 10.4794 7.4905 10.6965 7.75826 10.6965H8.72791C8.99567 10.6965 9.21273 10.4794 9.21273 10.2116C9.21273 9.94387 8.99567 9.72681 8.72791 9.72681Z" fill="#3E3F41"/>
<path d="M8.72791 16.5142H7.75826C7.4905 16.5142 7.27344 16.7312 7.27344 16.999C7.27344 17.2667 7.4905 17.4838 7.75826 17.4838H8.72791C8.99567 17.4838 9.21273 17.2667 9.21273 16.999C9.21273 16.7312 8.99567 16.5142 8.72791 16.5142Z" fill="#3E3F41"/>
<path d="M5.81641 4.39376C5.81641 2.52054 7.33691 1 9.21017 1C11.0834 1 12.6039 2.52054 12.6039 4.39376C12.6039 6.26699 11.0834 7.78753 9.21017 7.78753C7.33691 7.78753 5.81641 6.26699 5.81641 4.39376Z" stroke="#3E3F41"/>
</svg>
