<svg width="24" height="24" viewBox="0 0 24 24" fill="none" xmlns="http://www.w3.org/2000/svg">
<path d="M4 4L12.5 2L21 4V17L12.5 23L4 17V4Z" fill="#E3F6F2"/>
<path fill-rule="evenodd" clip-rule="evenodd" d="M12 22.9999C6 20.327 3 17.6603 3 14.9999V4.99994C3 4.23235 3.2946 4.05395 4.10993 3.56023C4.35679 3.41074 4.65139 3.23235 5 2.99994C5.16179 2.89208 8.56321 0.999939 12 0.999939C14.9952 0.999939 17.5 1.99994 19 2.99994C19.3486 3.23235 19.6432 3.41074 19.8901 3.56023C20.7054 4.05395 21 4.23235 21 4.99994C21.0197 5.21717 21.01 9.83705 21.0038 12.7946C21.0017 13.8032 21 14.6185 21 14.9999C21 17.6666 18 20.3333 12 22.9999ZM18.9998 15C18.9998 14.7697 19.0004 14.3838 19.0017 13.7547L19.0057 11.8014C19.007 11.1695 19.008 10.6273 19.0089 10.1098C19.0126 7.87764 19.0116 5.96182 19.0094 5.36929L18.872 5.28404L18.872 5.284C18.5486 5.08339 18.1272 4.82194 17.8904 4.6641C16.4142 3.67992 14.26 3 11.9998 3C9.83792 3 7.02847 4.05128 6.10923 4.6641C5.87246 4.82195 5.45097 5.08343 5.1276 5.28405L5.12757 5.28406L4.99983 5.36334V15C4.99983 16.5085 7.22894 18.5687 12.0008 20.802C16.772 18.5737 18.9998 16.5142 18.9998 15ZM15.2931 8.29279L11.0002 12.5857L8.7073 10.2928L7.29308 11.707L11.0002 15.4141L16.7073 9.707L15.2931 8.29279Z" fill="#4D4DE2"/>
</svg>
