<svg width="20" height="20" viewBox="0 0 20 20" fill="none" xmlns="http://www.w3.org/2000/svg">
<path fill-rule="evenodd" clip-rule="evenodd" d="M3.45728 14.5407C3.75019 14.8336 4.22509 14.8336 4.51799 14.5407L10.0006 9.05801L15.4697 14.527C15.7626 14.8199 16.2374 14.8199 16.5303 14.527C16.8232 14.2341 16.8232 13.7593 16.5303 13.4664L10.541 7.47701C10.5377 7.47361 10.5344 7.47031 10.5311 7.46691C10.5277 7.46361 10.5244 7.46031 10.521 7.45701L10.5199 7.45601C10.227 7.16311 9.75219 7.16311 9.45929 7.45601C9.42219 7.49301 9.38979 7.53301 9.36209 7.57521L3.45729 13.48C3.16438 13.7729 3.16438 14.2478 3.45728 14.5407Z" fill="#999999"/>
</svg>
