<svg width="20" height="20" viewBox="0 0 20 20" fill="none" xmlns="http://www.w3.org/2000/svg">
<path fill-rule="evenodd" clip-rule="evenodd" d="M7.45601 3.4676C7.16311 3.76049 7.16311 4.23536 7.45601 4.52826L12.9387 10.011L7.46968 15.48C7.17678 15.7729 7.17678 16.2478 7.46968 16.5406C7.76257 16.8335 8.23744 16.8335 8.53034 16.5406L14.5197 10.5513C14.5231 10.548 14.5264 10.5447 14.5298 10.5414C14.5331 10.538 14.5364 10.5347 14.5397 10.5313L14.5407 10.5302C14.8336 10.2373 14.8336 9.76247 14.5407 9.46958C14.5037 9.4325 14.4637 9.40011 14.4215 9.37242L8.51667 3.4676C8.22377 3.1747 7.7489 3.1747 7.45601 3.4676Z" fill="#111111"/>
</svg>
