<svg width="20" height="20" viewBox="0 0 20 20" fill="none" xmlns="http://www.w3.org/2000/svg">
<path fill-rule="evenodd" clip-rule="evenodd" d="M16.5324 7.45588C16.2395 7.16299 15.7646 7.16299 15.4717 7.45588L9.98904 12.9386L4.52002 7.46955C4.22712 7.17666 3.75225 7.17666 3.45936 7.46955C3.16646 7.76245 3.16646 8.23732 3.45936 8.53021L9.4487 14.5196C9.45197 14.523 9.45528 14.5263 9.45862 14.5297C9.46197 14.533 9.46533 14.5363 9.46873 14.5396L9.46976 14.5406C9.76266 14.8335 10.2375 14.8335 10.5304 14.5406C10.5675 14.5035 10.5999 14.4635 10.6276 14.4214L16.5324 8.51655C16.8253 8.22365 16.8253 7.74878 16.5324 7.45588Z" fill="#111111"/>
</svg>
