<svg width="14" height="14" viewBox="0 0 14 14" fill="none" xmlns="http://www.w3.org/2000/svg">
<circle cx="7" cy="7" r="7" fill="#666666"/>
<path fill-rule="evenodd" clip-rule="evenodd" d="M4.73246 6.36302C4.53719 6.55828 4.22061 6.55828 4.02535 6.36302C3.83009 6.16775 3.83009 5.85117 4.02535 5.65591L6.68608 2.99519C6.69879 2.97884 6.71266 2.96311 6.72768 2.94809C6.92294 2.75282 7.23952 2.75282 7.43478 2.94808L10.1187 5.63203C10.314 5.82729 10.314 6.14387 10.1187 6.33913C9.92347 6.53439 9.60689 6.53439 9.41162 6.33913L7.54802 4.47553L7.54803 10.75C7.54803 11.0261 7.32417 11.25 7.04803 11.25C6.77189 11.25 6.54803 11.0261 6.54803 10.75L6.54803 4.54745L4.73246 6.36302Z" fill="white"/>
</svg>
