<svg width="16" height="16" viewBox="0 0 16 16" fill="none" xmlns="http://www.w3.org/2000/svg">
<path d="M12.7191 7.8311L8.12415 12.4261C7.56125 12.989 6.79776 13.3053 6.00167 13.3053C5.20557 13.3053 4.44209 12.989 3.87917 12.4261C3.31624 11.8632 3 11.0997 3 10.3036C3 9.5075 3.31624 8.74405 3.87917 8.1811L8.47415 3.58611C8.84945 3.21083 9.35845 3 9.88915 3C10.4199 3 10.9289 3.21083 11.3041 3.58611C11.6794 3.96139 11.8903 4.47039 11.8903 5.00111C11.8903 5.53184 11.6794 6.04083 11.3041 6.41611L6.70417 11.0111C6.51653 11.1987 6.26203 11.3041 5.99667 11.3041C5.73131 11.3041 5.47681 11.1987 5.28917 11.0111C5.10153 10.8234 4.99611 10.569 4.99611 10.3036C4.99611 10.0383 5.10153 9.78375 5.28917 9.5961L9.53415 5.35611" stroke="#999999" stroke-linecap="round" stroke-linejoin="round"/>
</svg>
