<svg width="16" height="16" viewBox="0 0 16 16" fill="none" xmlns="http://www.w3.org/2000/svg">
<path fill-rule="evenodd" clip-rule="evenodd" d="M0.98508 0.922775C0.594557 1.3133 0.594558 1.94646 0.985081 2.33698L6.57087 7.92277L0.842698 13.6509C0.452174 14.0415 0.452173 14.6746 0.842698 15.0652C1.23322 15.4557 1.86639 15.4557 2.25691 15.0652L7.98508 9.33699L13.713 15.0649C14.1035 15.4554 14.7367 15.4554 15.1272 15.0649C15.5177 14.6744 15.5177 14.0412 15.1272 13.6507L9.39929 7.92278L14.9848 2.33724C15.3754 1.94671 15.3754 1.31355 14.9848 0.923022C14.5943 0.532497 13.9611 0.532498 13.5706 0.923022L7.98507 6.50857L2.39929 0.922775C2.00877 0.532252 1.3756 0.532252 0.98508 0.922775Z" fill="#19191A"/>
</svg>
