<svg width="40" height="40" viewBox="0 0 40 40" fill="none" xmlns="http://www.w3.org/2000/svg">
<path fill-rule="evenodd" clip-rule="evenodd" d="M0 20H15.4612H19.9929H19.9929V23.1914L20.0071 23.2056L19.9929 23.2197V24.5333H19.9929V40H15.4612L15.4612 27.7531L5.86994 37.3477L2.66552 34.1422L12.2709 24.5333H0V20Z" fill="#58C171"/>
<path fill-rule="evenodd" clip-rule="evenodd" d="M40 20H24.5386H20.0071H20.0069V16.8086L19.9927 16.7944L20.0069 16.7803V0H24.5386L24.5386 12.2469L34.1299 2.6523L37.3343 5.85785L27.7289 15.4667H40V20Z" fill="#58C171"/>
<rect width="39.4025" height="4.53253" transform="matrix(0.706982 0.707232 -0.706982 0.707232 7.72998 4.53339)" fill="#5757DD"/>
<rect width="4.53333" height="4.53333" transform="matrix(0.706982 0.707232 -0.706982 0.707232 19.9932 16.8)" fill="white"/>
</svg>
