<svg width="24" height="24" viewBox="0 0 24 24" fill="none" xmlns="http://www.w3.org/2000/svg">
<path d="M17.3846 6.0769H6.61538C5.72323 6.0769 5 6.80014 5 7.69229V17.3846C5 18.2767 5.72323 19 6.61538 19H17.3846C18.2768 19 19 18.2767 19 17.3846V7.69229C19 6.80014 18.2768 6.0769 17.3846 6.0769Z" stroke="#666666" stroke-linejoin="round"/>
<rect x="7.5" y="11.5" width="1" height="1" fill="#666666" stroke="#666666"/>
<rect x="11" y="11" width="2" height="2" fill="#666666"/>
<rect x="15" y="11" width="2" height="2" fill="#666666"/>
<rect x="7" y="15" width="2" height="2" fill="#666666"/>
<rect x="11" y="15" width="2" height="2" fill="#666666"/>
<rect x="15" y="15" width="2" height="2" fill="#666666"/>
<path d="M7.69141 5V6.07692" stroke="#666666" stroke-linecap="round" stroke-linejoin="round"/>
<path d="M16.3086 5V6.07692" stroke="#666666" stroke-linecap="round" stroke-linejoin="round"/>
<path d="M19 8.76923H5" stroke="#666666" stroke-linecap="round" stroke-linejoin="round"/>
</svg>
