<svg width="24" height="24" viewBox="0 0 24 24" fill="none" xmlns="http://www.w3.org/2000/svg">
<path fill-rule="evenodd" clip-rule="evenodd" d="M8 3C7.48223 3 7.05637 3.3935 7.00516 3.89776C7.00175 3.93137 7 3.96548 7 4V16C7 16.5523 7.44772 17 8 17L20 17C20.5523 17 21 16.5523 21 16C21 15.4477 20.5523 15 20 15L9 15V5L19 5V12C19 12.5523 19.4477 13 20 13C20.5523 13 21 12.5523 21 12V4C21 3.44772 20.5523 3 20 3H8ZM3 9C3 8.44772 3.44772 8 4 8C4.55228 8 5 8.44772 5 9V19L16 19C16.5523 19 17 19.4477 17 20C17 20.5523 16.5523 21 16 21H4C3.44772 21 3 20.5523 3 20V9Z" fill="white"/>
</svg>
