<svg width="15" height="15" viewBox="0 0 15 15" fill="none" xmlns="http://www.w3.org/2000/svg">
<path fill-rule="evenodd" clip-rule="evenodd" d="M9.651 7.31349C9.8462 7.50875 9.8462 7.82533 9.651 8.02059L4.52513 13.1465C4.43136 13.2402 4.30418 13.2929 4.17157 13.2929H2C1.72386 13.2929 1.5 13.0691 1.5 12.7929V10.6214C1.5 10.4887 1.55268 10.3616 1.64645 10.2678L6.77234 5.14187C6.9676 4.9466 7.2842 4.94661 7.4795 5.14187L9.651 7.31349ZM10.8295 6.13496C11.0247 6.33024 11.3413 6.33024 11.5366 6.13497L12.5251 5.14644C12.7204 4.95118 12.7204 4.63459 12.5251 4.43933L10.3536 2.26777C10.1583 2.0725 9.8417 2.0725 9.6464 2.26777L8.658 3.25626C8.4627 3.45152 8.4627 3.7681 8.6579 3.96336L10.8295 6.13496ZM8.9393 0.853545L0.14645 9.64647C0.05268 9.74017 0 9.86736 0 9.99996V13.2929V14.2929C0 14.5691 0.22386 14.7929 0.5 14.7929H1.5H4.79289C4.9255 14.7929 5.05268 14.7402 5.14645 14.6465L13.9393 5.85355L14.6464 5.14644C14.8417 4.95118 14.8417 4.63459 14.6464 4.43933L13.9393 3.73222L11.0607 0.853545L10.3536 0.146445C10.1583 -0.048815 9.8417 -0.048815 9.6464 0.146445L8.9393 0.853545Z" fill="#19191A"/>
</svg>
