<svg width="140" height="140" viewBox="0 0 140 140" fill="none" xmlns="http://www.w3.org/2000/svg">
<rect x="0.5" y="0.5" width="139" height="139" rx="7.5" fill="#C6C6C6" stroke="#9E9E9E"/>
<path d="M70.5 76.6638C63.8753 76.6638 54.0716 78.6617 45.889 82.635C37.7991 86.5633 30.6803 92.7465 30.6803 101.388V107.194C30.6803 110.933 33.2503 114.5 36.9703 114.5H104.03C107.75 114.5 110.32 110.933 110.32 107.194V101.388C110.32 92.7465 103.201 86.5633 95.111 82.635C86.9284 78.6617 77.1247 76.6638 70.5 76.6638Z" stroke="white" stroke-width="3" stroke-linejoin="round"/>
<path d="M70.5 64.3361C80.9519 64.3361 89.418 55.8699 89.418 45.418C89.418 34.9661 80.9519 26.5 70.5 26.5C60.0481 26.5 51.582 34.9661 51.582 45.418C51.582 55.8699 60.0481 64.3361 70.5 64.3361Z" stroke="white" stroke-width="3"/>
</svg>