<svg width="120" height="120" viewBox="0 0 120 120" fill="none" xmlns="http://www.w3.org/2000/svg">
<rect width="120" height="120" rx="2" fill="#54d994"/>
<path d="M63.5627 60.9802L60.0274 64.528L56.4861 60.9771L60.0244 57.4262L46.3752 43.7285L42.8339 47.2825L73.6735 78.2288L77.2119 74.6779L63.5627 60.9802Z" fill="#000000"/>
<path d="M56.4861 60.9771L56.5411 60.9219H55.0164H38V65.9477H51.533L40.3803 77.1402L43.9186 80.6941L55.0164 69.5569V83.0001H60.0244V64.5249L56.4861 60.9771Z" fill="#F36E3A"/>
<path d="M68.473 56.0523L79.6625 44.8262L76.1211 41.2722L65.0294 52.4033V39H60.0244V56.0523H60V57.4506L60.0275 57.423L63.5658 60.977L63.4681 61.0751H65.0294H82V56.0523H68.473Z" fill="#F36E3A"/>
</svg>
