<svg width="16" height="16" viewBox="0 0 16 16" fill="none" xmlns="http://www.w3.org/2000/svg">
<path fill-rule="evenodd" clip-rule="evenodd" d="M8 1C7.72386 1 7.5 1.22386 7.5 1.5V4H3.5C3.22386 4 3 4.22386 3 4.5C3 4.77614 3.22386 5 3.5 5H8H12.5C12.7761 5 13 4.77614 13 4.5C13 4.22386 12.7761 4 12.5 4H8.5V1.5C8.5 1.22386 8.27614 1 8 1ZM5.99993 13L4.77121 7.23946L4.50267 5.9436C4.49643 5.91349 4.48757 5.88458 4.47638 5.85708C4.44769 5.73847 4.36049 5.64704 4.25098 5.60763C4.15265 5.55522 4.03611 5.53559 3.91847 5.55997C3.76115 5.59257 3.63692 5.69661 3.57263 5.8312C3.51967 5.88391 3.48925 5.94147 3.49993 6L3.59217 6.42083L5.08185 13.6093C5.11378 13.7634 5.21428 13.8858 5.34489 13.9511C5.39093 13.9817 5.44339 14 5.49996 14H5.50842C5.54559 14.0043 5.58373 14.0045 5.62222 14H10.41C10.4544 14.0052 10.4983 14.0042 10.5409 13.9977C10.5759 13.9938 10.6093 13.9848 10.6405 13.9716C10.7936 13.9138 10.9147 13.7814 10.9504 13.6093L12.4974 6.14417C12.5097 6.08471 12.5108 6.02554 12.5021 5.96886C12.5014 5.95271 12.498 5.93668 12.4922 5.92087C12.4467 5.74412 12.3046 5.59951 12.1138 5.55997C11.9994 5.53627 11.8861 5.55416 11.7895 5.60331C11.6704 5.64203 11.5757 5.74171 11.5502 5.87156C11.5417 5.89468 11.5347 5.91873 11.5296 5.9436L11.4262 6.44257L9.99993 13H5.99993Z" fill="#999999"/>
</svg>
