<svg width="24" height="24" viewBox="0 0 24 24" fill="none" xmlns="http://www.w3.org/2000/svg">
<path fill-rule="evenodd" clip-rule="evenodd" d="M11.5 3.5C11.5 3.22386 11.7239 3 12 3C12.2761 3 12.5 3.22386 12.5 3.5V6H18.5C18.7761 6 19 6.22386 19 6.5C19 6.77614 18.7761 7 18.5 7H12H5.5C5.22386 7 5 6.77614 5 6.5C5 6.22386 5.22386 6 5.5 6H11.5V3.5ZM16.9692 8.49109C17.0182 8.21933 17.2782 8.03875 17.55 8.08776C17.8217 8.13676 18.0023 8.39679 17.9533 8.66855L16.0012 19.4939L16 19.5C15.9998 19.776 15.7761 19.9997 15.5 19.9997H8.50005C8.22391 19.9997 8.00005 19.7758 8.00005 19.4997C8.00005 19.4537 8.00624 19.4093 8.01782 19.3671L6.08876 8.66953C6.03975 8.39777 6.22033 8.13774 6.49209 8.08873C6.76385 8.03973 7.02388 8.2203 7.07289 8.49206L8.9677 18.9997H15.0742L16.9692 8.49109Z" fill="white"/>
</svg>
