<svg width="340" height="60" viewBox="0 0 340 60" fill="none" xmlns="http://www.w3.org/2000/svg">
<path d="M295.5 54L291.5 18H328.5L324.5 54H295.5Z" fill="#C3C6CD"/>
<path fill-rule="evenodd" clip-rule="evenodd" d="M307 9H313V13.5H331V18H289V13.5H307V9ZM296.5 22.5L299.071 49.5H320.929L323.5 22.5H328L325 54H320.5H299.5H295L292 22.5H296.5ZM305.5 22.5L307.5 45.5H303L301 22.5H305.5ZM318.5 22.5L316.5 45.5H312L314 22.5H318.5Z" fill="#19191A"/>
<rect x="14" y="18" width="32" height="36" fill="white" stroke="#19191A" stroke-width="4"/>
<rect x="12" y="16" width="36" height="40" fill="#C3C6CD"/>
<rect x="8" y="12" width="32" height="36" fill="white" stroke="#19191A" stroke-width="4"/>
<rect x="2" y="6" width="32" height="36" fill="white" stroke="#19191A" stroke-width="4"/>
<path d="M74 31H78V35H74V31Z" fill="#19191A"/>
<path d="M88 31H92V35H88V31Z" fill="#19191A"/>
<path d="M102 31H106V35H102V31Z" fill="#19191A"/>
<path d="M116 31H120V35H116V31Z" fill="#19191A"/>
<path d="M130 31H134V35H130V31Z" fill="#19191A"/>
<path d="M144 31H148V35H144V31Z" fill="#19191A"/>
<path d="M180 31H184V35H180V31Z" fill="#19191A"/>
<path d="M194 31H198V35H194V31Z" fill="#19191A"/>
<path d="M208 31H212V35H208V31Z" fill="#19191A"/>
<path d="M222 31H226V35H222V31Z" fill="#19191A"/>
<path d="M236 31H240V35H236V31Z" fill="#19191A"/>
<path d="M250 31H254V35H250V31Z" fill="#19191A"/>
<path fill-rule="evenodd" clip-rule="evenodd" d="M173.501 31.0005H173.5L164.894 22.3945L162.065 25.223L167.844 31.0015L155.001 31.0037L155 35.0037L167.843 35.0015L162.065 40.7792L164.893 43.6076L172.672 35.8294L172.672 35.8296L173.5 35.0013L173.501 31.0005Z" fill="#19191A"/>
</svg>
