<svg width="15" height="15" viewBox="0 0 15 15" fill="none" xmlns="http://www.w3.org/2000/svg">
<path fill-rule="evenodd" clip-rule="evenodd" d="M0.292897 0.29289C-0.0976325 0.68341 -0.0976325 1.31657 0.292897 1.7071L6.17169 7.58589L0.514767 13.2427C0.124247 13.6333 0.124247 14.2664 0.514767 14.657C0.905297 15.0475 1.53846 15.0475 1.92899 14.657L7.58589 9.00009L13.0208 14.435C13.4114 14.8256 14.0445 14.8256 14.435 14.435C14.8256 14.0445 14.8256 13.4114 14.435 13.0208L9.00009 7.58589L14.6569 1.92903C15.0474 1.5385 15.0474 0.90534 14.6569 0.51482C14.2664 0.12429 13.6332 0.12429 13.2427 0.51482L7.58589 6.17169L1.7071 0.29289C1.31658 -0.09763 0.683417 -0.09763 0.292897 0.29289Z" fill="#3E3F41"/>
</svg>
