<svg width="14" height="17" viewBox="0 0 14 17" fill="none" xmlns="http://www.w3.org/2000/svg">
<path fill-rule="evenodd" clip-rule="evenodd" d="M6.5 0.5C6.5 0.22386 6.7239 0 7 0C7.2761 0 7.5 0.22386 7.5 0.5V3H13.5C13.7761 3 14 3.22386 14 3.5C14 3.77614 13.7761 4 13.5 4H7H0.5C0.22386 4 0 3.77614 0 3.5C0 3.22386 0.22386 3 0.5 3H6.5V0.5ZM11.9692 5.49109C12.0182 5.21933 12.2782 5.03875 12.55 5.08776C12.8217 5.13676 13.0023 5.39679 12.9533 5.66855L11.0012 16.4939L11 16.5C10.9998 16.776 10.7761 16.9997 10.5 16.9997H3.50005C3.22391 16.9997 3.00005 16.7758 3.00005 16.4997C3.00005 16.4537 3.00624 16.4093 3.01782 16.3671L1.08876 5.66953C1.03975 5.39777 1.22033 5.13774 1.49209 5.08873C1.76385 5.03973 2.02388 5.2203 2.07289 5.49206L3.9677 15.9997H10.0742L11.9692 5.49109Z" fill="#999999"/>
</svg>
