<svg width="14" height="14" viewBox="0 0 14 14" fill="none" xmlns="http://www.w3.org/2000/svg">
<circle cx="7" cy="7" r="7" transform="rotate(180 7 7)" fill="#666666"/>
<path fill-rule="evenodd" clip-rule="evenodd" d="M9.26754 7.63698C9.46281 7.44172 9.77939 7.44172 9.97465 7.63698C10.1699 7.83225 10.1699 8.14883 9.97465 8.34409L7.31392 11.0048C7.30121 11.0212 7.28734 11.0369 7.27232 11.0519C7.07706 11.2472 6.76048 11.2472 6.56522 11.0519L3.88127 8.36797C3.68601 8.17271 3.68601 7.85613 3.88127 7.66087C4.07653 7.46561 4.39311 7.46561 4.58838 7.66087L6.45198 9.52447L6.45197 3.25C6.45197 2.97386 6.67583 2.75 6.95197 2.75C7.22811 2.75 7.45197 2.97386 7.45197 3.25L7.45197 9.45255L9.26754 7.63698Z" fill="white"/>
</svg>
