<svg width="8" height="12" viewBox="0 0 8 12" fill="none" xmlns="http://www.w3.org/2000/svg">
<path fill-rule="evenodd" clip-rule="evenodd" d="M0.25 10.75C0.25 10.4739 0.473857 10.25 0.749998 10.25L7.25 10.25C7.52614 10.25 7.75 10.4739 7.75 10.75C7.75 11.0261 7.52614 11.25 7.25 11.25L0.749998 11.25C0.473857 11.25 0.25 11.0261 0.25 10.75ZM4.2833 8.89254C4.08804 9.0878 3.77146 9.0878 3.57619 8.89254L0.396596 5.71295C0.201335 5.51769 0.201335 5.20111 0.396596 5.00584C0.591857 4.81058 0.908438 4.81058 1.1037 5.00584L3.37677 7.27891L3.37676 1.08984C3.37676 0.813701 3.60062 0.589844 3.87676 0.589844C4.1529 0.589844 4.37676 0.8137 4.37676 1.08984L4.37676 7.37964L6.77981 4.9766C6.97507 4.78134 7.29165 4.78134 7.48691 4.9766C7.68217 5.17186 7.68217 5.48844 7.48691 5.68371L4.32388 8.84673C4.31145 8.86261 4.29792 8.87792 4.2833 8.89254Z" fill="#19191A"/>
</svg>
