<svg width="30" height="30" viewBox="0 0 30 30" fill="none" xmlns="http://www.w3.org/2000/svg">
<path d="M26 0H4C1.79086 0 0 1.79086 0 4V26C0 28.2091 1.79086 30 4 30H26C28.2091 30 30 28.2091 30 26V4C30 1.79086 28.2091 0 26 0Z" fill="#EFF6FF"/>
<path d="M15.5 8.5C15.5 8.22386 15.2761 8 15 8C14.7239 8 14.5 8.22386 14.5 8.5V19.5C14.5 19.7761 14.7239 20 15 20C15.2761 20 15.5 19.7761 15.5 19.5V8.5Z" fill="#3E3F41"/>
<path d="M18.5 21H11.5C11.2239 21 11 21.2239 11 21.5C11 21.7761 11.2239 22 11.5 22H18.5C18.7761 22 19 21.7761 19 21.5C19 21.2239 18.7761 21 18.5 21Z" fill="#3E3F41"/>
<path d="M19.0977 16.0607C19.293 15.8654 19.293 15.5488 19.0977 15.3536C18.9024 15.1583 18.5858 15.1583 18.3906 15.3536L14.8551 18.8891C14.6598 19.0843 14.6598 19.4009 14.8551 19.5962C15.0503 19.7915 15.3669 19.7915 15.5622 19.5962L19.0977 16.0607Z" fill="#3E3F41"/>
<path d="M10.8535 16.0607C10.6582 15.8654 10.6582 15.5488 10.8535 15.3536C11.0487 15.1583 11.3653 15.1583 11.5606 15.3536L15.0961 18.8891C15.2914 19.0844 15.2914 19.4009 15.0961 19.5962C14.9009 19.7915 14.5843 19.7915 14.389 19.5962L10.8535 16.0607Z" fill="#3E3F41"/>
</svg>
