<svg width="12" height="12" viewBox="0 0 12 12" fill="none" xmlns="http://www.w3.org/2000/svg">
<path fill-rule="evenodd" clip-rule="evenodd" d="M2.25 10.75C2.25 10.4739 2.47386 10.25 2.75 10.25L9.25 10.25C9.52614 10.25 9.75 10.4739 9.75 10.75C9.75 11.0261 9.52614 11.25 9.25 11.25L2.75 11.25C2.47386 11.25 2.25 11.0261 2.25 10.75ZM6.2833 8.89254C6.08804 9.0878 5.77146 9.0878 5.57619 8.89254L2.3966 5.71295C2.20133 5.51769 2.20133 5.20111 2.3966 5.00584C2.59186 4.81058 2.90844 4.81058 3.1037 5.00584L5.37677 7.27891L5.37676 1.08984C5.37676 0.813701 5.60062 0.589844 5.87676 0.589844C6.1529 0.589844 6.37676 0.8137 6.37676 1.08984L6.37676 7.37964L8.77981 4.9766C8.97507 4.78134 9.29165 4.78134 9.48691 4.9766C9.68217 5.17186 9.68217 5.48844 9.48691 5.68371L6.32388 8.84673C6.31145 8.86261 6.29792 8.87792 6.2833 8.89254Z" fill="#999999"/>
</svg>
