<svg width="32" height="32" viewBox="0 0 32 32" fill="none" xmlns="http://www.w3.org/2000/svg">
<rect width="32" height="32" rx="4" fill="#AFAFAF"/>
<path fill-rule="evenodd" clip-rule="evenodd" d="M9.70712 9.70695C9.3166 10.0975 9.3166 10.7306 9.70712 11.1212L14.5858 15.9999L9.3432 21.2425C8.95267 21.633 8.95267 22.2662 9.3432 22.6567C9.73372 23.0472 10.3669 23.0472 10.7574 22.6567L16 17.4141L21.0208 22.4349C21.4114 22.8254 22.0445 22.8254 22.435 22.4349C22.8256 22.0444 22.8256 21.4112 22.435 21.0207L17.4142 15.9999L22.0711 11.343C22.4616 10.9525 22.4616 10.3193 22.0711 9.92879C21.6806 9.53827 21.0474 9.53827 20.6569 9.92879L16 14.5857L11.1213 9.70695C10.7308 9.31643 10.0976 9.31643 9.70712 9.70695Z" fill="white"/>
</svg>
