<svg width="24" height="24" viewBox="0 0 24 24" fill="none" xmlns="http://www.w3.org/2000/svg">
<path d="M13.4019 6.10271C12.8545 6.10271 12.4107 6.5465 12.4107 7.0939L12.4107 10.5983C12.4107 11.1457 12.8545 11.5895 13.4019 11.5895L16.9063 11.5895C17.4537 11.5895 17.8975 11.1457 17.8975 10.5983C17.8975 10.0509 17.4537 9.6071 16.9063 9.6071L15.7947 9.6071L19.7097 5.69209C20.0968 5.30506 20.0968 4.67744 19.7097 4.29035C19.5161 4.0968 19.2625 4 19.0088 4C18.7552 4 18.5015 4.0968 18.308 4.29035L14.3931 8.20522L14.3931 7.0939C14.3931 6.5465 13.9493 6.10271 13.4019 6.10271Z" fill="#3E3F41"/>
<path d="M4.29071 19.7097C4.67774 20.0968 5.3053 20.0968 5.69246 19.7097L9.60746 15.7947L9.60746 16.9062C9.60746 17.4536 10.0513 17.8974 10.5987 17.8974C11.1461 17.8974 11.5898 17.4536 11.5898 16.9062L11.5898 13.4019C11.5898 12.8545 11.1461 12.4107 10.5987 12.4107L7.09427 12.4106C6.54693 12.4106 6.10308 12.8544 6.10308 13.4018C6.10308 13.9492 6.5468 14.393 7.09427 14.393L8.20572 14.393L4.29071 18.308C3.90362 18.6951 3.90362 19.3227 4.29071 19.7097Z" fill="#3E3F41"/>
</svg>
