<svg width="24" height="24" viewBox="0 0 24 24" fill="none" xmlns="http://www.w3.org/2000/svg">
<path d="M19.0083 9.48677C19.5557 9.48677 19.9995 9.04298 19.9995 8.49558V4.99119C19.9995 4.44379 19.5557 4 19.0083 4H15.5039C14.9565 4 14.5127 4.44379 14.5127 4.99119C14.5127 5.53859 14.9565 5.98238 15.5039 5.98238H16.6154L12.7005 9.89739C12.3134 10.2844 12.3134 10.912 12.7005 11.2991C12.894 11.4927 13.1477 11.5895 13.4013 11.5895C13.655 11.5895 13.9087 11.4927 14.1022 11.2991L18.017 7.38426V8.49558C18.0171 9.04298 18.4609 9.48677 19.0083 9.48677Z" fill="#3E3F41"/>
<path d="M11.2991 12.7009C10.9121 12.3138 10.2845 12.3138 9.89739 12.7009L5.98238 16.6159V15.5045C5.98238 14.9571 5.53859 14.5133 4.99119 14.5133C4.44379 14.5133 4 14.9571 4 15.5045V19.0088C4 19.5562 4.44372 20 4.99119 20L8.49558 20C9.04291 20 9.48677 19.5562 9.48677 19.0088C9.48677 18.4614 9.04305 18.0177 8.49558 18.0177H7.38412L11.2991 14.1026C11.6862 13.7156 11.6862 13.0879 11.2991 12.7009Z" fill="#3E3F41"/>
</svg>
