<svg width="14" height="12" viewBox="0 0 14 12" fill="none" xmlns="http://www.w3.org/2000/svg">
<g clip-path="url(#clip0_11014:2851)">
<path d="M13.3653 5.6665L13.7144 5.30858V5.30858L13.3653 5.6665ZM13.3653 6.38234L13.7144 6.74026V6.74026L13.3653 6.38234ZM8.2154 0.643079L7.86626 1.001V1.001L8.2154 0.643079ZM7.36626 3.07573V3.57573C7.64241 3.57573 7.86626 3.35187 7.86626 3.07573H7.36626ZM7.36626 9.21259H7.86626C7.86626 8.93644 7.64241 8.71259 7.36626 8.71259V9.21259ZM8.2154 11.4058L8.56453 11.7637L8.2154 11.4058ZM13.0161 6.02442V6.02442L13.7144 6.74026C14.1167 6.34782 14.1167 5.70102 13.7144 5.30858L13.0161 6.02442ZM7.86626 1.001L13.0161 6.02442L13.7144 5.30858L8.56453 0.285159L7.86626 1.001ZM7.86626 1.001L7.86626 1.001L8.56453 0.28516C7.93106 -0.332754 6.86626 0.116075 6.86626 1.001H7.86626ZM7.86626 3.07573V1.001H6.86626V3.07573H7.86626ZM1.5 3.57573H7.36626V2.57573H1.5V3.57573ZM1.5 3.57573V3.57573V2.57573C0.947715 2.57573 0.5 3.02344 0.5 3.57573H1.5ZM1.5 8.71259V3.57573H0.5V8.71259H1.5ZM1.5 8.71259L1.5 8.71259H0.5C0.5 9.26487 0.947715 9.71259 1.5 9.71259V8.71259ZM7.36626 8.71259H1.5V9.71259H7.36626V8.71259ZM7.86626 11.0478V9.21259H6.86626V11.0478H7.86626ZM7.86626 11.0478L7.86626 11.0478H6.86626C6.86626 11.9328 7.93106 12.3816 8.56453 11.7637L7.86626 11.0478ZM13.0161 6.02442L7.86626 11.0478L8.56453 11.7637L13.7144 6.74026L13.0161 6.02442Z" fill="#666666"/>
</g>
<defs>
<clipPath id="clip0_11014:2851">
<rect width="14" height="12" fill="white"/>
</clipPath>
</defs>
</svg>
