<svg width="14" height="12" viewBox="0 0 14 12" fill="none" xmlns="http://www.w3.org/2000/svg">
<path d="M10 4C10.8284 4 11.5 3.32843 11.5 2.5C11.5 1.67157 10.8284 1 10 1C9.17157 1 8.5 1.67157 8.5 2.5C8.5 3.32843 9.17157 4 10 4Z" stroke="#308F65" stroke-linecap="round" stroke-linejoin="round"/>
<path d="M4 7.5C4.82843 7.5 5.5 6.82843 5.5 6C5.5 5.17157 4.82843 4.5 4 4.5C3.17157 4.5 2.5 5.17157 2.5 6C2.5 6.82843 3.17157 7.5 4 7.5Z" stroke="#308F65" stroke-linecap="round" stroke-linejoin="round"/>
<path d="M10 11C10.8284 11 11.5 10.3284 11.5 9.5C11.5 8.67157 10.8284 8 10 8C9.17157 8 8.5 8.67157 8.5 9.5C8.5 10.3284 9.17157 11 10 11Z" stroke="#308F65" stroke-linecap="round" stroke-linejoin="round"/>
<path d="M5.29492 6.75586L8.70992 8.74586" stroke="#308F65" stroke-linecap="round" stroke-linejoin="round"/>
<path d="M8.70492 3.25586L5.29492 5.24586" stroke="#308F65" stroke-linecap="round" stroke-linejoin="round"/>
</svg>
