<svg width="12" height="12" viewBox="0 0 12 12" fill="none" xmlns="http://www.w3.org/2000/svg">
<path d="M10.9928 5.7476L10.6335 6.09531V6.09531L10.9928 5.7476ZM10.9928 6.44302L11.3521 6.79073L11.3521 6.79073L10.9928 6.44302ZM7.56356 2.20408L7.92286 1.85637V1.85637L7.56356 2.20408ZM6.70426 4.70661V5.20661C6.9804 5.20661 7.20426 4.98275 7.20426 4.70661H6.70426ZM6.70426 7.48162H7.20426C7.20426 7.20548 6.9804 6.98162 6.70426 6.98162V7.48162ZM7.56356 9.98654L7.92286 10.3343L7.56356 9.98654ZM10.6335 6.09531V6.09531L11.3521 6.79073C11.7273 6.40302 11.7273 5.78759 11.3521 5.39989L10.6335 6.09531ZM7.20426 2.55179L10.6335 6.09531L11.3521 5.39989L7.92286 1.85637L7.20426 2.55179ZM7.20426 2.55179V2.55179L7.92286 1.85637C7.29779 1.21046 6.20426 1.65296 6.20426 2.55179H7.20426ZM7.20426 4.70661V2.55179H6.20426V4.70661H7.20426ZM1.5 5.20661H6.70426V4.20661H1.5V5.20661ZM1.5 5.20661V5.20661V4.20661C0.947716 4.20661 0.5 4.65433 0.5 5.20661H1.5ZM1.5 6.98162V5.20661H0.5V6.98162H1.5ZM1.5 6.98162H1.5H0.5C0.5 7.5339 0.947717 7.98162 1.5 7.98162V6.98162ZM6.70426 6.98162H1.5V7.98162H6.70426V6.98162ZM7.20426 9.63883V7.48162H6.20426V9.63883H7.20426ZM7.20426 9.63883L7.20426 9.63883H6.20426C6.20426 10.5377 7.29779 10.9802 7.92286 10.3343L7.20426 9.63883ZM10.6335 6.09531L7.20426 9.63883L7.92286 10.3343L11.3521 6.79073L10.6335 6.09531Z" fill="#19191A"/>
</svg>
