<svg width="9" height="12" viewBox="0 0 9 12" fill="none" xmlns="http://www.w3.org/2000/svg">
<path fill-rule="evenodd" clip-rule="evenodd" d="M0.896446 4.15204C0.701184 4.3473 0.701184 4.66389 0.896446 4.85915C1.09171 5.05441 1.40829 5.05441 1.60355 4.85915L4.00659 2.45611L4.0066 8.74608C4.0066 9.02222 4.23045 9.24608 4.50659 9.24608C4.78273 9.24608 5.00659 9.02222 5.00659 8.74608L5.00659 2.55677L7.27966 4.82983C7.47492 5.02509 7.7915 5.02509 7.98676 4.82983C8.18202 4.63457 8.18202 4.31799 7.98676 4.12273L4.80716 0.943133C4.6119 0.747872 4.29532 0.747873 4.10006 0.943134C4.08533 0.957866 4.07171 0.973286 4.0592 0.989295L0.896446 4.15204ZM0.75 10.75C0.75 10.4739 0.973857 10.25 1.25 10.25L7.75 10.25C8.02614 10.25 8.25 10.4739 8.25 10.75C8.25 11.0261 8.02614 11.25 7.75 11.25L1.25 11.25C0.973857 11.25 0.75 11.0261 0.75 10.75Z" fill="#19191A"/>
</svg>
