<svg width="12" height="12" viewBox="0 0 12 12" fill="none" xmlns="http://www.w3.org/2000/svg">
<path d="M10.292 3.35355C10.4872 3.15829 10.8038 3.15829 10.9991 3.35355C11.1943 3.54882 11.1943 3.8654 10.9991 4.06066L5.28457 9.77515C5.08931 9.97041 4.77273 9.97041 4.57747 9.77515C4.38221 9.57988 4.38221 9.2633 4.57747 9.06804L10.292 3.35355Z" fill="#03BD5D"/>
<path d="M4.46481 9.67184C4.66007 9.8671 4.97665 9.8671 5.17191 9.67184C5.36718 9.47657 5.36718 9.15999 5.17191 8.96473L1.56089 5.35371C1.36562 5.15845 1.04904 5.15845 0.853782 5.35371C0.658521 5.54897 0.658521 5.86555 0.853783 6.06081L4.46481 9.67184Z" fill="#03BD5D"/>
</svg>
