<svg width="26" height="16" viewBox="0 0 26 16" fill="none" xmlns="http://www.w3.org/2000/svg">
<path d="M21.9375 5.29926V2.10526C21.9369 1.54711 21.7227 1.01199 21.3419 0.61731C20.9611 0.222632 20.4448 0.000626871 19.9062 0H2.03125C1.49271 0.000626871 0.976409 0.222632 0.595607 0.61731C0.214805 1.01199 0.000604832 1.54711 0 2.10526L0 13.8947C0.000604832 14.4529 0.214805 14.988 0.595607 15.3827C0.976409 15.7774 1.49271 15.9994 2.03125 16H19.9062C20.4142 15.9993 20.9035 15.8016 21.2779 15.4459C21.6523 15.0901 21.8847 14.602 21.9294 14.0776L25.881 9.98195C25.9187 9.94285 25.9487 9.89643 25.9691 9.84535C25.9895 9.79426 26 9.73951 26 9.68421C26 9.62892 25.9895 9.57416 25.9691 9.52308C25.9487 9.47199 25.9187 9.42557 25.881 9.38647L21.9375 5.29926ZM2.03125 0.842105H19.9062C20.1906 0.842524 20.4659 0.945815 20.6845 1.13415C20.9032 1.32249 21.0516 1.58405 21.1041 1.87368L11.5747 7.53247C11.3901 7.64154 11.1813 7.6989 10.9688 7.6989C10.7563 7.6989 10.5475 7.64154 10.3629 7.53247L0.833371 1.87368C0.885847 1.58405 1.03424 1.32249 1.25294 1.13415C1.47163 0.945815 1.74691 0.842524 2.03125 0.842105ZM19.9062 15.1579H2.03125C1.70813 15.1575 1.39834 15.0243 1.16986 14.7875C0.941383 14.5507 0.812862 14.2296 0.8125 13.8947V2.83158L9.95896 8.26316C10.2666 8.44493 10.6146 8.54053 10.9687 8.54053C11.3229 8.54053 11.6709 8.44493 11.9785 8.26316L21.125 2.83158V7.57895H15.8437C15.736 7.57895 15.6327 7.62331 15.5565 7.70227C15.4803 7.78123 15.4375 7.88833 15.4375 8V11.3684C15.4375 11.4801 15.4803 11.5872 15.5565 11.6662C15.6327 11.7451 15.736 11.7895 15.8437 11.7895H21.125V13.8947C21.1246 14.2296 20.9961 14.5507 20.7676 14.7875C20.5391 15.0243 20.2294 15.1575 19.9062 15.1579V15.1579ZM21.9375 12.8782V11.3684C21.9375 11.2568 21.8947 11.1497 21.8185 11.0707C21.7423 10.9917 21.639 10.9474 21.5312 10.9474H16.25V8.42105H21.5312C21.639 8.42105 21.7423 8.37669 21.8185 8.29773C21.8947 8.21877 21.9375 8.11167 21.9375 8V6.49021L25.0192 9.68421L21.9375 12.8782Z" fill="white"/>
</svg>
