<svg width="20" height="20" viewBox="0 0 20 20" fill="none" xmlns="http://www.w3.org/2000/svg">
<rect width="20" height="20" rx="10" fill="#AECEBD"/>
<path d="M13.1992 12.8809C12.9102 13.2949 12.5059 13.6055 11.9863 13.8125C11.4707 14.0156 10.8691 14.1172 10.1816 14.1172C9.48633 14.1172 8.86914 13.9551 8.33008 13.6309C7.79102 13.3027 7.37305 12.8379 7.07617 12.2363C6.7832 11.6348 6.63281 10.9375 6.625 10.1445V9.40039C6.625 8.11523 6.92383 7.11914 7.52148 6.41211C8.12305 5.70508 8.9668 5.35156 10.0527 5.35156C10.9434 5.35156 11.6602 5.58008 12.2031 6.03711C12.7461 6.49023 13.0781 7.13477 13.1992 7.9707H12.0742C11.8633 6.8418 11.1914 6.27734 10.0586 6.27734C9.30469 6.27734 8.73242 6.54297 8.3418 7.07422C7.95508 7.60156 7.75977 8.36719 7.75586 9.37109V10.0684C7.75586 11.0254 7.97461 11.7871 8.41211 12.3535C8.84961 12.916 9.44141 13.1973 10.1875 13.1973C10.6094 13.1973 10.9785 13.1504 11.2949 13.0566C11.6113 12.9629 11.873 12.8047 12.0801 12.582V10.666H10.1055V9.75195H13.1992V12.8809Z" fill="white"/>
</svg>
