<svg width="14" height="14" viewBox="0 0 14 14" fill="none" xmlns="http://www.w3.org/2000/svg">
<rect width="14" height="14" rx="2" fill="#C80A0A"/>
<path d="M11.4659 8.18803C10.7688 7.44247 8.8651 7.74621 8.40928 7.80144C7.73895 7.13872 7.28313 6.33793 7.12226 6.06179C7.36357 5.31623 7.52445 4.57067 7.55126 3.76988C7.55126 3.07955 7.28313 2.33398 6.53237 2.33398C6.26424 2.33398 6.02293 2.49966 5.88886 2.72057C5.56711 3.30045 5.70117 4.46022 6.21062 5.64759C5.91568 6.50361 5.64755 7.33201 4.89679 8.79552C4.11921 9.12688 2.48363 9.90006 2.34956 10.7285C2.29594 10.977 2.37637 11.2255 2.56406 11.4188C2.75175 11.5845 2.99307 11.6673 3.23439 11.6673C4.22646 11.6673 5.19173 10.259 5.86205 9.07166C6.42512 8.87836 7.30995 8.60223 8.19477 8.43655C9.24048 9.3754 10.1521 9.51347 10.6347 9.51347C11.2783 9.51347 11.5196 9.23734 11.6 8.98882C11.7341 8.71268 11.6536 8.40894 11.4659 8.18803ZM10.7956 8.65746C10.7688 8.85075 10.5275 9.04404 10.0985 8.93359C9.58904 8.79552 9.13322 8.547 8.73103 8.21564C9.0796 8.16041 9.85717 8.07757 10.4202 8.18803C10.6347 8.24325 10.8492 8.38132 10.7956 8.65746ZM6.31787 2.96909C6.3715 2.88625 6.45193 2.83103 6.53237 2.83103C6.77369 2.83103 6.82732 3.13477 6.82732 3.38329C6.8005 3.96318 6.69325 4.54306 6.50556 5.09533C6.10337 3.99079 6.18381 3.21761 6.31787 2.96909ZM6.26424 8.32609C6.47875 7.88428 6.77369 7.1111 6.88094 6.77974C7.12226 7.19394 7.52445 7.69099 7.73895 7.91189C7.73895 7.93951 6.90775 8.10519 6.26424 8.32609ZM4.68228 9.43063C4.06559 10.4799 3.42208 11.1427 3.07351 11.1427C3.01988 11.1427 2.96626 11.115 2.91263 11.0874C2.83219 11.0322 2.80538 10.9494 2.83219 10.8389C2.91263 10.4523 3.60977 9.92767 4.68228 9.43063Z" fill="white"/>
</svg>
