<svg width="12" height="13" viewBox="0 0 12 13" fill="none" xmlns="http://www.w3.org/2000/svg">
<path fill-rule="evenodd" clip-rule="evenodd" d="M9.88285 8.41187C9.68796 8.41187 9.52991 8.56991 9.52991 8.7648V9.82361H8.4711C8.27621 9.82361 8.11816 9.98166 8.11816 10.1765C8.11816 10.3714 8.27621 10.5295 8.4711 10.5295H9.52991V11.5883C9.52991 11.7832 9.68796 11.9412 9.88285 11.9412C10.0777 11.9412 10.2358 11.7832 10.2358 11.5883V10.5295H11.2946C11.4895 10.5295 11.6475 10.3714 11.6475 10.1765C11.6475 9.98166 11.4895 9.82361 11.2946 9.82361H10.2358V8.7648C10.2358 8.56991 10.0777 8.41187 9.88285 8.41187Z" fill="#18B263"/>
<path fill-rule="evenodd" clip-rule="evenodd" d="M5.99993 7.35303H4.05877C1.81717 7.35303 0 9.17023 0 11.4118C0 12.2889 0.711069 13 1.58822 13H5.99993V12.2941H1.58822C1.10091 12.2941 0.705874 11.8991 0.705874 11.4118C0.705874 9.56001 2.20702 8.0589 4.05877 8.0589H5.99993V7.35303Z" fill="#18B263"/>
<path d="M6.35276 7.35278H5.64688C5.45196 7.35278 5.29395 7.5108 5.29395 7.70572C5.29395 7.90064 5.45196 8.05866 5.64688 8.05866H6.35276C6.54768 8.05866 6.70569 7.90064 6.70569 7.70572C6.70569 7.5108 6.54768 7.35278 6.35276 7.35278Z" fill="#18B263"/>
<path d="M6.35276 12.2937H5.64688C5.45196 12.2937 5.29395 12.4517 5.29395 12.6466C5.29395 12.8416 5.45196 12.9996 5.64688 12.9996H6.35276C6.54768 12.9996 6.70569 12.8416 6.70569 12.6466C6.70569 12.4517 6.54768 12.2937 6.35276 12.2937Z" fill="#18B263"/>
<path d="M4.23535 3.47056C4.23535 2.10691 5.34223 1 6.70591 1C8.06959 1 9.17647 2.10691 9.17647 3.47056C9.17647 4.83421 8.06959 5.94112 6.70591 5.94112C5.34223 5.94112 4.23535 4.83421 4.23535 3.47056Z" stroke="#18B263" stroke-width="0.7"/>
</svg>
