<svg width="24" height="24" viewBox="0 0 24 24" fill="none" xmlns="http://www.w3.org/2000/svg">
<g clip-path="url(#clip0)">
<path fill-rule="evenodd" clip-rule="evenodd" d="M17.5 14C17.2239 14 17 14.2239 17 14.5V16H15.5C15.2239 16 15 16.2239 15 16.5C15 16.7761 15.2239 17 15.5 17H17V18.5C17 18.7761 17.2239 19 17.5 19C17.7761 19 18 18.7761 18 18.5V17H19.5C19.7761 17 20 16.7761 20 16.5C20 16.2239 19.7761 16 19.5 16H18V14.5C18 14.2239 17.7761 14 17.5 14Z" fill="#999999"/>
<g clip-path="url(#clip1)">
<path fill-rule="evenodd" clip-rule="evenodd" d="M12 12.5H9.25C6.07436 12.5 3.5 15.0744 3.5 18.25C3.5 19.4926 4.50736 20.5 5.75 20.5H12V19.5H5.75C5.05964 19.5 4.5 18.9404 4.5 18.25C4.5 15.6266 6.62665 13.5 9.25 13.5H12V12.5Z" fill="#999999"/>
<rect x="11" y="12.5" width="2" height="1" rx="0.5" fill="#999999"/>
<rect x="11" y="19.5" width="2" height="1" rx="0.5" fill="#999999"/>
</g>
<path d="M9.5 7C9.5 5.06814 11.0681 3.5 13 3.5C14.9319 3.5 16.5 5.06814 16.5 7C16.5 8.93186 14.9319 10.5 13 10.5C11.0681 10.5 9.5 8.93186 9.5 7Z" stroke="#999999"/>
</g>
<defs>
<clipPath id="clip0">
<rect width="24" height="24" fill="white"/>
</clipPath>
<clipPath id="clip1">
<rect width="12" height="16.97" fill="white" transform="translate(2 11)"/>
</clipPath>
</defs>
</svg>
