<svg width="24" height="24" viewBox="0 0 24 24" fill="none" xmlns="http://www.w3.org/2000/svg">
<rect x="6.5" y="11" width="1" height="5" fill="#999999"/>
<rect x="19.5" y="16" width="1" height="15" rx="0.5" transform="rotate(90 19.5 16)" fill="#999999"/>
<rect x="16.5" y="11" width="1" height="5" fill="#999999"/>
<rect x="12.5" y="3" width="3" height="1" rx="0.5" transform="rotate(90 12.5 3)" fill="#999999"/>
<path fill-rule="evenodd" clip-rule="evenodd" d="M15.163 15.9996H12.0604C12.0403 15.9999 12.0202 16 12 16C11.9798 16 11.9597 15.9999 11.9396 15.9996H8.83703C8.62092 16.4543 8.5 16.963 8.5 17.5C8.5 19.433 10.067 21 12 21C13.933 21 15.5 19.433 15.5 17.5C15.5 16.963 15.3791 16.4543 15.163 15.9996ZM7.5 11.833H6.55258C6.51792 11.5608 6.5 11.2827 6.5 11C6.5 7.68629 8.96243 5 12 5C15.0376 5 17.5 7.68629 17.5 11C17.5 11.2827 17.4821 11.5608 17.4474 11.833H16.5V11C16.5 8.23858 14.4853 6 12 6C9.51472 6 7.5 8.23858 7.5 11V11.833ZM12 17C11.1883 17 10.4177 16.8082 9.72416 16.4638C9.58021 16.7795 9.5 17.1304 9.5 17.5C9.5 18.8807 10.6193 20 12 20C13.3807 20 14.5 18.8807 14.5 17.5C14.5 17.1304 14.4198 16.7795 14.2758 16.4638C13.5823 16.8082 12.8117 17 12 17Z" fill="#999999"/>
</svg>
