<svg width="100" height="100" viewBox="0 0 100 100" fill="none" xmlns="http://www.w3.org/2000/svg">
<path d="M18.5838 38.2614C18.0099 38.8666 17.4678 39.5379 16.9256 40.1778C16.3834 40.8177 15.6416 41.7255 15.0329 42.5638C14.4241 43.4054 14.0183 44.1115 13.511 44.8837C13.0038 45.6591 12.8008 46.0279 12.3601 46.633C12.2777 46.7969 12.2111 46.964 12.1572 47.1373C11.9194 47.5755 11.6151 47.9442 11.3805 48.4139V48.417C10.8732 49.3847 10.8732 50.5383 11.3805 51.5091C11.6182 51.9787 11.9226 52.3507 12.1572 52.7856C12.2048 52.9841 12.2745 53.1733 12.3601 53.3592C12.7311 53.9991 13.1369 54.5349 13.511 55.1401C13.882 55.7452 14.4907 56.7192 15.0329 57.4599C15.575 58.2006 16.2852 59.0737 16.9256 59.8459C17.5692 60.6181 18.0067 61.1571 18.5838 61.7623C19.2971 62.5125 20.0517 63.2185 20.8475 63.8804C21.4214 64.3847 21.9635 64.9237 22.5722 65.3934C23.181 65.863 24.3635 66.6384 25.2766 67.2436C26.1897 67.8488 26.2912 67.9496 26.865 68.2869L13.7806 81.2288C13.1401 81.8623 12.7787 82.7197 12.7787 83.618C12.7787 84.5131 13.1401 85.3736 13.7806 86.004C14.4147 86.6407 15.2802 87 16.1806 87C17.0842 87 17.9466 86.6407 18.5838 86.004L33.5325 71.111L35.698 71.7508C36.3067 71.7508 36.8489 72.0881 37.4576 72.2551C38.8431 72.5577 40.3332 72.7595 41.8202 72.9612C42.394 72.9612 42.9013 73.1629 43.4783 73.1976L43.472 73.1944C45.6406 73.4277 47.8187 73.5411 50 73.5317C52.1813 73.5411 54.3594 73.4277 56.528 73.1944C57.1019 73.1944 57.6091 73.1944 58.1862 72.958C59.6731 72.7563 61.1633 72.5546 62.5487 72.252C63.1575 72.0849 63.6996 71.8832 64.3084 71.7477C65.5607 71.3789 66.8447 71.0416 68.0273 70.6035L69.7869 69.8313H69.7838C70.868 69.3837 71.9301 68.8762 72.9638 68.3183C73.5725 67.9811 74.1463 67.5776 74.7234 67.2088C75.2972 66.8401 76.5845 66.0332 77.4278 65.3586C78.2743 64.6872 78.5787 64.35 79.1525 63.8457V63.8488C79.9483 63.1869 80.7029 62.4777 81.4162 61.7307C81.9901 61.1255 82.5322 60.4542 83.0744 59.8143C83.6166 59.1744 84.3584 58.2667 84.9671 57.4283C85.5759 56.5867 85.9817 55.8807 86.489 55.1085C86.9962 54.3362 87.2657 53.9643 87.6399 53.3276V53.3245C87.7223 53.1637 87.7889 52.9935 87.8428 52.8202C88.0806 52.382 88.3849 52.0133 88.6195 51.5437C89.1268 50.5729 89.1268 49.4192 88.6195 48.4485C88.3818 47.9788 88.0774 47.6069 87.8428 47.1719C87.7889 46.9986 87.7223 46.8284 87.6399 46.6676C87.2689 46.0278 86.8631 45.492 86.489 44.8868C86.118 44.2816 85.5093 43.3077 84.9671 42.567C84.425 41.8262 83.7148 40.9532 83.0744 40.181C82.4308 39.4087 81.9933 38.8697 81.4162 38.2646V38.2614C80.7029 37.5144 79.9483 36.8052 79.1525 36.1433C78.5786 35.639 78.0365 35.1 77.4278 34.6304C76.819 34.1607 75.6365 33.3853 74.7234 32.7801C73.8103 32.175 73.7088 32.0741 73.135 31.7368L86.2227 18.7602L86.2195 18.7634C87.5447 17.4427 87.5447 15.3056 86.2195 13.9881C84.8943 12.6706 82.7447 12.6706 81.4162 13.9881L66.4707 28.8811L64.3053 28.2413C63.6965 28.2413 63.1544 27.904 62.5456 27.7369C61.1602 27.4344 59.67 27.2326 58.1831 27.0309C57.6092 27.0309 57.102 26.8292 56.5249 26.7945L56.5281 26.7977C54.3595 26.5644 52.1814 26.4509 50.0001 26.4604C47.8188 26.4509 45.6407 26.5644 43.4721 26.7977C42.8982 26.7977 42.391 26.9647 41.8139 27.0341C40.327 27.2358 38.8368 27.4375 37.4513 27.7401C36.8426 27.7401 36.3004 28.1089 35.6917 28.2444C34.4393 28.6132 33.1553 28.9504 31.9728 29.3886L30.2131 30.1608H30.2163C29.1321 30.6084 28.0699 31.1159 27.0363 31.6738C26.4276 32.011 25.8538 32.4145 25.2767 32.7833C24.7028 33.152 23.4156 33.9589 22.5723 34.6335C21.7258 35.3048 21.4214 35.6421 20.8476 36.1464V36.1433C20.0518 36.8052 19.2972 37.5144 18.5838 38.2614L18.5838 38.2614ZM49.9998 33.1867C53.6934 33.1615 57.3807 33.5461 60.9919 34.3278L31.9409 63.2092C26.0914 60.3472 21.3011 55.7233 18.2445 49.9962C18.9198 48.7858 19.6998 47.6764 20.4416 46.633C27.0362 37.3884 36.4715 33.1868 49.9998 33.1868V33.1867ZM81.7552 49.9961C81.2162 50.9323 80.6297 51.8432 79.9956 52.7194C73.401 62.3675 63.9657 66.8055 49.9998 66.8055C46.3062 66.8307 42.619 66.4462 39.0078 65.6644L68.0588 36.783C72.8525 39.1217 76.9365 42.6835 79.8941 47.1057C80.4362 48.045 81.1813 48.9528 81.7552 49.996V49.9961Z" fill="black" fill-opacity="0.6"/>
</svg>
