<svg width="100" height="100" viewBox="0 0 100 100" fill="none" xmlns="http://www.w3.org/2000/svg">
<path d="M54 62C54 67.332 46 67.332 46 62C46 56.668 54 56.668 54 62Z" fill="black" fill-opacity="0.6"/>
<path d="M50 18C45.7578 18 41.6875 19.6875 38.688 22.6875C35.6885 25.6875 34.0005 29.7578 34.0005 33.9995V41.9995C27.3716 41.9995 22.0005 47.3706 22.0005 53.9995V69.9995C22.0005 76.6284 27.3716 81.9995 34.0005 81.9995H66.0005C72.6294 81.9995 78.0005 76.6284 78.0005 69.9995V53.9995C78.0005 47.3706 72.6294 41.9995 66.0005 41.9995V33.9995C66.0005 29.7573 64.313 25.687 61.313 22.6875C58.313 19.688 54.2427 18 50.001 18H50ZM70 54V70C70 71.0625 69.5781 72.0781 68.8281 72.8281C68.0781 73.5781 67.0625 74 66 74H34C31.7891 74 30 72.2109 30 70V54C30 51.7891 31.7891 50 34 50H66C67.0625 50 68.0781 50.4219 68.8281 51.1719C69.5781 51.9219 70 52.9375 70 54ZM42 42V34C42 29.582 45.582 26 50 26C54.418 26 58 29.582 58 34V42H42Z" fill="black" fill-opacity="0.6"/>
</svg>
