<svg width="14" height="14" viewBox="0 0 14 14" fill="none" xmlns="http://www.w3.org/2000/svg">
<path d="M7.593 10.2181L6.28101 11.5311C5.99301 11.8181 5.65201 12.0461 5.27701 12.2021C4.90201 12.3571 4.499 12.4371 4.093 12.4371C3.273 12.4371 2.48601 12.1111 1.90601 11.5311C1.32501 10.9511 1 10.1641 1 9.3431C1 8.5231 1.32501 7.7362 1.90601 7.1561L3.218 5.8436M5.843 3.2186L7.15601 1.9061C7.44301 1.6188 7.784 1.3909 8.159 1.2355C8.535 1.08 8.937 1 9.343 1C9.749 1 10.152 1.08 10.527 1.2355C10.902 1.3909 11.243 1.6188 11.531 1.9061C11.818 2.1933 12.046 2.5344 12.201 2.9097C12.357 3.285 12.437 3.6873 12.437 4.0936C12.437 4.4998 12.357 4.9021 12.201 5.2774C12.046 5.6528 11.818 5.9938 11.531 6.2811L10.218 7.5936L5.843 3.2186Z" stroke="#C3C6CD" stroke-width="2" stroke-linecap="round" stroke-linejoin="round"/>
<path d="M4.96875 8.46863L8.46875 4.96863" stroke="#C3C6CD" stroke-width="2" stroke-linecap="round" stroke-linejoin="round"/>
</svg>
