<svg width="16" height="17" viewBox="0 0 16 17" fill="none" xmlns="http://www.w3.org/2000/svg">
<path fill-rule="evenodd" clip-rule="evenodd" d="M7.99997 6.5L7.99997 0H9.49997V5.44981L14.364 0.585734L15.4247 1.64639L10.5711 6.5H16V8L9.07111 8L9.06869 8.00242L8.01553 6.94926L7.99997 6.96482V6.9602L6.96021 7.99996H6.96483L6.95693 8.00785L8 9.05092V9.06049L8.00003 9.06052L8.00481 9.05573L8.01759 9.06851L9.07341 8.0127L14.0104 12.9497L12.9497 14.0103L8 9.06061V9.49996L8 16.0105H6.5L6.5 10.5606L1.63609 15.4245L0.575426 14.3638L5.4393 9.49996L0 9.49996V7.99996L6.93925 7.99996L1.99997 3.0607L3.06063 2.00004L7.99997 6.93936V6.5Z" fill="#58C171"/>
</svg>
