<svg width="40" height="40" viewBox="0 0 40 40" fill="none" xmlns="http://www.w3.org/2000/svg">
<path d="M19.9999 7.41935C18.9032 7.41935 18.0645 6.58065 18.0645 5.48387V1.93548C18.0645 0.83871 18.9032 0 19.9999 0C21.0967 0 21.9354 0.83871 21.9354 1.93548V5.48387C21.9354 6.51613 21.0967 7.41935 19.9999 7.41935Z" fill="#76FFE5"/>
<path d="M19.9999 40C18.9032 40 18.0645 39.1613 18.0645 38.0645V34.5161C18.0645 33.4193 18.9032 32.5806 19.9999 32.5806C21.0967 32.5806 21.9354 33.4193 21.9354 34.5161V38.0645C21.9354 39.1613 21.0967 40 19.9999 40Z" fill="#0DBFBA"/>
<path d="M12.7096 9.3548C12.0645 9.3548 11.4193 9.03222 11.0322 8.38706L9.29027 5.3548C8.77414 4.45158 9.09672 3.22577 9.99994 2.70964C10.9032 2.19351 12.129 2.51609 12.6451 3.41932L14.387 6.45158C14.9032 7.3548 14.5806 8.58061 13.6774 9.09674C13.4193 9.22577 13.0322 9.3548 12.7096 9.3548Z" fill="#BBFFF2"/>
<path d="M29.0319 37.5484C28.3867 37.5484 27.7416 37.2258 27.3545 36.5807L25.6125 33.5484C25.0964 32.6452 25.419 31.4194 26.3222 30.9032C27.2254 30.3871 28.4512 30.7097 28.9674 31.6129L30.7093 34.6452C31.2254 35.5484 30.9029 36.7742 29.9996 37.2903C29.6771 37.4839 29.3545 37.5484 29.0319 37.5484Z" fill="#1BCEB8"/>
<path d="M7.41889 14.6452C7.09631 14.6452 6.77373 14.5806 6.45115 14.3871L3.41889 12.6452C2.51566 12.129 2.19308 10.9032 2.70921 10C3.22534 9.09678 4.45115 8.7742 5.35437 9.29033L8.38663 11.0323C9.28986 11.5484 9.61244 12.7742 9.09631 13.6774C8.70921 14.3226 8.06405 14.6452 7.41889 14.6452Z" fill="#E1FFF9"/>
<path d="M35.6768 30.9677C35.3542 30.9677 35.0316 30.9032 34.709 30.7097L31.6122 28.9677C30.709 28.4516 30.3864 27.2258 30.9026 26.3226C31.4187 25.4193 32.6445 25.0968 33.5477 25.6129L36.58 27.3548C37.4832 27.871 37.8058 29.0968 37.2897 30C36.9671 30.6451 36.3219 30.9677 35.6768 30.9677Z" fill="#26DBC0"/>
<path d="M5.48387 21.9355H1.93548C0.83871 21.9355 0 21.0968 0 20C0 18.9032 0.83871 18.0645 1.93548 18.0645H5.48387C6.58065 18.0645 7.41935 18.9032 7.41935 20C7.41935 21.0968 6.51613 21.9355 5.48387 21.9355Z" fill="#F3FFFD"/>
<path d="M38.0649 21.9355H34.5165C33.4198 21.9355 32.5811 21.0968 32.5811 20C32.5811 18.9032 33.4198 18.0645 34.5165 18.0645H38.0649C39.1617 18.0645 40.0004 18.9032 40.0004 20C40.0004 21.0968 39.1617 21.9355 38.0649 21.9355Z" fill="#2EE5C6"/>
<path d="M4.32218 30.9677C3.67702 30.9677 3.03186 30.6451 2.64476 30C2.12863 29.0968 2.45121 27.871 3.35444 27.3548L6.38669 25.6129C7.28992 25.0968 8.51573 25.4193 9.03186 26.3226C9.54799 27.2258 9.2254 28.4516 8.32218 28.9677L5.28992 30.7097C5.03186 30.9032 4.70928 30.9677 4.32218 30.9677Z" fill="#11AEBA"/>
<path d="M32.58 14.6452C31.9348 14.6452 31.2897 14.3226 30.9026 13.6774C30.3864 12.7742 30.709 11.5484 31.6122 11.0323L34.6445 9.29033C35.5477 8.7742 36.7735 9.09678 37.2897 10C37.8058 10.9032 37.4832 12.129 36.58 12.6452L33.5477 14.3871C33.2251 14.5806 32.9026 14.6452 32.58 14.6452Z" fill="#3BEDCB"/>
<path d="M10.9677 37.5484C10.6451 37.5484 10.3225 37.4839 9.99994 37.2903C9.09672 36.7742 8.77414 35.5484 9.29027 34.6452L11.0322 31.6129C11.5483 30.7097 12.7741 30.3871 13.6774 30.9032C14.5806 31.4194 14.9032 32.6452 14.387 33.5484L12.6451 36.5807C12.258 37.2258 11.6128 37.5484 10.9677 37.5484Z" fill="#0FB8BC"/>
<path d="M27.29 9.3548C26.9674 9.3548 26.6448 9.29029 26.3222 9.09674C25.419 8.58061 25.0964 7.3548 25.6125 6.45158L27.3545 3.41932C27.8706 2.51609 29.0964 2.19351 29.9996 2.70964C30.9029 3.22577 31.2254 4.45158 30.7093 5.3548L28.9674 8.38706C28.5803 8.9677 27.9351 9.3548 27.29 9.3548Z" fill="#57F7D8"/>
</svg>
