<svg width="20" height="20" viewBox="0 0 20 20" fill="none" xmlns="http://www.w3.org/2000/svg">
<path fill-rule="evenodd" clip-rule="evenodd" d="M10 2.5C8.61929 2.5 7.5 3.61929 7.5 5V7L12.5 7V5C12.5 3.61929 11.3807 2.5 10 2.5ZM14 5V7H15.75C15.8018 7 15.8523 7.00525 15.9011 7.01524C16.2429 7.08517 16.5 7.38756 16.5 7.75L16.5 17.25C16.5 17.6642 16.1642 18 15.75 18H4.25121H4.25C3.83579 18 3.5 17.6642 3.5 17.25V7.75C3.5 7.33579 3.83579 7 4.25 7L6 7V5C6 2.79086 7.79086 1 10 1C12.2091 1 14 2.79086 14 5ZM5 8.5L15 8.5V16.5L5 16.5V8.5ZM12 12.5C12 12.0858 11.6642 11.75 11.25 11.75H8.75C8.33579 11.75 8 12.0858 8 12.5C8 12.9142 8.33579 13.25 8.75 13.25H11.25C11.6642 13.25 12 12.9142 12 12.5Z" fill="#03BD5D"/>
</svg>
