<svg width="30" height="30" viewBox="0 0 30 30" fill="none" xmlns="http://www.w3.org/2000/svg">
<path d="M17.4291 14.9865L15.0187 17.4054L12.6041 14.9844L15.0166 12.5633L5.71036 3.22397L3.29578 5.64713L24.3228 26.7469L26.7353 24.3258L17.4291 14.9865Z" fill="#D16584"/>
<path d="M12.6042 14.9843L12.6417 14.9467H11.6021H0V18.3734H9.22707L1.62291 26.0046L4.03541 28.4278L11.6021 20.8342V30H15.0166V17.4033L12.6042 14.9843Z" fill="#03BD5D"/>
<path d="M20.7771 11.6266L28.4062 3.9724L25.9917 1.54924L18.4292 9.13862V0H15.0167V11.6266H15V12.58L15.0187 12.5612L17.4312 14.9843L17.3646 15.0512H18.4292H30V11.6266H20.7771Z" fill="#03BD5D"/>
</svg>
