<svg width="24" height="24" viewBox="0 0 24 24" fill="none" xmlns="http://www.w3.org/2000/svg">
<path fill-rule="evenodd" clip-rule="evenodd" d="M4 16C3.44772 16 3 16.4477 3 17C3 17.5523 3.44772 18 4 18L6 18C6.55229 18 7 17.5523 7 17C7 16.4477 6.55229 16 6 16L4 16ZM3 12C3 11.4477 3.44772 11 4 11L12 11C12.5523 11 13 11.4477 13 12C13 12.5523 12.5523 13 12 13L4 13C3.44772 13 3 12.5523 3 12ZM3 7C3 6.44771 3.44772 6 4 6L19 6C19.5523 6 20 6.44771 20 7C20 7.55228 19.5523 8 19 8L4 8C3.44772 8 3 7.55228 3 7Z" fill="#03bd5d"/>
</svg>
