<svg width="40" height="40" viewBox="0 0 40 40" fill="none" xmlns="http://www.w3.org/2000/svg">
<rect width="40" height="40" rx="4" fill="#F2F2F2"/>
<path d="M22.4292 19.9861L20.0188 22.4051L17.6042 19.984L20.0167 17.563L10.7105 8.22363L8.2959 10.6468L29.323 31.7465L31.7354 29.3255L22.4292 19.9861Z" fill="#D16584"/>
<path d="M17.6042 19.9839L17.6417 19.9463H16.6021H5V23.373H14.2271L6.62291 31.0042L9.03541 33.4274L16.6021 25.8338V34.9996H20.0166V22.4029L17.6042 19.9839Z" fill="#03BD5D"/>
<path d="M25.7771 16.6266L33.4062 8.9724L30.9917 6.54924L23.4292 14.1386V5H20.0167V16.6266H20V17.58L20.0187 17.5612L22.4312 19.9843L22.3646 20.0512H23.4292H35V16.6266H25.7771Z" fill="#03BD5D"/>
</svg>
