<svg width="234" height="82" viewBox="0 0 234 82" fill="none" xmlns="http://www.w3.org/2000/svg">
<path d="M82 26.2812L97.9635 42.2585L113.927 26.2812V58.0064H107.464V41.2265L97.9635 50.744L88.5022 41.2265V58.0064H82V26.2812Z" fill="#03BD5D"/>
<path d="M129.891 58.6949C123.405 58.6949 118.092 53.6878 118.092 47.3152C118.092 40.9426 123.405 35.9355 129.891 35.9355C136.416 35.9355 141.69 40.9426 141.69 47.3152C141.69 53.6878 136.416 58.6949 129.891 58.6949ZM129.891 53.1189C133.134 53.1189 135.439 50.6912 135.439 47.3152C135.439 43.9772 133.095 41.5116 129.891 41.5116C126.648 41.5116 124.265 43.9393 124.265 47.3152C124.304 50.6912 126.648 53.1189 129.891 53.1189Z" fill="#03BD5D"/>
<path d="M145.854 36.4235H151.874V38.2251C153.293 36.7613 155.44 35.9355 157.856 35.9355C163.416 35.9355 166.675 39.7264 166.675 45.469V58.0052H160.655V46.4824C160.655 43.4047 159.275 41.3404 156.552 41.3404C154.52 41.3404 152.794 42.3913 151.874 43.78V58.0052H145.854V36.4235Z" fill="#03BD5D"/>
<path d="M182.987 58.6949C176.654 58.6949 171.535 53.6878 171.535 47.3152C171.535 40.9426 176.692 35.9355 182.987 35.9355C189.32 35.9355 194.439 40.9426 194.439 47.3152C194.439 53.6878 189.282 58.6949 182.987 58.6949ZM182.987 53.1189C186.135 53.1189 188.372 50.6912 188.372 47.3152C188.372 43.9772 186.097 41.5116 182.987 41.5116C179.84 41.5116 177.527 43.9393 177.527 47.3152C177.527 50.6912 179.84 53.1189 182.987 53.1189Z" fill="#03BD5D"/>
<path d="M198.604 26.9707H204.85V58.0062H198.604V26.9707Z" fill="#03BD5D"/>
<path d="M217.311 52.5755L207.625 35.9355H214.705L220.89 46.9774L226.997 35.9355H233.999L216.378 66.2813H209.376L217.311 52.5755Z" fill="#03BD5D"/>
<path d="M45.3726 40.9752L41.0338 45.3294L36.6876 40.9715L41.0301 36.6135L24.2789 19.8027L19.9326 24.1644L57.7813 62.1439L62.1238 57.786L45.3726 40.9752Z" fill="#CA4C70"/>
<path d="M36.6875 40.972L36.755 40.9043H34.8837H14V47.0724H30.6087L16.9212 60.8085L21.2637 65.1702L34.8837 51.5018V68.0003H41.03V45.3262L36.6875 40.972Z" fill="#03BD5D"/>
<path d="M51.3987 34.9279L65.1312 21.1503L60.785 16.7886L47.1725 30.4495V14H41.03V34.9279H41V36.6439L41.0337 36.6101L45.3762 40.9718L45.2562 41.0922H47.1725H68V34.9279H51.3987Z" fill="#03BD5D"/>
</svg>
