<svg width="26" height="16" viewBox="0 0 26 16" fill="none" xmlns="http://www.w3.org/2000/svg">
<mask id="path-1-inside-1" fill="white">
<rect width="26" height="16" rx="1"/>
</mask>
<rect width="26" height="16" rx="1" stroke="#D05D38" stroke-width="3" mask="url(#path-1-inside-1)"/>
<path d="M9.00293 11.1992H7.68457L5.11816 6.98926V11.1992H3.7998V4.80078H5.11816L7.68896 9.01953V4.80078H9.00293V11.1992Z" fill="#D05D38"/>
<path d="M10.6043 11.1992V4.80078H12.573C13.1355 4.80078 13.638 4.92822 14.0804 5.18311C14.5257 5.43506 14.8729 5.79541 15.1219 6.26416C15.3709 6.72998 15.4954 7.26025 15.4954 7.85498V8.14941C15.4954 8.74414 15.3724 9.27295 15.1263 9.73584C14.8831 10.1987 14.5389 10.5576 14.0936 10.8125C13.6482 11.0674 13.1458 11.1963 12.5862 11.1992H10.6043ZM11.9227 5.86865V10.1401H12.5599C13.0755 10.1401 13.4695 9.97168 13.742 9.63477C14.0145 9.29785 14.1536 8.81592 14.1595 8.18896V7.85059C14.1595 7.2002 14.0247 6.70801 13.7552 6.37402C13.4856 6.03711 13.0916 5.86865 12.573 5.86865H11.9227Z" fill="#D05D38"/>
<path d="M20.4234 9.88086H18.1119L17.6725 11.1992H16.2706L18.6524 4.80078H19.8741L22.2691 11.1992H20.8673L20.4234 9.88086ZM18.4679 8.81299H20.0675L19.2633 6.41797L18.4679 8.81299Z" fill="#D05D38"/>
</svg>
