<svg width="24" height="24" viewBox="0 0 24 24" fill="none" xmlns="http://www.w3.org/2000/svg">
<path d="M11.5 4H5.66667C5.22464 4 4.80072 4.17559 4.48816 4.48816C4.17559 4.80072 4 5.22464 4 5.66667V17.3333C4 17.7754 4.17559 18.1993 4.48816 18.5118C4.80072 18.8244 5.22464 19 5.66667 19H17.3333C17.7754 19 18.1993 18.8244 18.5118 18.5118C18.8244 18.1993 19 17.7754 19 17.3333V11.5" stroke="white" stroke-linecap="round" stroke-linejoin="round"/>
<path d="M16.692 4.39599C16.9456 4.14244 17.2894 4 17.648 4C18.0066 4 18.3505 4.14244 18.604 4.39599C18.8576 4.64954 19 4.99342 19 5.35199C19 5.71056 18.8576 6.05444 18.604 6.30799L12.5493 12.3627L10 13L10.6373 10.4507L16.692 4.39599Z" stroke="white" stroke-linecap="round" stroke-linejoin="round"/>
</svg>
