<svg width="27" height="27" viewBox="0 0 27 27" fill="none" xmlns="http://www.w3.org/2000/svg">
<path d="M13.5 1H3.77778C3.04107 1 2.33453 1.29265 1.8136 1.8136C1.29265 2.33453 1 3.04107 1 3.77778V23.2222C1 23.959 1.29265 24.6655 1.8136 25.1863C2.33453 25.7073 3.04107 26 3.77778 26H23.2222C23.959 26 24.6655 25.7073 25.1863 25.1863C25.7073 24.6655 26 23.959 26 23.2222V13.5" stroke="#03BD5D" stroke-width="1.5" stroke-linecap="round" stroke-linejoin="round"/>
<path d="M22.1533 1.65998C22.576 1.2374 23.149 1 23.7467 1C24.3443 1 24.9175 1.2374 25.34 1.65998C25.7627 2.08257 26 2.6557 26 3.25332C26 3.85093 25.7627 4.42407 25.34 4.84665L15.2488 14.9378L11 16L12.0622 11.7512L22.1533 1.65998Z" stroke="#03BD5D" stroke-width="1.5" stroke-linecap="round" stroke-linejoin="round"/>
</svg>
