<svg width="24" height="24" viewBox="0 0 24 24" fill="none" xmlns="http://www.w3.org/2000/svg">
<path fill-rule="evenodd" clip-rule="evenodd" d="M15.9756 18H13.9622C13.7607 19.2923 12.7927 20 12 20C11.2073 20 10.2393 19.2923 10.0378 18H8.02441C8.24551 20.25 9.94109 22 12 22C14.0589 22 15.7545 20.25 15.9756 18ZM19 11C19 11.695 18.8987 12.3663 18.7101 13H17V11L17 11C17 8.23859 14.7614 6.00002 12 6.00002C9.23854 6.00002 6.99997 8.23859 6.99997 11L7 11.018V13H5.28988C5.10128 12.3663 5 11.695 5 11C5 7.13401 8.13401 4 12 4C15.866 4 19 7.13401 19 11Z" fill="#999999"/>
<rect x="5" y="11" width="2" height="5" fill="#999999"/>
<rect x="21" y="16" width="2" height="18" rx="1" transform="rotate(90 21 16)" fill="#999999"/>
<rect x="17" y="11" width="2" height="5" fill="#999999"/>
<rect x="11" y="2" width="2" height="3" rx="1" fill="#999999"/>
</svg>
