<svg width="24" height="24" viewBox="0 0 24 24" fill="none" xmlns="http://www.w3.org/2000/svg">
<path fill-rule="evenodd" clip-rule="evenodd" d="M15.7724 17H13.6005C13.8433 17.3926 14 17.8957 14 18.5C14 20.1087 12.8896 21 12 21C11.1104 21 10 20.1087 10 18.5C10 17.8957 10.1567 17.3926 10.3995 17H8.22761C8.08021 17.4692 8 17.974 8 18.5C8 20.9853 9.79086 23 12 23C14.2091 23 16 20.9853 16 18.5C16 17.974 15.9198 17.4692 15.7724 17ZM19 10C19 10.695 18.8987 11.3663 18.7101 12H17V10L17 10C17 7.23858 14.7614 5 12 5C9.23854 5 6.99997 7.23858 6.99997 10L7 10.018V12H5.28988C5.10128 11.3663 5 10.695 5 10C5 6.13401 8.13401 3 12 3C15.866 3 19 6.13401 19 10Z" fill="#999999"/>
<rect x="5" y="10" width="2" height="7" fill="#999999"/>
<rect x="21" y="17" width="2" height="18" rx="1" transform="rotate(90 21 17)" fill="#999999"/>
<rect x="17" y="10" width="2" height="7" fill="#999999"/>
<rect x="11" y="1" width="2" height="3" rx="1" fill="#999999"/>
</svg>
