<svg width="12" height="12" viewBox="0 0 12 12" fill="none" xmlns="http://www.w3.org/2000/svg">
<path fill-rule="evenodd" clip-rule="evenodd" d="M5.64286 0.352947C5.64286 0.158022 5.80279 0 6 0C6.19721 0 6.35714 0.158022 6.35714 0.352947V2.11768H10.6429C10.8401 2.11768 11 2.27571 11 2.47063C11 2.66556 10.8401 2.82358 10.6429 2.82358H6H1.35714C1.1599 2.82358 1 2.66556 1 2.47063C1 2.27571 1.1599 2.11768 1.35714 2.11768H5.64286V0.352947ZM9.54943 3.87613C9.58443 3.6843 9.77014 3.55683 9.96429 3.59142C10.1584 3.62601 10.2874 3.80957 10.2524 4.0014L8.858 11.643L8.85714 11.6473C8.857 11.8421 8.69721 12 8.5 12H3.50004C3.30279 12 3.14289 11.842 3.14289 11.6471C3.14289 11.6146 3.14731 11.5832 3.15559 11.5534L1.77769 4.00209C1.74268 3.81026 1.87166 3.6267 2.06578 3.59211C2.25989 3.55752 2.44563 3.68498 2.48064 3.87682L3.83407 11.2941H8.19586L9.54943 3.87613Z" fill="#999999"/>
</svg>
