<svg width="24" height="24" viewBox="0 0 24 24" fill="none" xmlns="http://www.w3.org/2000/svg">
<path d="M0 4C0 1.79086 1.79086 0 4 0H20C22.2091 0 24 1.79086 24 4V20C24 22.2091 22.2091 24 20 24H4C1.79086 24 0 22.2091 0 20V4Z" fill="#308F65"/>
<path d="M11.5 6.75C11.5 6.33579 11.8358 6 12.25 6C12.6642 6 13 6.33579 13 6.75V17.25C13 17.6642 12.6642 18 12.25 18C11.8358 18 11.5 17.6642 11.5 17.25V6.75Z" fill="white"/>
<path d="M6.75 12.5C6.33578 12.5 6 12.1642 6 11.75C6 11.3358 6.33579 11 6.75 11L17.25 11C17.6642 11 18 11.3358 18 11.75C18 12.1642 17.6642 12.5 17.25 12.5L6.75 12.5Z" fill="white"/>
</svg>
