<svg width="48" height="48" viewBox="0 0 48 48" fill="none" xmlns="http://www.w3.org/2000/svg">
<circle cx="24" cy="24" r="18.5" fill="white"/>
<path fill-rule="evenodd" clip-rule="evenodd" d="M24 5.5C26.4716 5.5 28.83 5.98468 30.9853 6.86418C30.3485 7.63537 29.8862 8.55594 29.6588 9.56545C27.9058 8.87766 25.997 8.5 24 8.5C15.4396 8.5 8.5 15.4396 8.5 24C8.5 25.2357 8.64459 26.4376 8.91778 27.5897C7.88318 27.7631 6.93142 28.1809 6.12389 28.7817C5.71693 27.2564 5.5 25.6535 5.5 24C5.5 13.7827 13.7827 5.5 24 5.5ZM13.6817 39.3575C16.6294 41.3419 20.1794 42.5 24 42.5C34.2173 42.5 42.5 34.2173 42.5 24C42.5 21.0031 41.7874 18.1727 40.5224 15.6688C39.8012 16.3675 38.9186 16.9006 37.936 17.2068C38.9378 19.2581 39.5 21.5634 39.5 24C39.5 32.5604 32.5604 39.5 24 39.5C20.9525 39.5 18.1104 38.6205 15.7137 37.1015C15.2227 38.0042 14.524 38.7776 13.6817 39.3575Z" fill="#252534"/>
<circle cx="36" cy="11" r="4.5" fill="#E37648"/>
<circle cx="10" cy="34" r="4.5" fill="#337080"/>
<path d="M19.0718 21.366L24.5 18.2321L29.9282 21.366V27.634L24.5 30.7679L19.0718 27.634V21.366Z" stroke="#252534" stroke-width="3"/>
</svg>
