<svg width="20" height="20" viewBox="0 0 20 20" fill="none" xmlns="http://www.w3.org/2000/svg">
<g id="24 / chatting / question">
<path id="Path" fill-rule="evenodd" clip-rule="evenodd" d="M10 18.3333C11.4372 18.3333 12.8225 17.9683 14.0496 17.2848L17.5789 17.5789L17.2848 14.0495C17.9683 12.8225 18.3334 11.4371 18.3334 9.99996C18.3334 5.39759 14.6024 1.66663 10 1.66663C5.39765 1.66663 1.66669 5.39759 1.66669 9.99996C1.66669 14.6023 5.39765 18.3333 10 18.3333ZM13.4292 15.7184L13.6597 15.5798L15.7544 15.7544L15.5799 13.6596L15.7184 13.4291C16.3359 12.402 16.6667 11.2262 16.6667 9.99996C16.6667 6.31806 13.6819 3.33329 10 3.33329C6.31812 3.33329 3.33335 6.31806 3.33335 9.99996C3.33335 13.6819 6.31812 16.6666 10 16.6666C11.2263 16.6666 12.402 16.3358 13.4292 15.7184Z" fill="#6297FF"/>
<path id="Path_2" fill-rule="evenodd" clip-rule="evenodd" d="M6.66669 12.5V10.8334H12.5V12.5H6.66669Z" fill="#6297FF"/>
<path id="Path_3" fill-rule="evenodd" clip-rule="evenodd" d="M6.66669 9.16667V7.5H14.1667V9.16667H6.66669Z" fill="#6297FF"/>
</g>
</svg>
