<svg width="17" height="13" viewBox="0 0 17 13" fill="none" xmlns="http://www.w3.org/2000/svg">
<path fill-rule="evenodd" clip-rule="evenodd" d="M10.792 12.2246C10.5968 12.4199 10.2802 12.4199 10.0849 12.2246C9.88966 12.0294 9.88966 11.7128 10.0849 11.5175L14.6032 6.99924L0.498639 6.99924C0.222497 6.99924 -0.00136136 6.77538 -0.00136133 6.49924C-0.00136131 6.2231 0.222497 5.99924 0.498639 5.99924L14.5939 5.99924L10.0881 1.49351C9.89289 1.29825 9.89289 0.981665 10.0882 0.786403C10.2834 0.59114 10.6 0.59114 10.7953 0.786403L16.1309 6.12204C16.2364 6.22759 16.2849 6.36857 16.2764 6.50669C16.2834 6.64312 16.2348 6.78187 16.1306 6.88608L10.792 12.2246Z" fill="#19191A"/>
</svg>
