<svg width="24" height="24" viewBox="0 0 24 24" fill="none" xmlns="http://www.w3.org/2000/svg">
<path d="M16 19V17.3333C16 16.4493 15.5786 15.6014 14.8284 14.9763C14.0783 14.3512 13.0609 14 12 14H5C3.93913 14 2.92172 14.3512 2.17157 14.9763C1.42143 15.6014 1 16.4493 1 17.3333V19" stroke="#999999" stroke-linecap="round" stroke-linejoin="round"/>
<path d="M8.5 10C10.1569 10 11.5 8.65685 11.5 7C11.5 5.34315 10.1569 4 8.5 4C6.84315 4 5.5 5.34315 5.5 7C5.5 8.65685 6.84315 10 8.5 10Z" stroke="#999999" stroke-linecap="round" stroke-linejoin="round"/>
<path d="M23 11H17" stroke="#999999" stroke-linecap="round" stroke-linejoin="round"/>
</svg>
