<svg width="24" height="18" viewBox="0 0 24 18" fill="none" xmlns="http://www.w3.org/2000/svg">
<path d="M19.613 7.63977C16.6139 4.77632 12.5791 4.38585 11.0985 4.34787V0.551614C11.0985 0.253321 10.8545 0.00927734 10.5562 0.00927734C10.4315 0.00927734 10.3067 0.0526457 10.2091 0.133994L0.989729 7.7265C0.756515 7.9163 0.723976 8.25796 0.913822 8.49118C0.935531 8.51827 0.96263 8.53998 0.989729 8.56708L10.2091 16.1595C10.4424 16.3493 10.784 16.3168 10.9738 16.0836C11.0552 15.986 11.0985 15.8667 11.0985 15.7365V11.7993C12.6116 11.3871 18.4144 10.3405 22.01 17.0761C22.1022 17.255 22.2866 17.3635 22.4872 17.3635C22.6608 17.3635 22.8289 17.2821 22.9374 17.1249C23.0024 17.0327 23.0295 16.9188 23.0295 16.8049C23.0242 12.884 21.8744 9.80362 19.613 7.63977ZM13.4793 10.4381C11.6734 10.4381 10.4044 10.872 10.3718 10.8882C10.1549 10.9642 10.0139 11.1703 10.0139 11.398V14.5869L2.18824 8.14412L10.0139 1.70137V4.89021C10.0139 5.03663 10.0736 5.17762 10.182 5.28068C10.2905 5.38373 10.4315 5.43793 10.5833 5.43254C10.6322 5.43254 15.5564 5.25358 18.8754 8.43159C20.5078 9.99347 21.4948 12.1085 21.8256 14.7442C19.2008 11.2082 15.871 10.4381 13.4793 10.4381Z" fill="white"/>
</svg>
