<svg width="27" height="18" viewBox="0 0 27 18" fill="none" xmlns="http://www.w3.org/2000/svg">
<path d="M22.6135 7.63977C19.6144 4.77632 15.5796 4.38585 14.099 4.34787V0.551614C14.099 0.253321 13.855 0.00927734 13.5567 0.00927734C13.432 0.00927734 13.3072 0.0526457 13.2096 0.133994L3.99022 7.7265C3.757 7.9163 3.72446 8.25796 3.91431 8.49118C3.93602 8.51827 3.96312 8.53998 3.99022 8.56708L13.2096 16.1595C13.4428 16.3493 13.7845 16.3168 13.9743 16.0836C14.0557 15.986 14.099 15.8667 14.099 15.7365V11.7993C15.6121 11.3871 21.4149 10.3405 25.0105 17.0761C25.1027 17.255 25.2871 17.3635 25.4877 17.3635C25.6613 17.3635 25.8294 17.2821 25.9378 17.1249C26.0029 17.0327 26.03 16.9188 26.03 16.8049C26.0247 12.884 24.8749 9.80362 22.6135 7.63977ZM16.4798 10.4381C14.6739 10.4381 13.4049 10.872 13.3723 10.8882C13.1554 10.9642 13.0144 11.1703 13.0144 11.398V14.5869L5.18873 8.14412L13.0144 1.70137V4.89021C13.0144 5.03663 13.074 5.17762 13.1825 5.28068C13.291 5.38373 13.432 5.43793 13.5838 5.43254C13.6326 5.43254 18.5569 5.25358 21.8759 8.43159C23.5083 9.99347 24.4953 12.1085 24.8261 14.7442C22.2013 11.2082 18.8715 10.4381 16.4798 10.4381Z" fill="white"/>
<path d="M10.1345 15.3463C10.1237 15.3409 10.1182 15.33 10.1074 15.3246L1.39232 8.14432L10.1074 0.969428C10.346 0.785022 10.3894 0.443361 10.205 0.210197C10.0206 -0.0230174 9.67893 -0.0718261 9.44577 0.11258C9.43494 0.11802 9.4295 0.128849 9.41867 0.134289L0.199202 7.7267C-0.0340124 7.91649 -0.0665516 8.25815 0.123294 8.49137C0.145004 8.51847 0.172103 8.54018 0.199202 8.56728L9.41862 16.1597C9.6464 16.355 9.98806 16.3333 10.1833 16.1109C10.3785 15.8832 10.3569 15.5415 10.1345 15.3463Z" fill="white"/>
</svg>
