<svg width="24" height="24" viewBox="0 0 24 24" fill="none" xmlns="http://www.w3.org/2000/svg">
<path d="M5.32127 13.4035C5.42283 13.5277 5.58733 13.5277 5.68889 13.4035L8.31818 10.7244C8.41974 10.6001 8.3719 10.4995 8.21149 10.4995H7.04959C6.88917 10.4995 6.78014 10.371 6.8146 10.2143C7.41205 7.49347 9.41697 6 12.3146 6C15.3145 6 17.8146 8.17322 17.8146 11.5178C17.8145 14.5 15.3145 16.5 12.3146 17C11.7435 17.0952 11.3146 17.5 11.3146 18C11.3146 18.5 11.8146 19 12.2967 19.0355C16.4421 19.0355 19.8145 15.6453 19.8145 11.5C19.8145 7.35466 16.4421 4 12.2967 4C8.59613 4 5.43362 6.474 4.81456 10C4.81456 10.1919 4.73486 10.2851 4.47949 10.2869H3.15999C2.99955 10.2869 2.95183 10.3876 3.05327 10.5118L5.32127 13.4035Z" fill="#3E3F41"/>
</svg>
