<svg width="24" height="24" viewBox="0 0 24 24" fill="none" xmlns="http://www.w3.org/2000/svg">
<g clip-path="url(#clip0)">
<rect x="11.5" y="8" width="1" height="7" rx="0.5" fill="#999999"/>
<path d="M9 12C8.72386 12 8.5 11.7761 8.5 11.5C8.5 11.2239 8.72386 11 9 11L15 11C15.2761 11 15.5 11.2239 15.5 11.5C15.5 11.7761 15.2761 12 15 12L9 12Z" fill="#999999"/>
<g clip-path="url(#clip1)">
<path d="M11.4609 3.58783L11.4619 3.58747C11.8069 3.4694 12.1896 3.47031 12.5296 3.59355L12.5296 3.59365L12.5391 3.59689L18.5391 5.63553L18.5404 5.63594C19.1417 5.83852 19.5 6.34405 19.5 6.85643V11.1149C19.5 15.4162 16.3103 19.4523 12 20.4866C7.68973 19.4523 4.5 15.4162 4.5 11.1149V6.85643C4.5 6.33752 4.85595 5.83798 5.46283 5.62579L11.4609 3.58783Z" stroke="#999999"/>
</g>
</g>
<defs>
<clipPath id="clip0">
<rect width="24" height="24" fill="white"/>
</clipPath>
<clipPath id="clip1">
<rect width="22" height="25" fill="white" transform="translate(1 1)"/>
</clipPath>
</defs>
</svg>
