<svg width="20" height="20" viewBox="0 0 20 20" fill="none" xmlns="http://www.w3.org/2000/svg">
<mask id="path-1-inside-1" fill="white">
<path fill-rule="evenodd" clip-rule="evenodd" d="M12 2H8L7.58215 4.50709C7.18086 4.68398 6.80262 4.90356 6.45317 5.16008L4.07178 4.26792L2.07178 7.73203L4.03499 9.34821C4.01187 9.5623 4 9.77976 4 10C4 10.2202 4.01186 10.4377 4.03499 10.6517L2.07178 12.2679L4.07178 15.732L6.45313 14.8399C6.80258 15.0964 7.18084 15.316 7.58215 15.4929L8 18H12L12.4178 15.4929C12.8192 15.316 13.1974 15.0964 13.5469 14.8399L15.9282 15.732L17.9282 12.2679L15.965 10.6517C15.9881 10.4377 16 10.2202 16 10C16 9.77976 15.9881 9.5623 15.965 9.34821L17.9282 7.73203L15.9282 4.26792L13.5468 5.16008C13.1974 4.90356 12.8191 4.68398 12.4178 4.50709L12 2ZM10.7199 3.5H9.29994L8.91219 5.63236C8.06621 5.84237 7.31476 6.29174 6.73387 6.90443L4.68748 6.15145L3.97748 7.38121L5.65956 8.80802C5.55553 9.18766 5.49999 9.58734 5.49999 10C5.49999 10.442 5.5637 10.869 5.68244 11.2725L3.96741 12.7014L4.67741 13.9311L6.78269 13.1776L6.73761 13.0995C7.34984 13.7437 8.15087 14.2068 9.05204 14.4H8.89989L9.29994 16.6H10.7199L11.0999 14.4H10.9479C11.8488 14.2068 12.6496 13.744 13.2618 13.1002L13.217 13.1776L15.3223 13.9311L16.0323 12.7014L14.3175 11.2727C14.4363 10.8691 14.5 10.442 14.5 10C14.5 9.58728 14.4444 9.18754 14.3404 8.80785L16.0223 7.38121L15.3123 6.15145L13.2661 6.90437C12.6853 6.29182 11.934 5.84252 11.0882 5.63247L10.7199 3.5Z"/>
</mask>
<path d="M8 2V0.5H6.72931L6.52041 1.7534L8 2ZM12 2L13.4796 1.7534L13.2707 0.5H12V2ZM7.58215 4.50709L8.1872 5.87964L8.92855 5.55285L9.06174 4.75368L7.58215 4.50709ZM6.45317 5.16008L5.92694 6.56474L6.68673 6.84939L7.34079 6.36926L6.45317 5.16008ZM4.07178 4.26792L4.59801 2.86326L3.40808 2.41747L2.77274 3.51792L4.07178 4.26792ZM2.07178 7.73203L0.772739 6.98203L0.137394 8.08248L1.11842 8.89009L2.07178 7.73203ZM4.03499 9.34821L5.52632 9.50931L5.61325 8.70458L4.98835 8.19015L4.03499 9.34821ZM4.03499 10.6517L4.98834 11.8098L5.61324 11.2954L5.52631 10.4907L4.03499 10.6517ZM2.07178 12.2679L1.11842 11.1099L0.137394 11.9175L0.772739 13.0179L2.07178 12.2679ZM4.07178 15.732L2.77274 16.482L3.40808 17.5825L4.59801 17.1367L4.07178 15.732ZM6.45313 14.8399L7.34076 13.6307L6.6867 13.1506L5.92689 13.4352L6.45313 14.8399ZM7.58215 15.4929L9.06174 15.2463L8.92855 14.4472L8.1872 14.1204L7.58215 15.4929ZM8 18L6.52041 18.2466L6.72931 19.5H8V18ZM12 18V19.5H13.2707L13.4796 18.2466L12 18ZM12.4178 15.4929L11.8128 14.1204L11.0715 14.4472L10.9383 15.2463L12.4178 15.4929ZM13.5469 14.8399L14.0731 13.4352L13.3133 13.1506L12.6592 13.6307L13.5469 14.8399ZM15.9282 15.732L15.402 17.1367L16.5919 17.5825L17.2273 16.482L15.9282 15.732ZM17.9282 12.2679L19.2273 13.0179L19.8626 11.9175L18.8816 11.1099L17.9282 12.2679ZM15.965 10.6517L14.4737 10.4907L14.3868 11.2954L15.0117 11.8098L15.965 10.6517ZM15.965 9.34821L15.0117 8.19015L14.3868 8.70458L14.4737 9.50931L15.965 9.34821ZM17.9282 7.73203L18.8816 8.89009L19.8626 8.08248L19.2273 6.98203L17.9282 7.73203ZM15.9282 4.26792L17.2273 3.51792L16.5919 2.41747L15.402 2.86326L15.9282 4.26792ZM13.5468 5.16008L12.6592 6.36926L13.3133 6.84939L14.0731 6.56474L13.5468 5.16008ZM12.4178 4.50709L10.9383 4.75368L11.0715 5.55285L11.8128 5.87964L12.4178 4.50709ZM9.29994 3.5V2H8.0481L7.82414 3.23164L9.29994 3.5ZM10.7199 3.5L12.1981 3.24472L11.9831 2H10.7199V3.5ZM8.91219 5.63236L9.27359 7.08818L10.2145 6.85459L10.388 5.90072L8.91219 5.63236ZM6.73387 6.90443L6.21589 8.31216L7.14284 8.65324L7.8224 7.93647L6.73387 6.90443ZM4.68748 6.15145L5.20546 4.74373L4.02002 4.30753L3.38844 5.40145L4.68748 6.15145ZM3.97748 7.38121L2.67844 6.63121L2.05252 7.71533L3.00717 8.52511L3.97748 7.38121ZM5.65956 8.80802L7.10623 9.2044L7.35884 8.28247L6.62986 7.66412L5.65956 8.80802ZM5.68244 11.2725L6.64258 12.425L7.39958 11.7943L7.12143 10.8491L5.68244 11.2725ZM3.96741 12.7014L3.00727 11.5489L2.03679 12.3575L2.66837 13.4514L3.96741 12.7014ZM4.67741 13.9311L3.37837 14.6811L4.00429 15.7653L5.1829 15.3434L4.67741 13.9311ZM6.78269 13.1776L7.28818 14.5898L8.98041 13.9841L8.08173 12.4276L6.78269 13.1776ZM6.73761 13.0995L7.8249 12.0662L5.43857 13.8495L6.73761 13.0995ZM9.05204 14.4V15.9L9.36651 12.9333L9.05204 14.4ZM8.89989 14.4V12.9H7.10253L7.42409 14.6683L8.89989 14.4ZM9.29994 16.6L7.82414 16.8683L8.0481 18.1H9.29994V16.6ZM10.7199 16.6V18.1H11.9831L12.1981 16.8553L10.7199 16.6ZM11.0999 14.4L12.578 14.6553L12.8812 12.9H11.0999V14.4ZM10.9479 14.4L10.6335 12.9333L10.9479 15.9V14.4ZM13.2618 13.1002L14.5608 13.8502L12.1747 12.0666L13.2618 13.1002ZM13.217 13.1776L11.918 12.4276L11.0193 13.9841L12.7116 14.5898L13.217 13.1776ZM15.3223 13.9311L14.8168 15.3434L15.9954 15.7653L16.6214 14.6811L15.3223 13.9311ZM16.0323 12.7014L17.3314 13.4514L17.9629 12.3575L16.9925 11.5489L16.0323 12.7014ZM14.3175 11.2727L12.8785 10.8492L12.6003 11.7944L13.3574 12.4251L14.3175 11.2727ZM14.3404 8.80785L13.3701 7.66395L12.6411 8.28233L12.8937 9.20429L14.3404 8.80785ZM16.0223 7.38121L16.9926 8.52511L17.9472 7.71533L17.3213 6.63121L16.0223 7.38121ZM15.3123 6.15145L16.6113 5.40145L15.9797 4.30753L14.7943 4.74373L15.3123 6.15145ZM13.2661 6.90437L12.1775 7.93642L12.8571 8.65316L13.784 8.31209L13.2661 6.90437ZM11.0882 5.63247L9.61011 5.88775L9.7767 6.85232L10.7267 7.08825L11.0882 5.63247ZM8 3.5H12V0.5H8V3.5ZM9.06174 4.75368L9.47959 2.2466L6.52041 1.7534L6.10256 4.26049L9.06174 4.75368ZM7.34079 6.36926C7.6032 6.17664 7.88681 6.01206 8.1872 5.87964L6.97711 3.13453C6.47491 3.3559 6.00203 3.63049 5.56555 3.95089L7.34079 6.36926ZM3.54554 5.67259L5.92694 6.56474L6.97941 3.75541L4.59801 2.86326L3.54554 5.67259ZM3.37082 8.48203L5.37082 5.01792L2.77274 3.51792L0.772739 6.98203L3.37082 8.48203ZM4.98835 8.19015L3.02513 6.57396L1.11842 8.89009L3.08164 10.5063L4.98835 8.19015ZM5.5 10C5.5 9.83368 5.50896 9.67 5.52632 9.50931L2.54367 9.18711C2.51477 9.4546 2.5 9.72584 2.5 10H5.5ZM5.52631 10.4907C5.50896 10.33 5.5 10.1663 5.5 10H2.5C2.5 10.2741 2.51477 10.5454 2.54366 10.8128L5.52631 10.4907ZM3.02513 13.426L4.98834 11.8098L3.08163 9.49368L1.11842 11.1099L3.02513 13.426ZM5.37082 14.982L3.37082 11.5179L0.772739 13.0179L2.77274 16.482L5.37082 14.982ZM5.92689 13.4352L3.54554 14.3274L4.59801 17.1367L6.97936 16.2446L5.92689 13.4352ZM8.1872 14.1204C7.8868 13.9879 7.60318 13.8233 7.34076 13.6307L5.56549 16.0491C6.00199 16.3695 6.47489 16.6441 6.97711 16.8655L8.1872 14.1204ZM9.47959 17.7534L9.06174 15.2463L6.10256 15.7395L6.52041 18.2466L9.47959 17.7534ZM12 16.5H8V19.5H12V16.5ZM10.9383 15.2463L10.5204 17.7534L13.4796 18.2466L13.8974 15.7395L10.9383 15.2463ZM12.6592 13.6307C12.3968 13.8233 12.1132 13.9879 11.8128 14.1204L13.0229 16.8655C13.5251 16.6441 13.998 16.3695 14.4345 16.0491L12.6592 13.6307ZM16.4545 14.3274L14.0731 13.4352L13.0206 16.2446L15.402 17.1367L16.4545 14.3274ZM16.6292 11.5179L14.6292 14.982L17.2273 16.482L19.2273 13.0179L16.6292 11.5179ZM15.0117 11.8098L16.9749 13.426L18.8816 11.1099L16.9184 9.49368L15.0117 11.8098ZM14.5 10C14.5 10.1663 14.491 10.33 14.4737 10.4907L17.4563 10.8128C17.4852 10.5454 17.5 10.2741 17.5 10H14.5ZM14.4737 9.50931C14.491 9.66999 14.5 9.83368 14.5 10H17.5C17.5 9.72585 17.4852 9.4546 17.4563 9.18711L14.4737 9.50931ZM16.9749 6.57396L15.0117 8.19015L16.9184 10.5063L18.8816 8.89009L16.9749 6.57396ZM14.6292 5.01792L16.6292 8.48203L19.2273 6.98203L17.2273 3.51792L14.6292 5.01792ZM14.0731 6.56474L16.4545 5.67259L15.402 2.86326L13.0206 3.75541L14.0731 6.56474ZM11.8128 5.87964C12.1132 6.01206 12.3968 6.17664 12.6592 6.36926L14.4345 3.95089C13.998 3.63049 13.5251 3.3559 13.0229 3.13453L11.8128 5.87964ZM10.5204 2.2466L10.9383 4.75368L13.8974 4.26049L13.4796 1.7534L10.5204 2.2466ZM9.29994 5H10.7199V2H9.29994V5ZM10.388 5.90072L10.7757 3.76836L7.82414 3.23164L7.43639 5.36401L10.388 5.90072ZM7.8224 7.93647C8.21143 7.52614 8.71259 7.22744 9.27359 7.08818L8.5508 4.17655C7.41983 4.45731 6.41808 5.05735 5.64533 5.8724L7.8224 7.93647ZM4.1695 7.55918L6.21589 8.31216L7.25185 5.49671L5.20546 4.74373L4.1695 7.55918ZM5.27652 8.13121L5.98652 6.90145L3.38844 5.40145L2.67844 6.63121L5.27652 8.13121ZM6.62986 7.66412L4.94779 6.23731L3.00717 8.52511L4.68925 9.95192L6.62986 7.66412ZM6.99999 10C6.99999 9.7225 7.03727 9.45609 7.10623 9.2044L4.21288 8.41163C4.0738 8.91923 3.99999 9.45219 3.99999 10H6.99999ZM7.12143 10.8491C7.04273 10.5817 6.99999 10.2971 6.99999 10H3.99999C3.99999 10.5868 4.08467 11.1564 4.24345 11.696L7.12143 10.8491ZM4.92754 13.8538L6.64258 12.425L4.7223 10.1201L3.00727 11.5489L4.92754 13.8538ZM5.97645 13.1811L5.26645 11.9514L2.66837 13.4514L3.37837 14.6811L5.97645 13.1811ZM6.27719 11.7653L4.17191 12.5189L5.1829 15.3434L7.28818 14.5898L6.27719 11.7653ZM5.43857 13.8495L5.48365 13.9276L8.08173 12.4276L8.03665 12.3495L5.43857 13.8495ZM9.36651 12.9333C8.76896 12.8052 8.23493 12.4976 7.8249 12.0662L5.65031 14.1328C6.46475 14.9898 7.53278 15.6083 8.73756 15.8666L9.36651 12.9333ZM8.89989 15.9H9.05204V12.9H8.89989V15.9ZM10.7757 16.3316L10.3757 14.1316L7.42409 14.6683L7.82414 16.8683L10.7757 16.3316ZM10.7199 15.1H9.29994V18.1H10.7199V15.1ZM9.62177 14.1447L9.24182 16.3447L12.1981 16.8553L12.578 14.6553L9.62177 14.1447ZM10.9479 15.9H11.0999V12.9H10.9479V15.9ZM12.1747 12.0666C11.7647 12.4978 11.2308 12.8052 10.6335 12.9333L11.2624 15.8666C12.4668 15.6084 13.5345 14.9902 14.3488 14.1337L12.1747 12.0666ZM14.5161 13.9276L14.5608 13.8502L11.9627 12.3502L11.918 12.4276L14.5161 13.9276ZM15.8278 12.5189L13.7225 11.7653L12.7116 14.5898L14.8168 15.3434L15.8278 12.5189ZM14.7333 11.9514L14.0233 13.1811L16.6214 14.6811L17.3314 13.4514L14.7333 11.9514ZM13.3574 12.4251L15.0722 13.8538L16.9925 11.5489L15.2776 10.1203L13.3574 12.4251ZM13 10C13 10.2972 12.9572 10.5817 12.8785 10.8492L15.7565 11.6962C15.9153 11.1566 16 10.5869 16 10H13ZM12.8937 9.20429C12.9627 9.45602 13 9.72246 13 10H16C16 9.4521 15.9262 8.91907 15.787 8.41141L12.8937 9.20429ZM15.0519 6.23731L13.3701 7.66395L15.3107 9.95175L16.9926 8.52511L15.0519 6.23731ZM14.0132 6.90145L14.7232 8.13121L17.3213 6.63121L16.6113 5.40145L14.0132 6.90145ZM13.784 8.31209L15.8302 7.55918L14.7943 4.74373L12.7481 5.49664L13.784 8.31209ZM10.7267 7.08825C11.2875 7.22754 11.7886 7.52619 12.1775 7.93642L14.3546 5.87231C13.582 5.05745 12.5805 4.4575 11.4498 4.1767L10.7267 7.08825ZM9.24182 3.75528L9.61011 5.88775L12.5663 5.3772L12.1981 3.24472L9.24182 3.75528Z" fill="#252534" mask="url(#path-1-inside-1)"/>
<path fill-rule="evenodd" clip-rule="evenodd" d="M10 13C11.6569 13 13 11.6569 13 10C13 8.34315 11.6569 7 10 7C8.34315 7 7 8.34315 7 10C7 11.6569 8.34315 13 10 13ZM10 11.5C10.8284 11.5 11.5 10.8284 11.5 10C11.5 9.17157 10.8284 8.5 10 8.5C9.17157 8.5 8.5 9.17157 8.5 10C8.5 10.8284 9.17157 11.5 10 11.5Z" fill="#252534"/>
</svg>
