<svg width="18" height="18" viewBox="0 0 18 18" fill="none" xmlns="http://www.w3.org/2000/svg">
<path fill-rule="evenodd" clip-rule="evenodd" d="M9.5 6.5V16.5H16.5V6.5H9.5ZM9 5C8.44772 5 8 5.44772 8 6V17C8 17.5523 8.44772 18 9 18H17C17.5523 18 18 17.5523 18 17V6C18 5.44772 17.5523 5 17 5H9Z" fill="#19191A"/>
<line x1="9.75" y1="9.25" x2="13.25" y2="9.25" stroke="#19191A" stroke-width="1.5" stroke-linecap="round"/>
<line x1="9.75" y1="13.25" x2="13.25" y2="13.25" stroke="#19191A" stroke-width="1.5" stroke-linecap="round"/>
<line x1="0.75" y1="5.75" x2="13.25" y2="5.75" stroke="#19191A" stroke-width="1.5" stroke-linecap="round"/>
<line x1="0.75" y1="5.75" x2="0.75" y2="10.25" stroke="#19191A" stroke-width="1.5" stroke-linecap="round"/>
<mask id="path-6-inside-1_15393_66131" fill="white">
<rect x="4" y="0.5" width="10" height="6" rx="1"/>
</mask>
<rect x="4" y="0.5" width="10" height="6" rx="1" stroke="#19191A" stroke-width="3" mask="url(#path-6-inside-1_15393_66131)"/>
</svg>
