<svg width="17" height="20" viewBox="0 0 17 20" fill="none" xmlns="http://www.w3.org/2000/svg">
<rect x="2.19922" y="8" width="1.65" height="6" fill="#19191A"/>
<rect x="16.5" y="14" width="1.5" height="16.5" rx="0.75" transform="rotate(90 16.5 14)" fill="#19191A"/>
<rect x="12.6484" y="8" width="1.65" height="6" fill="#19191A"/>
<rect x="8.80078" width="3" height="1.65" rx="0.825" transform="rotate(90 8.80078 0)" fill="#19191A"/>
<path fill-rule="evenodd" clip-rule="evenodd" d="M11.8643 14H9.89965C10.5067 14.4561 10.8994 15.1822 10.8994 16C10.8994 17.3807 9.78013 18.5 8.39941 18.5C7.0187 18.5 5.89941 17.3807 5.89941 16C5.89941 15.1822 6.29209 14.4561 6.89917 14H4.93455C4.5942 14.5883 4.39941 15.2714 4.39941 16C4.39941 18.2091 6.19028 20 8.39941 20C10.6086 20 12.3994 18.2091 12.3994 16C12.3994 15.2714 12.2046 14.5883 11.8643 14ZM3.85254 8.83594H2.25844C2.22005 8.56275 2.2002 8.28367 2.2002 8C2.2002 4.68629 4.90887 2 8.2502 2C11.5915 2 14.3002 4.68629 14.3002 8C14.3002 8.28367 14.2803 8.56275 14.2419 8.83594H12.6525V8H12.6522C12.6524 7.98151 12.6525 7.96299 12.6525 7.94444C12.6525 5.48985 10.6826 3.5 8.25254 3.5C5.82249 3.5 3.85254 5.48985 3.85254 7.94444C3.85254 7.96299 3.85265 7.98151 3.85288 8H3.85254V8.83594Z" fill="#19191A"/>
</svg>
