<svg width="36" height="36" viewBox="0 0 36 36" fill="none" xmlns="http://www.w3.org/2000/svg">
<circle cx="18" cy="18" r="17" stroke="url(#paint0_angular)" stroke-width="2"/>
<path fill-rule="evenodd" clip-rule="evenodd" d="M10 11.75V20.25L18 27.1667L26 20.25V11.75H22.5C20.5 11.75 18 8.75 18 8.75C18 8.75 15.5 11.75 13.5 11.75H10ZM11.5 13.0001V19.6668L18 25.5001L24.5 19.6668V13.0001L22 13.0002C20.3 13.0002 18 10.5001 18 10.5001C18 10.5001 15.7 13.0002 14 13.0002L11.5 13.0001Z" fill="#03BD5D"/>
<rect x="17.25" y="13.834" width="1.5" height="8.33333" fill="#03BD5D"/>
<path d="M13.8335 18.75L13.8335 17.25L22.1668 17.25L22.1668 18.75L13.8335 18.75Z" fill="#03BD5D"/>
<defs>
<radialGradient id="paint0_angular" cx="0" cy="0" r="1" gradientUnits="userSpaceOnUse" gradientTransform="translate(18 2.5) rotate(90) scale(33.5)">
<stop stop-color="#03BD5D"/>
<stop offset="1" stop-color="#03BD5D" stop-opacity="0"/>
</radialGradient>
</defs>
</svg>
