<svg width="16" height="16" viewBox="0 0 16 16" fill="none" xmlns="http://www.w3.org/2000/svg">
<path d="M7.08163 3.19098C7.38099 2.26967 8.68439 2.26967 8.98375 3.19098L9.60429 5.10081C9.73816 5.51283 10.1221 5.79179 10.5553 5.79179H12.5635C13.5322 5.79179 13.935 7.03141 13.1513 7.60081L11.5266 8.78115C11.1762 9.0358 11.0295 9.48716 11.1634 9.89918L11.7839 11.809C12.0833 12.7303 11.0288 13.4964 10.2451 12.927L8.62047 11.7467C8.26999 11.4921 7.79539 11.4921 7.4449 11.7467L5.8203 12.927C5.03659 13.4964 3.98211 12.7303 4.28147 11.809L4.90201 9.89919C5.03588 9.48716 4.88922 9.03579 4.53873 8.78115L2.91413 7.60081C2.13042 7.03141 2.53319 5.79179 3.50192 5.79179H5.51004C5.94326 5.79179 6.32722 5.51283 6.46109 5.10081L7.08163 3.19098Z" fill="#FFC700"/>
</svg>
