<svg width="16" height="16" viewBox="0 0 16 16" fill="none" xmlns="http://www.w3.org/2000/svg">
<path d="M7.5562 3.34549C7.70588 2.88484 8.35758 2.88483 8.50726 3.34549L9.1278 5.25532C9.32861 5.87336 9.90455 6.29179 10.5544 6.29179H12.5625C13.0468 6.29179 13.2482 6.9116 12.8564 7.1963L11.2318 8.37664C10.7061 8.75861 10.4861 9.43566 10.6869 10.0537L11.3074 11.9635C11.4571 12.4241 10.9299 12.8072 10.538 12.5225L8.91341 11.3422C8.38768 10.9602 7.67578 10.9602 7.15005 11.3422L5.52545 12.5225C5.1336 12.8072 4.60636 12.4242 4.75603 11.9635L5.37657 10.0537C5.57739 9.43566 5.3574 8.75861 4.83167 8.37664L3.20707 7.1963C2.81521 6.9116 3.0166 6.29179 3.50096 6.29179H5.50908C6.15892 6.29179 6.73485 5.87335 6.93566 5.25532L7.5562 3.34549Z" stroke="#999999"/>
</svg>
