<svg width="24" height="24" viewBox="0 0 24 24" fill="none" xmlns="http://www.w3.org/2000/svg">
<path fill-rule="evenodd" clip-rule="evenodd" d="M10.5 17C9.94771 17 9.5 17.4477 9.5 18C9.5 18.5523 9.94772 19 10.5 19L12.5 19C13.0523 19 13.5 18.5523 13.5 18C13.5 17.4477 13.0523 17 12.5 17L10.5 17ZM6.5 13C6.5 12.4477 6.94771 12 7.5 12L15.5 12C16.0523 12 16.5 12.4477 16.5 13C16.5 13.5523 16.0523 14 15.5 14L7.5 14C6.94772 14 6.5 13.5523 6.5 13ZM3.5 8C3.5 7.44771 3.94772 7 4.5 7L19.5 7C20.0523 7 20.5 7.44771 20.5 8C20.5 8.55228 20.0523 9 19.5 9L4.5 9C3.94772 9 3.5 8.55228 3.5 8Z" fill="#18b263"/>
</svg>
