<svg width="15" height="15" viewBox="0 0 10 10" fill="none" xmlns="http://www.w3.org/2000/svg">
<path fill-rule="evenodd" clip-rule="evenodd" d="M1.41208 1.63471C1.2168 1.82996 1.21681 2.14651 1.41208 2.34175L4.17562 5.10477L1.6353 7.64461C1.44002 7.83985 1.44002 8.1564 1.6353 8.35165C1.83058 8.54689 2.14719 8.54689 2.34247 8.35165L4.88279 5.81181L7.42306 8.3516C7.61833 8.54684 7.93495 8.54684 8.13023 8.3516C8.3255 8.15636 8.3255 7.83981 8.13023 7.64456L5.58996 5.10477L8.35344 2.3418C8.54872 2.14655 8.54872 1.83 8.35344 1.63476C8.15816 1.43952 7.84155 1.43952 7.64627 1.63476L4.88279 4.39773L2.11925 1.63471C1.92398 1.43947 1.60736 1.43947 1.41208 1.63471Z" fill="#EC801C"/>
</svg>