<svg width="14" height="15" viewBox="0 0 14 15" fill="none" xmlns="http://www.w3.org/2000/svg">
<path fill-rule="evenodd" clip-rule="evenodd" d="M1.65698 7.13623L5.89941 3.13623L6.74241 3.50003V5.37708C8.85019 5.83652 10.146 6.63003 10.9842 7.64614C11.8495 8.69509 12.1766 9.92901 12.4726 11.0459L12.4833 11.0862L11.6362 11.5573C10.4676 10.3178 9.55837 9.80845 8.76135 9.58927C8.09381 9.4057 7.4857 9.41404 6.76876 9.42388C6.75999 9.424 6.75121 9.42412 6.74241 9.42424V11.5L5.89941 11.8638L1.65698 7.86382V7.13623ZM2.72884 7.50003L5.74241 10.3414V8.9286L6.24241 8.4286C6.39443 8.4286 6.54881 8.42619 6.70546 8.42374C7.43271 8.41238 8.20902 8.40026 9.02651 8.62507C9.65239 8.79718 10.293 9.1018 10.9843 9.61851C10.7916 9.13885 10.5506 8.69196 10.2128 8.28248C9.51277 7.43391 8.34486 6.69101 6.14976 6.27708L5.74241 5.78574V4.65865L2.72884 7.50003Z" fill="#00A95B"/>
</svg>
