<svg width="24" height="24" viewBox="0 0 24 24" fill="none" xmlns="http://www.w3.org/2000/svg">
<path fill-rule="evenodd" clip-rule="evenodd" d="M19 4H5C4.44772 4 4 4.44772 4 5V19C4 19.5523 4.44772 20 5 20H19C19.5523 20 20 19.5523 20 19V5C20 4.44772 19.5523 4 19 4ZM5 3C3.89543 3 3 3.89543 3 5V19C3 20.1046 3.89543 21 5 21H19C20.1046 21 21 20.1046 21 19V5C21 3.89543 20.1046 3 19 3H5Z" fill="black" fill-opacity="0.7"/>
<mask id="mask0_2529_235960" style="mask-type:alpha" maskUnits="userSpaceOnUse" x="4" y="4" width="16" height="16">
<path d="M4 5.77778C4 4.79594 4.79594 4 5.77778 4H18.2222C19.2041 4 20 4.79594 20 5.77778V18.2222C20 19.2041 19.2041 20 18.2222 20H5.77778C4.79594 20 4 19.2041 4 18.2222V5.77778Z" fill="#06A452"/>
</mask>
<g mask="url(#mask0_2529_235960)">
<path fill-rule="evenodd" clip-rule="evenodd" d="M9.48193 11.6947L1.34289 19.3639L0.657104 18.6361L9.14716 10.6361L9.84136 10.6442L14.5081 15.2523L16.4071 13.463L17.1009 13.4707L22.3509 18.6438L21.6491 19.3562L16.7422 14.5212L14.8429 16.3109L14.1487 16.3028L9.48193 11.6947Z" fill="black" fill-opacity="0.7"/>
<path fill-rule="evenodd" clip-rule="evenodd" d="M16 7C15.4477 7 15 7.44772 15 8C15 8.55228 15.4477 9 16 9C16.5523 9 17 8.55228 17 8C17 7.44772 16.5523 7 16 7ZM14 8C14 6.89543 14.8954 6 16 6C17.1046 6 18 6.89543 18 8C18 9.10457 17.1046 10 16 10C14.8954 10 14 9.10457 14 8Z" fill="black" fill-opacity="0.7"/>
</g>
</svg>
