<svg width="24" height="24" viewBox="0 0 24 24" fill="none" xmlns="http://www.w3.org/2000/svg">
<rect x="3" y="3" width="18" height="18" rx="2" fill="#00005B"/>
<path fill-rule="evenodd" clip-rule="evenodd" d="M9.65564 8.1324L12.362 15.7617C12.3767 15.8033 12.3904 15.8656 12.3572 15.9219C12.319 15.9867 12.2475 16 12.1985 16H10.7943C10.7497 16 10.7049 15.9909 10.6644 15.968C10.6237 15.945 10.5941 15.9118 10.5739 15.8737L10.5704 15.8671L9.86467 13.8255H7.34945L6.68569 15.8277C6.6775 15.8746 6.65515 15.9208 6.61054 15.9544C6.56447 15.9892 6.50854 16 6.45641 16H5.20267C5.14858 16 5.07558 15.9878 5.03101 15.9277C4.98785 15.8696 4.99771 15.8014 5.01315 15.7529L5.01392 15.7505L7.43426 8.78812L7.43492 8.78641C7.48741 8.65213 7.52037 8.44868 7.52868 8.16946C7.52896 8.13069 7.53964 8.08378 7.5786 8.04706C7.61809 8.00984 7.66869 8 7.71014 8H9.46537C9.50409 8 9.54817 8.0075 9.58668 8.03343C9.6248 8.05909 9.6462 8.09518 9.65564 8.1324ZM7.71596 12.5026C8.15326 11.1576 8.4481 10.213 8.59917 9.67183C8.65466 9.85717 8.72144 10.0717 8.79948 10.3154C8.93331 10.7333 9.07967 11.1826 9.23856 11.6634C9.36328 12.0409 9.45426 12.3204 9.51167 12.5026H7.71596Z" fill="#9999FF"/>
<path d="M15.1685 10.1901C15.181 10.2196 15.1953 10.2763 15.2114 10.3485C15.2202 10.3879 15.2301 10.4346 15.2411 10.4885C15.728 10.1225 16.2821 9.93811 16.9003 9.93811C17.1539 9.93811 17.3955 9.97523 17.6246 10.05C17.8553 10.1252 18.075 10.2458 18.2839 10.4098C18.512 10.582 18.6841 10.8357 18.8054 11.1619C18.9363 11.4833 19 11.866 19 12.3073V15.8053C19 15.8523 18.9875 15.9059 18.9438 15.947C18.9001 15.9882 18.8433 16 18.7935 16H17.4645C17.4147 16 17.3578 15.9882 17.3141 15.947C17.2705 15.9059 17.2579 15.8523 17.2579 15.8053V12.2718C17.2579 11.9395 17.1778 11.6925 17.0305 11.5189L17.0288 11.517C16.895 11.351 16.688 11.2611 16.3863 11.2611C15.9969 11.2611 15.6663 11.4032 15.3892 11.6949V15.8053C15.3892 15.8523 15.3767 15.9059 15.333 15.947C15.2894 15.9882 15.2325 16 15.1827 16H13.8537C13.8039 16 13.7471 15.9882 13.7034 15.947C13.6597 15.9059 13.6472 15.8523 13.6472 15.8053V11.4918C13.6472 10.9928 13.6307 10.5809 13.5982 10.2553C13.5885 10.2137 13.5858 10.1568 13.6246 10.1082C13.6668 10.0551 13.7319 10.0445 13.7785 10.0445H14.9194C14.9704 10.0445 15.0215 10.0538 15.067 10.0788C15.1136 10.1044 15.1469 10.1426 15.1675 10.1879L15.1685 10.1901Z" fill="#9999FF"/>
</svg>
