<svg width="24" height="24" viewBox="0 0 24 24" fill="none" xmlns="http://www.w3.org/2000/svg">
<rect x="3" y="3" width="18" height="18" rx="2" fill="#00005B"/>
<path d="M10.2786 13.899H7.33817L6.74 15.7489C6.73182 15.7812 6.71208 15.8098 6.68418 15.8298C6.65628 15.8497 6.62197 15.8598 6.58714 15.8582H5.09785C5.01303 15.8582 4.98335 15.8137 5.00883 15.7246L7.55469 8.82665C7.58006 8.7538 7.60548 8.67081 7.63095 8.57766C7.66429 8.41561 7.68134 8.2509 7.68185 8.08576C7.68014 8.07421 7.68128 8.06244 7.68516 8.05138C7.68904 8.04031 7.69556 8.03026 7.70421 8.02202C7.71286 8.01377 7.7234 8.00756 7.735 8.00387C7.7466 8.00018 7.75894 7.99911 7.77105 8.00075H9.79484C9.85397 8.00075 9.88806 8.0211 9.89663 8.06149L12.786 15.7367C12.8114 15.8178 12.7859 15.8583 12.7096 15.8582H11.055C11.0266 15.8613 10.9979 15.8543 10.9745 15.8386C10.9511 15.823 10.9344 15.7997 10.9277 15.7732L10.2786 13.899ZM7.79642 12.6065H9.80761C9.75655 12.4446 9.69708 12.1124 9.62922 11.9098C9.56136 11.7076 9.48924 11.491 9.41287 11.2601C9.3366 11.0294 9.26023 10.7986 9.18375 10.5678C9.10749 10.337 9.0375 10.1144 8.97378 9.8998C8.91028 9.68534 8.85306 9.489 8.80211 9.31078H8.78932C8.71766 9.6388 8.6284 9.9631 8.52191 10.2824C8.40298 10.6468 8.28203 11.0192 8.15907 11.3998C8.03612 11.7804 7.91517 12.2827 7.79642 12.6065Z" fill="#9999FF"/>
<path d="M17.4534 13.2363H14.9458C14.9823 13.4825 15.0703 13.719 15.2047 13.932C15.347 14.1345 15.5483 14.2928 15.7837 14.3875C16.1085 14.5265 16.4605 14.5977 16.8164 14.5965C17.0547 14.602 17.293 14.5842 17.5275 14.5432C17.7834 14.4996 18.0332 14.4283 18.2722 14.3307C18.3145 14.2984 18.3357 14.3186 18.3358 14.3913V15.5452C18.3379 15.5766 18.3313 15.6081 18.3167 15.6363C18.3021 15.6584 18.2826 15.6771 18.2594 15.691C17.9958 15.8099 17.7179 15.8976 17.4319 15.9521C17.0906 15.9981 16.7452 16.011 16.4011 15.9907C15.882 16.006 15.3654 15.9148 14.8864 15.7234C14.5015 15.5616 14.1615 15.3163 13.8935 15.0069C13.6433 14.7153 13.4572 14.3787 13.3462 14.017C13.2364 13.6601 13.1807 13.2899 13.1808 12.9179C13.1796 12.5117 13.2462 12.1078 13.3781 11.7216C13.505 11.3448 13.7059 10.9945 13.9699 10.6893C14.2303 10.3876 14.5559 10.1432 14.9245 9.97273C15.3391 9.79023 15.792 9.70088 16.2484 9.71156C16.6929 9.70577 17.1338 9.7888 17.5426 9.95532C17.8694 10.0965 18.1554 10.3111 18.3763 10.5808C18.5848 10.8375 18.7442 11.1274 18.8471 11.437C18.9474 11.7354 18.999 12.0467 19 12.36C19 12.5382 18.9936 12.7001 18.9809 12.8458C18.9702 12.9326 18.9539 13.0187 18.9319 13.1035C18.9286 13.1303 18.9152 13.155 18.894 13.1729C18.8729 13.1909 18.8456 13.2008 18.8174 13.2007C18.7666 13.2007 18.6794 13.2068 18.5567 13.2189C18.4334 13.2311 18.2148 13.2262 18.0326 13.2303C17.8498 13.2344 17.6568 13.2364 17.4534 13.2363ZM14.9387 12.2714H16.606C16.8098 12.2714 16.9604 12.2694 17.0579 12.2654C17.1199 12.2654 17.1818 12.2593 17.2425 12.2471V12.1743C17.2498 12.029 17.2408 11.8833 17.2158 11.7398C17.1471 11.5326 17.009 11.3526 16.8227 11.2276C16.6364 11.1025 16.4123 11.0393 16.1847 11.0475C15.9705 11.0352 15.7571 11.0826 15.5707 11.184C15.3842 11.2853 15.2327 11.4363 15.1345 11.6184C15.039 11.8267 14.9731 12.0464 14.9387 12.2714Z" fill="#9999FF"/>
</svg>
