<svg width="24" height="24" viewBox="0 0 24 24" fill="none" xmlns="http://www.w3.org/2000/svg">
<path d="M17.7143 4H9V9M17.7143 4L21 7.5M17.7143 4V7.5H21M21 7.5V20H9V17" stroke="black" stroke-opacity="0.7" stroke-linejoin="bevel"/>
<path d="M2 9H18V17H2V13V9Z" fill="black" fill-opacity="0.7"/>
<path d="M6.84321 14.982V15.9198H3.79461V14.982H6.84321ZM4.18011 10.0842V15.9198H3V10.0842H4.18011ZM6.44591 12.4609V13.3747H3.79461V12.4609H6.44591ZM6.83928 10.0842V11.0261H3.79461V10.0842H6.83928Z" fill="white"/>
<path d="M10.1711 10.0842V15.9198H8.99494V10.0842H10.1711ZM11.9334 10.0842V11.0261H7.26019V10.0842H11.9334Z" fill="white"/>
<path d="M15.816 13.984H16.9921C16.9685 14.3768 16.8623 14.7255 16.6735 15.0301C16.4873 15.3347 16.2264 15.5725 15.8907 15.7435C15.5576 15.9145 15.1564 16 14.687 16C14.3198 16 13.9907 15.9359 13.6996 15.8076C13.4085 15.6767 13.1594 15.4896 12.9522 15.2465C12.7477 15.0033 12.5916 14.7094 12.4841 14.3647C12.3766 14.02 12.3228 13.6339 12.3228 13.2064V12.8016C12.3228 12.3741 12.3779 11.988 12.4881 11.6433C12.6008 11.2959 12.7608 11.0007 12.968 10.7575C13.1778 10.5144 13.4282 10.3273 13.7193 10.1964C14.0104 10.0655 14.3356 10 14.6949 10C15.1721 10 15.5747 10.0882 15.9025 10.2645C16.2329 10.4409 16.4886 10.684 16.6696 10.994C16.8531 11.3039 16.9633 11.6566 17 12.0521H15.8199C15.8068 11.817 15.7609 11.6179 15.6822 11.4549C15.6035 11.2892 15.4842 11.165 15.3242 11.0822C15.1669 10.9967 14.9571 10.9539 14.6949 10.9539C14.4982 10.9539 14.3264 10.9913 14.1795 11.0661C14.0327 11.1409 13.9094 11.2545 13.8098 11.4068C13.7101 11.5591 13.6354 11.7515 13.5856 11.984C13.5384 12.2138 13.5148 12.4836 13.5148 12.7936V13.2064C13.5148 13.5084 13.537 13.7742 13.5816 14.004C13.6262 14.2311 13.6944 14.4235 13.7862 14.5812C13.8806 14.7361 14.0012 14.8537 14.1481 14.9339C14.2976 15.0114 14.4772 15.0501 14.687 15.0501C14.9335 15.0501 15.1367 15.01 15.2967 14.9299C15.4567 14.8497 15.5786 14.7308 15.6625 14.5731C15.7491 14.4155 15.8002 14.2191 15.816 13.984Z" fill="white"/>
</svg>
