<svg width="24" height="24" viewBox="0 0 24 24" fill="none" xmlns="http://www.w3.org/2000/svg">
<rect x="3" y="3" width="18" height="18" rx="2" fill="#470137"/>
<path d="M12.5255 8.60154L10.3834 11.9744L12.6754 15.6257C12.69 15.6515 12.6941 15.6817 12.6869 15.7102C12.679 15.7366 12.6523 15.7536 12.6062 15.7609H10.9709C10.9239 15.7656 10.8765 15.7575 10.8338 15.7377C10.7912 15.7178 10.755 15.6869 10.7291 15.6482C10.5752 15.3553 10.4217 15.0858 10.2682 14.7966C10.1147 14.5075 9.9516 14.2127 9.77884 13.9122C9.6062 13.6119 9.43537 13.3077 9.26635 12.9996H9.2548C9.10115 13.3001 8.94187 13.6006 8.77696 13.9009C8.61161 14.2014 8.44843 14.5 8.28742 14.7966C8.12617 15.0934 7.96111 15.3666 7.79211 15.6595C7.77962 15.6909 7.75732 15.7176 7.72838 15.7358C7.69944 15.754 7.66536 15.7628 7.631 15.7609H6.0531C6.04663 15.7616 6.04008 15.7609 6.03388 15.759C6.02769 15.757 6.02198 15.7538 6.01712 15.7496C6.01226 15.7453 6.00835 15.7401 6.00565 15.7343C6.00295 15.7285 6.00151 15.7222 6.00143 15.7159C5.99695 15.6884 6.00307 15.6603 6.01861 15.637L8.24138 12.087L6.0762 8.59024C6.05309 8.56036 6.04945 8.5359 6.06465 8.51702C6.07316 8.50741 6.08384 8.49986 6.09583 8.49498C6.10783 8.49009 6.12083 8.48799 6.1338 8.48884H7.75775C7.79315 8.48695 7.82855 8.49274 7.8614 8.50579C7.88887 8.52109 7.91246 8.54225 7.9304 8.56771C8.0687 8.8682 8.22221 9.08284 8.39107 9.3831C8.55993 9.68365 8.73076 9.98034 8.90356 10.2732C9.07637 10.5661 9.2357 10.8628 9.38155 11.1632H9.3931C9.54661 10.8553 9.70203 10.5549 9.85938 10.2619C10.0168 9.96896 10.1781 9.67415 10.3431 9.37751C10.5082 9.0809 10.6673 8.8719 10.8211 8.57901C10.8299 8.55117 10.8457 8.52597 10.8672 8.50578C10.8956 8.49164 10.9276 8.48575 10.9593 8.48883H12.4681C12.4826 8.48534 12.4979 8.4868 12.5115 8.49296C12.5251 8.49912 12.5361 8.50961 12.5428 8.52272C12.5495 8.53583 12.5514 8.55077 12.5483 8.56509C12.5451 8.57941 12.5371 8.59227 12.5255 8.60154Z" fill="#FF61F6"/>
<path d="M15.7141 15.9996C15.184 16.0075 14.6588 15.8997 14.1767 15.6841C13.7274 15.4807 13.3519 15.1488 13.0997 14.7321C12.8226 14.2457 12.6872 13.6943 12.7082 13.1379C12.7038 12.6208 12.8389 12.1118 13.0997 11.662C13.3684 11.2039 13.7635 10.8291 14.2399 10.5805C14.7973 10.2965 15.4198 10.1568 16.048 10.1749C16.0865 10.1749 16.1364 10.1768 16.1977 10.1805C16.2591 10.1844 16.3899 10.19 16.4744 10.1974V8.20414C16.4678 8.15682 16.4805 8.10884 16.5098 8.07063C16.5391 8.03241 16.5826 8.00703 16.6309 8H17.7455C17.8007 8.00016 17.8536 8.02167 17.8926 8.05983C17.9316 8.09799 17.9536 8.14971 17.9537 8.20368V14.6251C17.9537 14.7528 17.9595 14.8918 17.9709 15.042C17.9825 15.1923 17.9921 15.3274 17.9998 15.4475C18.0012 15.4709 17.9954 15.4941 17.9831 15.5142C17.9708 15.5343 17.9525 15.5504 17.9308 15.5602C17.5743 15.7125 17.2016 15.8259 16.8197 15.8982C16.455 15.964 16.085 15.998 15.7141 15.9996ZM16.4476 14.6025V11.5268C16.3749 11.5105 16.301 11.4993 16.2266 11.4931C16.1482 11.4853 16.0693 11.4815 15.9904 11.4818C15.711 11.479 15.4348 11.5408 15.1843 11.662C14.916 11.7872 14.6923 11.9884 14.5423 12.2396C14.3924 12.4907 14.3231 12.7801 14.3435 13.0703C14.338 13.3159 14.379 13.5604 14.4645 13.7913C14.5341 13.9775 14.6441 14.1466 14.787 14.2871C14.9238 14.4163 15.0893 14.5127 15.2706 14.5687C15.4622 14.6294 15.6624 14.6598 15.8637 14.6589C15.9713 14.6589 16.0711 14.6551 16.1632 14.6476C16.2593 14.6412 16.3545 14.6261 16.4476 14.6025Z" fill="#FF61F6"/>
</svg>
