<svg width="44" height="44" viewBox="0 0 44 44" fill="none" xmlns="http://www.w3.org/2000/svg">
<path d="M0 4C0 1.79086 1.79086 0 4 0H40C42.2091 0 44 1.79086 44 4V40C44 42.2091 42.2091 44 40 44H4C1.79086 44 0 42.2091 0 40V4Z" fill="#0796FF" fill-opacity="0.8"/>
<path d="M13.3037 11.2393H14.2412C14.1924 11.6885 14.0638 12.0905 13.8555 12.4453C13.6471 12.8001 13.3525 13.0817 12.9717 13.29C12.5908 13.4951 12.1156 13.5977 11.5459 13.5977C11.1292 13.5977 10.75 13.5195 10.4082 13.3633C10.0697 13.207 9.77832 12.9857 9.53418 12.6992C9.29004 12.4095 9.10124 12.0628 8.96777 11.6592C8.83757 11.2523 8.77246 10.7998 8.77246 10.3018V9.59375C8.77246 9.0957 8.83757 8.64486 8.96777 8.24121C9.10124 7.83431 9.29167 7.486 9.53906 7.19629C9.78971 6.90658 10.0908 6.68359 10.4424 6.52734C10.7939 6.37109 11.1895 6.29297 11.6289 6.29297C12.166 6.29297 12.6201 6.39388 12.9912 6.5957C13.3623 6.79753 13.6504 7.07747 13.8555 7.43555C14.0638 7.79036 14.1924 8.20215 14.2412 8.6709H13.3037C13.2581 8.33887 13.1735 8.05404 13.0498 7.81641C12.9261 7.57552 12.7503 7.38997 12.5225 7.25977C12.2946 7.12956 11.9967 7.06445 11.6289 7.06445C11.3132 7.06445 11.0348 7.12467 10.7939 7.24512C10.5563 7.36556 10.3561 7.53646 10.1934 7.75781C10.0339 7.97917 9.91341 8.24447 9.83203 8.55371C9.75065 8.86296 9.70996 9.20638 9.70996 9.58398V10.3018C9.70996 10.6501 9.74577 10.9772 9.81738 11.2832C9.89225 11.5892 10.0046 11.8577 10.1543 12.0889C10.304 12.32 10.4945 12.5023 10.7256 12.6357C10.9567 12.766 11.2301 12.8311 11.5459 12.8311C11.9463 12.8311 12.2653 12.7676 12.5029 12.6406C12.7406 12.5137 12.9196 12.3314 13.04 12.0938C13.1637 11.8561 13.2516 11.5713 13.3037 11.2393ZM16.292 6V13.5H15.3887V6H16.292ZM16.0771 10.6582L15.7012 10.6436C15.7044 10.2822 15.7581 9.94857 15.8623 9.64258C15.9665 9.33333 16.113 9.06478 16.3018 8.83691C16.4906 8.60905 16.7152 8.43327 16.9756 8.30957C17.2393 8.18262 17.5306 8.11914 17.8496 8.11914C18.11 8.11914 18.3444 8.15495 18.5527 8.22656C18.7611 8.29492 18.9385 8.4056 19.085 8.55859C19.2347 8.71159 19.3486 8.91016 19.4268 9.1543C19.5049 9.39518 19.5439 9.68978 19.5439 10.0381V13.5H18.6357V10.0283C18.6357 9.75163 18.5951 9.53027 18.5137 9.36426C18.4323 9.19499 18.3135 9.07292 18.1572 8.99805C18.001 8.91992 17.8089 8.88086 17.5811 8.88086C17.3564 8.88086 17.1514 8.92806 16.9658 9.02246C16.7835 9.11686 16.6257 9.24707 16.4922 9.41309C16.362 9.5791 16.2594 9.76953 16.1846 9.98438C16.113 10.196 16.0771 10.4206 16.0771 10.6582ZM23.0889 13.5977C22.721 13.5977 22.3874 13.5358 22.0879 13.4121C21.7917 13.2852 21.5361 13.1077 21.3213 12.8799C21.1097 12.652 20.9469 12.3818 20.833 12.0693C20.7191 11.7568 20.6621 11.415 20.6621 11.0439V10.8389C20.6621 10.4092 20.7256 10.0267 20.8525 9.69141C20.9795 9.35286 21.152 9.06641 21.3701 8.83203C21.5882 8.59766 21.8356 8.42025 22.1123 8.2998C22.389 8.17936 22.6755 8.11914 22.9717 8.11914C23.3493 8.11914 23.6748 8.18424 23.9482 8.31445C24.2249 8.44466 24.4512 8.62695 24.627 8.86133C24.8027 9.09245 24.9329 9.36589 25.0176 9.68164C25.1022 9.99414 25.1445 10.3359 25.1445 10.707V11.1123H21.1992V10.375H24.2412V10.3066C24.2282 10.0723 24.1794 9.8444 24.0947 9.62305C24.0133 9.40169 23.8831 9.2194 23.7041 9.07617C23.5251 8.93294 23.2809 8.86133 22.9717 8.86133C22.7666 8.86133 22.5778 8.90527 22.4053 8.99316C22.2327 9.0778 22.0846 9.20475 21.9609 9.37402C21.8372 9.54329 21.7412 9.75 21.6729 9.99414C21.6045 10.2383 21.5703 10.5199 21.5703 10.8389V11.0439C21.5703 11.2946 21.6045 11.5306 21.6729 11.752C21.7445 11.9701 21.847 12.1621 21.9805 12.3281C22.1172 12.4941 22.2816 12.6243 22.4736 12.7188C22.6689 12.8132 22.8903 12.8604 23.1377 12.8604C23.4567 12.8604 23.7269 12.7952 23.9482 12.665C24.1696 12.5348 24.3633 12.3607 24.5293 12.1426L25.0762 12.5771C24.9622 12.7497 24.8174 12.9141 24.6416 13.0703C24.4658 13.2266 24.2493 13.3535 23.9922 13.4512C23.7383 13.5488 23.4372 13.5977 23.0889 13.5977ZM28.3135 12.8555C28.5283 12.8555 28.7269 12.8115 28.9092 12.7236C29.0915 12.6357 29.2412 12.5153 29.3584 12.3623C29.4756 12.2061 29.5423 12.0286 29.5586 11.8301H30.418C30.4017 12.1426 30.2959 12.4339 30.1006 12.7041C29.9085 12.971 29.6562 13.1875 29.3438 13.3535C29.0312 13.5163 28.6878 13.5977 28.3135 13.5977C27.9163 13.5977 27.5697 13.5277 27.2734 13.3877C26.9805 13.2477 26.7363 13.0557 26.541 12.8115C26.349 12.5674 26.2041 12.2874 26.1064 11.9717C26.012 11.6527 25.9648 11.3158 25.9648 10.9609V10.7559C25.9648 10.401 26.012 10.0658 26.1064 9.75C26.2041 9.43099 26.349 9.14941 26.541 8.90527C26.7363 8.66113 26.9805 8.46908 27.2734 8.3291C27.5697 8.18913 27.9163 8.11914 28.3135 8.11914C28.7269 8.11914 29.0882 8.20378 29.3975 8.37305C29.7067 8.53906 29.9492 8.76693 30.125 9.05664C30.304 9.3431 30.4017 9.66862 30.418 10.0332H29.5586C29.5423 9.8151 29.4805 9.61816 29.373 9.44238C29.2689 9.2666 29.1257 9.12663 28.9434 9.02246C28.7643 8.91504 28.5544 8.86133 28.3135 8.86133C28.0368 8.86133 27.804 8.91667 27.6152 9.02734C27.4297 9.13477 27.2816 9.28125 27.1709 9.4668C27.0635 9.64909 26.9854 9.85254 26.9365 10.0771C26.891 10.2985 26.8682 10.5247 26.8682 10.7559V10.9609C26.8682 11.1921 26.891 11.4199 26.9365 11.6445C26.9821 11.8691 27.0586 12.0726 27.166 12.2549C27.2767 12.4372 27.4248 12.5837 27.6104 12.6943C27.7992 12.8018 28.0335 12.8555 28.3135 12.8555ZM32.3418 6V13.5H31.4336V6H32.3418ZM35.5693 8.2168L33.2646 10.6826L31.9756 12.0205L31.9023 11.0586L32.8252 9.95508L34.4658 8.2168H35.5693ZM34.7441 13.5L32.8594 10.9805L33.3281 10.1748L35.8086 13.5H34.7441Z" fill="white"/>
<path d="M20.5159 31.3333L20.1706 31.695H20.8611L20.5159 31.3333ZM30 28.5C30 32.9183 26.4183 36.5 22 36.5V37.5C26.9706 37.5 31 33.4706 31 28.5H30ZM22 36.5C17.5817 36.5 14 32.9183 14 28.5H13C13 33.4706 17.0294 37.5 22 37.5V36.5ZM14 28.5C14 24.0817 17.5817 20.5 22 20.5V19.5C17.0294 19.5 13 23.5294 13 28.5H14ZM22 20.5C26.4183 20.5 30 24.0817 30 28.5H31C31 23.5294 26.9706 19.5 22 19.5V20.5ZM17.2024 28.8617L20.1706 31.695L20.8611 30.9717L17.8929 28.1383L17.2024 28.8617ZM20.8611 31.695L26.7976 26.0283L26.1071 25.305L20.1706 30.9717L20.8611 31.695Z" fill="white"/>
<path d="M4 2H40V-2H4V2ZM42 4V40H46V4H42ZM40 42H4V46H40V42ZM2 40V4H-2V40H2ZM4 42C2.89543 42 2 41.1046 2 40H-2C-2 43.3137 0.68629 46 4 46V42ZM42 40C42 41.1046 41.1046 42 40 42V46C43.3137 46 46 43.3137 46 40H42ZM40 2C41.1046 2 42 2.89543 42 4H46C46 0.686293 43.3137 -2 40 -2V2ZM4 -2C0.686293 -2 -2 0.68629 -2 4H2C2 2.89543 2.89543 2 4 2V-2Z" fill="#0796FF"/>
</svg>
